<?xml version="1.0" standalone="no"?>
<!DOCTYPE svg PUBLIC "-//W3C//DTD SVG 1.1//EN" "http://www.w3.org/Graphics/SVG/1.1/DTD/svg11.dtd">
<svg width="100%" height="100%" viewBox="0 0 734 158" version="1.1" xmlns="http://www.w3.org/2000/svg" xmlns:xlink="http://www.w3.org/1999/xlink" xml:space="preserve" style="fill-rule:evenodd;clip-rule:evenodd;stroke-linejoin:round;stroke-miterlimit:1.41421;">
    <g transform="matrix(1,0,0,1,-15.072,-366.614)">
        <path d="M421.619,406.464L422.496,405.618C424.146,407.35 426.226,408.729 428.734,409.757C431.241,410.783 433.795,411.297 436.392,411.297C440.462,411.297 443.72,410.457 446.166,408.777C448.613,407.096 449.838,404.848 449.838,402.028L449.838,401.877C449.838,400.369 449.555,399.03 448.991,397.862C448.406,396.654 447.615,395.674 446.618,394.92C445.62,394.165 444.476,393.5 443.187,392.926C441.897,392.353 440.539,391.85 439.115,391.418C437.69,390.985 436.256,390.55 434.812,390.112C433.368,389.673 431.997,389.152 430.698,388.548C429.398,387.943 428.25,387.238 427.254,386.433C426.256,385.628 425.461,384.586 424.867,383.306C424.272,382.027 423.975,380.552 423.975,378.88C423.975,375.96 425.229,373.629 427.737,371.886C430.245,370.144 433.583,369.273 437.753,369.273C439.746,369.273 441.79,369.566 443.886,370.149C445.98,370.733 447.772,371.499 449.263,372.444L448.659,373.442C447.268,372.556 445.582,371.846 443.598,371.312C441.614,370.778 439.666,370.511 437.753,370.511C433.945,370.511 430.904,371.271 428.628,372.79C426.351,374.31 425.214,376.336 425.214,378.87C425.214,380.4 425.512,381.752 426.106,382.929C426.701,384.107 427.497,385.057 428.495,385.78C429.492,386.505 430.641,387.149 431.941,387.712C433.242,388.275 434.609,388.775 436.044,389.21C437.477,389.646 438.912,390.081 440.347,390.516C441.781,390.951 443.142,391.481 444.431,392.106C445.72,392.732 446.861,393.456 447.859,394.282C448.855,395.109 449.646,396.177 450.229,397.487C450.794,398.757 451.076,400.209 451.076,401.841L451.076,402.023C451.076,405.205 449.741,407.752 447.072,409.666C444.403,411.58 440.844,412.536 436.392,412.536C433.693,412.536 431.01,411.983 428.342,410.875C425.672,409.768 423.431,408.297 421.619,406.464" style="fill:rgb(232,150,52);fill-rule:nonzero;"/>
        <path d="M460.2,396.524C460.2,400.874 461.544,404.424 464.232,407.174C466.923,409.923 470.35,411.297 474.52,411.297C478.67,411.297 482.088,409.923 484.777,407.174C487.467,404.424 488.81,400.874 488.81,396.524C488.81,392.214 487.467,388.679 484.777,385.919C482.088,383.16 478.67,381.78 474.52,381.78C470.371,381.78 466.947,383.16 464.249,385.919C461.55,388.679 460.2,392.214 460.2,396.524M458.962,396.524C458.962,391.891 460.436,388.07 463.388,385.058C466.338,382.047 470.049,380.542 474.52,380.542C478.991,380.542 482.697,382.047 485.638,385.058C488.579,388.07 490.049,391.891 490.049,396.524C490.049,401.176 488.579,405.008 485.638,408.02C482.697,411.031 478.991,412.536 474.52,412.536C470.049,412.536 466.338,411.031 463.388,408.02C460.436,405.008 458.962,401.176 458.962,396.524" style="fill:rgb(232,150,52);fill-rule:nonzero;"/>
        <path d="M496.455,396.524C496.455,391.891 497.93,388.07 500.881,385.058C503.831,382.047 507.542,380.542 512.014,380.542C514.108,380.542 516.092,380.915 517.966,381.659C519.839,382.405 521.479,383.452 522.89,384.801L522.074,385.678C519.214,383.079 515.86,381.78 512.014,381.78C507.844,381.78 504.405,383.16 501.696,385.919C498.987,388.679 497.633,392.214 497.633,396.524C497.633,400.855 498.987,404.399 501.696,407.158C504.405,409.918 507.844,411.297 512.014,411.297C516.465,411.297 520.05,409.746 522.769,406.645L523.585,407.522C522.175,409.112 520.477,410.346 518.494,411.222C516.51,412.098 514.35,412.536 512.014,412.536C507.542,412.536 503.831,411.031 500.881,408.02C497.93,405.008 496.455,401.176 496.455,396.524" style="fill:rgb(232,150,52);fill-rule:nonzero;"/>
        <path d="M534.491,380.542L535.729,380.542L535.729,412.537L534.491,412.537L534.491,380.542ZM533.993,372.46C533.68,372.148 533.524,371.771 533.524,371.327C533.524,370.885 533.68,370.506 533.993,370.193C534.304,369.882 534.683,369.726 535.125,369.726C535.568,369.726 535.945,369.882 536.259,370.193C536.57,370.506 536.728,370.885 536.728,371.327C536.728,371.771 536.57,372.148 536.259,372.46C535.945,372.772 535.568,372.929 535.125,372.929C534.683,372.929 534.304,372.772 533.993,372.46" style="fill:rgb(232,150,52);fill-rule:nonzero;"/>
        <path d="M547.664,403.321C547.664,405.699 548.504,407.621 550.185,409.092C551.867,410.562 554.099,411.297 556.878,411.297C563.444,411.297 567.905,408.367 570.262,402.506L570.171,396.312L558.299,396.312C554.914,396.312 552.296,396.926 550.442,398.154C548.59,399.384 547.664,401.105 547.664,403.321M546.425,403.321C546.425,400.743 547.482,398.724 549.597,397.263C551.712,395.803 554.612,395.073 558.299,395.073L570.171,395.073L570.171,391.176C570.131,388.175 569.265,385.859 567.573,384.227C565.881,382.595 563.373,381.779 560.05,381.779C556.385,381.779 552.648,383.271 548.842,386.252L548.087,385.255C552.055,382.112 556.042,380.541 560.05,380.541C563.676,380.541 566.466,381.488 568.419,383.382C570.373,385.275 571.369,387.873 571.409,391.176L571.561,412.536L570.322,412.536L570.262,405.285C568.873,407.722 567.024,409.54 564.718,410.738C562.412,411.937 559.778,412.536 556.817,412.536C553.736,412.536 551.233,411.67 549.31,409.937C547.387,408.206 546.425,406 546.425,403.321" style="fill:rgb(232,150,52);fill-rule:nonzero;"/>
        <rect x="584.401" y="366.614" width="1.208" height="45.922" style="fill:rgb(232,150,52);fill-rule:nonzero;"/>
        <clipPath id="_clip1">
            <rect x="260.308" y="391.224" width="107.125" height="131.292"/>
        </clipPath>
        <g clip-path="url(#_clip1)">
            <path d="M266.444,502.99C266.444,502.99 253.838,491.886 264.76,480.969C273.439,472.288 281.304,481.839 281.304,481.839C290.262,491.175 300.165,498.506 317.698,498.506C332.75,498.506 339.801,491.835 339.801,484.407C339.801,462.301 266.63,477.737 266.63,429.905C266.63,408.755 284.926,391.224 314.842,391.224C335.04,391.224 351.812,397.319 364.389,408.946L349.328,429.142C339.04,419.617 325.318,415.233 312.361,415.233C300.928,415.233 294.453,420.187 294.453,427.809C294.453,447.82 367.433,434.288 367.433,481.738C367.433,504.984 350.664,522.515 316.555,522.515C291.978,522.515 278.447,514.998 266.444,502.99" style="fill:rgb(96,200,147);fill-rule:nonzero;"/>
        </g>
        <clipPath id="_clip2">
            <rect x="443.127" y="425.906" width="53.546" height="94.323"/>
        </clipPath>
        <g clip-path="url(#_clip2)">
            <path d="M443.127,520.23L443.127,428.192L467.33,428.192L467.33,440.577C473.999,432.575 485.239,425.907 496.673,425.907L496.673,449.533C494.96,449.152 492.868,448.963 490.001,448.963C482.002,448.963 471.331,453.534 467.33,459.44L467.33,520.23L443.127,520.23Z" style="fill:rgb(96,200,147);fill-rule:nonzero;"/>
        </g>
        <clipPath id="_clip3">
            <rect x="381.4" y="402.594" width="51.251" height="119.477"/>
        </clipPath>
        <g clip-path="url(#_clip3)">
            <path d="M381.4,496.729L381.4,448.899L381.4,427.75L381.4,402.594L405.605,402.594L405.605,427.75L424.276,427.75C424.276,427.75 425.316,437.79 420.931,443.182C414.697,450.85 405.605,448.899 405.605,448.899L405.605,490.254C405.605,496.161 408.655,500.542 413.986,500.542C417.605,500.542 420.696,498.817 422.368,497.679C424.703,496.098 432.658,487.944 432.651,504.599C432.648,512.661 427.523,516.165 427.523,516.165C423.895,519.404 417.42,522.072 407.316,522.072C390.358,522.072 381.4,513.303 381.4,496.729" style="fill:rgb(96,200,147);fill-rule:nonzero;"/>
        </g>
        <clipPath id="_clip4">
            <rect x="603.857" y="402.594" width="51.248" height="119.477"/>
        </clipPath>
        <g clip-path="url(#_clip4)">
            <path d="M603.857,496.729L603.857,448.899L603.857,427.75L603.857,402.594L628.057,402.594L628.057,427.75L646.73,427.75C646.73,427.75 647.769,437.79 643.382,443.182C637.152,450.85 628.057,448.899 628.057,448.899L628.057,490.254C628.057,496.161 631.108,500.542 636.441,500.542C640.06,500.542 643.149,498.817 644.823,497.679C647.156,496.098 655.113,487.944 655.105,504.599C655.102,512.661 649.975,516.165 649.975,516.165C646.346,519.404 639.873,522.072 629.77,522.072C612.814,522.072 603.857,513.303 603.857,496.729" style="fill:rgb(96,200,147);fill-rule:nonzero;"/>
        </g>
        <clipPath id="_clip5">
            <rect x="663.206" y="425.906" width="85.369" height="96.61"/>
        </clipPath>
        <g clip-path="url(#_clip5)">
            <path d="M722.647,491.93C722.647,484.709 709.004,478.501 701.192,478.501C691.668,478.501 683.853,483.645 683.853,492.409C683.853,501.172 691.668,506.127 701.192,506.127C709.004,506.127 722.647,500.146 722.647,491.93M724.185,520.23L724.185,510.509C717.894,518.133 707.033,522.516 695.032,522.516C680.353,522.516 663.206,512.608 663.206,492.029C663.206,470.304 680.353,462.301 695.032,462.301C707.415,462.301 718.081,466.305 724.185,473.542L724.185,461.918C724.185,452.583 716.177,446.484 703.981,446.484C698.362,446.484 694.162,447.62 689.105,450.062C685.426,451.843 682.95,453.777 678.728,452.695C674.629,451.646 671.355,445.845 671.355,445.845C671.355,445.845 667.805,440.389 675.199,435.405C682.595,430.418 697.425,425.907 708.176,425.907C729.326,425.907 748.575,434.288 748.575,460.774L748.575,502.085C748.575,502.085 748.575,520.23 731.537,520.23L724.185,520.23Z" style="fill:rgb(96,200,147);fill-rule:nonzero;"/>
        </g>
        <clipPath id="_clip6">
            <rect x="503.468" y="425.906" width="85.367" height="96.61"/>
        </clipPath>
        <g clip-path="url(#_clip6)">
            <path d="M562.908,491.93C562.908,484.709 549.266,478.501 541.456,478.501C531.929,478.501 524.115,483.645 524.115,492.409C524.115,501.172 531.929,506.127 541.456,506.127C549.266,506.127 562.908,500.146 562.908,491.93M564.442,520.23L564.442,510.509C558.153,518.133 547.292,522.516 535.291,522.516C520.612,522.516 503.468,512.608 503.468,492.029C503.468,470.304 520.612,462.301 535.291,462.301C547.673,462.301 558.342,466.305 564.442,473.542L564.442,461.918C564.442,452.583 556.434,446.484 544.241,446.484C538.622,446.484 534.424,447.62 529.363,450.062C525.687,451.843 523.21,453.777 518.988,452.695C514.889,451.646 511.617,445.845 511.617,445.845C511.617,445.845 508.065,440.389 515.458,435.405C522.851,430.418 537.683,425.907 548.436,425.907C569.588,425.907 588.835,434.288 588.835,460.774L588.835,502.085C588.835,502.085 588.835,520.23 571.797,520.23L564.442,520.23Z" style="fill:rgb(96,200,147);fill-rule:nonzero;"/>
        </g>
        <clipPath id="_clip7">
            <path d="M170.392,393.647L226.332,449.584L170.392,505.521L159.51,494.644L204.572,449.584L159.51,404.525L170.392,393.647ZM130.012,434.025L145.569,449.584L130.012,465.143L114.456,449.584L130.012,434.025ZM100.514,494.644L89.633,505.521L33.692,449.584L89.633,393.647L100.51,404.525L55.455,449.584L100.514,494.644ZM244.948,449.584L170.392,375.026L95.833,449.584L120.702,474.451L109.825,485.332L74.075,449.584L139.26,384.271L130.012,375.026L109.818,395.215L89.633,375.026L15.072,449.584L89.633,524.142L164.191,449.584L139.32,424.716L150.201,413.836L185.949,449.584L121.006,515.136L130.014,524.142L150.201,503.953L170.392,524.142L244.948,449.584Z"/>
        </clipPath>
        <g clip-path="url(#_clip7)">
            <path d="M244.948,375.026L15.072,375.026L15.072,524.142L244.948,524.142L244.948,375.026Z" style="fill:url(#_Linear8);fill-rule:nonzero;"/>
        </g>
    </g>
    <defs>
        <linearGradient id="_Linear8" x1="0" y1="0" x2="1" y2="0" gradientUnits="userSpaceOnUse" gradientTransform="matrix(-229.407,-2.01e-05,-2.01e-05,229.407,246.065,449.584)"><stop offset="0%" style="stop-color:rgb(217,147,38);stop-opacity:1"/><stop offset="100%" style="stop-color:rgb(0,191,145);stop-opacity:1"/></linearGradient>
    </defs>
</svg>
