<?xml version="1.0" standalone="no"?>
<!DOCTYPE svg PUBLIC "-//W3C//DTD SVG 1.1//EN" "http://www.w3.org/Graphics/SVG/1.1/DTD/svg11.dtd">
<svg width="100%" height="100%" viewBox="0 0 29 30" version="1.1" xmlns="http://www.w3.org/2000/svg" xmlns:xlink="http://www.w3.org/1999/xlink" xml:space="preserve" style="fill-rule:evenodd;clip-rule:evenodd;stroke-linejoin:round;stroke-miterlimit:1.41421;">
    <g transform="matrix(1,0,0,1,-1334,-315)">
        <g id="Forma 1 copy 55">
            <path d="M1362.53,321.137L1357.76,325.914L1353.58,324.421L1352.09,320.243L1356.86,315.466C1353.73,314.417 1350.13,315.139 1347.64,317.635C1345.19,320.084 1344.45,323.594 1345.41,326.687C1345.29,326.789 1345.16,326.899 1345.04,327.019L1335.23,336.83C1333.59,338.471 1333.59,341.134 1335.23,342.775C1336.87,344.417 1339.53,344.417 1341.18,342.775L1350.98,332.964C1351.1,332.845 1351.21,332.719 1351.32,332.589C1354.41,333.554 1357.92,332.813 1360.37,330.364C1362.86,327.868 1363.58,324.271 1362.53,321.137Z" style="fill:rgb(95,199,147);fill-rule:nonzero;"/>
            <path d="M1354.14,315.001L1354.3,315.005L1354.45,315.011L1354.61,315.02L1354.76,315.032L1354.91,315.046L1355.06,315.062L1355.22,315.082L1355.37,315.104L1355.52,315.128L1355.67,315.155L1355.82,315.185L1355.97,315.217L1356.12,315.252L1356.27,315.29L1356.42,315.33L1356.57,315.372L1356.72,315.418L1356.86,315.466L1352.09,320.243L1353.58,324.421L1357.76,325.914L1362.53,321.137L1362.58,321.284L1362.63,321.432L1362.67,321.581L1362.71,321.73L1362.75,321.879L1362.78,322.03L1362.82,322.18L1362.84,322.331L1362.87,322.482L1362.9,322.634L1362.92,322.786L1362.94,322.939L1362.95,323.091L1362.97,323.244L1362.98,323.397L1362.99,323.55L1363,323.703L1363,323.857L1363,324.01L1363,324.163L1362.99,324.316L1362.99,324.47L1362.98,324.623L1362.97,324.776L1362.95,324.928L1362.93,325.081L1362.92,325.233L1362.89,325.385L1362.87,325.537L1362.84,325.688L1362.81,325.839L1362.78,325.99L1362.74,326.14L1362.71,326.289L1362.67,326.438L1362.62,326.587L1362.58,326.734L1362.53,326.882L1362.48,327.028L1362.42,327.174L1362.37,327.319L1362.31,327.463L1362.25,327.606L1362.19,327.749L1362.12,327.891L1362.05,328.031L1361.98,328.171L1361.9,328.31L1361.83,328.447L1361.75,328.584L1361.67,328.719L1361.58,328.854L1361.5,328.987L1361.41,329.119L1361.31,329.25L1361.22,329.379L1361.12,329.507L1361.02,329.634L1360.92,329.759L1360.81,329.883L1360.7,330.005L1360.6,330.126L1360.48,330.246L1360.37,330.364L1360.25,330.477L1360.13,330.588L1360.02,330.697L1359.89,330.803L1359.77,330.906L1359.65,331.007L1359.53,331.106L1359.4,331.202L1359.27,331.296L1359.15,331.387L1359.02,331.475L1358.89,331.561L1358.76,331.645L1358.62,331.726L1358.49,331.804L1358.35,331.88L1358.22,331.954L1358.08,332.025L1357.94,332.093L1357.81,332.159L1357.66,332.223L1357.53,332.284L1357.38,332.343L1357.24,332.399L1357.1,332.452L1356.95,332.503L1356.81,332.552L1356.67,332.598L1356.52,332.641L1356.38,332.682L1356.23,332.721L1356.08,332.757L1355.93,332.79L1355.79,332.821L1355.64,332.85L1355.49,332.876L1355.34,332.899L1355.19,332.92L1355.04,332.939L1354.89,332.955L1354.74,332.968L1354.59,332.979L1354.44,332.988L1354.29,332.994L1354.14,332.997L1353.99,332.998L1353.84,332.997L1353.69,332.993L1353.54,332.986L1353.39,332.977L1353.24,332.966L1353.09,332.952L1352.94,332.935L1352.79,332.916L1352.64,332.895L1352.49,332.871L1352.34,332.844L1352.2,332.815L1352.05,332.784L1351.9,332.75L1351.75,332.713L1351.61,332.674L1351.46,332.633L1351.32,332.589L1351.28,332.637L1351.24,332.686L1351.2,332.733L1351.16,332.78L1351.12,332.827L1351.07,332.873L1351.03,332.919L1350.98,332.964L1341.18,342.775L1341.1,342.851L1341.02,342.925L1340.94,342.996L1340.86,343.064L1340.77,343.13L1340.69,343.194L1340.6,343.255L1340.52,343.314L1340.43,343.371L1340.34,343.425L1340.25,343.477L1340.16,343.526L1340.07,343.573L1339.97,343.617L1339.88,343.659L1339.79,343.699L1339.69,343.736L1339.59,343.771L1339.5,343.804L1339.4,343.834L1339.3,343.861L1339.2,343.887L1339.11,343.909L1339.01,343.93L1338.91,343.948L1338.81,343.964L1338.71,343.977L1338.61,343.988L1338.51,343.996L1338.4,344.002L1338.3,344.006L1338.2,344.007L1338.1,344.006L1338,344.002L1337.9,343.996L1337.8,343.988L1337.7,343.977L1337.6,343.964L1337.5,343.948L1337.4,343.93L1337.3,343.909L1337.2,343.887L1337.1,343.861L1337.01,343.834L1336.91,343.804L1336.81,343.771L1336.72,343.736L1336.62,343.699L1336.53,343.659L1336.43,343.617L1336.34,343.573L1336.25,343.526L1336.16,343.477L1336.07,343.425L1335.98,343.371L1335.89,343.314L1335.8,343.255L1335.72,343.194L1335.63,343.13L1335.55,343.064L1335.47,342.996L1335.39,342.925L1335.31,342.851L1335.23,342.775L1335.15,342.698L1335.08,342.619L1335.01,342.538L1334.94,342.456L1334.88,342.373L1334.81,342.288L1334.75,342.203L1334.69,342.116L1334.64,342.028L1334.58,341.939L1334.53,341.849L1334.48,341.758L1334.43,341.666L1334.39,341.573L1334.35,341.479L1334.31,341.385L1334.27,341.289L1334.24,341.193L1334.2,341.097L1334.17,341L1334.14,340.902L1334.12,340.804L1334.1,340.705L1334.08,340.606L1334.06,340.506L1334.04,340.406L1334.03,340.306L1334.02,340.206L1334.01,340.105L1334.01,340.004L1334,339.903L1334,339.803L1334,339.702L1334.01,339.601L1334.01,339.5L1334.02,339.4L1334.03,339.299L1334.04,339.199L1334.06,339.099L1334.08,339L1334.1,338.9L1334.12,338.802L1334.14,338.703L1334.17,338.606L1334.2,338.508L1334.24,338.412L1334.27,338.316L1334.31,338.221L1334.35,338.126L1334.39,338.032L1334.43,337.939L1334.48,337.847L1334.53,337.756L1334.58,337.666L1334.64,337.577L1334.69,337.489L1334.75,337.402L1334.81,337.317L1334.88,337.232L1334.94,337.149L1335.01,337.067L1335.08,336.987L1335.15,336.908L1335.23,336.83L1345.04,327.019L1345.09,326.974L1345.13,326.931L1345.18,326.888L1345.22,326.846L1345.27,326.805L1345.32,326.765L1345.37,326.725L1345.41,326.687L1345.37,326.541L1345.33,326.395L1345.29,326.249L1345.25,326.102L1345.22,325.955L1345.19,325.807L1345.16,325.659L1345.13,325.51L1345.11,325.361L1345.09,325.212L1345.07,325.062L1345.05,324.913L1345.04,324.763L1345.03,324.613L1345.02,324.462L1345.01,324.312L1345.01,324.162L1345.01,324.011L1345.01,323.861L1345.01,323.71L1345.02,323.56L1345.03,323.409L1345.04,323.259L1345.05,323.109L1345.07,322.96L1345.08,322.81L1345.11,322.661L1345.13,322.512L1345.15,322.363L1345.18,322.215L1345.21,322.067L1345.25,321.919L1345.28,321.773L1345.32,321.626L1345.36,321.48L1345.41,321.335L1345.45,321.19L1345.5,321.046L1345.55,320.902L1345.61,320.76L1345.66,320.618L1345.72,320.477L1345.78,320.336L1345.85,320.197L1345.91,320.058L1345.98,319.92L1346.05,319.783L1346.12,319.647L1346.2,319.513L1346.28,319.379L1346.36,319.246L1346.44,319.115L1346.53,318.984L1346.62,318.855L1346.71,318.727L1346.8,318.6L1346.9,318.474L1347,318.35L1347.1,318.227L1347.2,318.106L1347.31,317.986L1347.41,317.867L1347.53,317.75L1347.64,317.635L1347.76,317.519L1347.88,317.406L1348,317.295L1348.12,317.187L1348.24,317.082L1348.37,316.979L1348.5,316.879L1348.62,316.782L1348.75,316.687L1348.88,316.595L1349.02,316.505L1349.15,316.418L1349.28,316.333L1349.42,316.251L1349.56,316.172L1349.69,316.095L1349.83,316.021L1349.97,315.95L1350.11,315.881L1350.25,315.814L1350.4,315.751L1350.54,315.69L1350.68,315.631L1350.83,315.575L1350.98,315.522L1351.12,315.471L1351.27,315.423L1351.42,315.377L1351.56,315.334L1351.71,315.294L1351.86,315.256L1352.01,315.221L1352.16,315.188L1352.31,315.158L1352.46,315.131L1352.62,315.106L1352.77,315.084L1352.92,315.064L1353.07,315.047L1353.23,315.033L1353.38,315.021L1353.53,315.012L1353.69,315.005L1353.84,315.001L1353.99,315L1354.14,315.001ZM1353.86,316.001L1353.72,316.005L1353.58,316.011L1353.45,316.019L1353.31,316.029L1353.18,316.042L1353.04,316.057L1352.9,316.075L1352.77,316.094L1352.63,316.117L1352.5,316.141L1352.37,316.167L1352.23,316.196L1352.1,316.228L1351.97,316.261L1351.83,316.297L1351.7,316.335L1351.57,316.376L1351.44,316.419L1351.31,316.464L1351.18,316.511L1351.05,316.561L1350.92,316.613L1350.8,316.667L1350.67,316.724L1350.54,316.783L1350.42,316.844L1350.3,316.907L1350.17,316.973L1350.05,317.041L1349.93,317.112L1349.81,317.184L1349.69,317.259L1349.57,317.337L1349.45,317.417L1349.34,317.498L1349.22,317.583L1349.11,317.669L1349,317.758L1348.88,317.85L1348.78,317.943L1348.67,318.039L1348.56,318.138L1348.45,318.239L1348.35,318.342L1348.25,318.445L1348.15,318.549L1348.05,318.654L1347.96,318.761L1347.86,318.869L1347.77,318.979L1347.69,319.089L1347.6,319.201L1347.52,319.313L1347.44,319.427L1347.36,319.542L1347.28,319.658L1347.21,319.775L1347.14,319.893L1347.07,320.011L1347,320.131L1346.93,320.252L1346.87,320.373L1346.81,320.495L1346.75,320.618L1346.69,320.742L1346.64,320.867L1346.59,320.993L1346.54,321.119L1346.49,321.245L1346.45,321.373L1346.4,321.501L1346.36,321.63L1346.32,321.759L1346.29,321.888L1346.25,322.019L1346.22,322.149L1346.19,322.28L1346.16,322.412L1346.14,322.544L1346.12,322.675L1346.09,322.808L1346.08,322.941L1346.06,323.074L1346.05,323.207L1346.03,323.341L1346.02,323.474L1346.02,323.608L1346.01,323.742L1346.01,323.876L1346.01,324.009L1346.01,324.143L1346.01,324.277L1346.02,324.411L1346.03,324.545L1346.04,324.678L1346.05,324.811L1346.06,324.945L1346.08,325.078L1346.1,325.21L1346.12,325.343L1346.14,325.475L1346.17,325.607L1346.2,325.738L1346.23,325.869L1346.26,326L1346.29,326.13L1346.33,326.26L1346.57,327.045L1346,327.502L1345.96,327.533L1345.92,327.564L1345.88,327.596L1345.85,327.628L1345.82,327.66L1345.78,327.693L1345.74,327.729L1335.94,337.532L1335.88,337.596L1335.82,337.657L1335.77,337.719L1335.72,337.781L1335.67,337.845L1335.62,337.909L1335.57,337.974L1335.53,338.04L1335.48,338.107L1335.44,338.175L1335.4,338.243L1335.37,338.313L1335.33,338.383L1335.3,338.453L1335.27,338.524L1335.23,338.596L1335.21,338.669L1335.18,338.742L1335.15,338.815L1335.13,338.889L1335.11,338.964L1335.09,339.039L1335.07,339.114L1335.06,339.189L1335.05,339.265L1335.03,339.342L1335.02,339.418L1335.02,339.495L1335.01,339.572L1335,339.649L1335,339.726L1335,339.803L1335,339.88L1335,339.957L1335.01,340.034L1335.02,340.11L1335.02,340.187L1335.03,340.263L1335.05,340.34L1335.06,340.416L1335.07,340.491L1335.09,340.566L1335.11,340.641L1335.13,340.716L1335.15,340.79L1335.18,340.863L1335.21,340.936L1335.23,341.009L1335.27,341.081L1335.3,341.152L1335.33,341.223L1335.37,341.293L1335.4,341.362L1335.44,341.43L1335.48,341.498L1335.53,341.565L1335.57,341.631L1335.62,341.696L1335.67,341.761L1335.72,341.824L1335.77,341.887L1335.82,341.948L1335.88,342.009L1335.94,342.068L1336,342.126L1336.06,342.183L1336.12,342.237L1336.18,342.289L1336.25,342.34L1336.31,342.388L1336.38,342.435L1336.44,342.48L1336.51,342.523L1336.58,342.564L1336.64,342.603L1336.71,342.641L1336.78,342.676L1336.85,342.71L1336.93,342.742L1337,342.772L1337.07,342.801L1337.14,342.827L1337.22,342.852L1337.29,342.875L1337.37,342.896L1337.44,342.915L1337.52,342.933L1337.59,342.948L1337.67,342.962L1337.74,342.974L1337.82,342.984L1337.9,342.992L1337.97,342.999L1338.05,343.003L1338.13,343.006L1338.2,343.007L1338.28,343.006L1338.36,343.003L1338.43,342.999L1338.51,342.992L1338.59,342.984L1338.66,342.974L1338.74,342.962L1338.82,342.948L1338.89,342.933L1338.97,342.915L1339.04,342.896L1339.12,342.875L1339.19,342.852L1339.26,342.827L1339.34,342.801L1339.41,342.772L1339.48,342.742L1339.55,342.71L1339.62,342.676L1339.69,342.641L1339.76,342.603L1339.83,342.564L1339.9,342.523L1339.96,342.48L1340.03,342.435L1340.1,342.388L1340.16,342.34L1340.22,342.289L1340.29,342.237L1340.35,342.183L1340.41,342.126L1340.47,342.064L1350.27,332.26L1350.31,332.224L1350.34,332.19L1350.38,332.154L1350.41,332.119L1350.44,332.083L1350.47,332.046L1350.5,332.008L1350.96,331.435L1351.74,331.673L1351.87,331.71L1352,331.745L1352.13,331.777L1352.26,331.807L1352.4,331.835L1352.53,331.861L1352.66,331.885L1352.79,331.906L1352.92,331.925L1353.06,331.942L1353.19,331.957L1353.32,331.969L1353.46,331.979L1353.59,331.987L1353.73,331.993L1353.86,331.997L1353.99,331.998L1354.13,331.997L1354.26,331.994L1354.39,331.989L1354.53,331.981L1354.66,331.971L1354.8,331.959L1354.93,331.945L1355.06,331.929L1355.19,331.91L1355.33,331.889L1355.46,331.866L1355.59,331.841L1355.72,331.813L1355.85,331.783L1355.98,331.751L1356.11,331.717L1356.24,331.681L1356.37,331.642L1356.5,331.601L1356.63,331.558L1356.76,331.513L1356.88,331.465L1357.01,331.415L1357.13,331.364L1357.26,331.309L1357.38,331.253L1357.51,331.194L1357.63,331.133L1357.75,331.07L1357.87,331.005L1357.99,330.938L1358.11,330.868L1358.23,330.796L1358.34,330.722L1358.46,330.645L1358.57,330.567L1358.69,330.486L1358.8,330.403L1358.91,330.317L1359.02,330.23L1359.13,330.14L1359.24,330.048L1359.35,329.953L1359.45,329.857L1359.56,329.758L1359.66,329.657L1359.76,329.552L1359.86,329.445L1359.96,329.338L1360.06,329.229L1360.15,329.118L1360.24,329.007L1360.33,328.894L1360.42,328.781L1360.5,328.666L1360.58,328.549L1360.66,328.432L1360.74,328.314L1360.82,328.195L1360.89,328.074L1360.96,327.953L1361.03,327.831L1361.09,327.708L1361.16,327.583L1361.22,327.458L1361.28,327.333L1361.33,327.206L1361.39,327.079L1361.44,326.951L1361.49,326.822L1361.54,326.693L1361.58,326.562L1361.62,326.432L1361.66,326.3L1361.7,326.168L1361.74,326.036L1361.77,325.903L1361.8,325.77L1361.83,325.636L1361.86,325.502L1361.88,325.367L1361.9,325.232L1361.92,325.097L1361.94,324.962L1361.96,324.826L1361.97,324.69L1361.98,324.554L1361.99,324.418L1362,324.282L1362,324.145L1362,324.009L1362,323.872L1362,323.736L1361.99,323.6L1361.98,323.464L1361.97,323.328L1361.96,323.192L1361.95,323.133L1358.02,327.069L1352.8,325.204L1350.93,319.983L1354.87,316.047L1354.81,316.041L1354.67,316.028L1354.54,316.018L1354.4,316.01L1354.27,316.004L1354.13,316.001L1353.99,316L1353.86,316.001Z" style="fill:rgb(96,199,146);"/>
        </g>
    </g>
</svg>
