<?xml version="1.0" standalone="no"?>
<!DOCTYPE svg PUBLIC "-//W3C//DTD SVG 1.1//EN" "http://www.w3.org/Graphics/SVG/1.1/DTD/svg11.dtd">
<svg width="100%" height="100%" viewBox="0 0 30 29" version="1.1" xmlns="http://www.w3.org/2000/svg" xmlns:xlink="http://www.w3.org/1999/xlink" xml:space="preserve" style="fill-rule:evenodd;clip-rule:evenodd;stroke-linejoin:round;stroke-miterlimit:1.41421;">
    <g transform="matrix(1,0,0,1,-1430,-264.992)">
        <path id="Forma 1 copy 10" d="M1459.39,268.347L1451.03,268.347C1450.73,266.45 1449.09,264.992 1447.11,264.992L1442.89,264.992C1440.91,264.992 1439.27,266.45 1438.97,268.347L1430.61,268.347C1430.27,268.347 1430,268.622 1430,268.959L1430,292.395C1430,292.734 1430.27,293.007 1430.61,293.007L1459.39,293.007C1459.73,293.007 1460,292.734 1460,292.395L1460,280.677L1460,268.959C1460,268.621 1459.73,268.347 1459.39,268.347ZM1442.89,266.217L1447.11,266.217C1448.41,266.217 1449.51,267.128 1449.78,268.347L1440.22,268.347C1440.5,267.128 1441.59,266.217 1442.89,266.217ZM1431.23,269.572L1458.77,269.572L1458.77,280.065L1447.04,280.065L1447.04,279.464C1447.04,279.126 1446.77,278.852 1446.43,278.852L1443.57,278.852C1443.23,278.852 1442.96,279.126 1442.96,279.464L1442.96,280.065L1431.23,280.065L1431.23,269.572ZM1444.18,280.677L1444.18,280.076L1445.82,280.076L1445.82,282.219L1444.18,282.219L1444.18,280.677ZM1458.77,291.782L1431.23,291.782L1431.23,281.289L1442.96,281.289L1442.96,282.831C1442.96,283.17 1443.23,283.443 1443.57,283.443L1446.43,283.443C1446.77,283.443 1447.04,283.17 1447.04,282.831L1447.04,281.289L1458.77,281.289L1458.77,291.782Z" style="fill:rgb(95,199,147);fill-rule:nonzero;"/>
    </g>
</svg>
