<?xml version="1.0" standalone="no"?>
<!DOCTYPE svg PUBLIC "-//W3C//DTD SVG 1.1//EN" "http://www.w3.org/Graphics/SVG/1.1/DTD/svg11.dtd">
<svg width="100%" height="100%" viewBox="0 0 35 35" version="1.1" xmlns="http://www.w3.org/2000/svg" xmlns:xlink="http://www.w3.org/1999/xlink" xml:space="preserve" style="fill-rule:evenodd;clip-rule:evenodd;stroke-linejoin:round;stroke-miterlimit:1.41421;">
    <g transform="matrix(1,0,0,1,-115.001,-368)">
        <path id="Forma 1 copy 19" d="M118.284,371.291C120.404,369.169 123.224,368 126.223,368C129.222,368 132.042,369.169 134.162,371.291C137.986,375.117 138.469,381.039 135.614,385.396L137.175,386.959C137.235,386.938 137.298,386.926 137.362,386.926C137.51,386.926 137.652,386.985 137.756,387.09L149.806,399.148C150.024,399.367 150.024,399.72 149.806,399.938L146.91,402.836C146.806,402.941 146.664,403 146.516,403C146.368,403 146.226,402.941 146.121,402.836L134.071,390.778C133.914,390.62 133.871,390.393 133.941,390.196L132.38,388.635C130.567,389.83 128.444,390.472 126.223,390.472C123.224,390.472 120.405,389.303 118.284,387.181C113.906,382.8 113.906,375.672 118.284,371.291ZM146.516,401.652L148.622,399.544L137.362,388.275L135.255,390.383L146.516,401.652ZM134.691,389.368L136.347,387.71L134.947,386.309C134.703,386.61 134.442,386.901 134.162,387.181C133.884,387.46 133.593,387.721 133.291,387.967L134.691,389.368ZM119.073,386.391C120.983,388.302 123.522,389.355 126.223,389.355C128.358,389.355 130.391,388.697 132.093,387.477C132.109,387.464 132.125,387.452 132.142,387.441C132.575,387.127 132.987,386.777 133.373,386.391C137.315,382.446 137.315,376.026 133.373,372.081C131.463,370.169 128.924,369.117 126.223,369.117C123.522,369.117 120.983,370.169 119.073,372.081C115.131,376.026 115.131,382.445 119.073,386.391ZM127.259,372.17C126.954,372.126 126.743,371.843 126.787,371.538C126.831,371.232 127.114,371.02 127.419,371.065C129.184,371.32 130.788,372.126 132.057,373.397C133.322,374.662 134.126,376.267 134.384,378.038C134.428,378.344 134.217,378.627 133.912,378.671C133.885,378.675 133.858,378.677 133.831,378.677C133.558,378.677 133.32,378.477 133.279,378.199C133.057,376.668 132.361,375.281 131.268,374.187C130.17,373.088 128.784,372.391 127.259,372.17ZM125.187,372.17C124.021,372.339 122.906,372.801 121.963,373.506C121.863,373.581 121.746,373.617 121.63,373.617C121.46,373.617 121.292,373.54 121.182,373.393C120.998,373.146 121.048,372.796 121.295,372.611C122.387,371.795 123.678,371.26 125.027,371.065C125.331,371.02 125.615,371.232 125.659,371.538C125.703,371.843 125.492,372.126 125.187,372.17Z" style="fill:rgb(201,207,212);"/>
    </g>
</svg>
