<?xml version="1.0" standalone="no"?>
<!DOCTYPE svg PUBLIC "-//W3C//DTD SVG 1.1//EN" "http://www.w3.org/Graphics/SVG/1.1/DTD/svg11.dtd">
<svg width="100%" height="100%" viewBox="0 0 57 43" version="1.1" xmlns="http://www.w3.org/2000/svg" xmlns:xlink="http://www.w3.org/1999/xlink" xml:space="preserve" style="fill-rule:evenodd;clip-rule:evenodd;stroke-linejoin:round;stroke-miterlimit:1.41421;">
    <g transform="matrix(1,0,0,1,-251.001,-1982)">
        <path id="Forma 1 copy 40" d="M286.683,2004.75L286.74,2004.75L286.796,2004.76L286.851,2004.76L286.905,2004.77L286.959,2004.78L287.013,2004.79L287.067,2004.8L287.121,2004.81L287.175,2004.83L287.23,2004.84L287.285,2004.86L287.34,2004.88L287.396,2004.9L287.453,2004.92L287.511,2004.94L287.57,2004.97L287.631,2005L287.692,2005.03L287.756,2005.06L287.887,2005.12L288.027,2005.2L288.175,2005.28L288.333,2005.36L288.683,2005.55L288.858,2005.65L289.028,2005.75L289.195,2005.85L289.358,2005.95L289.516,2006.05L289.671,2006.14L289.822,2006.24L289.969,2006.34L290.112,2006.44L290.252,2006.54L290.387,2006.64L290.52,2006.74L290.648,2006.84L290.774,2006.93L290.896,2007.03L291.014,2007.13L291.129,2007.23L291.241,2007.33L291.35,2007.43L291.456,2007.53L291.559,2007.63L291.659,2007.73L291.755,2007.83L291.849,2007.92L291.941,2008.02L292.029,2008.12L292.115,2008.22L292.198,2008.32L292.279,2008.42L292.357,2008.52L292.433,2008.62L292.506,2008.72L292.506,2008.72L292.55,2008.78L292.593,2008.84L292.635,2008.9L292.676,2008.96L292.716,2009.02L292.755,2009.08L292.793,2009.14L292.83,2009.2L292.867,2009.26L292.902,2009.32L292.937,2009.38L292.971,2009.44L293.004,2009.5L293.037,2009.56L293.068,2009.62L293.098,2009.68L293.128,2009.74L293.157,2009.81L293.185,2009.87L293.212,2009.93L293.239,2009.99L293.265,2010.05L293.289,2010.11L293.313,2010.17L293.337,2010.24L293.359,2010.3L293.381,2010.36L293.402,2010.42L293.422,2010.49L293.441,2010.55L293.46,2010.61L293.478,2010.67L293.48,2010.68L293.481,2010.68L293.513,2010.8L293.543,2010.92L293.57,2011.04L293.596,2011.16L293.619,2011.28L293.64,2011.4L293.659,2011.53L293.675,2011.65L293.678,2011.67L293.686,2011.71L293.689,2011.73L293.703,2011.86L293.715,2011.99L293.726,2012.12L293.735,2012.26L293.741,2012.39L293.746,2012.53L293.75,2012.66L293.751,2012.8L293.751,2016.65L293.751,2020.5L293.75,2020.62L293.748,2020.73L293.745,2020.85L293.74,2020.96L293.733,2021.07L293.726,2021.17L293.716,2021.28L293.706,2021.38L293.693,2021.48L293.68,2021.58L293.664,2021.67L293.647,2021.77L293.629,2021.86L293.609,2021.95L293.587,2022.04L293.564,2022.12L293.539,2022.2L293.513,2022.28L293.484,2022.36L293.454,2022.44L293.423,2022.51L293.389,2022.59L293.354,2022.66L293.317,2022.73L293.279,2022.79L293.238,2022.86L293.196,2022.92L293.151,2022.98L293.105,2023.04L293.058,2023.1L293.008,2023.15L292.956,2023.2L292.902,2023.26L292.847,2023.3L292.789,2023.35L292.73,2023.4L292.668,2023.44L292.605,2023.48L292.539,2023.52L292.472,2023.56L292.402,2023.6L292.33,2023.63L292.256,2023.67L292.18,2023.7L292.102,2023.73L292.022,2023.76L291.939,2023.79L291.855,2023.81L291.768,2023.83L291.679,2023.86L291.588,2023.88L291.494,2023.89L291.398,2023.91L291.3,2023.93L291.2,2023.94L291.097,2023.95L290.992,2023.97L290.884,2023.97L290.774,2023.98L290.662,2023.99L290.547,2023.99L290.43,2024L290.311,2024L290.189,2024L268.815,2024L268.694,2024L268.575,2024L268.459,2023.99L268.345,2023.99L268.233,2023.98L268.124,2023.97L268.017,2023.96L267.913,2023.95L267.811,2023.94L267.711,2023.92L267.613,2023.91L267.518,2023.89L267.424,2023.87L267.333,2023.85L267.245,2023.83L267.158,2023.8L267.074,2023.78L266.991,2023.75L266.911,2023.72L266.833,2023.69L266.757,2023.66L266.683,2023.62L266.611,2023.59L266.542,2023.55L266.474,2023.51L266.408,2023.47L266.345,2023.42L266.283,2023.38L266.223,2023.33L266.165,2023.29L266.11,2023.24L266.056,2023.18L266.004,2023.13L265.954,2023.07L265.905,2023.02L265.859,2022.96L265.815,2022.9L265.772,2022.83L265.731,2022.77L265.692,2022.7L265.655,2022.63L265.619,2022.56L265.586,2022.49L265.553,2022.41L265.523,2022.34L265.495,2022.26L265.468,2022.18L265.442,2022.1L265.419,2022.01L265.397,2021.93L265.377,2021.84L265.358,2021.75L265.341,2021.65L265.325,2021.56L265.311,2021.46L265.299,2021.37L265.288,2021.26L265.278,2021.16L265.27,2021.06L265.264,2020.95L265.259,2020.84L265.255,2020.73L265.253,2020.62L265.253,2020.5L265.252,2016.65L265.253,2012.8L265.254,2012.66L265.257,2012.53L265.262,2012.39L265.268,2012.26L265.277,2012.12L265.288,2011.99L265.3,2011.86L265.314,2011.73L265.317,2011.71L265.321,2011.69L265.325,2011.66L265.328,2011.64L265.344,2011.52L265.363,2011.4L265.384,2011.28L265.407,2011.16L265.432,2011.04L265.459,2010.92L265.489,2010.8L265.52,2010.68L265.524,2010.67L265.528,2010.66L265.546,2010.6L265.564,2010.54L265.584,2010.48L265.604,2010.41L265.625,2010.35L265.646,2010.29L265.668,2010.23L265.692,2010.17L265.716,2010.11L265.74,2010.05L265.766,2009.99L265.792,2009.92L265.819,2009.86L265.847,2009.8L265.875,2009.74L265.905,2009.68L265.935,2009.62L265.966,2009.56L265.998,2009.5L266.031,2009.44L266.065,2009.38L266.099,2009.32L266.134,2009.26L266.17,2009.2L266.207,2009.14L266.245,2009.08L266.284,2009.02L266.324,2008.96L266.364,2008.9L266.405,2008.84L266.448,2008.78L266.491,2008.72L266.492,2008.72L266.493,2008.72L266.495,2008.72L266.496,2008.71L266.499,2008.71L266.572,2008.61L266.648,2008.52L266.727,2008.42L266.809,2008.32L266.893,2008.23L266.98,2008.13L267.07,2008.03L267.163,2007.94L267.258,2007.84L267.357,2007.74L267.458,2007.65L267.563,2007.55L267.67,2007.46L267.78,2007.36L267.894,2007.26L268.011,2007.17L268.13,2007.07L268.253,2006.97L268.379,2006.88L268.509,2006.78L268.641,2006.68L268.777,2006.58L268.916,2006.48L269.058,2006.38L269.204,2006.28L269.353,2006.18L269.506,2006.08L269.662,2005.97L269.821,2005.87L269.984,2005.77L270.15,2005.66L270.32,2005.55L270.483,2005.45L270.638,2005.36L270.787,2005.28L270.859,2005.24L270.929,2005.2L270.998,2005.16L271.066,2005.12L271.133,2005.09L271.198,2005.06L271.263,2005.03L271.326,2005L271.388,2004.97L271.45,2004.94L271.511,2004.92L271.571,2004.9L271.63,2004.88L271.689,2004.86L271.747,2004.84L271.805,2004.83L271.863,2004.81L271.92,2004.8L271.977,2004.79L272.034,2004.78L272.091,2004.77L272.148,2004.76L272.205,2004.76L272.262,2004.75L272.319,2004.75L272.377,2004.75L272.423,2004.75L272.469,2004.75L272.514,2004.76L272.56,2004.76L272.605,2004.76L272.651,2004.77L272.696,2004.78L272.741,2004.79L272.786,2004.79L272.831,2004.8L272.876,2004.82L272.921,2004.83L272.966,2004.84L273.011,2004.86L273.056,2004.87L273.101,2004.89L273.147,2004.9L273.192,2004.92L273.237,2004.94L273.283,2004.96L273.329,2004.99L273.375,2005.01L273.421,2005.03L273.467,2005.06L273.513,2005.08L273.56,2005.11L273.654,2005.16L273.749,2005.23L273.846,2005.29L273.943,2005.36L274.043,2005.43L274.144,2005.5L274.246,2005.58L274.351,2005.66L274.457,2005.75L274.566,2005.84L274.677,2005.93L274.79,2006.03L274.906,2006.13L275.024,2006.23L275.145,2006.34L275.397,2006.57L275.661,2006.8L275.664,2006.8L276.977,2007.99L276.986,2008L277.002,2008.02L277.056,2008.09L277.137,2008.19L277.242,2008.32L277.304,2008.4L277.37,2008.48L277.441,2008.56L277.517,2008.64L277.597,2008.74L277.681,2008.83L277.769,2008.92L277.859,2009.01L277.953,2009.11L278.05,2009.2L278.148,2009.29L278.199,2009.33L278.249,2009.38L278.3,2009.42L278.352,2009.46L278.404,2009.5L278.456,2009.54L278.508,2009.58L278.561,2009.62L278.613,2009.66L278.666,2009.69L278.719,2009.73L278.772,2009.76L278.826,2009.79L278.879,2009.82L278.932,2009.85L278.985,2009.87L279.038,2009.89L279.09,2009.92L279.143,2009.93L279.195,2009.95L279.247,2009.97L279.299,2009.98L279.35,2009.99L279.401,2010L279.451,2010L279.501,2010L279.551,2010L279.602,2010L279.653,2009.99L279.704,2009.98L279.756,2009.97L279.808,2009.95L279.86,2009.93L279.912,2009.92L279.965,2009.89L280.018,2009.87L280.071,2009.85L280.124,2009.82L280.177,2009.79L280.23,2009.76L280.283,2009.73L280.337,2009.69L280.389,2009.66L280.442,2009.62L280.495,2009.58L280.547,2009.54L280.599,2009.5L280.651,2009.46L280.703,2009.42L280.754,2009.38L280.804,2009.33L280.854,2009.29L280.953,2009.2L281.05,2009.11L281.143,2009.01L281.234,2008.92L281.322,2008.83L281.406,2008.74L281.486,2008.65L281.561,2008.56L281.633,2008.48L281.699,2008.4L281.76,2008.32L281.866,2008.19L281.947,2008.09L282.001,2008.02L282.017,2008L282.026,2007.99L283.339,2006.8L283.342,2006.8L283.607,2006.57L283.858,2006.34L283.98,2006.23L284.098,2006.13L284.214,2006.03L284.328,2005.93L284.439,2005.84L284.547,2005.75L284.654,2005.66L284.758,2005.58L284.861,2005.5L284.962,2005.43L285.061,2005.36L285.159,2005.29L285.255,2005.22L285.35,2005.16L285.444,2005.11L285.491,2005.08L285.537,2005.06L285.583,2005.03L285.629,2005.01L285.675,2004.99L285.721,2004.96L285.767,2004.94L285.812,2004.92L285.857,2004.9L285.902,2004.89L285.948,2004.87L285.993,2004.86L286.038,2004.84L286.083,2004.83L286.128,2004.82L286.173,2004.8L286.218,2004.79L286.263,2004.79L286.308,2004.78L286.353,2004.77L286.398,2004.76L286.443,2004.76L286.489,2004.76L286.534,2004.75L286.58,2004.75L286.626,2004.75L286.683,2004.75ZM272.345,2005.75L272.313,2005.75L272.282,2005.75L272.252,2005.76L272.223,2005.76L272.191,2005.77L272.158,2005.77L272.127,2005.78L272.095,2005.78L272.06,2005.79L272.024,2005.8L271.988,2005.81L271.95,2005.83L271.91,2005.84L271.869,2005.86L271.825,2005.87L271.781,2005.89L271.733,2005.91L271.684,2005.93L271.632,2005.96L271.578,2005.99L271.523,2006.01L271.467,2006.04L271.408,2006.07L271.345,2006.11L271.282,2006.14L271.146,2006.22L271.002,2006.31L270.847,2006.4L270.682,2006.51L270.521,2006.61L270.363,2006.71L270.209,2006.81L270.059,2006.91L269.912,2007.01L269.769,2007.1L269.63,2007.2L269.494,2007.3L269.362,2007.39L269.234,2007.48L269.109,2007.58L268.988,2007.67L268.87,2007.76L268.756,2007.85L268.645,2007.94L268.537,2008.03L268.433,2008.12L268.332,2008.21L268.235,2008.29L268.141,2008.38L268.05,2008.47L267.962,2008.55L267.877,2008.64L267.796,2008.72L267.717,2008.81L267.641,2008.89L267.569,2008.97L267.499,2009.06L267.431,2009.14L267.367,2009.22L267.364,2009.23L267.359,2009.24L267.289,2009.33L267.284,2009.33L267.259,2009.37L267.223,2009.42L267.188,2009.47L267.153,2009.52L267.12,2009.57L267.087,2009.62L267.055,2009.67L267.024,2009.72L266.993,2009.77L266.963,2009.82L266.935,2009.87L266.907,2009.92L266.879,2009.97L266.853,2010.02L266.827,2010.07L266.802,2010.12L266.778,2010.17L266.754,2010.22L266.73,2010.27L266.708,2010.32L266.687,2010.37L266.666,2010.42L266.645,2010.48L266.626,2010.53L266.606,2010.58L266.588,2010.63L266.571,2010.68L266.553,2010.73L266.537,2010.78L266.521,2010.83L266.506,2010.88L266.47,2011.01L266.467,2011.02L266.457,2011.05L266.432,2011.15L266.409,2011.25L266.387,2011.36L266.368,2011.46L266.35,2011.56L266.334,2011.66L266.319,2011.78L266.313,2011.82L266.306,2011.86L266.295,2011.96L266.284,2012.08L266.275,2012.2L266.267,2012.32L266.261,2012.44L266.256,2012.56L266.253,2012.68L266.253,2012.8L266.252,2016.65L266.253,2020.5L266.253,2020.6L266.255,2020.7L266.258,2020.8L266.263,2020.9L266.268,2020.99L266.275,2021.08L266.283,2021.16L266.292,2021.25L266.302,2021.33L266.313,2021.41L266.326,2021.48L266.339,2021.55L266.354,2021.62L266.369,2021.69L266.385,2021.75L266.402,2021.82L266.42,2021.87L266.439,2021.93L266.458,2021.98L266.478,2022.03L266.498,2022.08L266.52,2022.13L266.541,2022.17L266.563,2022.21L266.586,2022.25L266.61,2022.29L266.633,2022.32L266.657,2022.35L266.683,2022.39L266.709,2022.42L266.735,2022.45L266.763,2022.48L266.791,2022.5L266.821,2022.53L266.852,2022.56L266.884,2022.58L266.918,2022.61L266.954,2022.63L266.992,2022.65L267.031,2022.68L267.074,2022.7L267.118,2022.72L267.165,2022.74L267.215,2022.77L267.266,2022.79L267.321,2022.81L267.38,2022.83L267.44,2022.84L267.503,2022.86L267.568,2022.88L267.638,2022.89L267.711,2022.91L267.786,2022.92L267.864,2022.94L267.946,2022.95L268.03,2022.96L268.117,2022.97L268.208,2022.98L268.302,2022.98L268.399,2022.99L268.498,2022.99L268.6,2023L268.706,2023L268.818,2023L290.186,2023L290.299,2023L290.406,2023L290.51,2022.99L290.612,2022.99L290.71,2022.98L290.805,2022.98L290.896,2022.97L290.985,2022.96L291.071,2022.95L291.153,2022.94L291.232,2022.93L291.308,2022.91L291.382,2022.9L291.452,2022.88L291.518,2022.87L291.583,2022.85L291.643,2022.83L291.7,2022.81L291.756,2022.79L291.808,2022.77L291.857,2022.75L291.903,2022.73L291.947,2022.71L291.989,2022.69L292.028,2022.66L292.065,2022.64L292.101,2022.62L292.134,2022.59L292.165,2022.57L292.195,2022.55L292.225,2022.52L292.251,2022.49L292.278,2022.47L292.304,2022.44L292.329,2022.41L292.353,2022.38L292.377,2022.35L292.4,2022.31L292.422,2022.27L292.444,2022.24L292.466,2022.2L292.487,2022.15L292.508,2022.11L292.528,2022.06L292.548,2022.01L292.567,2021.96L292.585,2021.9L292.603,2021.84L292.62,2021.78L292.636,2021.72L292.651,2021.65L292.665,2021.58L292.678,2021.51L292.691,2021.43L292.702,2021.35L292.712,2021.27L292.721,2021.18L292.729,2021.09L292.735,2021L292.741,2020.91L292.745,2020.81L292.748,2020.71L292.75,2020.61L292.751,2020.5L292.751,2016.65L292.751,2012.8L292.75,2012.68L292.747,2012.56L292.742,2012.44L292.736,2012.32L292.728,2012.2L292.719,2012.08L292.708,2011.96L292.698,2011.87L292.693,2011.84L292.685,2011.79L292.669,2011.67L292.653,2011.56L292.635,2011.46L292.615,2011.36L292.594,2011.25L292.57,2011.15L292.545,2011.05L292.526,2010.98L292.5,2010.89L292.484,2010.84L292.468,2010.79L292.452,2010.74L292.435,2010.68L292.417,2010.63L292.398,2010.58L292.379,2010.53L292.36,2010.48L292.339,2010.43L292.318,2010.38L292.296,2010.33L292.274,2010.28L292.25,2010.23L292.227,2010.18L292.202,2010.12L292.177,2010.08L292.151,2010.03L292.123,2009.97L292.096,2009.92L292.068,2009.87L292.039,2009.82L292.008,2009.77L291.978,2009.72L291.946,2009.67L291.914,2009.62L291.881,2009.57L291.846,2009.52L291.812,2009.47L291.776,2009.41L291.739,2009.36L291.623,2009.2L291.569,2009.13L291.5,2009.05L291.429,2008.96L291.355,2008.87L291.279,2008.78L291.2,2008.7L291.119,2008.61L291.035,2008.52L290.949,2008.43L290.859,2008.34L290.767,2008.25L290.671,2008.16L290.573,2008.08L290.472,2007.99L290.367,2007.89L290.259,2007.81L290.148,2007.71L290.033,2007.62L289.915,2007.53L289.793,2007.44L289.668,2007.35L289.539,2007.26L289.406,2007.17L289.27,2007.08L289.129,2006.98L288.984,2006.89L288.836,2006.8L288.683,2006.71L288.526,2006.62L288.365,2006.52L288.197,2006.43L287.852,2006.24L287.7,2006.15L287.559,2006.08L287.433,2006.01L287.315,2005.96L287.264,2005.93L287.213,2005.91L287.165,2005.88L287.122,2005.87L287.08,2005.85L287.04,2005.83L287.003,2005.82L286.969,2005.81L286.937,2005.8L286.905,2005.79L286.875,2005.78L286.848,2005.77L286.822,2005.77L286.794,2005.76L286.767,2005.76L286.742,2005.76L286.715,2005.75L286.687,2005.75L286.657,2005.75L286.624,2005.75L286.605,2005.75L286.583,2005.75L286.559,2005.75L286.539,2005.75L286.517,2005.76L286.495,2005.76L286.473,2005.76L286.451,2005.77L286.428,2005.77L286.404,2005.78L286.38,2005.78L286.357,2005.79L286.333,2005.8L286.308,2005.81L286.281,2005.81L286.255,2005.82L286.227,2005.83L286.198,2005.85L286.17,2005.86L286.14,2005.87L286.11,2005.89L286.078,2005.9L286.046,2005.92L286.014,2005.93L285.979,2005.95L285.947,2005.97L285.873,2006.02L285.797,2006.06L285.719,2006.12L285.637,2006.17L285.553,2006.23L285.464,2006.3L285.372,2006.37L285.278,2006.44L285.18,2006.52L285.079,2006.61L284.974,2006.69L284.867,2006.79L284.755,2006.88L284.641,2006.98L284.523,2007.09L284.274,2007.31L283.726,2007.8L283.724,2007.8L282.756,2008.68L282.734,2008.71L282.647,2008.82L282.535,2008.96L282.468,2009.04L282.395,2009.12L282.317,2009.21L282.234,2009.31L282.146,2009.41L282.053,2009.51L281.956,2009.61L281.853,2009.72L281.747,2009.82L281.637,2009.93L281.524,2010.03L281.463,2010.08L281.403,2010.14L281.342,2010.19L281.28,2010.24L281.218,2010.29L281.153,2010.34L281.087,2010.39L281.021,2010.44L280.954,2010.48L280.884,2010.53L280.813,2010.58L280.742,2010.62L280.668,2010.66L280.592,2010.7L280.515,2010.74L280.435,2010.78L280.354,2010.82L280.27,2010.85L280.185,2010.88L280.096,2010.91L280.004,2010.93L279.909,2010.96L279.811,2010.98L279.712,2010.99L279.608,2011L279.501,2011L279.395,2011L279.291,2010.99L279.192,2010.98L279.094,2010.96L278.999,2010.93L278.907,2010.91L278.818,2010.88L278.733,2010.85L278.649,2010.82L278.568,2010.78L278.488,2010.74L278.411,2010.7L278.335,2010.66L278.261,2010.62L278.189,2010.57L278.119,2010.53L278.05,2010.48L277.982,2010.44L277.915,2010.39L277.849,2010.34L277.786,2010.29L277.723,2010.24L277.66,2010.19L277.599,2010.13L277.54,2010.08L277.479,2010.03L277.366,2009.93L277.255,2009.82L277.149,2009.72L277.048,2009.61L276.95,2009.51L276.857,2009.41L276.769,2009.31L276.686,2009.21L276.608,2009.12L276.536,2009.04L276.468,2008.96L276.355,2008.82L276.269,2008.71L276.247,2008.68L275.279,2007.8L275.277,2007.8L274.729,2007.31L274.481,2007.09L274.363,2006.99L274.249,2006.88L274.138,2006.79L274.03,2006.7L273.925,2006.61L273.824,2006.52L273.726,2006.44L273.631,2006.37L273.54,2006.3L273.452,2006.23L273.367,2006.17L273.285,2006.12L273.207,2006.07L273.132,2006.02L273.057,2005.97L273.025,2005.95L272.99,2005.94L272.959,2005.92L272.926,2005.9L272.894,2005.89L272.863,2005.87L272.833,2005.86L272.805,2005.85L272.778,2005.84L272.749,2005.82L272.723,2005.81L272.698,2005.81L272.67,2005.8L272.645,2005.79L272.623,2005.78L272.598,2005.78L272.575,2005.77L272.553,2005.77L272.53,2005.76L272.508,2005.76L272.484,2005.76L272.464,2005.75L272.444,2005.75L272.42,2005.75L272.398,2005.75L272.379,2005.75L272.345,2005.75ZM302.802,2008.19L302.872,2008.19L302.942,2008.2L303.011,2008.21L303.08,2008.22L303.149,2008.23L303.217,2008.24L303.285,2008.26L303.353,2008.27L303.42,2008.29L303.487,2008.31L303.554,2008.34L303.62,2008.36L303.686,2008.39L303.752,2008.42L303.818,2008.45L303.883,2008.48L303.948,2008.52L304.025,2008.56L304.101,2008.61L304.177,2008.65L304.251,2008.69L304.325,2008.74L304.397,2008.79L304.469,2008.83L304.54,2008.88L304.609,2008.92L304.678,2008.97L304.746,2009.02L304.814,2009.07L304.88,2009.12L304.945,2009.16L305.01,2009.21L305.074,2009.26L305.136,2009.31L305.198,2009.36L305.26,2009.41L305.32,2009.46L305.379,2009.51L305.438,2009.56L305.553,2009.66L305.664,2009.77L305.772,2009.87L305.877,2009.98L305.979,2010.08L306.078,2010.19L306.174,2010.3L306.267,2010.4L306.356,2010.51L306.443,2010.62L306.527,2010.73L306.608,2010.85L306.687,2010.96L306.762,2011.07L306.835,2011.18L306.905,2011.29L306.973,2011.4L307.037,2011.52L307.1,2011.63L307.16,2011.75L307.217,2011.86L307.272,2011.97L307.324,2012.09L307.375,2012.2L307.422,2012.31L307.468,2012.43L307.512,2012.54L307.553,2012.65L307.592,2012.76L307.629,2012.88L307.664,2012.99L307.697,2013.1L307.728,2013.21L307.757,2013.32L307.784,2013.43L307.809,2013.54L307.833,2013.65L307.855,2013.76L307.875,2013.86L307.893,2013.97L307.91,2014.07L307.925,2014.18L307.939,2014.28L307.951,2014.38L307.962,2014.49L307.971,2014.59L307.979,2014.68L307.986,2014.78L307.991,2014.88L307.995,2014.97L307.998,2015.07L307.999,2015.16L308,2015.25L308.001,2017L308.001,2018.2L308.001,2018.59L308,2018.75L307.999,2018.87L307.997,2018.98L307.994,2019.1L307.99,2019.21L307.984,2019.32L307.976,2019.42L307.968,2019.53L307.957,2019.63L307.946,2019.73L307.933,2019.83L307.918,2019.92L307.902,2020.02L307.885,2020.11L307.865,2020.2L307.845,2020.28L307.822,2020.37L307.798,2020.45L307.773,2020.53L307.745,2020.61L307.716,2020.69L307.686,2020.76L307.653,2020.84L307.619,2020.91L307.583,2020.97L307.545,2021.04L307.506,2021.11L307.465,2021.17L307.421,2021.23L307.376,2021.29L307.329,2021.35L307.28,2021.4L307.229,2021.45L307.176,2021.5L307.121,2021.55L307.064,2021.6L307.005,2021.65L306.944,2021.69L306.881,2021.73L306.816,2021.77L306.749,2021.81L306.679,2021.85L306.608,2021.88L306.534,2021.92L306.458,2021.95L306.379,2021.98L306.299,2022.01L306.216,2022.04L306.131,2022.06L306.043,2022.08L305.954,2022.11L305.861,2022.13L305.767,2022.14L305.67,2022.16L305.571,2022.18L305.469,2022.19L305.364,2022.2L305.257,2022.22L305.148,2022.23L305.036,2022.23L304.922,2022.24L304.805,2022.24L304.685,2022.25L304.563,2022.25L304.438,2022.25L297.313,2022.25L297.313,2011.75L299.094,2010L299.182,2009.92L299.27,2009.85L299.357,2009.78L299.444,2009.71L299.531,2009.64L299.617,2009.57L299.702,2009.5L299.787,2009.44L299.872,2009.37L299.956,2009.31L300.04,2009.25L300.124,2009.19L300.207,2009.13L300.289,2009.08L300.372,2009.02L300.453,2008.97L300.535,2008.92L300.616,2008.87L300.697,2008.82L300.777,2008.78L300.857,2008.73L300.936,2008.69L301.015,2008.65L301.094,2008.61L301.172,2008.57L301.25,2008.54L301.328,2008.5L301.405,2008.47L301.482,2008.44L301.558,2008.41L301.634,2008.38L301.71,2008.36L301.785,2008.33L301.86,2008.31L301.935,2008.29L302.009,2008.27L302.083,2008.26L302.156,2008.24L302.23,2008.23L302.302,2008.22L302.375,2008.21L302.447,2008.2L302.519,2008.19L302.59,2008.19L302.661,2008.19L302.732,2008.19L302.802,2008.19ZM256.342,2008.19L256.413,2008.19L256.484,2008.19L256.556,2008.2L256.628,2008.21L256.7,2008.22L256.773,2008.23L256.846,2008.24L256.92,2008.26L256.994,2008.27L257.068,2008.29L257.142,2008.31L257.217,2008.33L257.293,2008.36L257.368,2008.38L257.444,2008.41L257.521,2008.44L257.598,2008.47L257.675,2008.5L257.752,2008.54L257.83,2008.57L257.909,2008.61L257.987,2008.65L258.066,2008.69L258.146,2008.73L258.226,2008.78L258.306,2008.82L258.387,2008.87L258.468,2008.92L258.549,2008.97L258.631,2009.02L258.713,2009.08L258.796,2009.13L258.879,2009.19L258.963,2009.25L259.046,2009.31L259.131,2009.37L259.216,2009.44L259.301,2009.5L259.386,2009.57L259.472,2009.64L259.559,2009.71L259.645,2009.78L259.733,2009.85L259.82,2009.92L259.908,2010L261.69,2011.75L261.69,2022.25L254.565,2022.25L254.44,2022.25L254.318,2022.25L254.198,2022.24L254.081,2022.24L253.967,2022.23L253.855,2022.23L253.745,2022.22L253.638,2022.2L253.534,2022.19L253.432,2022.18L253.333,2022.16L253.236,2022.14L253.141,2022.13L253.049,2022.11L252.959,2022.08L252.872,2022.06L252.787,2022.04L252.704,2022.01L252.623,2021.98L252.545,2021.95L252.469,2021.92L252.395,2021.88L252.323,2021.85L252.254,2021.81L252.187,2021.77L252.121,2021.73L252.058,2021.69L251.997,2021.65L251.938,2021.6L251.881,2021.55L251.827,2021.5L251.774,2021.45L251.723,2021.4L251.674,2021.35L251.627,2021.29L251.581,2021.23L251.538,2021.17L251.497,2021.11L251.457,2021.04L251.42,2020.97L251.384,2020.9L251.349,2020.84L251.317,2020.76L251.286,2020.69L251.257,2020.61L251.23,2020.53L251.204,2020.45L251.18,2020.37L251.158,2020.28L251.137,2020.2L251.118,2020.11L251.101,2020.02L251.084,2019.92L251.07,2019.83L251.057,2019.73L251.045,2019.63L251.035,2019.53L251.026,2019.42L251.019,2019.32L251.013,2019.21L251.008,2019.1L251.005,2018.98L251.003,2018.87L251.003,2018.75L251.002,2018.59L251.001,2018.2L251.002,2017L251.003,2015.25L251.003,2015.16L251.005,2015.07L251.008,2014.97L251.012,2014.88L251.017,2014.78L251.024,2014.68L251.032,2014.59L251.041,2014.49L251.052,2014.38L251.064,2014.28L251.077,2014.18L251.093,2014.07L251.109,2013.97L251.128,2013.86L251.148,2013.76L251.17,2013.65L251.193,2013.54L251.219,2013.43L251.246,2013.32L251.275,2013.21L251.306,2013.1L251.339,2012.99L251.374,2012.88L251.411,2012.76L251.45,2012.65L251.491,2012.54L251.535,2012.43L251.58,2012.31L251.628,2012.2L251.678,2012.09L251.731,2011.97L251.786,2011.86L251.843,2011.75L251.903,2011.63L251.965,2011.52L252.03,2011.4L252.098,2011.29L252.168,2011.18L252.241,2011.07L252.316,2010.96L252.394,2010.85L252.475,2010.73L252.559,2010.62L252.646,2010.51L252.736,2010.4L252.829,2010.3L252.924,2010.19L253.023,2010.08L253.125,2009.98L253.23,2009.87L253.339,2009.77L253.45,2009.66L253.565,2009.56L253.623,2009.51L253.683,2009.46L253.743,2009.41L253.804,2009.36L253.866,2009.31L253.929,2009.26L253.993,2009.21L254.057,2009.16L254.123,2009.12L254.189,2009.07L254.256,2009.02L254.324,2008.97L254.393,2008.92L254.463,2008.88L254.534,2008.83L254.606,2008.79L254.678,2008.74L254.752,2008.69L254.826,2008.65L254.901,2008.61L254.978,2008.56L255.055,2008.52L255.12,2008.48L255.185,2008.45L255.25,2008.42L255.316,2008.39L255.382,2008.36L255.449,2008.34L255.515,2008.31L255.583,2008.29L255.65,2008.27L255.718,2008.26L255.786,2008.24L255.854,2008.23L255.923,2008.22L255.992,2008.21L256.061,2008.2L256.131,2008.19L256.201,2008.19L256.271,2008.19L256.342,2008.19ZM302.676,2009.19L302.63,2009.19L302.584,2009.19L302.539,2009.2L302.491,2009.2L302.442,2009.21L302.393,2009.22L302.343,2009.22L302.292,2009.24L302.24,2009.25L302.186,2009.26L302.132,2009.28L302.076,2009.29L302.021,2009.31L301.964,2009.33L301.905,2009.35L301.845,2009.37L301.785,2009.39L301.724,2009.42L301.661,2009.45L301.597,2009.48L301.534,2009.51L301.469,2009.54L301.403,2009.58L301.336,2009.61L301.267,2009.65L301.2,2009.69L301.13,2009.73L301.059,2009.77L300.989,2009.82L300.917,2009.86L300.844,2009.91L300.77,2009.96L300.696,2010.01L300.621,2010.06L300.545,2010.12L300.468,2010.17L300.391,2010.23L300.314,2010.29L300.235,2010.35L300.155,2010.42L300.076,2010.48L299.995,2010.55L299.914,2010.62L299.832,2010.68L299.771,2010.74L298.314,2012.17L298.315,2012.36L298.313,2012.36L298.313,2021.25L304.435,2021.25L304.552,2021.25L304.662,2021.25L304.768,2021.25L304.872,2021.24L304.973,2021.24L305.069,2021.23L305.164,2021.22L305.254,2021.21L305.341,2021.2L305.425,2021.19L305.506,2021.18L305.583,2021.16L305.657,2021.15L305.727,2021.13L305.795,2021.12L305.86,2021.1L305.921,2021.08L305.979,2021.06L306.033,2021.04L306.086,2021.02L306.134,2021L306.18,2020.98L306.224,2020.96L306.264,2020.94L306.303,2020.92L306.339,2020.89L306.374,2020.87L306.406,2020.85L306.436,2020.82L306.465,2020.8L306.493,2020.77L306.52,2020.75L306.545,2020.72L306.57,2020.69L306.594,2020.66L306.617,2020.63L306.639,2020.6L306.662,2020.57L306.684,2020.53L306.705,2020.5L306.726,2020.46L306.747,2020.41L306.767,2020.37L306.786,2020.32L306.805,2020.27L306.824,2020.22L306.841,2020.16L306.858,2020.1L306.875,2020.04L306.89,2019.98L306.905,2019.91L306.918,2019.84L306.931,2019.76L306.943,2019.69L306.954,2019.61L306.963,2019.52L306.972,2019.44L306.979,2019.35L306.986,2019.26L306.991,2019.16L306.995,2019.06L306.998,2018.96L306.999,2018.86L307,2018.75L307.001,2018.59L307.001,2018.2L307.001,2017L307,2015.25L307,2015.17L306.998,2015.09L306.996,2015.01L306.992,2014.93L306.987,2014.84L306.982,2014.76L306.975,2014.67L306.967,2014.58L306.957,2014.5L306.947,2014.41L306.935,2014.32L306.922,2014.23L306.907,2014.13L306.891,2014.04L306.873,2013.95L306.854,2013.85L306.834,2013.76L306.812,2013.66L306.788,2013.57L306.763,2013.47L306.736,2013.38L306.707,2013.28L306.677,2013.18L306.645,2013.09L306.611,2012.99L306.575,2012.89L306.537,2012.79L306.498,2012.69L306.457,2012.6L306.413,2012.5L306.368,2012.4L306.32,2012.3L306.271,2012.2L306.219,2012.11L306.166,2012.01L306.11,2011.91L306.052,2011.81L305.991,2011.72L305.928,2011.62L305.863,2011.52L305.796,2011.43L305.726,2011.33L305.653,2011.24L305.578,2011.14L305.501,2011.05L305.421,2010.95L305.337,2010.86L305.251,2010.77L305.163,2010.67L305.072,2010.58L304.977,2010.49L304.88,2010.4L304.778,2010.31L304.728,2010.27L304.677,2010.23L304.624,2010.18L304.57,2010.14L304.516,2010.09L304.461,2010.05L304.404,2010.01L304.347,2009.96L304.289,2009.92L304.231,2009.88L304.171,2009.84L304.111,2009.8L304.05,2009.75L303.988,2009.71L303.926,2009.67L303.862,2009.63L303.796,2009.59L303.731,2009.55L303.665,2009.51L303.598,2009.47L303.528,2009.43L303.463,2009.39L303.418,2009.37L303.377,2009.35L303.336,2009.33L303.295,2009.31L303.254,2009.29L303.214,2009.28L303.174,2009.26L303.133,2009.25L303.093,2009.24L303.053,2009.23L303.013,2009.22L302.972,2009.21L302.932,2009.21L302.89,2009.2L302.847,2009.2L302.806,2009.19L302.763,2009.19L302.719,2009.19L302.676,2009.19ZM256.24,2009.19L256.197,2009.19L256.155,2009.2L256.113,2009.2L256.071,2009.21L256.031,2009.21L255.99,2009.22L255.95,2009.23L255.91,2009.24L255.869,2009.25L255.829,2009.26L255.788,2009.28L255.749,2009.29L255.708,2009.31L255.666,2009.33L255.626,2009.35L255.584,2009.37L255.54,2009.39L255.474,2009.43L255.405,2009.47L255.338,2009.51L255.272,2009.55L255.206,2009.59L255.142,2009.63L255.078,2009.67L255.015,2009.71L254.952,2009.75L254.891,2009.8L254.831,2009.84L254.772,2009.88L254.713,2009.92L254.655,2009.97L254.598,2010.01L254.543,2010.05L254.487,2010.09L254.432,2010.14L254.379,2010.18L254.326,2010.23L254.273,2010.27L254.224,2010.31L254.123,2010.4L254.025,2010.49L253.931,2010.58L253.84,2010.68L253.751,2010.77L253.665,2010.86L253.582,2010.95L253.502,2011.05L253.425,2011.14L253.349,2011.24L253.277,2011.33L253.207,2011.43L253.139,2011.52L253.074,2011.62L253.011,2011.72L252.951,2011.81L252.893,2011.91L252.837,2012.01L252.783,2012.11L252.732,2012.2L252.682,2012.3L252.635,2012.4L252.589,2012.5L252.546,2012.6L252.505,2012.69L252.465,2012.79L252.428,2012.89L252.392,2012.99L252.358,2013.09L252.326,2013.18L252.296,2013.28L252.267,2013.38L252.24,2013.47L252.215,2013.57L252.191,2013.66L252.169,2013.76L252.148,2013.85L252.129,2013.95L252.112,2014.04L252.096,2014.13L252.081,2014.23L252.068,2014.32L252.056,2014.41L252.045,2014.5L252.036,2014.58L252.028,2014.67L252.021,2014.76L252.015,2014.84L252.011,2014.93L252.007,2015.01L252.005,2015.09L252.003,2015.17L252.003,2015.25L252.002,2017L252.001,2018.2L252.002,2018.59L252.003,2018.75L252.003,2018.86L252.005,2018.96L252.008,2019.06L252.012,2019.16L252.017,2019.26L252.023,2019.35L252.031,2019.44L252.04,2019.52L252.049,2019.61L252.06,2019.69L252.072,2019.76L252.084,2019.84L252.098,2019.91L252.113,2019.98L252.128,2020.04L252.144,2020.1L252.161,2020.16L252.179,2020.22L252.198,2020.27L252.217,2020.32L252.236,2020.37L252.256,2020.41L252.277,2020.46L252.298,2020.5L252.319,2020.53L252.341,2020.57L252.363,2020.6L252.386,2020.63L252.409,2020.66L252.433,2020.69L252.458,2020.72L252.483,2020.75L252.51,2020.77L252.538,2020.8L252.567,2020.82L252.597,2020.85L252.629,2020.87L252.664,2020.89L252.7,2020.92L252.738,2020.94L252.779,2020.96L252.822,2020.98L252.869,2021L252.918,2021.02L252.97,2021.04L253.024,2021.06L253.082,2021.08L253.143,2021.1L253.208,2021.12L253.275,2021.13L253.346,2021.15L253.42,2021.16L253.497,2021.18L253.578,2021.19L253.662,2021.2L253.748,2021.21L253.839,2021.22L253.933,2021.23L254.03,2021.24L254.13,2021.24L254.234,2021.25L254.341,2021.25L254.452,2021.25L254.568,2021.25L260.69,2021.25L260.69,2012.37L260.688,2012.37L260.688,2012.17L259.231,2010.74L259.171,2010.68L259.089,2010.62L259.008,2010.55L258.927,2010.48L258.847,2010.42L258.768,2010.35L258.689,2010.29L258.611,2010.23L258.534,2010.17L258.458,2010.12L258.382,2010.06L258.307,2010.01L258.232,2009.96L258.159,2009.91L258.087,2009.86L258.015,2009.82L257.943,2009.77L257.873,2009.73L257.804,2009.69L257.735,2009.65L257.667,2009.61L257.6,2009.58L257.534,2009.54L257.469,2009.51L257.405,2009.48L257.342,2009.45L257.279,2009.42L257.218,2009.39L257.158,2009.37L257.098,2009.35L257.039,2009.33L256.982,2009.31L256.927,2009.29L256.871,2009.28L256.817,2009.26L256.763,2009.25L256.711,2009.24L256.66,2009.22L256.609,2009.22L256.56,2009.21L256.512,2009.2L256.465,2009.2L256.418,2009.19L256.373,2009.19L256.327,2009.19L256.284,2009.19L256.24,2009.19ZM261.699,2011.39L261.7,2011.39L261.702,2011.42L261.704,2011.45L261.706,2011.5L261.707,2011.55L261.707,2011.6L261.706,2011.65L261.704,2011.69L261.701,2011.73L261.699,2011.74L261.696,2011.75L261.695,2011.75L261.693,2011.75L261.691,2011.75L261.69,2011.75L261.69,2011.61L261.691,2011.51L261.693,2011.44L261.695,2011.4L261.696,2011.39L261.698,2011.39L261.698,2011.39L261.699,2011.39ZM297.305,2011.39L297.306,2011.39L297.307,2011.4L297.309,2011.44L297.311,2011.51L297.312,2011.61L297.313,2011.75L297.311,2011.75L297.309,2011.75L297.308,2011.75L297.306,2011.75L297.304,2011.74L297.302,2011.73L297.298,2011.69L297.296,2011.65L297.296,2011.6L297.296,2011.55L297.297,2011.5L297.298,2011.45L297.3,2011.42L297.303,2011.39L297.304,2011.39L297.304,2011.39L297.305,2011.39ZM261.823,1990.73L261.942,1990.73L262.061,1990.74L262.18,1990.75L262.299,1990.76L262.419,1990.78L262.538,1990.79L262.657,1990.81L262.777,1990.84L262.896,1990.86L263.014,1990.89L263.133,1990.92L263.251,1990.95L263.368,1990.99L263.485,1991.03L263.601,1991.07L263.717,1991.12L263.832,1991.16L263.946,1991.21L264.059,1991.27L264.171,1991.32L264.282,1991.38L264.392,1991.44L264.501,1991.5L264.555,1991.54L264.608,1991.57L264.661,1991.6L264.714,1991.64L264.767,1991.67L264.819,1991.71L264.871,1991.75L264.922,1991.79L264.973,1991.82L265.024,1991.86L265.074,1991.9L265.124,1991.94L265.173,1991.98L265.222,1992.03L265.27,1992.07L265.318,1992.11L265.366,1992.15L265.413,1992.2L265.46,1992.24L265.506,1992.29L265.552,1992.34L265.597,1992.38L265.641,1992.43L265.685,1992.48L265.729,1992.53L265.772,1992.58L265.814,1992.63L265.856,1992.68L265.898,1992.74L265.938,1992.79L265.979,1992.84L266.018,1992.89L266.057,1992.95L266.096,1993.01L266.133,1993.06L266.17,1993.12L266.207,1993.18L266.243,1993.24L266.278,1993.3L266.312,1993.36L266.346,1993.41L266.379,1993.48L266.412,1993.54L266.444,1993.6L266.475,1993.66L266.505,1993.73L266.534,1993.79L266.563,1993.86L266.591,1993.92L266.619,1993.99L266.645,1994.06L266.671,1994.13L266.696,1994.2L266.72,1994.27L266.744,1994.34L266.766,1994.41L266.788,1994.48L266.809,1994.55L266.829,1994.63L266.849,1994.7L266.867,1994.77L266.885,1994.85L266.901,1994.93L266.917,1995L266.932,1995.08L266.946,1995.16L266.959,1995.24L266.972,1995.32L266.983,1995.4L266.993,1995.48L267.003,1995.56L267.011,1995.64L267.019,1995.73L267.025,1995.81L267.031,1995.89L267.035,1995.98L267.039,1996.07L267.041,1996.15L267.043,1996.24L267.043,1996.33L267.043,1999.13L267.043,1999.22L267.04,1999.3L267.037,1999.39L267.032,1999.48L267.026,1999.56L267.018,1999.65L267.009,1999.73L266.999,1999.81L266.988,1999.9L266.975,1999.98L266.961,2000.06L266.945,2000.14L266.929,2000.22L266.911,2000.3L266.893,2000.38L266.873,2000.45L266.851,2000.53L266.829,2000.61L266.806,2000.68L266.781,2000.76L266.756,2000.83L266.729,2000.9L266.702,2000.98L266.673,2001.05L266.644,2001.12L266.613,2001.19L266.581,2001.26L266.549,2001.33L266.516,2001.4L266.481,2001.46L266.446,2001.53L266.41,2001.6L266.373,2001.66L266.336,2001.73L266.297,2001.79L266.258,2001.86L266.218,2001.92L266.177,2001.98L266.135,2002.04L266.093,2002.1L266.05,2002.16L266.006,2002.22L265.962,2002.28L265.917,2002.34L265.871,2002.39L265.825,2002.45L265.778,2002.51L265.731,2002.56L265.683,2002.62L265.635,2002.67L265.586,2002.72L265.536,2002.77L265.486,2002.83L265.436,2002.88L265.385,2002.93L265.334,2002.98L265.282,2003.02L265.23,2003.07L265.177,2003.12L265.124,2003.17L265.018,2003.26L264.91,2003.35L264.801,2003.43L264.691,2003.51L264.581,2003.59L264.47,2003.67L264.358,2003.75L264.246,2003.82L264.134,2003.89L264.022,2003.95L263.91,2004.02L263.798,2004.08L263.687,2004.13L263.576,2004.19L263.466,2004.24L263.357,2004.29L263.249,2004.34L263.142,2004.38L263.036,2004.43L262.932,2004.47L262.829,2004.5L262.728,2004.54L262.629,2004.57L262.532,2004.59L262.437,2004.62L262.345,2004.64L262.255,2004.66L262.167,2004.68L262.082,2004.69L262.001,2004.71L261.922,2004.72L261.846,2004.72L261.774,2004.73L261.705,2004.73L261.64,2004.73L261.571,2004.72L261.498,2004.72L261.422,2004.71L261.343,2004.69L261.261,2004.68L261.175,2004.66L261.087,2004.64L260.997,2004.62L260.903,2004.59L260.808,2004.57L260.71,2004.54L260.61,2004.5L260.509,2004.47L260.405,2004.43L260.3,2004.38L260.194,2004.34L260.086,2004.29L259.978,2004.24L259.868,2004.19L259.757,2004.13L259.646,2004.08L259.534,2004.02L259.422,2003.95L259.309,2003.89L259.197,2003.82L259.084,2003.75L258.972,2003.67L258.86,2003.59L258.749,2003.51L258.639,2003.43L258.529,2003.35L258.42,2003.26L258.313,2003.17L258.259,2003.12L258.206,2003.07L258.154,2003.02L258.101,2002.98L258.05,2002.93L257.998,2002.88L257.947,2002.83L257.897,2002.77L257.847,2002.72L257.797,2002.67L257.748,2002.62L257.7,2002.56L257.652,2002.51L257.604,2002.45L257.557,2002.39L257.511,2002.34L257.466,2002.28L257.421,2002.22L257.376,2002.16L257.333,2002.1L257.29,2002.04L257.248,2001.98L257.206,2001.92L257.166,2001.86L257.126,2001.79L257.087,2001.73L257.048,2001.66L257.011,2001.6L256.974,2001.53L256.939,2001.46L256.904,2001.4L256.87,2001.33L256.837,2001.26L256.805,2001.19L256.774,2001.12L256.744,2001.05L256.715,2000.98L256.687,2000.9L256.66,2000.83L256.634,2000.76L256.609,2000.68L256.585,2000.61L256.563,2000.53L256.541,2000.45L256.521,2000.38L256.502,2000.3L256.484,2000.22L256.467,2000.14L256.451,2000.06L256.437,1999.98L256.424,1999.9L256.412,1999.81L256.402,1999.73L256.393,1999.65L256.385,1999.56L256.379,1999.48L256.374,1999.39L256.37,1999.3L256.368,1999.22L256.367,1999.13L256.367,1996.33L256.368,1996.24L256.369,1996.15L256.372,1996.07L256.376,1995.98L256.38,1995.89L256.386,1995.81L256.393,1995.73L256.4,1995.64L256.409,1995.56L256.419,1995.48L256.429,1995.4L256.441,1995.32L256.454,1995.24L256.467,1995.16L256.481,1995.08L256.497,1995L256.513,1994.93L256.53,1994.85L256.548,1994.77L256.567,1994.7L256.587,1994.63L256.607,1994.55L256.629,1994.48L256.651,1994.41L256.674,1994.34L256.698,1994.27L256.723,1994.2L256.749,1994.13L256.775,1994.06L256.802,1993.99L256.83,1993.92L256.859,1993.86L256.888,1993.79L256.919,1993.73L256.95,1993.66L256.981,1993.6L257.014,1993.54L257.047,1993.48L257.08,1993.41L257.115,1993.36L257.15,1993.3L257.186,1993.24L257.222,1993.18L257.26,1993.12L257.297,1993.06L257.336,1993.01L257.375,1992.95L257.414,1992.89L257.455,1992.84L257.495,1992.79L257.537,1992.74L257.579,1992.68L257.621,1992.63L257.664,1992.58L257.708,1992.53L257.752,1992.48L257.797,1992.43L257.842,1992.38L257.888,1992.34L257.934,1992.29L257.98,1992.24L258.028,1992.2L258.075,1992.15L258.123,1992.11L258.172,1992.07L258.221,1992.03L258.27,1991.98L258.32,1991.94L258.37,1991.9L258.421,1991.86L258.472,1991.82L258.523,1991.79L258.575,1991.75L258.627,1991.71L258.679,1991.67L258.732,1991.64L258.785,1991.6L258.839,1991.57L258.946,1991.5L259.055,1991.44L259.165,1991.38L259.276,1991.32L259.388,1991.27L259.501,1991.21L259.615,1991.16L259.729,1991.12L259.844,1991.07L259.96,1991.03L260.076,1990.99L260.192,1990.95L260.309,1990.92L260.425,1990.89L260.543,1990.86L260.66,1990.84L260.777,1990.81L260.894,1990.79L261.011,1990.78L261.128,1990.76L261.244,1990.75L261.36,1990.74L261.476,1990.73L261.591,1990.73L261.705,1990.73L261.823,1990.73ZM297.758,1990.73L297.877,1990.73L297.996,1990.74L298.115,1990.75L298.234,1990.76L298.354,1990.78L298.473,1990.79L298.592,1990.81L298.711,1990.84L298.83,1990.86L298.949,1990.89L299.068,1990.92L299.186,1990.95L299.303,1990.99L299.42,1991.03L299.536,1991.07L299.652,1991.12L299.767,1991.16L299.881,1991.21L299.994,1991.27L300.106,1991.32L300.217,1991.38L300.327,1991.44L300.436,1991.5L300.489,1991.54L300.543,1991.57L300.596,1991.6L300.649,1991.64L300.702,1991.67L300.754,1991.71L300.805,1991.75L300.857,1991.79L300.908,1991.82L300.958,1991.86L301.009,1991.9L301.058,1991.94L301.108,1991.98L301.157,1992.03L301.205,1992.07L301.253,1992.11L301.301,1992.15L301.348,1992.2L301.395,1992.24L301.441,1992.29L301.486,1992.34L301.531,1992.38L301.576,1992.43L301.62,1992.48L301.664,1992.53L301.707,1992.58L301.749,1992.63L301.791,1992.68L301.832,1992.74L301.873,1992.79L301.913,1992.84L301.953,1992.89L301.992,1992.95L302.03,1993.01L302.068,1993.06L302.105,1993.12L302.142,1993.18L302.178,1993.24L302.213,1993.3L302.247,1993.36L302.281,1993.41L302.314,1993.48L302.347,1993.54L302.378,1993.6L302.409,1993.66L302.44,1993.73L302.469,1993.79L302.498,1993.86L302.526,1993.92L302.554,1993.99L302.58,1994.06L302.606,1994.13L302.631,1994.2L302.655,1994.27L302.679,1994.34L302.701,1994.41L302.723,1994.48L302.744,1994.55L302.764,1994.63L302.783,1994.7L302.802,1994.77L302.819,1994.85L302.836,1994.93L302.852,1995L302.867,1995.08L302.881,1995.16L302.894,1995.24L302.906,1995.32L302.918,1995.4L302.928,1995.48L302.937,1995.56L302.946,1995.64L302.953,1995.73L302.96,1995.81L302.965,1995.89L302.97,1995.98L302.974,1996.07L302.976,1996.15L302.978,1996.24L302.978,1996.33L302.978,1999.13L302.977,1999.22L302.975,1999.3L302.972,1999.39L302.967,1999.48L302.961,1999.56L302.953,1999.65L302.944,1999.73L302.934,1999.81L302.922,1999.9L302.91,1999.98L302.896,2000.06L302.88,2000.14L302.864,2000.22L302.846,2000.3L302.827,2000.38L302.807,2000.45L302.786,2000.53L302.764,2000.61L302.741,2000.68L302.716,2000.76L302.691,2000.83L302.664,2000.9L302.637,2000.98L302.608,2001.05L302.578,2001.12L302.548,2001.19L302.516,2001.26L302.484,2001.33L302.45,2001.4L302.416,2001.46L302.381,2001.53L302.345,2001.6L302.308,2001.66L302.27,2001.73L302.232,2001.79L302.193,2001.86L302.152,2001.92L302.112,2001.98L302.07,2002.04L302.028,2002.1L301.985,2002.16L301.941,2002.22L301.897,2002.28L301.852,2002.34L301.806,2002.39L301.76,2002.45L301.713,2002.51L301.666,2002.56L301.618,2002.62L301.569,2002.67L301.52,2002.72L301.471,2002.77L301.421,2002.83L301.37,2002.88L301.32,2002.93L301.268,2002.98L301.217,2003.02L301.165,2003.07L301.112,2003.12L301.059,2003.17L300.953,2003.26L300.845,2003.35L300.736,2003.43L300.626,2003.51L300.516,2003.59L300.404,2003.67L300.293,2003.75L300.181,2003.82L300.069,2003.89L299.957,2003.95L299.845,2004.02L299.733,2004.08L299.622,2004.13L299.511,2004.19L299.401,2004.24L299.292,2004.29L299.184,2004.34L299.077,2004.38L298.971,2004.43L298.867,2004.47L298.764,2004.5L298.663,2004.54L298.564,2004.57L298.467,2004.59L298.372,2004.62L298.279,2004.64L298.189,2004.66L298.102,2004.68L298.017,2004.69L297.935,2004.71L297.857,2004.72L297.781,2004.72L297.709,2004.73L297.64,2004.73L297.575,2004.73L297.506,2004.72L297.433,2004.72L297.357,2004.71L297.278,2004.69L297.196,2004.68L297.11,2004.66L297.022,2004.64L296.932,2004.62L296.838,2004.59L296.743,2004.57L296.645,2004.54L296.545,2004.5L296.444,2004.47L296.34,2004.43L296.235,2004.38L296.129,2004.34L296.021,2004.29L295.912,2004.24L295.803,2004.19L295.692,2004.13L295.581,2004.08L295.469,2004.02L295.357,2003.95L295.244,2003.89L295.132,2003.82L295.019,2003.75L294.907,2003.67L294.795,2003.59L294.684,2003.51L294.573,2003.43L294.464,2003.35L294.355,2003.26L294.247,2003.17L294.194,2003.12L294.141,2003.07L294.088,2003.02L294.036,2002.98L293.984,2002.93L293.933,2002.88L293.882,2002.83L293.831,2002.77L293.781,2002.72L293.732,2002.67L293.683,2002.62L293.634,2002.56L293.586,2002.51L293.539,2002.45L293.492,2002.39L293.446,2002.34L293.4,2002.28L293.355,2002.22L293.311,2002.16L293.268,2002.1L293.225,2002.04L293.182,2001.98L293.141,2001.92L293.1,2001.86L293.061,2001.79L293.021,2001.73L292.983,2001.66L292.946,2001.6L292.909,2001.53L292.873,2001.46L292.839,2001.4L292.805,2001.33L292.772,2001.26L292.74,2001.19L292.709,2001.12L292.679,2001.05L292.65,2000.98L292.621,2000.9L292.594,2000.83L292.569,2000.76L292.544,2000.68L292.52,2000.61L292.497,2000.53L292.476,2000.45L292.455,2000.38L292.436,2000.3L292.418,2000.22L292.402,2000.14L292.386,2000.06L292.372,1999.98L292.359,1999.9L292.347,1999.81L292.337,1999.73L292.327,1999.65L292.32,1999.56L292.313,1999.48L292.308,1999.39L292.305,1999.3L292.303,1999.22L292.302,1999.13L292.302,1996.33L292.302,1996.24L292.304,1996.15L292.307,1996.07L292.31,1995.98L292.315,1995.89L292.321,1995.81L292.327,1995.73L292.335,1995.64L292.344,1995.56L292.353,1995.48L292.364,1995.4L292.376,1995.32L292.388,1995.24L292.402,1995.16L292.416,1995.08L292.431,1995L292.448,1994.93L292.465,1994.85L292.483,1994.77L292.502,1994.7L292.521,1994.63L292.542,1994.55L292.564,1994.48L292.586,1994.41L292.609,1994.34L292.633,1994.27L292.658,1994.2L292.683,1994.13L292.71,1994.06L292.737,1993.99L292.765,1993.92L292.794,1993.86L292.823,1993.79L292.853,1993.73L292.884,1993.66L292.916,1993.6L292.948,1993.54L292.981,1993.48L293.015,1993.41L293.05,1993.36L293.085,1993.3L293.121,1993.24L293.157,1993.18L293.194,1993.12L293.232,1993.06L293.27,1993.01L293.309,1992.95L293.349,1992.89L293.389,1992.84L293.43,1992.79L293.471,1992.74L293.513,1992.68L293.556,1992.63L293.599,1992.58L293.643,1992.53L293.687,1992.48L293.731,1992.43L293.777,1992.38L293.822,1992.34L293.869,1992.29L293.915,1992.24L293.962,1992.2L294.01,1992.15L294.058,1992.11L294.107,1992.07L294.156,1992.03L294.205,1991.98L294.255,1991.94L294.305,1991.9L294.355,1991.86L294.406,1991.82L294.458,1991.79L294.51,1991.75L294.562,1991.71L294.614,1991.67L294.667,1991.64L294.72,1991.6L294.773,1991.57L294.881,1991.5L294.99,1991.44L295.1,1991.38L295.211,1991.32L295.323,1991.27L295.436,1991.21L295.55,1991.16L295.664,1991.12L295.779,1991.07L295.894,1991.03L296.01,1990.99L296.127,1990.95L296.243,1990.92L296.36,1990.89L296.477,1990.86L296.594,1990.84L296.712,1990.81L296.829,1990.79L296.946,1990.78L297.062,1990.76L297.179,1990.75L297.295,1990.74L297.41,1990.73L297.525,1990.73L297.64,1990.73L297.758,1990.73ZM261.614,1991.73L261.522,1991.73L261.429,1991.74L261.336,1991.75L261.241,1991.76L261.147,1991.77L261.052,1991.78L260.957,1991.8L260.861,1991.82L260.766,1991.84L260.67,1991.86L260.575,1991.88L260.48,1991.91L260.384,1991.94L260.289,1991.97L260.195,1992.01L260.1,1992.05L260.006,1992.08L259.914,1992.12L259.822,1992.17L259.73,1992.21L259.639,1992.26L259.549,1992.31L259.46,1992.36L259.37,1992.42L259.33,1992.44L259.286,1992.47L259.243,1992.5L259.201,1992.53L259.158,1992.56L259.116,1992.59L259.074,1992.62L259.033,1992.65L258.993,1992.68L258.951,1992.72L258.911,1992.75L258.871,1992.79L258.831,1992.82L258.792,1992.85L258.754,1992.89L258.715,1992.92L258.678,1992.96L258.64,1993L258.602,1993.04L258.565,1993.08L258.529,1993.11L258.494,1993.15L258.458,1993.19L258.423,1993.23L258.388,1993.27L258.354,1993.31L258.32,1993.36L258.287,1993.4L258.254,1993.44L258.222,1993.49L258.19,1993.53L258.158,1993.58L258.128,1993.62L258.097,1993.67L258.067,1993.71L258.038,1993.76L258.009,1993.81L257.981,1993.86L257.953,1993.9L257.926,1993.95L257.899,1994L257.873,1994.05L257.847,1994.11L257.822,1994.16L257.798,1994.21L257.774,1994.26L257.75,1994.32L257.728,1994.37L257.706,1994.43L257.684,1994.48L257.663,1994.54L257.643,1994.6L257.623,1994.65L257.604,1994.71L257.586,1994.77L257.568,1994.83L257.551,1994.89L257.535,1994.95L257.519,1995.01L257.504,1995.08L257.49,1995.14L257.476,1995.2L257.464,1995.27L257.452,1995.33L257.44,1995.4L257.43,1995.47L257.42,1995.53L257.411,1995.6L257.403,1995.67L257.396,1995.74L257.389,1995.81L257.383,1995.88L257.378,1995.96L257.374,1996.03L257.371,1996.1L257.369,1996.18L257.368,1996.25L257.367,1996.33L257.367,1999.12L257.368,1999.2L257.37,1999.27L257.373,1999.34L257.377,1999.41L257.382,1999.48L257.388,1999.55L257.395,1999.62L257.404,1999.68L257.413,1999.75L257.423,1999.81L257.435,1999.88L257.447,1999.94L257.461,2000.01L257.475,2000.07L257.49,2000.13L257.506,2000.19L257.523,2000.25L257.541,2000.31L257.56,2000.37L257.58,2000.43L257.601,2000.49L257.622,2000.55L257.645,2000.61L257.668,2000.67L257.692,2000.72L257.717,2000.78L257.743,2000.84L257.769,2000.89L257.796,2000.94L257.824,2001L257.853,2001.05L257.883,2001.11L257.913,2001.16L257.944,2001.21L257.976,2001.27L258.008,2001.32L258.042,2001.37L258.075,2001.42L258.11,2001.47L258.145,2001.52L258.181,2001.57L258.217,2001.62L258.254,2001.66L258.292,2001.71L258.331,2001.76L258.369,2001.81L258.409,2001.85L258.449,2001.9L258.489,2001.94L258.531,2001.99L258.572,2002.03L258.614,2002.08L258.657,2002.12L258.7,2002.16L258.743,2002.21L258.787,2002.25L258.832,2002.29L258.876,2002.33L258.921,2002.37L258.965,2002.41L259.058,2002.49L259.152,2002.56L259.246,2002.64L259.341,2002.71L259.437,2002.78L259.534,2002.84L259.631,2002.91L259.727,2002.97L259.825,2003.03L259.922,2003.09L260.019,2003.14L260.116,2003.19L260.212,2003.25L260.307,2003.29L260.402,2003.34L260.495,2003.38L260.587,2003.42L260.678,2003.46L260.767,2003.49L260.854,2003.53L260.938,2003.56L261.02,2003.58L261.1,2003.61L261.177,2003.63L261.25,2003.65L261.321,2003.67L261.386,2003.68L261.448,2003.7L261.507,2003.71L261.558,2003.72L261.605,2003.72L261.646,2003.73L261.679,2003.73L261.706,2003.73L261.736,2003.73L261.774,2003.73L261.819,2003.72L261.869,2003.72L261.923,2003.71L261.984,2003.7L262.049,2003.68L262.116,2003.67L262.188,2003.65L262.263,2003.63L262.341,2003.61L262.422,2003.58L262.505,2003.56L262.59,2003.53L262.677,2003.49L262.766,2003.46L262.858,2003.42L262.949,2003.38L263.043,2003.34L263.137,2003.29L263.232,2003.25L263.328,2003.19L263.424,2003.14L263.521,2003.09L263.617,2003.03L263.714,2002.97L263.81,2002.91L263.906,2002.85L264.002,2002.78L264.097,2002.71L264.191,2002.64L264.284,2002.57L264.376,2002.49L264.469,2002.41L264.512,2002.37L264.556,2002.33L264.6,2002.29L264.644,2002.25L264.688,2002.21L264.73,2002.17L264.773,2002.12L264.814,2002.08L264.856,2002.04L264.897,2001.99L264.938,2001.95L264.978,2001.9L265.017,2001.86L265.056,2001.81L265.094,2001.77L265.132,2001.72L265.169,2001.67L265.206,2001.62L265.242,2001.57L265.277,2001.52L265.311,2001.47L265.345,2001.42L265.379,2001.37L265.412,2001.32L265.444,2001.27L265.475,2001.22L265.505,2001.17L265.535,2001.11L265.564,2001.06L265.593,2001.01L265.62,2000.95L265.647,2000.9L265.673,2000.84L265.699,2000.79L265.723,2000.73L265.747,2000.67L265.77,2000.61L265.792,2000.56L265.813,2000.5L265.833,2000.44L265.853,2000.38L265.872,2000.32L265.889,2000.26L265.906,2000.2L265.922,2000.13L265.937,2000.07L265.951,2000.01L265.965,1999.94L265.977,1999.88L265.988,1999.82L265.998,1999.75L266.008,1999.68L266.016,1999.62L266.023,1999.55L266.029,1999.48L266.034,1999.41L266.038,1999.34L266.041,1999.27L266.043,1999.2L266.043,1999.12L266.043,1996.33L266.043,1996.25L266.042,1996.18L266.039,1996.1L266.036,1996.03L266.032,1995.95L266.028,1995.88L266.022,1995.81L266.016,1995.74L266.008,1995.67L266,1995.6L265.992,1995.53L265.982,1995.46L265.972,1995.39L265.961,1995.33L265.949,1995.26L265.936,1995.2L265.923,1995.13L265.909,1995.07L265.895,1995.01L265.879,1994.95L265.863,1994.88L265.847,1994.82L265.829,1994.76L265.811,1994.71L265.793,1994.65L265.774,1994.59L265.754,1994.53L265.733,1994.48L265.712,1994.42L265.691,1994.36L265.668,1994.31L265.646,1994.26L265.622,1994.2L265.598,1994.15L265.574,1994.1L265.549,1994.05L265.523,1994L265.496,1993.95L265.47,1993.9L265.443,1993.85L265.415,1993.8L265.387,1993.75L265.358,1993.71L265.328,1993.66L265.299,1993.61L265.269,1993.57L265.238,1993.52L265.206,1993.48L265.175,1993.44L265.143,1993.39L265.11,1993.35L265.077,1993.31L265.043,1993.27L265.009,1993.23L264.975,1993.19L264.94,1993.15L264.904,1993.11L264.869,1993.07L264.833,1993.03L264.795,1992.99L264.759,1992.96L264.721,1992.92L264.684,1992.89L264.646,1992.85L264.607,1992.82L264.568,1992.78L264.529,1992.75L264.489,1992.72L264.448,1992.68L264.408,1992.65L264.368,1992.62L264.327,1992.59L264.285,1992.56L264.243,1992.53L264.201,1992.5L264.159,1992.47L264.115,1992.44L264.073,1992.41L264.03,1992.39L263.988,1992.36L263.898,1992.31L263.808,1992.26L263.718,1992.21L263.626,1992.17L263.534,1992.12L263.442,1992.08L263.348,1992.05L263.253,1992.01L263.158,1991.98L263.062,1991.94L262.966,1991.91L262.87,1991.89L262.773,1991.86L262.676,1991.84L262.578,1991.82L262.48,1991.8L262.383,1991.78L262.286,1991.77L262.188,1991.76L262.09,1991.75L261.994,1991.74L261.897,1991.73L261.801,1991.73L261.705,1991.73L261.614,1991.73ZM297.549,1991.73L297.457,1991.73L297.364,1991.74L297.271,1991.75L297.176,1991.76L297.082,1991.77L296.987,1991.78L296.892,1991.8L296.796,1991.82L296.7,1991.84L296.605,1991.86L296.509,1991.88L296.414,1991.91L296.319,1991.94L296.224,1991.97L296.129,1992.01L296.035,1992.05L295.941,1992.08L295.849,1992.12L295.757,1992.17L295.665,1992.21L295.574,1992.26L295.484,1992.31L295.395,1992.36L295.305,1992.42L295.264,1992.44L295.22,1992.47L295.178,1992.5L295.135,1992.53L295.092,1992.56L295.051,1992.59L295.009,1992.62L294.968,1992.65L294.927,1992.68L294.886,1992.72L294.846,1992.75L294.806,1992.79L294.766,1992.82L294.727,1992.85L294.688,1992.89L294.65,1992.92L294.612,1992.96L294.575,1993L294.537,1993.04L294.5,1993.08L294.464,1993.11L294.428,1993.15L294.392,1993.19L294.357,1993.23L294.323,1993.27L294.289,1993.31L294.255,1993.36L294.221,1993.4L294.188,1993.44L294.157,1993.49L294.125,1993.53L294.093,1993.58L294.062,1993.62L294.032,1993.67L294.002,1993.71L293.972,1993.76L293.944,1993.81L293.915,1993.86L293.888,1993.9L293.86,1993.95L293.834,1994L293.807,1994.06L293.782,1994.11L293.757,1994.16L293.732,1994.21L293.708,1994.26L293.685,1994.32L293.662,1994.37L293.64,1994.43L293.619,1994.48L293.598,1994.54L293.578,1994.6L293.558,1994.65L293.539,1994.71L293.521,1994.77L293.503,1994.83L293.486,1994.89L293.469,1994.95L293.454,1995.01L293.439,1995.08L293.425,1995.14L293.411,1995.2L293.398,1995.27L293.386,1995.33L293.375,1995.4L293.365,1995.47L293.355,1995.53L293.346,1995.6L293.338,1995.67L293.33,1995.74L293.324,1995.81L293.318,1995.88L293.313,1995.96L293.309,1996.03L293.306,1996.1L293.304,1996.18L293.302,1996.25L293.302,1996.33L293.302,1999.12L293.303,1999.2L293.304,1999.27L293.307,1999.34L293.311,1999.41L293.316,1999.48L293.323,1999.55L293.33,1999.62L293.338,1999.68L293.348,1999.75L293.358,1999.81L293.369,1999.88L293.382,1999.94L293.395,2000.01L293.41,2000.07L293.425,2000.13L293.441,2000.19L293.458,2000.25L293.476,2000.31L293.495,2000.37L293.515,2000.43L293.535,2000.49L293.557,2000.55L293.58,2000.61L293.603,2000.67L293.627,2000.72L293.652,2000.78L293.677,2000.84L293.704,2000.89L293.731,2000.94L293.759,2001L293.788,2001.05L293.817,2001.11L293.848,2001.16L293.879,2001.21L293.91,2001.27L293.943,2001.32L293.976,2001.37L294.01,2001.42L294.045,2001.47L294.08,2001.52L294.116,2001.57L294.152,2001.62L294.189,2001.66L294.227,2001.71L294.265,2001.76L294.304,2001.81L294.344,2001.85L294.384,2001.9L294.424,2001.94L294.466,2001.99L294.507,2002.03L294.549,2002.08L294.592,2002.12L294.635,2002.16L294.678,2002.21L294.722,2002.25L294.766,2002.29L294.811,2002.33L294.856,2002.37L294.9,2002.41L294.993,2002.49L295.087,2002.56L295.181,2002.64L295.276,2002.71L295.372,2002.78L295.468,2002.84L295.565,2002.91L295.662,2002.97L295.76,2003.03L295.857,2003.09L295.954,2003.14L296.051,2003.19L296.147,2003.25L296.242,2003.29L296.336,2003.34L296.43,2003.38L296.522,2003.42L296.613,2003.46L296.702,2003.49L296.788,2003.53L296.873,2003.56L296.955,2003.58L297.035,2003.61L297.111,2003.63L297.185,2003.65L297.256,2003.67L297.321,2003.68L297.383,2003.7L297.442,2003.71L297.493,2003.72L297.54,2003.72L297.58,2003.73L297.614,2003.73L297.64,2003.73L297.671,2003.73L297.709,2003.73L297.754,2003.72L297.804,2003.72L297.858,2003.71L297.919,2003.7L297.983,2003.68L298.051,2003.67L298.123,2003.65L298.198,2003.63L298.275,2003.61L298.356,2003.58L298.44,2003.56L298.525,2003.53L298.612,2003.49L298.701,2003.46L298.792,2003.42L298.884,2003.38L298.978,2003.34L299.072,2003.29L299.167,2003.25L299.262,2003.19L299.359,2003.14L299.455,2003.09L299.552,2003.03L299.649,2002.97L299.745,2002.91L299.841,2002.85L299.937,2002.78L300.032,2002.71L300.125,2002.64L300.219,2002.57L300.311,2002.49L300.404,2002.41L300.447,2002.37L300.491,2002.33L300.535,2002.29L300.579,2002.25L300.622,2002.21L300.665,2002.17L300.707,2002.12L300.749,2002.08L300.791,2002.04L300.832,2001.99L300.872,2001.95L300.912,2001.9L300.952,2001.86L300.991,2001.81L301.029,2001.77L301.067,2001.72L301.104,2001.67L301.141,2001.62L301.176,2001.57L301.212,2001.52L301.246,2001.47L301.28,2001.42L301.314,2001.37L301.347,2001.32L301.379,2001.27L301.409,2001.22L301.44,2001.17L301.47,2001.11L301.499,2001.06L301.528,2001.01L301.555,2000.95L301.582,2000.9L301.608,2000.84L301.633,2000.79L301.658,2000.73L301.682,2000.67L301.704,2000.61L301.727,2000.56L301.748,2000.5L301.768,2000.44L301.788,2000.38L301.806,2000.32L301.824,2000.26L301.841,2000.2L301.857,2000.13L301.872,2000.07L301.886,2000.01L301.899,1999.94L301.912,1999.88L301.923,1999.82L301.933,1999.75L301.942,1999.68L301.951,1999.62L301.958,1999.55L301.964,1999.48L301.969,1999.41L301.973,1999.34L301.976,1999.27L301.978,1999.2L301.978,1999.12L301.978,1996.33L301.978,1996.25L301.976,1996.18L301.974,1996.1L301.971,1996.03L301.967,1995.95L301.962,1995.88L301.957,1995.81L301.95,1995.74L301.943,1995.67L301.935,1995.6L301.926,1995.53L301.917,1995.46L301.907,1995.39L301.896,1995.33L301.884,1995.26L301.871,1995.2L301.858,1995.13L301.844,1995.07L301.83,1995.01L301.814,1994.95L301.798,1994.88L301.782,1994.82L301.764,1994.76L301.746,1994.7L301.728,1994.65L301.708,1994.59L301.689,1994.53L301.668,1994.48L301.647,1994.42L301.625,1994.36L301.603,1994.31L301.58,1994.26L301.557,1994.2L301.533,1994.15L301.508,1994.1L301.483,1994.05L301.457,1994L301.431,1993.95L301.405,1993.9L301.377,1993.85L301.35,1993.8L301.321,1993.75L301.293,1993.71L301.263,1993.66L301.233,1993.61L301.204,1993.57L301.172,1993.52L301.141,1993.48L301.11,1993.44L301.078,1993.39L301.044,1993.35L301.011,1993.31L300.978,1993.27L300.944,1993.23L300.91,1993.19L300.874,1993.15L300.839,1993.11L300.804,1993.07L300.767,1993.03L300.73,1992.99L300.693,1992.96L300.656,1992.92L300.619,1992.89L300.581,1992.85L300.542,1992.82L300.503,1992.78L300.463,1992.75L300.424,1992.72L300.383,1992.68L300.343,1992.65L300.302,1992.62L300.261,1992.59L300.22,1992.56L300.178,1992.53L300.136,1992.5L300.094,1992.47L300.05,1992.44L300.007,1992.41L299.964,1992.39L299.923,1992.36L299.832,1992.31L299.743,1992.26L299.653,1992.21L299.561,1992.17L299.469,1992.12L299.377,1992.08L299.283,1992.05L299.188,1992.01L299.093,1991.98L298.997,1991.94L298.901,1991.91L298.804,1991.89L298.708,1991.86L298.61,1991.84L298.513,1991.82L298.415,1991.8L298.317,1991.78L298.22,1991.77L298.123,1991.76L298.025,1991.75L297.929,1991.74L297.832,1991.73L297.736,1991.73L297.64,1991.73L297.549,1991.73ZM279.618,1982L279.735,1982L279.851,1982.01L279.966,1982.01L280.082,1982.02L280.196,1982.02L280.311,1982.03L280.424,1982.04L280.538,1982.06L280.651,1982.07L280.763,1982.08L280.875,1982.1L280.986,1982.11L281.097,1982.13L281.208,1982.15L281.317,1982.17L281.427,1982.19L281.536,1982.22L281.644,1982.24L281.751,1982.27L281.859,1982.29L281.965,1982.32L282.071,1982.35L282.176,1982.38L282.281,1982.41L282.385,1982.44L282.489,1982.48L282.592,1982.51L282.694,1982.55L282.796,1982.59L282.897,1982.63L282.997,1982.67L283.097,1982.71L283.196,1982.75L283.294,1982.79L283.392,1982.84L283.489,1982.88L283.585,1982.93L283.681,1982.98L283.775,1983.03L283.87,1983.08L283.963,1983.13L284.056,1983.18L284.148,1983.24L284.239,1983.29L284.329,1983.35L284.419,1983.4L284.507,1983.46L284.596,1983.52L284.683,1983.58L284.769,1983.64L284.855,1983.7L284.94,1983.77L285.024,1983.83L285.107,1983.9L285.189,1983.96L285.271,1984.03L285.351,1984.1L285.431,1984.17L285.51,1984.24L285.588,1984.31L285.665,1984.38L285.741,1984.45L285.816,1984.53L285.891,1984.6L285.964,1984.68L286.037,1984.76L286.108,1984.84L286.179,1984.91L286.248,1984.99L286.317,1985.08L286.385,1985.16L286.452,1985.24L286.517,1985.32L286.582,1985.41L286.646,1985.49L286.709,1985.58L286.77,1985.67L286.831,1985.75L286.891,1985.84L286.949,1985.93L287.007,1986.02L287.064,1986.12L287.119,1986.21L287.173,1986.3L287.227,1986.39L287.279,1986.49L287.33,1986.59L287.38,1986.68L287.429,1986.78L287.477,1986.88L287.523,1986.98L287.569,1987.08L287.613,1987.18L287.656,1987.28L287.699,1987.38L287.739,1987.48L287.779,1987.59L287.818,1987.69L287.855,1987.79L287.891,1987.9L287.926,1988.01L287.96,1988.11L287.992,1988.22L288.023,1988.33L288.053,1988.44L288.082,1988.55L288.11,1988.66L288.136,1988.77L288.161,1988.88L288.185,1989L288.207,1989.11L288.228,1989.22L288.248,1989.34L288.266,1989.45L288.284,1989.57L288.299,1989.69L288.314,1989.8L288.327,1989.92L288.339,1990.04L288.349,1990.16L288.358,1990.28L288.366,1990.4L288.372,1990.52L288.377,1990.64L288.381,1990.76L288.383,1990.89L288.384,1991.01L288.384,1992.66L288.383,1992.79L288.381,1992.91L288.377,1993.03L288.372,1993.15L288.366,1993.28L288.358,1993.4L288.349,1993.52L288.339,1993.65L288.327,1993.77L288.314,1993.89L288.299,1994.01L288.284,1994.13L288.266,1994.26L288.248,1994.38L288.228,1994.5L288.207,1994.62L288.185,1994.74L288.161,1994.86L288.136,1994.98L288.11,1995.1L288.082,1995.22L288.053,1995.34L288.023,1995.46L287.992,1995.58L287.96,1995.69L287.926,1995.81L287.891,1995.93L287.855,1996.04L287.818,1996.16L287.779,1996.27L287.739,1996.39L287.699,1996.5L287.656,1996.62L287.613,1996.73L287.569,1996.84L287.523,1996.96L287.477,1997.07L287.429,1997.18L287.38,1997.29L287.33,1997.4L287.279,1997.51L287.227,1997.62L287.173,1997.73L287.119,1997.83L287.064,1997.94L287.007,1998.05L286.949,1998.15L286.891,1998.26L286.831,1998.36L286.77,1998.46L286.709,1998.57L286.646,1998.67L286.582,1998.77L286.517,1998.87L286.452,1998.97L286.385,1999.07L286.317,1999.16L286.248,1999.26L286.179,1999.35L286.108,1999.45L286.037,1999.54L285.964,1999.64L285.891,1999.73L285.816,1999.82L285.741,1999.91L285.665,2000L285.588,2000.09L285.51,2000.17L285.431,2000.26L285.351,2000.34L285.271,2000.43L285.189,2000.51L285.107,2000.59L285.024,2000.67L284.94,2000.75L284.855,2000.83L284.769,2000.91L284.683,2000.99L284.596,2001.06L284.507,2001.13L284.419,2001.21L284.329,2001.28L284.239,2001.35L284.148,2001.42L284.056,2001.49L283.963,2001.55L283.87,2001.62L283.775,2001.68L283.681,2001.74L283.585,2001.81L283.489,2001.87L283.392,2001.92L283.294,2001.98L283.196,2002.04L283.097,2002.09L282.997,2002.15L282.897,2002.2L282.796,2002.25L282.694,2002.3L282.592,2002.34L282.489,2002.39L282.385,2002.43L282.281,2002.48L282.176,2002.52L282.071,2002.56L281.965,2002.6L281.859,2002.63L281.751,2002.67L281.644,2002.7L281.536,2002.74L281.427,2002.77L281.317,2002.79L281.208,2002.82L281.097,2002.85L280.986,2002.87L280.875,2002.89L280.763,2002.91L280.651,2002.93L280.538,2002.95L280.424,2002.97L280.311,2002.98L280.196,2002.99L280.082,2003L279.966,2003.01L279.851,2003.02L279.735,2003.02L279.618,2003.02L279.501,2003.02L279.384,2003.02L279.268,2003.02L279.152,2003.02L279.036,2003.01L278.921,2003L278.806,2002.99L278.692,2002.98L278.578,2002.97L278.465,2002.95L278.352,2002.93L278.239,2002.91L278.128,2002.89L278.016,2002.87L277.905,2002.85L277.795,2002.82L277.685,2002.79L277.576,2002.77L277.467,2002.74L277.359,2002.7L277.251,2002.67L277.144,2002.63L277.037,2002.6L276.931,2002.56L276.826,2002.52L276.721,2002.48L276.617,2002.43L276.514,2002.39L276.411,2002.34L276.308,2002.3L276.207,2002.25L276.106,2002.2L276.005,2002.15L275.906,2002.09L275.807,2002.04L275.708,2001.98L275.611,2001.92L275.514,2001.87L275.417,2001.81L275.322,2001.74L275.227,2001.68L275.133,2001.62L275.039,2001.55L274.947,2001.49L274.855,2001.42L274.764,2001.35L274.673,2001.28L274.584,2001.21L274.495,2001.13L274.407,2001.06L274.32,2000.99L274.233,2000.91L274.148,2000.83L274.063,2000.75L273.979,2000.67L273.896,2000.59L273.813,2000.51L273.732,2000.43L273.651,2000.34L273.572,2000.26L273.493,2000.17L273.415,2000.09L273.338,2000L273.261,1999.91L273.186,1999.82L273.112,1999.73L273.038,1999.64L272.966,1999.54L272.894,1999.45L272.824,1999.35L272.754,1999.26L272.685,1999.16L272.618,1999.07L272.551,1998.97L272.485,1998.87L272.42,1998.77L272.357,1998.67L272.294,1998.57L272.232,1998.46L272.171,1998.36L272.112,1998.26L272.053,1998.15L271.995,1998.05L271.939,1997.94L271.883,1997.83L271.829,1997.73L271.776,1997.62L271.723,1997.51L271.672,1997.4L271.622,1997.29L271.573,1997.18L271.526,1997.07L271.479,1996.96L271.433,1996.84L271.389,1996.73L271.346,1996.62L271.304,1996.5L271.263,1996.39L271.223,1996.27L271.185,1996.16L271.147,1996.04L271.111,1995.93L271.076,1995.81L271.043,1995.69L271.01,1995.58L270.979,1995.46L270.949,1995.34L270.92,1995.22L270.893,1995.1L270.866,1994.98L270.841,1994.86L270.818,1994.74L270.795,1994.62L270.774,1994.5L270.754,1994.38L270.736,1994.26L270.719,1994.13L270.703,1994.01L270.688,1993.89L270.675,1993.77L270.663,1993.65L270.653,1993.52L270.644,1993.4L270.636,1993.28L270.63,1993.15L270.625,1993.03L270.621,1992.91L270.619,1992.79L270.619,1992.66L270.619,1991.01L270.619,1990.89L270.621,1990.76L270.625,1990.64L270.63,1990.52L270.636,1990.4L270.644,1990.28L270.653,1990.16L270.663,1990.04L270.675,1989.92L270.688,1989.8L270.703,1989.69L270.719,1989.57L270.736,1989.45L270.754,1989.34L270.774,1989.22L270.795,1989.11L270.818,1989L270.841,1988.88L270.866,1988.77L270.893,1988.66L270.92,1988.55L270.949,1988.44L270.979,1988.33L271.01,1988.22L271.043,1988.11L271.076,1988.01L271.111,1987.9L271.147,1987.79L271.185,1987.69L271.223,1987.59L271.263,1987.48L271.304,1987.38L271.346,1987.28L271.389,1987.18L271.433,1987.08L271.479,1986.98L271.526,1986.88L271.573,1986.78L271.622,1986.68L271.672,1986.59L271.723,1986.49L271.776,1986.39L271.829,1986.3L271.883,1986.21L271.939,1986.12L271.995,1986.02L272.053,1985.93L272.112,1985.84L272.171,1985.75L272.232,1985.67L272.294,1985.58L272.357,1985.49L272.42,1985.41L272.485,1985.32L272.551,1985.24L272.618,1985.16L272.685,1985.08L272.754,1984.99L272.824,1984.91L272.894,1984.84L272.966,1984.76L273.038,1984.68L273.112,1984.6L273.186,1984.53L273.261,1984.45L273.338,1984.38L273.415,1984.31L273.493,1984.24L273.572,1984.17L273.651,1984.1L273.732,1984.03L273.813,1983.96L273.896,1983.9L273.979,1983.83L274.063,1983.77L274.148,1983.7L274.233,1983.64L274.32,1983.58L274.407,1983.52L274.495,1983.46L274.584,1983.4L274.673,1983.35L274.764,1983.29L274.855,1983.24L274.947,1983.18L275.039,1983.13L275.133,1983.08L275.227,1983.03L275.322,1982.98L275.417,1982.93L275.514,1982.88L275.611,1982.84L275.708,1982.79L275.807,1982.75L275.906,1982.71L276.005,1982.67L276.106,1982.63L276.207,1982.59L276.308,1982.55L276.411,1982.51L276.514,1982.48L276.617,1982.44L276.721,1982.41L276.826,1982.38L276.931,1982.35L277.037,1982.32L277.144,1982.29L277.251,1982.27L277.359,1982.24L277.467,1982.22L277.576,1982.19L277.685,1982.17L277.795,1982.15L277.905,1982.13L278.016,1982.11L278.128,1982.1L278.239,1982.08L278.352,1982.07L278.465,1982.06L278.578,1982.04L278.692,1982.03L278.806,1982.02L278.921,1982.02L279.036,1982.01L279.152,1982.01L279.268,1982L279.384,1982L279.501,1982L279.618,1982ZM279.396,1983L279.291,1983L279.187,1983.01L279.083,1983.01L278.98,1983.02L278.877,1983.02L278.774,1983.03L278.673,1983.04L278.57,1983.05L278.47,1983.06L278.369,1983.07L278.269,1983.09L278.17,1983.1L278.071,1983.12L277.972,1983.13L277.874,1983.15L277.777,1983.17L277.679,1983.19L277.583,1983.21L277.487,1983.24L277.392,1983.26L277.297,1983.29L277.203,1983.31L277.11,1983.34L277.017,1983.37L276.924,1983.4L276.832,1983.43L276.741,1983.46L276.65,1983.49L276.56,1983.52L276.471,1983.56L276.382,1983.59L276.293,1983.63L276.205,1983.67L276.119,1983.71L276.032,1983.75L275.946,1983.79L275.861,1983.83L275.777,1983.87L275.692,1983.91L275.61,1983.96L275.527,1984L275.445,1984.05L275.363,1984.1L275.284,1984.14L275.204,1984.19L275.125,1984.24L275.046,1984.3L274.969,1984.35L274.892,1984.4L274.816,1984.45L274.74,1984.51L274.665,1984.57L274.591,1984.62L274.518,1984.68L274.445,1984.74L274.373,1984.8L274.302,1984.86L274.232,1984.92L274.163,1984.98L274.094,1985.04L274.026,1985.11L273.959,1985.17L273.893,1985.24L273.827,1985.3L273.762,1985.37L273.699,1985.44L273.636,1985.51L273.573,1985.58L273.512,1985.65L273.451,1985.72L273.392,1985.79L273.333,1985.86L273.275,1985.94L273.218,1986.01L273.162,1986.09L273.106,1986.16L273.052,1986.24L272.998,1986.32L272.945,1986.39L272.894,1986.47L272.843,1986.55L272.793,1986.63L272.744,1986.72L272.696,1986.8L272.649,1986.88L272.602,1986.97L272.557,1987.05L272.513,1987.14L272.47,1987.22L272.427,1987.31L272.386,1987.4L272.346,1987.49L272.306,1987.57L272.268,1987.66L272.231,1987.75L272.194,1987.85L272.159,1987.94L272.125,1988.03L272.092,1988.12L272.059,1988.22L272.028,1988.31L271.998,1988.41L271.969,1988.5L271.942,1988.6L271.915,1988.7L271.889,1988.8L271.865,1988.89L271.841,1989L271.819,1989.1L271.798,1989.2L271.778,1989.3L271.759,1989.4L271.741,1989.5L271.724,1989.61L271.709,1989.71L271.695,1989.82L271.682,1989.92L271.67,1990.03L271.659,1990.13L271.65,1990.24L271.641,1990.35L271.635,1990.46L271.629,1990.57L271.624,1990.68L271.621,1990.79L271.619,1990.9L271.619,1991.01L271.619,1992.66L271.619,1992.77L271.621,1992.88L271.624,1993L271.629,1993.11L271.635,1993.22L271.642,1993.33L271.65,1993.44L271.659,1993.56L271.67,1993.67L271.682,1993.78L271.695,1993.89L271.71,1994L271.725,1994.11L271.742,1994.22L271.76,1994.33L271.779,1994.44L271.8,1994.55L271.822,1994.66L271.844,1994.77L271.868,1994.88L271.893,1994.99L271.92,1995.1L271.947,1995.21L271.976,1995.31L272.005,1995.42L272.036,1995.53L272.068,1995.63L272.101,1995.74L272.135,1995.85L272.17,1995.95L272.206,1996.06L272.244,1996.16L272.282,1996.27L272.322,1996.37L272.362,1996.47L272.404,1996.58L272.447,1996.68L272.49,1996.78L272.535,1996.88L272.581,1996.98L272.627,1997.08L272.675,1997.18L272.723,1997.28L272.773,1997.38L272.824,1997.47L272.875,1997.57L272.928,1997.67L272.981,1997.76L273.036,1997.86L273.091,1997.95L273.147,1998.04L273.204,1998.14L273.262,1998.23L273.321,1998.32L273.381,1998.41L273.442,1998.5L273.503,1998.59L273.566,1998.67L273.629,1998.76L273.693,1998.85L273.758,1998.93L273.823,1999.02L273.89,1999.1L273.957,1999.18L274.025,1999.26L274.094,1999.34L274.164,1999.42L274.234,1999.5L274.305,1999.58L274.377,1999.66L274.449,1999.73L274.523,1999.81L274.597,1999.88L274.671,1999.95L274.747,2000.02L274.823,2000.09L274.899,2000.16L274.976,2000.23L275.054,2000.3L275.133,2000.37L275.213,2000.43L275.292,2000.49L275.373,2000.56L275.454,2000.62L275.535,2000.68L275.618,2000.74L275.701,2000.8L275.784,2000.85L275.867,2000.91L275.952,2000.96L276.037,2001.01L276.123,2001.07L276.209,2001.12L276.295,2001.16L276.382,2001.21L276.47,2001.26L276.558,2001.31L276.646,2001.35L276.736,2001.39L276.825,2001.43L276.915,2001.47L277.005,2001.51L277.096,2001.55L277.187,2001.59L277.279,2001.62L277.371,2001.65L277.464,2001.69L277.557,2001.72L277.65,2001.75L277.744,2001.77L277.839,2001.8L277.932,2001.83L278.028,2001.85L278.124,2001.87L278.219,2001.89L278.316,2001.91L278.412,2001.93L278.509,2001.94L278.607,2001.96L278.705,2001.97L278.803,2001.99L278.901,2002L279.001,2002L279.1,2002.01L279.199,2002.02L279.299,2002.02L279.4,2002.02L279.501,2002.02L279.602,2002.02L279.703,2002.02L279.803,2002.02L279.902,2002.01L280.002,2002L280.102,2002L280.2,2001.99L280.298,2001.97L280.396,2001.96L280.494,2001.94L280.591,2001.93L280.687,2001.91L280.783,2001.89L280.879,2001.87L280.975,2001.85L281.07,2001.83L281.164,2001.8L281.258,2001.77L281.353,2001.75L281.446,2001.72L281.539,2001.69L281.632,2001.65L281.724,2001.62L281.815,2001.59L281.906,2001.55L281.997,2001.51L282.087,2001.47L282.178,2001.43L282.267,2001.39L282.356,2001.35L282.445,2001.31L282.532,2001.26L282.62,2001.21L282.707,2001.16L282.794,2001.12L282.879,2001.07L282.965,2001.01L283.051,2000.96L283.135,2000.91L283.219,2000.85L283.302,2000.8L283.385,2000.74L283.467,2000.68L283.548,2000.62L283.63,2000.56L283.71,2000.49L283.79,2000.43L283.869,2000.37L283.948,2000.3L284.026,2000.23L284.103,2000.16L284.18,2000.09L284.256,2000.02L284.331,1999.95L284.406,1999.88L284.48,1999.81L284.553,1999.73L284.626,1999.66L284.698,1999.58L284.769,1999.5L284.839,1999.42L284.908,1999.34L284.978,1999.26L285.046,1999.18L285.112,1999.1L285.179,1999.02L285.245,1998.93L285.31,1998.85L285.374,1998.76L285.437,1998.67L285.499,1998.59L285.561,1998.5L285.622,1998.41L285.681,1998.32L285.74,1998.23L285.798,1998.14L285.855,1998.04L285.911,1997.95L285.967,1997.86L286.021,1997.76L286.074,1997.67L286.127,1997.57L286.179,1997.47L286.229,1997.38L286.279,1997.28L286.328,1997.18L286.375,1997.08L286.422,1996.98L286.468,1996.88L286.512,1996.78L286.556,1996.68L286.599,1996.58L286.64,1996.47L286.681,1996.37L286.72,1996.27L286.759,1996.16L286.796,1996.06L286.832,1995.95L286.867,1995.85L286.901,1995.74L286.934,1995.63L286.966,1995.53L286.997,1995.42L287.027,1995.31L287.055,1995.21L287.083,1995.1L287.109,1994.99L287.134,1994.88L287.158,1994.77L287.181,1994.66L287.202,1994.55L287.223,1994.44L287.242,1994.33L287.26,1994.22L287.277,1994.11L287.293,1994L287.307,1993.89L287.32,1993.78L287.332,1993.67L287.343,1993.56L287.353,1993.44L287.361,1993.33L287.368,1993.22L287.374,1993.11L287.378,1993L287.381,1992.88L287.383,1992.77L287.384,1992.66L287.384,1991.01L287.383,1990.9L287.381,1990.79L287.378,1990.68L287.374,1990.57L287.368,1990.46L287.361,1990.35L287.353,1990.24L287.343,1990.13L287.333,1990.03L287.321,1989.92L287.308,1989.82L287.294,1989.71L287.278,1989.61L287.262,1989.5L287.244,1989.4L287.225,1989.3L287.205,1989.2L287.184,1989.1L287.161,1989L287.138,1988.89L287.113,1988.8L287.088,1988.7L287.061,1988.6L287.033,1988.5L287.004,1988.41L286.974,1988.31L286.943,1988.22L286.911,1988.12L286.877,1988.03L286.843,1987.94L286.808,1987.85L286.772,1987.75L286.734,1987.66L286.696,1987.57L286.657,1987.49L286.616,1987.4L286.575,1987.31L286.533,1987.22L286.49,1987.14L286.445,1987.05L286.4,1986.97L286.354,1986.88L286.307,1986.8L286.258,1986.72L286.21,1986.63L286.16,1986.56L286.109,1986.47L286.057,1986.39L286.004,1986.32L285.951,1986.24L285.896,1986.16L285.841,1986.09L285.785,1986.01L285.728,1985.94L285.67,1985.86L285.611,1985.79L285.551,1985.72L285.49,1985.65L285.429,1985.58L285.367,1985.51L285.304,1985.44L285.24,1985.37L285.175,1985.3L285.11,1985.24L285.043,1985.17L284.976,1985.11L284.908,1985.04L284.84,1984.98L284.77,1984.92L284.7,1984.86L284.629,1984.8L284.557,1984.74L284.485,1984.68L284.411,1984.62L284.337,1984.56L284.263,1984.51L284.187,1984.46L284.11,1984.4L284.033,1984.35L283.956,1984.3L283.878,1984.24L283.799,1984.19L283.719,1984.14L283.638,1984.1L283.557,1984.05L283.476,1984L283.393,1983.96L283.309,1983.91L283.226,1983.87L283.141,1983.83L283.056,1983.79L282.971,1983.75L282.884,1983.71L282.797,1983.67L282.71,1983.63L282.621,1983.59L282.532,1983.56L282.443,1983.52L282.353,1983.49L282.262,1983.46L282.171,1983.43L282.078,1983.4L281.985,1983.37L281.893,1983.34L281.8,1983.31L281.704,1983.29L281.61,1983.26L281.515,1983.24L281.419,1983.21L281.323,1983.19L281.226,1983.17L281.128,1983.15L281.03,1983.13L280.932,1983.12L280.833,1983.1L280.733,1983.09L280.633,1983.07L280.533,1983.06L280.432,1983.05L280.33,1983.04L280.228,1983.03L280.126,1983.02L280.023,1983.02L279.919,1983.01L279.815,1983.01L279.712,1983L279.607,1983L279.501,1983L279.396,1983Z" style="fill:rgb(188,188,188);"/>
    </g>
</svg>
