<?xml version="1.0" standalone="no"?>
<!DOCTYPE svg PUBLIC "-//W3C//DTD SVG 1.1//EN" "http://www.w3.org/Graphics/SVG/1.1/DTD/svg11.dtd">
<svg width="100%" height="100%" viewBox="0 0 37 43" version="1.1" xmlns="http://www.w3.org/2000/svg" xmlns:xlink="http://www.w3.org/1999/xlink" xml:space="preserve" style="fill-rule:evenodd;clip-rule:evenodd;stroke-linejoin:round;stroke-miterlimit:1.41421;">
    <g transform="matrix(1,0,0,1,-1515,-306)">
        <path id="Forma 1 copy 29" d="M1532.45,336.601C1532.54,336.251 1532.59,335.887 1532.59,335.511C1532.59,332.982 1530.5,330.924 1527.94,330.924C1525.39,330.924 1523.31,332.982 1523.31,335.511C1523.31,335.831 1523.34,336.144 1523.4,336.445L1520.84,336.445C1517.62,336.445 1515,339.037 1515,342.223C1515,345.408 1517.62,348 1520.84,348L1531.11,348C1534.33,348 1536.95,345.408 1536.95,342.223C1536.95,339.526 1535.04,337.209 1532.45,336.601ZM1527.94,332.33C1529.72,332.33 1531.16,333.757 1531.16,335.512C1531.16,337.266 1529.72,338.693 1527.94,338.693C1526.17,338.693 1524.73,337.266 1524.73,335.512C1524.73,333.757 1526.17,332.33 1527.94,332.33ZM1531.11,346.594L1520.84,346.594C1518.94,346.594 1517.31,345.395 1516.69,343.721C1517.42,344.038 1518.22,344.206 1519.02,344.206L1532.93,344.206C1533.32,344.206 1533.64,343.891 1533.64,343.503C1533.64,343.115 1533.32,342.8 1532.93,342.8L1519.02,342.8C1518.09,342.8 1517.18,342.504 1516.43,341.961C1516.57,339.672 1518.49,337.851 1520.84,337.851L1523.95,337.851C1524.77,339.196 1526.25,340.099 1527.94,340.099C1529.61,340.099 1531.07,339.227 1531.89,337.921C1533.97,338.292 1535.53,340.102 1535.53,342.223C1535.53,344.633 1533.55,346.594 1531.11,346.594ZM1552,331.431C1551.92,328.447 1551.29,327.29 1550.02,324.984C1549.86,324.693 1549.69,324.381 1549.5,324.042L1543.86,313.614C1543.75,313.411 1543.64,313.207 1543.54,313.005C1542.83,311.632 1542.03,310.099 1540.37,309.744L1540.37,306.703C1540.37,306.315 1540.05,306 1539.65,306L1533.87,306C1533.48,306 1533.16,306.315 1533.16,306.703L1533.16,309.735C1531.34,310.071 1529.94,311.635 1529.59,313.837L1529.02,317.473C1528.96,317.856 1529.22,318.216 1529.61,318.276C1530,318.336 1530.36,318.073 1530.42,317.69L1531,314.054C1531.23,312.57 1532.22,311.074 1533.91,311.074L1539.62,311.074C1540.87,311.074 1541.44,312.052 1542.27,313.648C1542.38,313.857 1542.49,314.067 1542.61,314.277L1548.25,324.705C1548.43,325.047 1548.61,325.362 1548.77,325.656C1550,327.892 1550.51,328.819 1550.58,331.458L1550.58,342.681C1550.58,344.839 1548.8,346.594 1546.62,346.594L1536.82,346.594C1536.43,346.594 1536.11,346.909 1536.11,347.297C1536.11,347.685 1536.43,348 1536.82,348L1546.62,348C1549.59,348 1552,345.614 1552,342.681L1552,331.449C1552,331.443 1552,331.437 1552,331.431ZM1538.94,309.668L1534.59,309.668L1534.59,307.406L1538.94,307.406L1538.94,309.668ZM1529.04,324.552C1530.5,324.552 1531.69,323.374 1531.69,321.926C1531.69,320.477 1530.5,319.299 1529.04,319.299C1527.57,319.299 1526.38,320.477 1526.38,321.926C1526.38,323.374 1527.57,324.552 1529.04,324.552ZM1529.04,320.705C1529.72,320.705 1530.27,321.252 1530.27,321.926C1530.27,322.599 1529.72,323.147 1529.04,323.147C1528.36,323.147 1527.8,322.599 1527.8,321.926C1527.8,321.252 1528.36,320.705 1529.04,320.705ZM1529.05,326.378L1528.65,328.942C1528.59,329.289 1528.29,329.537 1527.95,329.537C1527.91,329.537 1527.87,329.534 1527.84,329.528C1527.45,329.468 1527.18,329.109 1527.24,328.725L1527.65,326.162C1527.71,325.778 1528.07,325.514 1528.46,325.575C1528.85,325.635 1529.11,325.995 1529.05,326.378ZM1520.84,330.24C1522.65,330.24 1524.12,328.786 1524.12,327C1524.12,325.213 1522.65,323.759 1520.84,323.759C1519.04,323.759 1517.57,325.213 1517.57,327C1517.57,328.787 1519.04,330.24 1520.84,330.24ZM1520.84,325.166C1521.87,325.166 1522.7,325.989 1522.7,327C1522.7,328.011 1521.87,328.834 1520.84,328.834C1519.82,328.834 1518.99,328.011 1518.99,327C1518.99,325.989 1519.82,325.166 1520.84,325.166ZM1527.23,334.065C1527.23,333.677 1527.55,333.362 1527.94,333.362C1529.14,333.362 1530.12,334.326 1530.12,335.511C1530.12,335.9 1529.8,336.214 1529.41,336.214C1529.02,336.214 1528.7,335.9 1528.7,335.511C1528.7,335.102 1528.36,334.768 1527.94,334.768C1527.55,334.768 1527.23,334.453 1527.23,334.065ZM1521.86,316.233C1523.33,316.233 1524.52,315.054 1524.52,313.606C1524.52,312.157 1523.33,310.979 1521.86,310.979C1520.4,310.979 1519.21,312.157 1519.21,313.606C1519.21,315.054 1520.4,316.233 1521.86,316.233ZM1521.86,312.385C1522.55,312.385 1523.1,312.933 1523.1,313.606C1523.1,314.279 1522.55,314.827 1521.86,314.827C1521.18,314.827 1520.63,314.279 1520.63,313.606C1520.63,312.933 1521.18,312.385 1521.86,312.385ZM1543.74,331.145C1543.98,331.219 1544.23,331.255 1544.48,331.255C1544.89,331.255 1545.29,331.156 1545.66,330.96C1546.89,330.311 1547.36,328.795 1546.7,327.58C1546.7,327.58 1546.7,327.579 1546.7,327.579L1540.52,316.153C1539.87,314.938 1538.33,314.476 1537.1,315.125C1535.87,315.773 1535.41,317.29 1536.06,318.506L1542.24,329.931C1542.56,330.52 1543.09,330.951 1543.74,331.145ZM1537.77,316.366C1537.94,316.278 1538.11,316.237 1538.29,316.237C1538.68,316.237 1539.07,316.447 1539.27,316.816L1545.45,328.241C1545.74,328.773 1545.53,329.436 1544.99,329.719C1544.46,330.003 1543.79,329.801 1543.5,329.269L1537.32,317.843C1537.03,317.312 1537.23,316.649 1537.77,316.366Z" style="fill:rgb(185,185,185);fill-rule:nonzero;"/>
    </g>
</svg>
