<?xml version="1.0" standalone="no"?>
<!DOCTYPE svg PUBLIC "-//W3C//DTD SVG 1.1//EN" "http://www.w3.org/Graphics/SVG/1.1/DTD/svg11.dtd">
<svg width="100%" height="100%" viewBox="0 0 31 36" version="1.1" xmlns="http://www.w3.org/2000/svg" xmlns:xlink="http://www.w3.org/1999/xlink" xml:space="preserve" style="fill-rule:evenodd;clip-rule:evenodd;stroke-linejoin:round;stroke-miterlimit:1.41421;">
    <g transform="matrix(1,0,0,1,-118,-443)">
        <path id="Forma 1 copy 19" d="M130.988,478.139C130.988,478.615 130.607,479 130.137,479C127.867,479 127.112,477.398 126.505,476.11C126.423,475.935 124.858,472.807 124.858,472.807C121.54,466.205 118,458.863 118,455.287C118,448.512 123.445,443 130.137,443C133.033,443 135.836,444.049 138.032,445.954C140.203,447.838 141.653,450.441 142.114,453.283C142.19,453.752 141.876,454.195 141.412,454.272C140.949,454.349 140.512,454.031 140.436,453.562C139.605,448.439 135.274,444.722 130.137,444.722C124.383,444.722 119.701,449.461 119.701,455.287C119.701,458.75 124.041,467.386 126.373,472.026C126.373,472.026 127.954,475.186 128.04,475.369C128.664,476.693 128.988,477.278 130.137,477.278C130.607,477.278 130.988,477.664 130.988,478.139ZM130.137,450.849C132.555,450.849 134.521,452.84 134.521,455.287C134.521,457.734 132.555,459.725 130.137,459.725C127.72,459.725 125.753,457.734 125.753,455.287C125.753,452.84 127.72,450.849 130.137,450.849ZM130.137,452.57C128.658,452.57 127.454,453.789 127.454,455.287C127.454,456.785 128.658,458.003 130.137,458.003C131.617,458.003 132.821,456.785 132.821,455.287C132.821,453.789 131.617,452.57 130.137,452.57ZM148.528,461.124L139.637,477.112C139.63,477.124 139.623,477.136 139.616,477.148C138.902,478.297 137.644,479 136.316,479C136.284,479 136.252,479 136.22,478.999C134.919,478.965 133.806,478.284 133.166,477.129L128.429,468.61C128.429,468.61 128.429,468.609 128.428,468.609C127.43,466.805 128.067,464.516 129.848,463.505C131.629,462.495 133.891,463.14 134.889,464.942L136.397,467.654L142.067,457.457C142.55,456.585 143.341,455.954 144.293,455.682C145.245,455.411 146.245,455.531 147.108,456.021C148.889,457.031 149.526,459.321 148.528,461.124ZM146.276,457.523C145.81,457.258 145.269,457.193 144.754,457.34C144.239,457.487 143.812,457.827 143.55,458.3L137.138,469.831C136.987,470.102 136.704,470.269 136.397,470.269C136.09,470.269 135.807,470.102 135.656,469.831L133.407,465.786C132.866,464.809 131.643,464.461 130.68,465.007C129.717,465.553 129.372,466.79 129.911,467.766L134.649,476.286C135.114,477.125 135.859,477.267 136.263,477.278C137.026,477.297 137.751,476.903 138.166,476.247L147.045,460.281C147.584,459.307 147.239,458.069 146.276,457.523Z" style="fill:rgb(201,207,212);fill-rule:nonzero;"/>
    </g>
</svg>
