<?xml version="1.0" standalone="no"?>
<!DOCTYPE svg PUBLIC "-//W3C//DTD SVG 1.1//EN" "http://www.w3.org/Graphics/SVG/1.1/DTD/svg11.dtd">
<svg width="100%" height="100%" viewBox="0 0 30 29" version="1.1" xmlns="http://www.w3.org/2000/svg" xmlns:xlink="http://www.w3.org/1999/xlink" xml:space="preserve" style="fill-rule:evenodd;clip-rule:evenodd;stroke-linejoin:round;stroke-miterlimit:1.41421;">
    <g transform="matrix(1,0,0,1,-314,-289.992)">
        <path id="Forma 1 copy 2" d="M343.387,293.348L335.027,293.348C334.731,291.45 333.087,289.992 331.105,289.992L326.895,289.992C324.913,289.992 323.27,291.45 322.974,293.348L314.613,293.348C314.274,293.348 314,293.621 314,293.959L314,317.395C314,317.734 314.274,318.007 314.613,318.007L343.387,318.007C343.726,318.007 344,317.734 344,317.395L344,305.677L344,293.959C344,293.621 343.726,293.348 343.387,293.348ZM326.895,291.216L331.105,291.216C332.409,291.216 333.505,292.128 333.784,293.348L324.216,293.348C324.495,292.128 325.591,291.216 326.895,291.216ZM315.226,294.571L342.774,294.571L342.774,305.065L331.043,305.065L331.043,304.464C331.043,304.126 330.77,303.852 330.431,303.852L327.57,303.852C327.23,303.852 326.957,304.126 326.957,304.464L326.957,305.065L315.226,305.065L315.226,294.571ZM328.183,305.677L328.183,305.076L329.818,305.076L329.818,307.219L328.183,307.219L328.183,305.677ZM342.774,316.782L315.226,316.782L315.226,306.289L326.957,306.289L326.957,307.831C326.957,308.17 327.23,308.443 327.57,308.443L330.431,308.443C330.77,308.443 331.043,308.17 331.043,307.831L331.043,306.289L342.774,306.289L342.774,316.782Z" style="fill:rgb(95,199,147);fill-rule:nonzero;"/>
    </g>
</svg>
