<?xml version="1.0" standalone="no"?>
<!DOCTYPE svg PUBLIC "-//W3C//DTD SVG 1.1//EN" "http://www.w3.org/Graphics/SVG/1.1/DTD/svg11.dtd">
<svg width="100%" height="100%" viewBox="0 0 36 28" version="1.1" xmlns="http://www.w3.org/2000/svg" xmlns:xlink="http://www.w3.org/1999/xlink" xml:space="preserve" style="fill-rule:evenodd;clip-rule:evenodd;stroke-linejoin:round;stroke-miterlimit:1.41421;">
    <g transform="matrix(1,0,0,1,-1828,-259)">
        <path id="Forma 1 copy 34" d="M1850.54,273.626L1850.57,273.627L1850.61,273.629L1850.64,273.633L1850.68,273.637L1850.71,273.642L1850.75,273.649L1850.78,273.656L1850.81,273.664L1850.85,273.674L1850.88,273.684L1850.92,273.695L1850.95,273.707L1850.99,273.721L1851.06,273.751L1851.13,273.784L1851.21,273.823L1851.3,273.865L1851.38,273.912L1851.48,273.963L1851.58,274.018L1851.8,274.142L1851.91,274.205L1852.02,274.268L1852.12,274.331L1852.23,274.394L1852.33,274.457L1852.42,274.521L1852.52,274.584L1852.61,274.647L1852.7,274.711L1852.79,274.774L1852.88,274.838L1852.96,274.902L1853.04,274.965L1853.12,275.029L1853.2,275.093L1853.27,275.156L1853.35,275.22L1853.42,275.284L1853.48,275.348L1853.55,275.411L1853.62,275.475L1853.68,275.539L1853.74,275.603L1853.8,275.666L1853.86,275.73L1853.91,275.794L1853.97,275.857L1854.02,275.921L1854.07,275.984L1854.12,276.047L1854.17,276.111L1854.22,276.174L1854.22,276.176L1854.27,276.252L1854.32,276.33L1854.37,276.407L1854.42,276.484L1854.47,276.562L1854.51,276.639L1854.55,276.717L1854.59,276.796L1854.63,276.874L1854.66,276.953L1854.69,277.032L1854.72,277.112L1854.75,277.191L1854.78,277.271L1854.81,277.352L1854.83,277.432L1854.83,277.435L1854.83,277.438L1854.85,277.514L1854.87,277.591L1854.89,277.668L1854.9,277.746L1854.92,277.824L1854.93,277.902L1854.94,277.981L1854.95,278.06L1854.95,278.073L1854.96,278.099L1854.96,278.112L1854.97,278.196L1854.98,278.281L1854.99,278.366L1854.99,278.451L1855,278.537L1855,278.624L1855,278.712L1855,278.8L1855,283.75L1855,283.826L1855,283.9L1855,283.973L1854.99,284.045L1854.99,284.115L1854.99,284.183L1854.98,284.25L1854.97,284.316L1854.96,284.38L1854.95,284.443L1854.95,284.504L1854.93,284.565L1854.92,284.623L1854.91,284.681L1854.9,284.736L1854.88,284.791L1854.87,284.844L1854.85,284.896L1854.83,284.947L1854.81,284.996L1854.79,285.044L1854.77,285.091L1854.75,285.136L1854.73,285.18L1854.7,285.223L1854.68,285.265L1854.65,285.305L1854.62,285.344L1854.59,285.382L1854.56,285.418L1854.53,285.454L1854.5,285.488L1854.47,285.521L1854.43,285.553L1854.39,285.583L1854.36,285.613L1854.32,285.641L1854.28,285.668L1854.24,285.694L1854.19,285.719L1854.15,285.743L1854.1,285.765L1854.06,285.787L1854.01,285.807L1853.96,285.827L1853.91,285.845L1853.86,285.862L1853.8,285.878L1853.75,285.893L1853.69,285.907L1853.63,285.92L1853.58,285.932L1853.52,285.943L1853.45,285.953L1853.39,285.962L1853.32,285.97L1853.26,285.977L1853.19,285.983L1853.12,285.989L1853.05,285.993L1852.98,285.996L1852.9,285.998L1852.83,286L1852.75,286L1839.25,286L1839.17,286L1839.1,285.998L1839.03,285.996L1838.95,285.992L1838.88,285.988L1838.82,285.983L1838.75,285.976L1838.68,285.969L1838.62,285.961L1838.55,285.951L1838.49,285.941L1838.43,285.929L1838.37,285.917L1838.32,285.903L1838.26,285.889L1838.2,285.873L1838.15,285.857L1838.1,285.839L1838.05,285.82L1838,285.8L1837.95,285.779L1837.9,285.757L1837.86,285.734L1837.82,285.71L1837.77,285.684L1837.73,285.658L1837.69,285.63L1837.65,285.601L1837.62,285.572L1837.58,285.54L1837.54,285.508L1837.51,285.475L1837.48,285.44L1837.44,285.404L1837.41,285.368L1837.38,285.329L1837.36,285.29L1837.33,285.25L1837.3,285.208L1837.28,285.165L1837.26,285.121L1837.23,285.075L1837.21,285.029L1837.19,284.981L1837.17,284.931L1837.15,284.881L1837.14,284.829L1837.12,284.776L1837.11,284.722L1837.09,284.667L1837.08,284.61L1837.07,284.552L1837.06,284.492L1837.05,284.431L1837.04,284.369L1837.03,284.306L1837.02,284.241L1837.02,284.175L1837.01,284.108L1837.01,284.039L1837.01,283.969L1837,283.897L1837,283.824L1837,283.75L1837,278.8L1837,278.712L1837,278.624L1837.01,278.537L1837.01,278.451L1837.02,278.366L1837.02,278.281L1837.03,278.197L1837.04,278.113L1837.04,278.098L1837.05,278.084L1837.05,278.07L1837.05,278.055L1837.06,277.977L1837.07,277.899L1837.09,277.821L1837.1,277.744L1837.12,277.667L1837.13,277.591L1837.15,277.515L1837.17,277.439L1837.17,277.427L1837.2,277.347L1837.22,277.267L1837.25,277.187L1837.28,277.108L1837.31,277.029L1837.34,276.951L1837.38,276.872L1837.41,276.794L1837.45,276.717L1837.49,276.639L1837.54,276.562L1837.58,276.485L1837.63,276.408L1837.68,276.332L1837.73,276.255L1837.78,276.179L1837.79,276.176L1837.79,276.173L1837.79,276.172L1837.84,276.109L1837.88,276.046L1837.93,275.984L1837.98,275.921L1838.04,275.859L1838.09,275.797L1838.15,275.735L1838.21,275.674L1838.27,275.612L1838.33,275.55L1838.39,275.488L1838.46,275.426L1838.53,275.365L1838.6,275.303L1838.67,275.241L1838.74,275.178L1838.82,275.116L1838.9,275.054L1838.98,274.991L1839.06,274.928L1839.14,274.864L1839.23,274.801L1839.32,274.737L1839.4,274.673L1839.5,274.608L1839.59,274.543L1839.69,274.477L1839.79,274.411L1839.89,274.345L1839.99,274.278L1840.2,274.142L1840.31,274.078L1840.4,274.018L1840.5,273.963L1840.59,273.912L1840.67,273.865L1840.76,273.823L1840.84,273.784L1840.92,273.751L1840.95,273.735L1840.99,273.721L1841.03,273.707L1841.07,273.695L1841.1,273.684L1841.14,273.674L1841.18,273.664L1841.21,273.656L1841.25,273.649L1841.29,273.642L1841.32,273.637L1841.36,273.633L1841.39,273.629L1841.43,273.627L1841.47,273.626L1841.5,273.625L1841.56,273.627L1841.62,273.631L1841.67,273.638L1841.73,273.647L1841.79,273.66L1841.85,273.675L1841.9,273.693L1841.96,273.714L1842.02,273.737L1842.07,273.763L1842.13,273.791L1842.19,273.822L1842.25,273.855L1842.31,273.891L1842.37,273.93L1842.43,273.971L1842.49,274.014L1842.55,274.06L1842.62,274.109L1842.68,274.159L1842.75,274.212L1842.82,274.268L1842.88,274.326L1842.95,274.386L1843.1,274.512L1843.25,274.648L1843.41,274.792L1843.58,274.945L1843.58,274.945L1844.41,275.708L1844.42,275.727L1844.46,275.772L1844.51,275.838L1844.57,275.922L1844.65,276.02L1844.7,276.074L1844.75,276.129L1844.8,276.187L1844.85,276.245L1844.91,276.305L1844.96,276.365L1845.02,276.424L1845.08,276.484L1845.15,276.542L1845.21,276.599L1845.28,276.654L1845.34,276.706L1845.41,276.756L1845.44,276.779L1845.47,276.802L1845.51,276.824L1845.54,276.845L1845.57,276.865L1845.61,276.883L1845.64,276.901L1845.67,276.917L1845.71,276.932L1845.74,276.946L1845.78,276.958L1845.81,276.969L1845.84,276.978L1845.87,276.986L1845.9,276.992L1845.94,276.996L1845.97,276.999L1846,277L1846.03,276.999L1846.06,276.996L1846.1,276.992L1846.13,276.986L1846.16,276.978L1846.19,276.969L1846.23,276.958L1846.26,276.946L1846.29,276.932L1846.33,276.917L1846.36,276.901L1846.39,276.883L1846.43,276.865L1846.46,276.845L1846.5,276.824L1846.53,276.802L1846.56,276.779L1846.6,276.756L1846.66,276.706L1846.73,276.654L1846.79,276.599L1846.86,276.542L1846.92,276.484L1846.98,276.424L1847.04,276.365L1847.1,276.305L1847.15,276.245L1847.2,276.187L1847.25,276.129L1847.3,276.074L1847.35,276.02L1847.43,275.922L1847.49,275.838L1847.55,275.772L1847.58,275.727L1847.6,275.708L1848.42,274.945L1848.43,274.945L1848.59,274.792L1848.75,274.648L1848.9,274.512L1849.05,274.385L1849.12,274.325L1849.19,274.267L1849.26,274.212L1849.32,274.159L1849.39,274.108L1849.45,274.06L1849.51,274.014L1849.57,273.971L1849.63,273.93L1849.69,273.891L1849.75,273.855L1849.81,273.822L1849.87,273.791L1849.93,273.762L1849.99,273.737L1850.04,273.713L1850.1,273.693L1850.16,273.675L1850.21,273.66L1850.27,273.647L1850.33,273.638L1850.38,273.631L1850.44,273.626L1850.5,273.625L1850.54,273.626ZM1841.49,274.625L1841.48,274.626L1841.47,274.626L1841.46,274.627L1841.45,274.628L1841.44,274.63L1841.43,274.631L1841.42,274.634L1841.41,274.636L1841.4,274.639L1841.38,274.643L1841.37,274.648L1841.36,274.653L1841.34,274.659L1841.32,274.667L1841.3,274.674L1841.25,274.696L1841.2,274.721L1841.14,274.751L1841.07,274.787L1841,274.828L1840.92,274.876L1840.83,274.929L1840.74,274.987L1840.53,275.118L1840.44,275.181L1840.34,275.244L1840.25,275.306L1840.16,275.367L1840.07,275.428L1839.98,275.489L1839.9,275.548L1839.82,275.607L1839.74,275.665L1839.66,275.722L1839.59,275.779L1839.52,275.836L1839.45,275.891L1839.38,275.946L1839.32,276.001L1839.26,276.055L1839.2,276.108L1839.14,276.161L1839.08,276.213L1839.03,276.265L1838.98,276.316L1838.93,276.367L1838.88,276.417L1838.84,276.467L1838.79,276.516L1838.75,276.565L1838.71,276.613L1838.67,276.661L1838.63,276.709L1838.59,276.772L1838.55,276.824L1838.51,276.883L1838.48,276.942L1838.44,277L1838.4,277.058L1838.37,277.116L1838.34,277.173L1838.31,277.231L1838.29,277.288L1838.26,277.345L1838.24,277.403L1838.22,277.46L1838.19,277.518L1838.17,277.575L1838.16,277.634L1838.12,277.752L1838.12,277.753L1838.12,277.76L1838.11,277.819L1838.09,277.878L1838.08,277.938L1838.07,277.998L1838.06,278.058L1838.05,278.118L1838.04,278.184L1838.04,278.221L1838.03,278.244L1838.03,278.294L1838.02,278.366L1838.02,278.437L1838.01,278.508L1838.01,278.58L1838,278.653L1838,278.726L1838,278.804L1838,283.747L1838,283.812L1838,283.872L1838.01,283.93L1838.01,283.987L1838.01,284.041L1838.02,284.093L1838.02,284.143L1838.02,284.191L1838.03,284.238L1838.04,284.281L1838.04,284.322L1838.05,284.363L1838.06,284.4L1838.07,284.435L1838.07,284.468L1838.08,284.5L1838.09,284.529L1838.1,284.556L1838.11,284.581L1838.12,284.605L1838.13,284.626L1838.14,284.647L1838.14,284.664L1838.15,284.68L1838.16,284.696L1838.17,284.71L1838.18,284.722L1838.19,284.734L1838.2,284.745L1838.2,284.755L1838.21,284.764L1838.22,284.774L1838.23,284.783L1838.24,284.791L1838.25,284.799L1838.26,284.808L1838.27,284.816L1838.28,284.824L1838.3,284.833L1838.31,284.842L1838.33,284.851L1838.35,284.86L1838.37,284.869L1838.39,284.878L1838.41,284.887L1838.43,284.897L1838.46,284.906L1838.49,284.915L1838.52,284.924L1838.56,284.933L1838.59,284.941L1838.63,284.949L1838.67,284.956L1838.71,284.963L1838.76,284.97L1838.8,284.976L1838.85,284.981L1838.9,284.986L1838.95,284.99L1839.01,284.994L1839.07,284.996L1839.13,284.998L1839.19,285L1839.26,285L1852.75,285L1852.82,285L1852.88,284.998L1852.94,284.997L1853,284.994L1853.06,284.991L1853.11,284.987L1853.16,284.982L1853.21,284.977L1853.26,284.971L1853.3,284.965L1853.35,284.958L1853.39,284.95L1853.42,284.943L1853.46,284.934L1853.49,284.926L1853.53,284.917L1853.56,284.909L1853.58,284.899L1853.61,284.891L1853.63,284.882L1853.65,284.873L1853.67,284.864L1853.69,284.855L1853.7,284.847L1853.72,284.838L1853.73,284.83L1853.74,284.822L1853.75,284.815L1853.76,284.807L1853.77,284.8L1853.78,284.792L1853.79,284.784L1853.8,284.776L1853.8,284.767L1853.81,284.759L1853.82,284.749L1853.83,284.737L1853.83,284.726L1853.84,284.713L1853.85,284.698L1853.86,284.683L1853.87,284.665L1853.88,284.645L1853.88,284.624L1853.89,284.601L1853.9,284.576L1853.91,284.549L1853.92,284.52L1853.93,284.488L1853.94,284.454L1853.94,284.418L1853.95,284.38L1853.96,284.34L1853.97,284.296L1853.97,284.252L1853.98,284.205L1853.98,284.156L1853.99,284.104L1853.99,284.05L1854,283.994L1854,283.936L1854,283.876L1854,283.814L1854,283.747L1854,278.804L1854,278.727L1854,278.654L1854,278.581L1853.99,278.509L1853.99,278.437L1853.98,278.365L1853.98,278.293L1853.97,278.251L1853.97,278.236L1853.96,278.195L1853.95,278.122L1853.94,278.06L1853.93,277.999L1853.92,277.939L1853.91,277.88L1853.9,277.821L1853.88,277.762L1853.87,277.714L1853.85,277.637L1853.83,277.579L1853.81,277.521L1853.79,277.463L1853.77,277.406L1853.74,277.348L1853.72,277.29L1853.69,277.233L1853.66,277.175L1853.63,277.117L1853.6,277.059L1853.56,277L1853.53,276.941L1853.49,276.882L1853.45,276.823L1853.37,276.706L1853.33,276.657L1853.29,276.605L1853.25,276.552L1853.2,276.5L1853.16,276.448L1853.11,276.396L1853.06,276.343L1853.01,276.29L1852.96,276.237L1852.91,276.184L1852.86,276.13L1852.8,276.076L1852.74,276.022L1852.68,275.968L1852.62,275.913L1852.55,275.859L1852.49,275.804L1852.42,275.749L1852.35,275.693L1852.28,275.637L1852.2,275.582L1852.12,275.526L1852.04,275.469L1851.96,275.413L1851.88,275.356L1851.79,275.3L1851.7,275.243L1851.6,275.186L1851.51,275.129L1851.41,275.071L1851.31,275.013L1851.09,274.891L1851,274.839L1850.91,274.792L1850.84,274.752L1850.77,274.718L1850.71,274.691L1850.66,274.669L1850.62,274.652L1850.61,274.647L1850.6,274.642L1850.58,274.638L1850.57,274.635L1850.57,274.633L1850.56,274.631L1850.55,274.63L1850.54,274.628L1850.54,274.627L1850.53,274.627L1850.53,274.626L1850.52,274.626L1850.51,274.625L1850.51,274.625L1850.49,274.626L1850.48,274.626L1850.47,274.627L1850.46,274.629L1850.45,274.632L1850.44,274.636L1850.42,274.641L1850.4,274.648L1850.38,274.657L1850.35,274.668L1850.33,274.681L1850.3,274.698L1850.26,274.717L1850.22,274.74L1850.18,274.765L1850.14,274.794L1850.1,274.826L1850.05,274.862L1850,274.9L1849.94,274.943L1849.89,274.988L1849.83,275.036L1849.77,275.087L1849.7,275.141L1849.57,275.26L1849.42,275.39L1849.27,275.531L1848.82,275.945L1848.82,275.945L1848.33,276.388L1848.28,276.455L1848.21,276.549L1848.12,276.659L1848.06,276.722L1848.01,276.786L1847.95,276.853L1847.89,276.921L1847.82,276.991L1847.75,277.062L1847.68,277.135L1847.61,277.208L1847.53,277.28L1847.45,277.353L1847.36,277.426L1847.27,277.497L1847.18,277.564L1847.13,277.601L1847.08,277.635L1847.03,277.668L1846.98,277.701L1846.92,277.733L1846.87,277.764L1846.81,277.794L1846.75,277.823L1846.69,277.851L1846.62,277.877L1846.56,277.902L1846.49,277.925L1846.41,277.946L1846.34,277.964L1846.26,277.979L1846.18,277.991L1846.09,277.998L1846,278L1845.91,277.998L1845.83,277.991L1845.74,277.979L1845.66,277.964L1845.59,277.946L1845.52,277.925L1845.44,277.902L1845.38,277.877L1845.31,277.851L1845.25,277.823L1845.19,277.794L1845.13,277.764L1845.08,277.733L1845.02,277.7L1844.97,277.668L1844.92,277.635L1844.87,277.601L1844.82,277.564L1844.73,277.497L1844.64,277.426L1844.55,277.353L1844.47,277.28L1844.39,277.208L1844.32,277.135L1844.25,277.062L1844.18,276.991L1844.11,276.921L1844.05,276.852L1843.99,276.786L1843.94,276.722L1843.88,276.659L1843.8,276.549L1843.72,276.455L1843.67,276.389L1843.19,275.945L1843.19,275.945L1842.73,275.531L1842.58,275.39L1842.43,275.261L1842.3,275.141L1842.24,275.088L1842.17,275.037L1842.12,274.988L1842.06,274.943L1842.01,274.901L1841.95,274.862L1841.91,274.827L1841.86,274.795L1841.82,274.766L1841.78,274.74L1841.74,274.717L1841.71,274.698L1841.68,274.682L1841.65,274.668L1841.62,274.657L1841.6,274.648L1841.58,274.641L1841.57,274.636L1841.55,274.632L1841.54,274.629L1841.53,274.627L1841.52,274.626L1841.51,274.626L1841.5,274.625L1841.49,274.625ZM1860.72,275.837L1860.76,275.839L1860.81,275.843L1860.85,275.848L1860.89,275.854L1860.94,275.861L1860.98,275.87L1861.02,275.88L1861.07,275.891L1861.11,275.903L1861.15,275.916L1861.19,275.931L1861.23,275.947L1861.28,275.965L1861.32,275.983L1861.36,276.003L1861.4,276.025L1861.44,276.047L1861.54,276.104L1861.63,276.161L1861.72,276.219L1861.81,276.279L1861.9,276.339L1861.99,276.4L1862.07,276.462L1862.15,276.525L1862.23,276.588L1862.31,276.653L1862.38,276.718L1862.45,276.783L1862.53,276.85L1862.59,276.917L1862.66,276.984L1862.72,277.052L1862.79,277.121L1862.85,277.19L1862.9,277.26L1862.96,277.33L1863.02,277.401L1863.07,277.472L1863.12,277.543L1863.17,277.614L1863.22,277.686L1863.26,277.758L1863.31,277.831L1863.35,277.903L1863.39,277.976L1863.43,278.049L1863.47,278.122L1863.51,278.195L1863.54,278.268L1863.57,278.341L1863.61,278.414L1863.63,278.486L1863.66,278.559L1863.69,278.632L1863.72,278.705L1863.74,278.777L1863.77,278.849L1863.79,278.921L1863.81,278.992L1863.83,279.064L1863.85,279.135L1863.86,279.205L1863.88,279.275L1863.89,279.345L1863.91,279.414L1863.92,279.483L1863.93,279.551L1863.94,279.619L1863.95,279.686L1863.96,279.752L1863.97,279.818L1863.98,279.883L1863.98,279.948L1863.99,280.011L1863.99,280.074L1863.99,280.136L1864,280.257L1864,280.375L1864,281.501L1864,282.269L1864,282.625L1864,282.701L1864,282.775L1864,282.848L1863.99,282.92L1863.99,282.99L1863.99,283.058L1863.98,283.125L1863.97,283.191L1863.97,283.255L1863.96,283.318L1863.95,283.379L1863.94,283.439L1863.93,283.498L1863.91,283.555L1863.9,283.611L1863.89,283.666L1863.87,283.719L1863.86,283.771L1863.84,283.821L1863.82,283.871L1863.8,283.919L1863.78,283.965L1863.76,284.011L1863.74,284.055L1863.71,284.098L1863.69,284.139L1863.66,284.18L1863.63,284.219L1863.61,284.256L1863.58,284.293L1863.55,284.328L1863.51,284.363L1863.48,284.396L1863.44,284.427L1863.41,284.458L1863.37,284.488L1863.33,284.516L1863.29,284.543L1863.25,284.569L1863.21,284.594L1863.17,284.618L1863.12,284.64L1863.07,284.662L1863.03,284.682L1862.98,284.702L1862.93,284.72L1862.87,284.737L1862.82,284.753L1862.76,284.768L1862.71,284.783L1862.65,284.796L1862.59,284.808L1862.53,284.819L1862.47,284.829L1862.4,284.838L1862.34,284.846L1862.27,284.853L1862.2,284.859L1862.13,284.864L1862.06,284.868L1861.98,284.871L1861.91,284.873L1861.83,284.875L1861.75,284.875L1857.25,284.875L1857.25,278.125L1858.38,277L1858.49,276.904L1858.6,276.811L1858.7,276.722L1858.81,276.637L1858.92,276.557L1859.03,276.48L1859.13,276.407L1859.23,276.339L1859.29,276.306L1859.34,276.274L1859.39,276.244L1859.44,276.214L1859.49,276.186L1859.54,276.158L1859.59,276.132L1859.64,276.107L1859.69,276.082L1859.74,276.059L1859.79,276.037L1859.84,276.017L1859.88,275.997L1859.93,275.978L1859.98,275.961L1860.03,275.944L1860.08,275.929L1860.12,275.915L1860.17,275.902L1860.22,275.89L1860.26,275.879L1860.31,275.87L1860.36,275.861L1860.4,275.854L1860.45,275.848L1860.49,275.843L1860.54,275.84L1860.58,275.837L1860.63,275.836L1860.67,275.836L1860.72,275.837ZM1831.37,275.836L1831.42,275.837L1831.46,275.84L1831.51,275.843L1831.55,275.848L1831.6,275.854L1831.65,275.861L1831.69,275.87L1831.74,275.879L1831.79,275.89L1831.83,275.902L1831.88,275.915L1831.93,275.929L1831.97,275.944L1832.02,275.961L1832.07,275.978L1832.12,275.997L1832.17,276.017L1832.22,276.037L1832.27,276.059L1832.31,276.082L1832.36,276.107L1832.41,276.132L1832.46,276.158L1832.51,276.186L1832.56,276.214L1832.61,276.244L1832.66,276.274L1832.72,276.306L1832.77,276.339L1832.87,276.407L1832.98,276.48L1833.08,276.557L1833.19,276.637L1833.3,276.722L1833.4,276.811L1833.52,276.904L1833.63,277L1834.75,278.125L1834.75,284.875L1830.25,284.875L1830.17,284.875L1830.1,284.873L1830.02,284.871L1829.95,284.868L1829.87,284.864L1829.8,284.859L1829.73,284.852L1829.67,284.845L1829.6,284.837L1829.54,284.828L1829.47,284.818L1829.41,284.807L1829.35,284.795L1829.29,284.782L1829.24,284.768L1829.18,284.753L1829.13,284.737L1829.08,284.72L1829.03,284.702L1828.98,284.682L1828.93,284.662L1828.88,284.64L1828.84,284.618L1828.79,284.594L1828.75,284.569L1828.71,284.543L1828.67,284.516L1828.63,284.487L1828.59,284.458L1828.56,284.427L1828.52,284.395L1828.49,284.362L1828.46,284.328L1828.42,284.293L1828.4,284.256L1828.37,284.218L1828.34,284.179L1828.31,284.139L1828.29,284.097L1828.27,284.055L1828.24,284.011L1828.22,283.965L1828.2,283.918L1828.18,283.871L1828.16,283.821L1828.14,283.771L1828.13,283.719L1828.11,283.666L1828.1,283.611L1828.09,283.555L1828.08,283.498L1828.06,283.439L1828.05,283.379L1828.04,283.318L1828.04,283.255L1828.03,283.191L1828.02,283.125L1828.02,283.058L1828.01,282.989L1828.01,282.919L1828.01,282.848L1828,282.775L1828,282.701L1828,282.625L1828,282.269L1828,281.501L1828,280.375L1828,280.257L1828.01,280.136L1828.01,280.074L1828.02,280.011L1828.02,279.948L1828.03,279.883L1828.03,279.818L1828.04,279.752L1828.05,279.686L1828.06,279.619L1828.07,279.551L1828.08,279.483L1828.09,279.414L1828.11,279.345L1828.12,279.275L1828.14,279.205L1828.15,279.135L1828.17,279.064L1828.19,278.993L1828.21,278.921L1828.24,278.849L1828.26,278.777L1828.28,278.705L1828.31,278.632L1828.34,278.559L1828.37,278.487L1828.4,278.414L1828.43,278.341L1828.46,278.268L1828.5,278.195L1828.53,278.122L1828.57,278.049L1828.61,277.976L1828.65,277.903L1828.69,277.831L1828.74,277.759L1828.78,277.686L1828.83,277.615L1828.88,277.543L1828.93,277.472L1828.99,277.401L1829.04,277.33L1829.1,277.26L1829.15,277.19L1829.22,277.121L1829.28,277.053L1829.34,276.984L1829.41,276.917L1829.48,276.85L1829.55,276.783L1829.62,276.718L1829.69,276.653L1829.77,276.588L1829.85,276.525L1829.93,276.462L1830.01,276.4L1830.1,276.339L1830.19,276.279L1830.28,276.219L1830.37,276.161L1830.46,276.104L1830.56,276.047L1830.6,276.025L1830.64,276.003L1830.68,275.983L1830.73,275.965L1830.77,275.947L1830.81,275.931L1830.85,275.916L1830.89,275.903L1830.94,275.891L1830.98,275.88L1831.02,275.87L1831.07,275.861L1831.11,275.854L1831.15,275.848L1831.2,275.843L1831.24,275.839L1831.29,275.837L1831.33,275.836L1831.37,275.836ZM1860.64,276.836L1860.62,276.836L1860.61,276.837L1860.59,276.839L1860.57,276.841L1860.54,276.844L1860.52,276.847L1860.5,276.852L1860.48,276.857L1860.45,276.862L1860.42,276.869L1860.4,276.876L1860.37,276.884L1860.34,276.893L1860.31,276.903L1860.28,276.914L1860.25,276.926L1860.22,276.939L1860.19,276.953L1860.15,276.968L1860.12,276.984L1860.08,277.002L1860.05,277.02L1860.01,277.039L1859.97,277.06L1859.94,277.082L1859.9,277.104L1859.86,277.128L1859.82,277.153L1859.78,277.178L1859.69,277.235L1859.6,277.295L1859.52,277.36L1859.42,277.429L1859.33,277.503L1859.23,277.581L1859.14,277.664L1859.06,277.732L1858.25,278.537L1858.25,278.727L1858.25,278.729L1858.25,283.875L1861.75,283.875L1861.82,283.875L1861.88,283.874L1861.94,283.872L1862.01,283.869L1862.06,283.866L1862.12,283.862L1862.17,283.857L1862.22,283.852L1862.27,283.846L1862.32,283.84L1862.36,283.833L1862.4,283.825L1862.44,283.817L1862.48,283.809L1862.51,283.801L1862.54,283.792L1862.57,283.783L1862.6,283.774L1862.62,283.765L1862.65,283.756L1862.67,283.748L1862.69,283.739L1862.7,283.73L1862.72,283.723L1862.73,283.715L1862.74,283.707L1862.76,283.699L1862.77,283.692L1862.77,283.685L1862.78,283.678L1862.79,283.671L1862.8,283.664L1862.8,283.657L1862.81,283.649L1862.82,283.641L1862.83,283.631L1862.83,283.62L1862.84,283.609L1862.85,283.597L1862.86,283.583L1862.86,283.568L1862.87,283.549L1862.88,283.53L1862.89,283.509L1862.9,283.487L1862.91,283.461L1862.91,283.433L1862.92,283.404L1862.93,283.372L1862.94,283.338L1862.95,283.302L1862.95,283.262L1862.96,283.222L1862.97,283.179L1862.97,283.133L1862.98,283.086L1862.98,283.036L1862.99,282.983L1862.99,282.929L1863,282.873L1863,282.814L1863,282.753L1863,282.69L1863,282.621L1863,282.268L1863,281.501L1863,280.381L1863,280.281L1863,280.181L1862.99,280.134L1862.99,280.083L1862.99,280.032L1862.98,279.98L1862.98,279.928L1862.97,279.876L1862.96,279.821L1862.95,279.767L1862.95,279.713L1862.94,279.659L1862.93,279.602L1862.91,279.546L1862.9,279.491L1862.89,279.435L1862.88,279.378L1862.86,279.322L1862.85,279.264L1862.83,279.207L1862.81,279.15L1862.79,279.093L1862.77,279.035L1862.75,278.977L1862.73,278.92L1862.71,278.862L1862.68,278.805L1862.66,278.747L1862.63,278.689L1862.61,278.631L1862.58,278.574L1862.55,278.517L1862.52,278.459L1862.48,278.402L1862.45,278.345L1862.42,278.289L1862.38,278.232L1862.34,278.175L1862.3,278.119L1862.26,278.063L1862.22,278.007L1862.18,277.951L1862.13,277.896L1862.09,277.841L1862.04,277.786L1861.99,277.732L1861.94,277.678L1861.89,277.624L1861.83,277.57L1861.78,277.518L1861.72,277.465L1861.66,277.413L1861.6,277.361L1861.53,277.309L1861.47,277.258L1861.4,277.208L1861.33,277.158L1861.26,277.108L1861.18,277.059L1861.11,277.011L1861.03,276.963L1860.95,276.918L1860.93,276.907L1860.91,276.898L1860.89,276.89L1860.88,276.883L1860.86,276.876L1860.85,276.87L1860.83,276.864L1860.82,276.86L1860.8,276.855L1860.79,276.851L1860.77,276.848L1860.76,276.845L1860.74,276.842L1860.73,276.84L1860.71,276.839L1860.69,276.837L1860.68,276.836L1860.66,276.836L1860.64,276.836ZM1831.32,276.836L1831.31,276.837L1831.29,276.839L1831.28,276.84L1831.26,276.842L1831.25,276.845L1831.23,276.848L1831.22,276.851L1831.2,276.855L1831.19,276.86L1831.17,276.864L1831.15,276.87L1831.14,276.876L1831.12,276.883L1831.11,276.89L1831.09,276.898L1831.07,276.907L1831.05,276.918L1830.98,276.963L1830.9,277.011L1830.82,277.06L1830.75,277.108L1830.67,277.158L1830.6,277.208L1830.54,277.258L1830.47,277.309L1830.41,277.361L1830.35,277.412L1830.28,277.465L1830.23,277.518L1830.17,277.571L1830.12,277.624L1830.06,277.678L1830.01,277.732L1829.96,277.786L1829.91,277.841L1829.87,277.896L1829.82,277.951L1829.78,278.007L1829.74,278.063L1829.7,278.119L1829.66,278.175L1829.62,278.232L1829.59,278.289L1829.55,278.346L1829.52,278.402L1829.49,278.459L1829.45,278.517L1829.42,278.574L1829.4,278.631L1829.37,278.689L1829.34,278.747L1829.32,278.804L1829.29,278.862L1829.27,278.92L1829.25,278.977L1829.23,279.035L1829.21,279.092L1829.19,279.15L1829.17,279.207L1829.16,279.265L1829.14,279.322L1829.12,279.378L1829.11,279.435L1829.1,279.491L1829.09,279.547L1829.08,279.603L1829.07,279.659L1829.06,279.713L1829.05,279.767L1829.04,279.821L1829.03,279.875L1829.03,279.928L1829.02,279.98L1829.02,280.033L1829.01,280.084L1829.01,280.133L1829.01,280.18L1829,280.281L1829,280.381L1829,281.501L1829,282.268L1829,282.622L1829,282.69L1829,282.753L1829.01,282.814L1829.01,282.872L1829.01,282.929L1829.01,282.982L1829.02,283.035L1829.02,283.085L1829.03,283.133L1829.03,283.179L1829.04,283.222L1829.05,283.263L1829.06,283.301L1829.06,283.338L1829.07,283.372L1829.08,283.404L1829.09,283.434L1829.1,283.461L1829.11,283.486L1829.11,283.509L1829.12,283.53L1829.13,283.549L1829.14,283.567L1829.15,283.583L1829.15,283.597L1829.16,283.609L1829.17,283.62L1829.18,283.631L1829.18,283.64L1829.19,283.649L1829.2,283.656L1829.2,283.664L1829.21,283.671L1829.22,283.678L1829.23,283.685L1829.24,283.692L1829.25,283.699L1829.26,283.707L1829.27,283.714L1829.28,283.722L1829.3,283.73L1829.32,283.739L1829.33,283.748L1829.35,283.756L1829.38,283.765L1829.4,283.774L1829.43,283.783L1829.46,283.792L1829.49,283.801L1829.52,283.809L1829.56,283.817L1829.6,283.825L1829.64,283.832L1829.68,283.839L1829.73,283.846L1829.78,283.852L1829.83,283.857L1829.88,283.862L1829.94,283.866L1830,283.869L1830.06,283.872L1830.12,283.874L1830.18,283.875L1830.25,283.875L1833.75,283.875L1833.75,278.729L1833.75,278.727L1833.75,278.536L1832.94,277.732L1832.87,277.663L1832.77,277.581L1832.67,277.503L1832.58,277.429L1832.49,277.36L1832.4,277.295L1832.31,277.235L1832.22,277.178L1832.18,277.153L1832.14,277.128L1832.11,277.104L1832.07,277.082L1832.03,277.06L1831.99,277.039L1831.95,277.02L1831.92,277.002L1831.88,276.984L1831.85,276.968L1831.81,276.953L1831.78,276.939L1831.75,276.926L1831.72,276.914L1831.69,276.903L1831.66,276.893L1831.63,276.884L1831.6,276.876L1831.58,276.869L1831.55,276.862L1831.53,276.857L1831.5,276.852L1831.48,276.847L1831.46,276.844L1831.44,276.841L1831.42,276.839L1831.4,276.837L1831.38,276.836L1831.36,276.836L1831.34,276.836L1831.32,276.836ZM1853.97,278.265L1853.98,278.279L1853.97,278.263L1853.97,278.265ZM1834.76,277.893L1834.76,277.896L1834.76,277.91L1834.76,277.933L1834.76,277.994L1834.76,278.059L1834.76,278.087L1834.76,278.109L1834.76,278.117L1834.76,278.123L1834.75,278.125L1834.75,278.126L1834.75,278.125L1834.75,277.972L1834.75,277.928L1834.76,277.903L1834.76,277.893L1834.76,277.892L1834.76,277.893ZM1857.25,277.893L1857.25,277.903L1857.25,277.928L1857.25,277.972L1857.25,278.125L1857.25,278.126L1857.25,278.125L1857.25,278.123L1857.25,278.117L1857.24,278.109L1857.24,278.087L1857.24,278.059L1857.24,277.994L1857.24,277.933L1857.24,277.91L1857.24,277.896L1857.25,277.893L1857.25,277.892L1857.25,277.893ZM1834.84,264.612L1834.91,264.614L1834.99,264.618L1835.06,264.624L1835.14,264.632L1835.21,264.642L1835.29,264.653L1835.36,264.666L1835.44,264.68L1835.51,264.697L1835.59,264.715L1835.66,264.735L1835.74,264.756L1835.81,264.78L1835.88,264.805L1835.96,264.832L1836.03,264.86L1836.1,264.891L1836.18,264.923L1836.25,264.956L1836.32,264.992L1836.39,265.029L1836.46,265.068L1836.53,265.109L1836.6,265.152L1836.66,265.196L1836.73,265.242L1836.79,265.29L1836.86,265.34L1836.92,265.392L1836.98,265.445L1837.04,265.5L1837.1,265.557L1837.16,265.615L1837.22,265.676L1837.28,265.738L1837.33,265.802L1837.38,265.867L1837.43,265.935L1837.49,266.004L1837.53,266.075L1837.58,266.148L1837.63,266.223L1837.67,266.299L1837.71,266.378L1837.75,266.458L1837.79,266.54L1837.83,266.623L1837.86,266.709L1837.9,266.796L1837.93,266.886L1837.96,266.977L1837.99,267.069L1838.01,267.164L1838.03,267.26L1838.05,267.359L1838.07,267.459L1838.09,267.561L1838.1,267.664L1838.11,267.77L1838.12,267.878L1838.13,267.987L1838.13,268.098L1838.13,268.211L1838.13,270.011L1838.13,270.068L1838.13,270.124L1838.13,270.18L1838.13,270.235L1838.12,270.29L1838.12,270.344L1838.11,270.398L1838.11,270.452L1838.1,270.505L1838.09,270.557L1838.08,270.609L1838.07,270.661L1838.06,270.712L1838.05,270.763L1838.04,270.813L1838.03,270.863L1838.01,270.912L1838,270.961L1837.98,271.01L1837.97,271.058L1837.95,271.105L1837.93,271.152L1837.92,271.199L1837.9,271.245L1837.86,271.336L1837.82,271.425L1837.78,271.513L1837.73,271.598L1837.69,271.682L1837.64,271.764L1837.59,271.844L1837.53,271.922L1837.48,271.999L1837.42,272.073L1837.36,272.146L1837.3,272.217L1837.24,272.287L1837.18,272.354L1837.12,272.42L1837.05,272.484L1836.99,272.546L1836.92,272.606L1836.85,272.665L1836.79,272.722L1836.72,272.777L1836.65,272.83L1836.58,272.882L1836.51,272.931L1836.44,272.979L1836.37,273.025L1836.3,273.07L1836.22,273.112L1836.15,273.153L1836.08,273.192L1836.01,273.23L1835.94,273.265L1835.87,273.299L1835.81,273.331L1835.74,273.361L1835.67,273.39L1835.6,273.417L1835.54,273.442L1835.47,273.465L1835.41,273.487L1835.35,273.507L1835.28,273.525L1835.22,273.541L1835.16,273.556L1835.11,273.569L1835.05,273.58L1835,273.589L1834.95,273.597L1834.9,273.603L1834.85,273.607L1834.81,273.61L1834.76,273.611L1834.72,273.61L1834.68,273.607L1834.63,273.603L1834.58,273.597L1834.53,273.589L1834.48,273.58L1834.43,273.569L1834.37,273.556L1834.31,273.541L1834.26,273.525L1834.19,273.507L1834.13,273.487L1834.07,273.465L1834.01,273.442L1833.94,273.417L1833.87,273.39L1833.81,273.361L1833.74,273.331L1833.67,273.299L1833.6,273.265L1833.53,273.23L1833.46,273.192L1833.39,273.153L1833.32,273.112L1833.25,273.07L1833.18,273.025L1833.11,272.979L1833.04,272.931L1832.96,272.882L1832.89,272.83L1832.82,272.777L1832.76,272.722L1832.69,272.665L1832.62,272.606L1832.55,272.546L1832.49,272.484L1832.42,272.42L1832.36,272.354L1832.29,272.287L1832.23,272.217L1832.17,272.146L1832.11,272.073L1832.06,271.999L1832,271.922L1831.95,271.844L1831.89,271.764L1831.84,271.682L1831.8,271.598L1831.75,271.513L1831.71,271.425L1831.67,271.336L1831.65,271.291L1831.63,271.245L1831.61,271.199L1831.59,271.152L1831.58,271.105L1831.56,271.058L1831.54,271.01L1831.53,270.961L1831.51,270.912L1831.5,270.863L1831.49,270.813L1831.48,270.763L1831.46,270.712L1831.45,270.661L1831.44,270.609L1831.43,270.557L1831.43,270.505L1831.42,270.452L1831.41,270.398L1831.41,270.344L1831.4,270.29L1831.4,270.235L1831.39,270.18L1831.39,270.124L1831.39,270.068L1831.39,270.011L1831.39,268.211L1831.39,268.098L1831.39,267.987L1831.4,267.878L1831.41,267.77L1831.42,267.664L1831.44,267.561L1831.45,267.459L1831.47,267.359L1831.49,267.26L1831.52,267.164L1831.54,267.069L1831.57,266.977L1831.6,266.886L1831.63,266.796L1831.66,266.709L1831.7,266.623L1831.74,266.54L1831.78,266.458L1831.82,266.378L1831.86,266.299L1831.91,266.223L1831.95,266.148L1832,266.075L1832.05,266.004L1832.1,265.935L1832.15,265.867L1832.21,265.802L1832.26,265.738L1832.32,265.676L1832.38,265.615L1832.44,265.557L1832.5,265.5L1832.56,265.445L1832.62,265.392L1832.69,265.34L1832.75,265.29L1832.82,265.242L1832.88,265.196L1832.95,265.152L1833.02,265.109L1833.09,265.068L1833.16,265.029L1833.23,264.992L1833.3,264.956L1833.37,264.923L1833.44,264.891L1833.51,264.86L1833.59,264.832L1833.66,264.805L1833.73,264.78L1833.81,264.756L1833.88,264.735L1833.95,264.715L1834.03,264.697L1834.1,264.68L1834.17,264.666L1834.25,264.653L1834.32,264.642L1834.4,264.632L1834.47,264.624L1834.54,264.618L1834.62,264.614L1834.69,264.612L1834.76,264.611L1834.84,264.612ZM1857.53,264.612L1857.61,264.614L1857.68,264.618L1857.76,264.624L1857.83,264.632L1857.91,264.642L1857.98,264.653L1858.06,264.666L1858.13,264.68L1858.21,264.697L1858.28,264.715L1858.36,264.735L1858.43,264.756L1858.51,264.78L1858.58,264.805L1858.65,264.832L1858.73,264.86L1858.8,264.891L1858.87,264.923L1858.94,264.956L1859.01,264.992L1859.08,265.029L1859.15,265.068L1859.22,265.109L1859.29,265.152L1859.36,265.196L1859.42,265.242L1859.49,265.29L1859.55,265.34L1859.62,265.392L1859.68,265.445L1859.74,265.5L1859.8,265.557L1859.86,265.615L1859.91,265.676L1859.97,265.738L1860.03,265.802L1860.08,265.867L1860.13,265.935L1860.18,266.004L1860.23,266.075L1860.28,266.148L1860.32,266.223L1860.37,266.299L1860.41,266.378L1860.45,266.458L1860.49,266.54L1860.53,266.623L1860.56,266.709L1860.59,266.796L1860.62,266.886L1860.65,266.977L1860.68,267.069L1860.7,267.164L1860.73,267.26L1860.75,267.359L1860.77,267.459L1860.78,267.561L1860.8,267.664L1860.81,267.77L1860.82,267.878L1860.82,267.987L1860.83,268.098L1860.83,268.211L1860.83,270.011L1860.83,270.068L1860.83,270.124L1860.82,270.18L1860.82,270.235L1860.82,270.29L1860.81,270.344L1860.81,270.398L1860.8,270.452L1860.79,270.505L1860.79,270.557L1860.78,270.609L1860.77,270.661L1860.76,270.712L1860.75,270.763L1860.73,270.813L1860.72,270.863L1860.71,270.912L1860.69,270.961L1860.68,271.01L1860.66,271.058L1860.65,271.105L1860.63,271.152L1860.61,271.199L1860.59,271.245L1860.56,271.336L1860.52,271.425L1860.47,271.513L1860.43,271.598L1860.38,271.682L1860.33,271.764L1860.28,271.844L1860.23,271.922L1860.17,271.999L1860.12,272.073L1860.06,272.146L1860,272.217L1859.94,272.287L1859.88,272.354L1859.81,272.42L1859.75,272.484L1859.68,272.546L1859.62,272.606L1859.55,272.665L1859.48,272.722L1859.41,272.777L1859.34,272.83L1859.27,272.882L1859.2,272.931L1859.13,272.979L1859.06,273.025L1858.99,273.07L1858.92,273.112L1858.85,273.153L1858.78,273.192L1858.71,273.23L1858.64,273.265L1858.57,273.299L1858.5,273.331L1858.43,273.361L1858.36,273.39L1858.3,273.417L1858.23,273.442L1858.17,273.465L1858.1,273.487L1858.04,273.507L1857.98,273.525L1857.92,273.541L1857.86,273.556L1857.8,273.569L1857.75,273.58L1857.69,273.589L1857.64,273.597L1857.59,273.603L1857.55,273.607L1857.5,273.61L1857.46,273.611L1857.42,273.61L1857.37,273.607L1857.33,273.603L1857.28,273.597L1857.23,273.589L1857.18,273.58L1857.12,273.569L1857.07,273.556L1857.01,273.541L1856.95,273.525L1856.89,273.507L1856.83,273.487L1856.77,273.465L1856.7,273.442L1856.64,273.417L1856.57,273.39L1856.5,273.361L1856.43,273.331L1856.37,273.299L1856.3,273.265L1856.23,273.23L1856.16,273.192L1856.09,273.153L1856.02,273.112L1855.94,273.07L1855.87,273.025L1855.8,272.979L1855.73,272.931L1855.66,272.882L1855.59,272.83L1855.52,272.777L1855.45,272.722L1855.38,272.665L1855.31,272.606L1855.25,272.546L1855.18,272.484L1855.12,272.42L1855.05,272.354L1854.99,272.287L1854.93,272.217L1854.87,272.146L1854.81,272.073L1854.75,271.999L1854.69,271.922L1854.64,271.844L1854.59,271.764L1854.54,271.682L1854.49,271.598L1854.45,271.513L1854.4,271.425L1854.36,271.336L1854.34,271.291L1854.32,271.245L1854.31,271.199L1854.29,271.152L1854.27,271.105L1854.25,271.058L1854.24,271.01L1854.22,270.961L1854.21,270.912L1854.19,270.863L1854.18,270.813L1854.17,270.763L1854.16,270.712L1854.15,270.661L1854.14,270.609L1854.13,270.557L1854.12,270.505L1854.11,270.452L1854.11,270.398L1854.1,270.344L1854.1,270.29L1854.09,270.235L1854.09,270.18L1854.09,270.124L1854.09,270.068L1854.09,270.011L1854.09,268.211L1854.09,268.098L1854.09,267.987L1854.1,267.878L1854.11,267.77L1854.12,267.664L1854.13,267.561L1854.15,267.459L1854.17,267.359L1854.19,267.26L1854.21,267.164L1854.24,267.069L1854.27,266.977L1854.3,266.886L1854.33,266.796L1854.36,266.709L1854.4,266.623L1854.43,266.54L1854.47,266.458L1854.52,266.378L1854.56,266.299L1854.6,266.223L1854.65,266.148L1854.7,266.075L1854.75,266.004L1854.8,265.935L1854.85,265.867L1854.9,265.802L1854.96,265.738L1855.02,265.676L1855.08,265.615L1855.13,265.557L1855.19,265.5L1855.26,265.445L1855.32,265.392L1855.38,265.34L1855.45,265.29L1855.51,265.242L1855.58,265.196L1855.65,265.152L1855.71,265.109L1855.78,265.068L1855.85,265.029L1855.92,264.992L1855.99,264.956L1856.07,264.923L1856.14,264.891L1856.21,264.86L1856.28,264.832L1856.35,264.805L1856.43,264.78L1856.5,264.756L1856.58,264.735L1856.65,264.715L1856.72,264.697L1856.8,264.68L1856.87,264.666L1856.94,264.653L1857.02,264.642L1857.09,264.632L1857.17,264.624L1857.24,264.618L1857.31,264.614L1857.38,264.612L1857.46,264.611L1857.53,264.612ZM1834.71,265.611L1834.66,265.613L1834.61,265.616L1834.56,265.62L1834.51,265.626L1834.46,265.632L1834.41,265.64L1834.36,265.649L1834.31,265.659L1834.25,265.671L1834.2,265.684L1834.15,265.698L1834.1,265.713L1834.05,265.729L1833.99,265.747L1833.94,265.766L1833.89,265.787L1833.84,265.808L1833.79,265.831L1833.74,265.855L1833.69,265.88L1833.64,265.907L1833.59,265.934L1833.54,265.963L1833.49,265.993L1833.44,266.024L1833.4,266.057L1833.35,266.091L1833.31,266.126L1833.26,266.161L1833.22,266.198L1833.17,266.237L1833.13,266.277L1833.09,266.317L1833.05,266.36L1833.01,266.402L1832.97,266.447L1832.93,266.493L1832.9,266.539L1832.86,266.587L1832.83,266.637L1832.8,266.688L1832.76,266.74L1832.73,266.794L1832.7,266.848L1832.67,266.905L1832.64,266.963L1832.62,267.022L1832.59,267.082L1832.57,267.145L1832.55,267.209L1832.52,267.275L1832.5,267.342L1832.49,267.412L1832.47,267.482L1832.45,267.556L1832.44,267.631L1832.43,267.707L1832.41,267.786L1832.41,267.867L1832.4,267.95L1832.39,268.034L1832.39,268.122L1832.39,268.217L1832.39,270.007L1832.39,270.052L1832.39,270.092L1832.39,270.131L1832.39,270.17L1832.4,270.209L1832.4,270.247L1832.4,270.284L1832.41,270.321L1832.41,270.358L1832.42,270.395L1832.43,270.431L1832.43,270.467L1832.44,270.502L1832.45,270.536L1832.46,270.571L1832.47,270.606L1832.48,270.639L1832.49,270.674L1832.5,270.706L1832.51,270.74L1832.52,270.772L1832.53,270.805L1832.54,270.836L1832.55,270.869L1832.57,270.9L1832.58,270.928L1832.61,270.994L1832.64,271.055L1832.67,271.115L1832.7,271.174L1832.74,271.232L1832.78,271.289L1832.82,271.346L1832.86,271.401L1832.9,271.456L1832.94,271.51L1832.99,271.562L1833.03,271.614L1833.08,271.664L1833.13,271.714L1833.18,271.762L1833.23,271.81L1833.28,271.856L1833.33,271.901L1833.38,271.945L1833.44,271.987L1833.49,272.029L1833.55,272.069L1833.6,272.108L1833.66,272.146L1833.72,272.182L1833.77,272.217L1833.83,272.25L1833.88,272.282L1833.94,272.313L1833.99,272.342L1834.05,272.37L1834.1,272.396L1834.15,272.421L1834.21,272.444L1834.26,272.466L1834.31,272.486L1834.36,272.505L1834.4,272.522L1834.45,272.538L1834.49,272.552L1834.53,272.564L1834.57,272.575L1834.61,272.584L1834.64,272.592L1834.67,272.598L1834.7,272.603L1834.72,272.607L1834.74,272.609L1834.75,272.61L1834.76,272.611L1834.77,272.611L1834.78,272.61L1834.79,272.609L1834.81,272.606L1834.84,272.602L1834.87,272.597L1834.9,272.591L1834.93,272.583L1834.97,272.574L1835.01,272.563L1835.05,272.55L1835.1,272.537L1835.14,272.521L1835.19,272.504L1835.24,272.486L1835.29,272.465L1835.34,272.444L1835.39,272.421L1835.44,272.396L1835.5,272.37L1835.55,272.342L1835.61,272.313L1835.66,272.283L1835.72,272.251L1835.77,272.218L1835.83,272.183L1835.88,272.147L1835.94,272.11L1835.99,272.071L1836.05,272.031L1836.1,271.99L1836.15,271.948L1836.2,271.904L1836.26,271.859L1836.31,271.813L1836.36,271.766L1836.4,271.718L1836.45,271.668L1836.5,271.618L1836.55,271.567L1836.59,271.514L1836.63,271.461L1836.67,271.406L1836.71,271.351L1836.75,271.295L1836.79,271.238L1836.82,271.179L1836.85,271.12L1836.89,271.06L1836.92,270.999L1836.94,270.937L1836.97,270.87L1836.98,270.841L1837,270.81L1837.01,270.777L1837.02,270.745L1837.03,270.711L1837.04,270.678L1837.05,270.643L1837.06,270.61L1837.07,270.575L1837.07,270.54L1837.08,270.505L1837.09,270.47L1837.1,270.434L1837.1,270.397L1837.11,270.361L1837.11,270.324L1837.12,270.286L1837.12,270.249L1837.12,270.21L1837.13,270.171L1837.13,270.132L1837.13,270.092L1837.13,270.052L1837.13,270.007L1837.13,268.217L1837.13,268.121L1837.13,268.033L1837.12,267.948L1837.12,267.864L1837.11,267.782L1837.1,267.704L1837.09,267.626L1837.07,267.551L1837.06,267.478L1837.04,267.406L1837.02,267.337L1837,267.269L1836.98,267.203L1836.96,267.138L1836.93,267.075L1836.91,267.014L1836.88,266.955L1836.86,266.898L1836.83,266.841L1836.8,266.786L1836.77,266.733L1836.74,266.681L1836.7,266.631L1836.67,266.581L1836.63,266.533L1836.6,266.487L1836.56,266.442L1836.52,266.398L1836.49,266.355L1836.44,266.313L1836.4,266.273L1836.36,266.234L1836.32,266.196L1836.28,266.159L1836.24,266.123L1836.19,266.089L1836.14,266.055L1836.1,266.023L1836.05,265.992L1836.01,265.962L1835.96,265.934L1835.91,265.907L1835.86,265.88L1835.81,265.855L1835.76,265.831L1835.71,265.809L1835.66,265.787L1835.61,265.767L1835.55,265.748L1835.5,265.73L1835.45,265.714L1835.39,265.698L1835.34,265.684L1835.29,265.671L1835.24,265.66L1835.18,265.65L1835.13,265.64L1835.08,265.633L1835.02,265.626L1834.97,265.62L1834.92,265.616L1834.87,265.613L1834.81,265.611L1834.76,265.611L1834.71,265.611ZM1857.41,265.611L1857.36,265.613L1857.31,265.616L1857.26,265.62L1857.21,265.626L1857.16,265.632L1857.11,265.64L1857.05,265.649L1857,265.659L1856.95,265.671L1856.9,265.684L1856.85,265.698L1856.79,265.713L1856.74,265.729L1856.69,265.747L1856.64,265.766L1856.59,265.787L1856.53,265.808L1856.48,265.831L1856.43,265.855L1856.38,265.88L1856.33,265.907L1856.28,265.934L1856.24,265.963L1856.19,265.993L1856.14,266.025L1856.09,266.057L1856.05,266.09L1856,266.125L1855.96,266.162L1855.91,266.199L1855.87,266.237L1855.83,266.277L1855.79,266.318L1855.75,266.359L1855.71,266.402L1855.67,266.447L1855.63,266.493L1855.6,266.539L1855.56,266.587L1855.53,266.637L1855.49,266.688L1855.46,266.74L1855.43,266.793L1855.4,266.848L1855.37,266.905L1855.34,266.962L1855.31,267.022L1855.29,267.083L1855.26,267.145L1855.24,267.209L1855.22,267.275L1855.2,267.342L1855.18,267.412L1855.16,267.483L1855.15,267.556L1855.13,267.631L1855.12,267.707L1855.11,267.786L1855.1,267.867L1855.1,267.95L1855.09,268.035L1855.09,268.122L1855.09,268.217L1855.09,270.007L1855.09,270.052L1855.09,270.092L1855.09,270.131L1855.09,270.17L1855.09,270.208L1855.1,270.246L1855.1,270.285L1855.11,270.322L1855.11,270.358L1855.12,270.395L1855.12,270.431L1855.13,270.467L1855.14,270.502L1855.14,270.536L1855.15,270.571L1855.16,270.606L1855.17,270.639L1855.18,270.674L1855.19,270.706L1855.2,270.739L1855.21,270.772L1855.23,270.805L1855.24,270.836L1855.25,270.869L1855.26,270.9L1855.28,270.929L1855.31,270.994L1855.34,271.055L1855.37,271.115L1855.4,271.174L1855.44,271.232L1855.47,271.289L1855.51,271.346L1855.55,271.401L1855.6,271.456L1855.64,271.509L1855.68,271.562L1855.73,271.614L1855.78,271.664L1855.82,271.714L1855.87,271.762L1855.92,271.809L1855.98,271.856L1856.03,271.901L1856.08,271.945L1856.13,271.987L1856.19,272.029L1856.24,272.069L1856.3,272.108L1856.35,272.146L1856.41,272.182L1856.47,272.217L1856.52,272.25L1856.58,272.283L1856.63,272.313L1856.69,272.342L1856.74,272.37L1856.8,272.396L1856.85,272.421L1856.9,272.444L1856.95,272.466L1857,272.487L1857.05,272.505L1857.1,272.522L1857.14,272.538L1857.19,272.552L1857.23,272.564L1857.27,272.575L1857.3,272.584L1857.34,272.592L1857.37,272.598L1857.39,272.603L1857.42,272.607L1857.43,272.609L1857.45,272.61L1857.46,272.611L1857.46,272.611L1857.47,272.61L1857.49,272.609L1857.51,272.606L1857.53,272.602L1857.56,272.597L1857.59,272.591L1857.63,272.583L1857.67,272.574L1857.7,272.563L1857.75,272.55L1857.79,272.537L1857.84,272.521L1857.88,272.504L1857.93,272.486L1857.98,272.465L1858.03,272.444L1858.09,272.421L1858.14,272.396L1858.19,272.37L1858.25,272.342L1858.3,272.313L1858.36,272.283L1858.41,272.251L1858.47,272.218L1858.52,272.183L1858.58,272.147L1858.63,272.11L1858.69,272.071L1858.74,272.031L1858.8,271.99L1858.85,271.948L1858.9,271.904L1858.95,271.859L1859,271.813L1859.05,271.766L1859.1,271.718L1859.15,271.668L1859.19,271.618L1859.24,271.567L1859.28,271.514L1859.33,271.461L1859.37,271.406L1859.41,271.351L1859.44,271.295L1859.48,271.238L1859.52,271.179L1859.55,271.12L1859.58,271.06L1859.61,270.999L1859.64,270.937L1859.67,270.87L1859.68,270.841L1859.69,270.81L1859.7,270.777L1859.71,270.745L1859.72,270.711L1859.73,270.678L1859.74,270.643L1859.75,270.61L1859.76,270.575L1859.77,270.54L1859.78,270.506L1859.79,270.47L1859.79,270.433L1859.8,270.398L1859.8,270.361L1859.81,270.324L1859.81,270.286L1859.82,270.248L1859.82,270.211L1859.82,270.171L1859.83,270.131L1859.83,270.092L1859.83,270.052L1859.83,270.007L1859.83,268.217L1859.83,268.121L1859.82,268.033L1859.82,267.948L1859.81,267.864L1859.8,267.782L1859.79,267.704L1859.78,267.626L1859.77,267.551L1859.75,267.478L1859.74,267.406L1859.72,267.337L1859.7,267.268L1859.68,267.203L1859.65,267.138L1859.63,267.075L1859.61,267.014L1859.58,266.955L1859.55,266.898L1859.52,266.842L1859.49,266.786L1859.46,266.733L1859.43,266.681L1859.4,266.63L1859.36,266.581L1859.33,266.534L1859.29,266.487L1859.26,266.442L1859.22,266.398L1859.18,266.355L1859.14,266.313L1859.1,266.273L1859.06,266.234L1859.02,266.196L1858.97,266.159L1858.93,266.123L1858.89,266.089L1858.84,266.055L1858.8,266.023L1858.75,265.992L1858.7,265.962L1858.65,265.934L1858.6,265.907L1858.56,265.88L1858.51,265.855L1858.45,265.831L1858.4,265.809L1858.35,265.787L1858.3,265.767L1858.25,265.748L1858.2,265.73L1858.14,265.714L1858.09,265.698L1858.04,265.684L1857.99,265.671L1857.93,265.66L1857.88,265.65L1857.83,265.64L1857.77,265.632L1857.72,265.626L1857.67,265.62L1857.61,265.616L1857.56,265.613L1857.51,265.611L1857.46,265.611L1857.41,265.611ZM1846.08,259L1846.15,259.002L1846.22,259.004L1846.3,259.007L1846.37,259.011L1846.44,259.016L1846.51,259.021L1846.58,259.028L1846.65,259.035L1846.73,259.043L1846.8,259.052L1846.87,259.062L1846.94,259.073L1847.01,259.084L1847.08,259.097L1847.15,259.11L1847.22,259.124L1847.29,259.139L1847.35,259.154L1847.42,259.171L1847.49,259.188L1847.56,259.206L1847.62,259.225L1847.69,259.244L1847.76,259.264L1847.82,259.286L1847.89,259.307L1847.95,259.33L1848.02,259.354L1848.08,259.378L1848.14,259.403L1848.21,259.428L1848.27,259.455L1848.33,259.482L1848.4,259.51L1848.46,259.539L1848.52,259.568L1848.58,259.598L1848.64,259.629L1848.7,259.661L1848.76,259.693L1848.82,259.726L1848.88,259.76L1848.93,259.794L1848.99,259.83L1849.05,259.865L1849.11,259.902L1849.16,259.939L1849.22,259.977L1849.27,260.016L1849.33,260.055L1849.38,260.095L1849.44,260.136L1849.49,260.177L1849.54,260.219L1849.59,260.261L1849.64,260.305L1849.69,260.349L1849.75,260.393L1849.8,260.438L1849.85,260.484L1849.89,260.531L1849.94,260.578L1849.99,260.625L1850.04,260.674L1850.08,260.723L1850.13,260.772L1850.17,260.822L1850.22,260.873L1850.26,260.925L1850.31,260.977L1850.35,261.029L1850.39,261.082L1850.43,261.136L1850.47,261.19L1850.51,261.245L1850.55,261.301L1850.59,261.357L1850.63,261.413L1850.67,261.47L1850.7,261.528L1850.74,261.586L1850.78,261.645L1850.81,261.705L1850.85,261.765L1850.88,261.825L1850.91,261.886L1850.94,261.947L1850.98,262.009L1851.01,262.072L1851.04,262.135L1851.07,262.198L1851.1,262.263L1851.12,262.327L1851.15,262.392L1851.18,262.458L1851.2,262.524L1851.23,262.59L1851.25,262.657L1851.28,262.725L1851.3,262.793L1851.32,262.861L1851.34,262.93L1851.36,262.999L1851.38,263.069L1851.4,263.14L1851.42,263.21L1851.44,263.281L1851.45,263.353L1851.47,263.425L1851.49,263.498L1851.5,263.57L1851.51,263.644L1851.53,263.718L1851.54,263.792L1851.55,263.866L1851.56,263.941L1851.57,264.017L1851.58,264.093L1851.58,264.169L1851.59,264.245L1851.6,264.322L1851.6,264.4L1851.6,264.477L1851.61,264.556L1851.61,264.634L1851.61,264.713L1851.61,264.792L1851.61,265.854L1851.61,265.933L1851.61,266.012L1851.61,266.092L1851.6,266.171L1851.6,266.25L1851.6,266.329L1851.59,266.408L1851.58,266.487L1851.58,266.566L1851.57,266.644L1851.56,266.723L1851.55,266.801L1851.54,266.879L1851.53,266.957L1851.51,267.035L1851.5,267.113L1851.49,267.19L1851.47,267.267L1851.45,267.345L1851.44,267.421L1851.42,267.498L1851.4,267.574L1851.38,267.651L1851.36,267.727L1851.34,267.802L1851.32,267.878L1851.3,267.953L1851.28,268.028L1851.25,268.102L1851.23,268.176L1851.2,268.25L1851.18,268.324L1851.15,268.397L1851.12,268.47L1851.1,268.543L1851.07,268.615L1851.04,268.687L1851.01,268.758L1850.98,268.829L1850.94,268.9L1850.91,268.97L1850.88,269.04L1850.85,269.11L1850.81,269.179L1850.78,269.247L1850.74,269.315L1850.7,269.383L1850.67,269.45L1850.63,269.517L1850.59,269.583L1850.55,269.649L1850.51,269.714L1850.47,269.779L1850.43,269.843L1850.39,269.907L1850.35,269.97L1850.31,270.033L1850.26,270.095L1850.22,270.156L1850.17,270.217L1850.13,270.278L1850.08,270.337L1850.04,270.396L1849.99,270.455L1849.94,270.513L1849.89,270.57L1849.85,270.627L1849.8,270.683L1849.75,270.738L1849.69,270.793L1849.64,270.847L1849.59,270.9L1849.54,270.953L1849.49,271.005L1849.44,271.056L1849.38,271.106L1849.33,271.156L1849.27,271.205L1849.22,271.253L1849.16,271.301L1849.11,271.347L1849.05,271.393L1848.99,271.439L1848.93,271.483L1848.88,271.527L1848.82,271.569L1848.76,271.611L1848.7,271.652L1848.64,271.693L1848.58,271.732L1848.52,271.771L1848.46,271.809L1848.4,271.845L1848.33,271.881L1848.27,271.916L1848.21,271.951L1848.14,271.984L1848.08,272.016L1848.02,272.048L1847.95,272.078L1847.89,272.108L1847.82,272.136L1847.76,272.164L1847.69,272.191L1847.62,272.216L1847.56,272.241L1847.49,272.265L1847.42,272.287L1847.35,272.309L1847.29,272.33L1847.22,272.349L1847.15,272.368L1847.08,272.385L1847.01,272.402L1846.94,272.417L1846.87,272.431L1846.8,272.445L1846.73,272.457L1846.65,272.468L1846.58,272.477L1846.51,272.486L1846.44,272.494L1846.37,272.5L1846.3,272.506L1846.22,272.51L1846.15,272.513L1846.08,272.514L1846,272.515L1845.93,272.514L1845.85,272.513L1845.78,272.51L1845.71,272.506L1845.63,272.5L1845.56,272.494L1845.49,272.486L1845.42,272.477L1845.35,272.468L1845.28,272.457L1845.2,272.445L1845.13,272.431L1845.06,272.417L1844.99,272.402L1844.92,272.385L1844.85,272.368L1844.79,272.349L1844.72,272.33L1844.65,272.309L1844.58,272.287L1844.51,272.265L1844.44,272.241L1844.38,272.216L1844.31,272.191L1844.25,272.164L1844.18,272.136L1844.11,272.108L1844.05,272.078L1843.98,272.048L1843.92,272.016L1843.86,271.984L1843.79,271.951L1843.73,271.916L1843.67,271.881L1843.61,271.845L1843.54,271.809L1843.48,271.771L1843.42,271.732L1843.36,271.693L1843.3,271.652L1843.24,271.611L1843.18,271.569L1843.12,271.527L1843.07,271.483L1843.01,271.439L1842.95,271.393L1842.89,271.347L1842.84,271.301L1842.78,271.253L1842.73,271.205L1842.67,271.156L1842.62,271.106L1842.57,271.056L1842.51,271.005L1842.46,270.953L1842.41,270.9L1842.36,270.847L1842.31,270.793L1842.26,270.738L1842.21,270.683L1842.16,270.627L1842.11,270.57L1842.06,270.513L1842.01,270.455L1841.97,270.396L1841.92,270.337L1841.87,270.278L1841.83,270.217L1841.78,270.156L1841.74,270.095L1841.7,270.033L1841.65,269.97L1841.61,269.907L1841.57,269.843L1841.53,269.779L1841.49,269.714L1841.45,269.649L1841.41,269.583L1841.37,269.517L1841.33,269.45L1841.3,269.383L1841.26,269.315L1841.22,269.247L1841.19,269.179L1841.15,269.11L1841.12,269.04L1841.09,268.97L1841.06,268.9L1841.03,268.829L1840.99,268.758L1840.96,268.687L1840.93,268.615L1840.9,268.543L1840.88,268.47L1840.85,268.397L1840.82,268.324L1840.8,268.25L1840.77,268.176L1840.75,268.102L1840.73,268.028L1840.7,267.953L1840.68,267.878L1840.66,267.802L1840.64,267.727L1840.62,267.651L1840.6,267.574L1840.58,267.498L1840.56,267.421L1840.55,267.345L1840.53,267.267L1840.52,267.19L1840.5,267.113L1840.49,267.035L1840.48,266.957L1840.47,266.879L1840.45,266.801L1840.44,266.723L1840.43,266.644L1840.43,266.566L1840.42,266.487L1840.41,266.408L1840.41,266.329L1840.4,266.25L1840.4,266.171L1840.39,266.092L1840.39,266.012L1840.39,265.933L1840.39,265.854L1840.39,264.792L1840.39,264.713L1840.39,264.634L1840.39,264.556L1840.4,264.477L1840.4,264.4L1840.41,264.322L1840.41,264.245L1840.42,264.169L1840.43,264.093L1840.43,264.017L1840.44,263.941L1840.45,263.866L1840.47,263.792L1840.48,263.718L1840.49,263.644L1840.5,263.57L1840.52,263.498L1840.53,263.425L1840.55,263.353L1840.56,263.281L1840.58,263.21L1840.6,263.14L1840.62,263.069L1840.64,262.999L1840.66,262.93L1840.68,262.861L1840.7,262.793L1840.73,262.725L1840.75,262.657L1840.77,262.59L1840.8,262.524L1840.82,262.458L1840.85,262.392L1840.88,262.327L1840.9,262.263L1840.93,262.198L1840.96,262.135L1840.99,262.072L1841.03,262.009L1841.06,261.947L1841.09,261.886L1841.12,261.825L1841.15,261.765L1841.19,261.705L1841.22,261.645L1841.26,261.586L1841.3,261.528L1841.33,261.47L1841.37,261.413L1841.41,261.357L1841.45,261.301L1841.49,261.245L1841.53,261.19L1841.57,261.136L1841.61,261.082L1841.65,261.029L1841.7,260.977L1841.74,260.925L1841.78,260.873L1841.83,260.822L1841.87,260.772L1841.92,260.723L1841.97,260.674L1842.01,260.625L1842.06,260.578L1842.11,260.531L1842.16,260.484L1842.21,260.438L1842.26,260.393L1842.31,260.349L1842.36,260.305L1842.41,260.261L1842.46,260.219L1842.51,260.177L1842.57,260.136L1842.62,260.095L1842.67,260.055L1842.73,260.016L1842.78,259.977L1842.84,259.939L1842.89,259.902L1842.95,259.865L1843.01,259.83L1843.07,259.794L1843.12,259.76L1843.18,259.726L1843.24,259.693L1843.3,259.661L1843.36,259.629L1843.42,259.598L1843.48,259.568L1843.54,259.539L1843.61,259.51L1843.67,259.482L1843.73,259.455L1843.79,259.428L1843.86,259.403L1843.92,259.378L1843.98,259.354L1844.05,259.33L1844.11,259.307L1844.18,259.286L1844.25,259.264L1844.31,259.244L1844.38,259.225L1844.44,259.206L1844.51,259.188L1844.58,259.171L1844.65,259.154L1844.72,259.139L1844.79,259.124L1844.85,259.11L1844.92,259.097L1844.99,259.084L1845.06,259.073L1845.13,259.062L1845.2,259.052L1845.28,259.043L1845.35,259.035L1845.42,259.028L1845.49,259.021L1845.56,259.016L1845.63,259.011L1845.71,259.007L1845.78,259.004L1845.85,259.002L1845.93,259L1846,259L1846.08,259ZM1845.94,260L1845.88,260.001L1845.82,260.003L1845.76,260.006L1845.69,260.009L1845.63,260.013L1845.57,260.018L1845.51,260.023L1845.45,260.029L1845.39,260.036L1845.34,260.043L1845.28,260.052L1845.22,260.061L1845.16,260.07L1845.1,260.08L1845.05,260.091L1844.99,260.103L1844.93,260.115L1844.88,260.128L1844.82,260.141L1844.76,260.155L1844.71,260.17L1844.65,260.186L1844.6,260.202L1844.55,260.218L1844.49,260.236L1844.44,260.254L1844.38,260.272L1844.33,260.291L1844.28,260.311L1844.23,260.332L1844.17,260.353L1844.12,260.374L1844.07,260.397L1844.02,260.419L1843.97,260.443L1843.92,260.467L1843.87,260.491L1843.82,260.517L1843.77,260.542L1843.73,260.569L1843.68,260.596L1843.63,260.623L1843.58,260.651L1843.54,260.68L1843.49,260.709L1843.44,260.739L1843.4,260.769L1843.35,260.8L1843.31,260.831L1843.26,260.863L1843.22,260.896L1843.17,260.929L1843.13,260.962L1843.09,260.996L1843.05,261.031L1843.01,261.066L1842.96,261.102L1842.92,261.138L1842.88,261.175L1842.84,261.212L1842.8,261.249L1842.76,261.288L1842.73,261.327L1842.69,261.366L1842.65,261.406L1842.61,261.446L1842.58,261.487L1842.54,261.529L1842.5,261.57L1842.47,261.613L1842.43,261.655L1842.4,261.699L1842.36,261.743L1842.33,261.787L1842.3,261.832L1842.27,261.877L1842.23,261.923L1842.2,261.969L1842.17,262.016L1842.14,262.063L1842.11,262.111L1842.08,262.159L1842.05,262.207L1842.03,262.257L1842,262.307L1841.97,262.356L1841.94,262.407L1841.92,262.458L1841.89,262.509L1841.87,262.561L1841.84,262.614L1841.82,262.667L1841.8,262.72L1841.77,262.774L1841.75,262.827L1841.73,262.882L1841.71,262.938L1841.69,262.993L1841.67,263.049L1841.65,263.105L1841.63,263.162L1841.62,263.22L1841.6,263.277L1841.58,263.336L1841.57,263.394L1841.55,263.453L1841.54,263.513L1841.52,263.572L1841.51,263.633L1841.5,263.694L1841.49,263.755L1841.47,263.816L1841.46,263.879L1841.45,263.942L1841.44,264.005L1841.44,264.068L1841.43,264.131L1841.42,264.196L1841.41,264.26L1841.41,264.326L1841.4,264.391L1841.4,264.457L1841.4,264.523L1841.39,264.589L1841.39,264.657L1841.39,264.724L1841.39,264.795L1841.39,265.851L1841.39,265.922L1841.39,265.99L1841.39,266.058L1841.4,266.126L1841.4,266.194L1841.4,266.262L1841.41,266.33L1841.41,266.398L1841.42,266.466L1841.43,266.534L1841.44,266.602L1841.44,266.668L1841.45,266.736L1841.47,266.804L1841.48,266.872L1841.49,266.938L1841.5,267.005L1841.51,267.072L1841.53,267.139L1841.54,267.205L1841.56,267.272L1841.57,267.338L1841.59,267.404L1841.6,267.47L1841.62,267.535L1841.64,267.601L1841.66,267.666L1841.68,267.731L1841.7,267.796L1841.72,267.86L1841.74,267.924L1841.77,267.988L1841.79,268.051L1841.81,268.115L1841.84,268.177L1841.86,268.24L1841.89,268.303L1841.91,268.365L1841.94,268.426L1841.97,268.487L1842,268.548L1842.02,268.608L1842.05,268.669L1842.08,268.729L1842.11,268.788L1842.14,268.846L1842.17,268.905L1842.21,268.963L1842.24,269.021L1842.27,269.078L1842.31,269.134L1842.34,269.191L1842.38,269.246L1842.41,269.301L1842.45,269.356L1842.48,269.411L1842.52,269.464L1842.56,269.517L1842.59,269.57L1842.63,269.622L1842.67,269.674L1842.71,269.724L1842.75,269.775L1842.79,269.825L1842.83,269.874L1842.87,269.923L1842.91,269.97L1842.95,270.018L1843,270.065L1843.04,270.111L1843.08,270.156L1843.12,270.201L1843.17,270.246L1843.21,270.289L1843.26,270.332L1843.3,270.374L1843.35,270.416L1843.39,270.457L1843.44,270.497L1843.48,270.536L1843.53,270.575L1843.58,270.613L1843.62,270.651L1843.67,270.687L1843.72,270.723L1843.77,270.758L1843.82,270.793L1843.87,270.826L1843.91,270.859L1843.96,270.892L1844.01,270.923L1844.06,270.954L1844.11,270.984L1844.16,271.013L1844.21,271.041L1844.26,271.069L1844.32,271.095L1844.37,271.121L1844.42,271.146L1844.47,271.171L1844.52,271.194L1844.57,271.217L1844.62,271.239L1844.68,271.26L1844.73,271.281L1844.78,271.3L1844.84,271.319L1844.89,271.337L1844.94,271.354L1845,271.37L1845.05,271.386L1845.11,271.4L1845.16,271.414L1845.22,271.427L1845.27,271.439L1845.32,271.45L1845.38,271.46L1845.43,271.469L1845.49,271.478L1845.55,271.486L1845.6,271.493L1845.66,271.498L1845.72,271.503L1845.77,271.508L1845.83,271.511L1845.89,271.513L1845.94,271.515L1846,271.515L1846.06,271.515L1846.12,271.513L1846.17,271.511L1846.23,271.508L1846.29,271.503L1846.34,271.498L1846.4,271.493L1846.45,271.486L1846.51,271.478L1846.57,271.469L1846.62,271.46L1846.68,271.45L1846.73,271.439L1846.79,271.427L1846.84,271.414L1846.9,271.4L1846.95,271.385L1847,271.37L1847.06,271.354L1847.11,271.337L1847.16,271.319L1847.22,271.3L1847.27,271.281L1847.32,271.26L1847.38,271.239L1847.43,271.217L1847.48,271.194L1847.53,271.171L1847.58,271.146L1847.64,271.121L1847.69,271.095L1847.74,271.069L1847.79,271.041L1847.84,271.013L1847.89,270.984L1847.94,270.954L1847.99,270.923L1848.04,270.892L1848.09,270.859L1848.14,270.826L1848.19,270.793L1848.23,270.758L1848.28,270.723L1848.33,270.687L1848.38,270.651L1848.42,270.613L1848.47,270.575L1848.52,270.536L1848.56,270.497L1848.61,270.457L1848.65,270.416L1848.7,270.374L1848.75,270.332L1848.79,270.289L1848.83,270.246L1848.88,270.201L1848.92,270.156L1848.96,270.111L1849.01,270.065L1849.05,270.018L1849.09,269.97L1849.13,269.923L1849.17,269.874L1849.21,269.825L1849.25,269.775L1849.29,269.724L1849.33,269.674L1849.37,269.622L1849.41,269.57L1849.45,269.517L1849.48,269.464L1849.52,269.411L1849.56,269.356L1849.59,269.302L1849.63,269.247L1849.66,269.19L1849.69,269.134L1849.73,269.078L1849.76,269.021L1849.79,268.963L1849.83,268.905L1849.86,268.846L1849.89,268.788L1849.92,268.728L1849.95,268.669L1849.98,268.609L1850.01,268.548L1850.03,268.487L1850.06,268.426L1850.09,268.364L1850.12,268.303L1850.14,268.241L1850.16,268.178L1850.19,268.115L1850.21,268.051L1850.24,267.988L1850.26,267.924L1850.28,267.86L1850.3,267.796L1850.32,267.731L1850.34,267.667L1850.36,267.6L1850.38,267.535L1850.4,267.47L1850.41,267.404L1850.43,267.338L1850.45,267.272L1850.46,267.205L1850.48,267.139L1850.49,267.072L1850.5,267.005L1850.51,266.938L1850.53,266.871L1850.54,266.804L1850.55,266.737L1850.56,266.668L1850.57,266.602L1850.57,266.534L1850.58,266.466L1850.59,266.398L1850.59,266.33L1850.6,266.262L1850.6,266.194L1850.61,266.126L1850.61,266.058L1850.61,265.99L1850.61,265.922L1850.61,265.851L1850.61,264.795L1850.61,264.724L1850.61,264.657L1850.61,264.589L1850.61,264.523L1850.6,264.457L1850.6,264.391L1850.59,264.326L1850.59,264.26L1850.58,264.196L1850.57,264.131L1850.57,264.068L1850.56,264.005L1850.55,263.941L1850.54,263.879L1850.53,263.817L1850.52,263.755L1850.5,263.694L1850.49,263.633L1850.48,263.572L1850.47,263.513L1850.45,263.453L1850.43,263.394L1850.42,263.336L1850.4,263.277L1850.39,263.22L1850.37,263.163L1850.35,263.105L1850.33,263.049L1850.31,262.993L1850.29,262.937L1850.27,262.883L1850.25,262.828L1850.23,262.774L1850.2,262.72L1850.18,262.666L1850.16,262.613L1850.13,262.561L1850.11,262.509L1850.08,262.458L1850.06,262.407L1850.03,262.356L1850,262.306L1849.98,262.256L1849.95,262.208L1849.92,262.159L1849.89,262.111L1849.86,262.063L1849.83,262.016L1849.8,261.969L1849.77,261.923L1849.74,261.877L1849.7,261.832L1849.67,261.787L1849.64,261.742L1849.6,261.699L1849.57,261.655L1849.53,261.613L1849.5,261.57L1849.46,261.529L1849.43,261.487L1849.39,261.446L1849.35,261.406L1849.32,261.366L1849.28,261.327L1849.24,261.288L1849.2,261.249L1849.16,261.212L1849.12,261.175L1849.08,261.138L1849.04,261.102L1849,261.066L1848.95,261.031L1848.91,260.996L1848.87,260.962L1848.83,260.928L1848.78,260.896L1848.74,260.863L1848.69,260.831L1848.65,260.8L1848.6,260.769L1848.56,260.739L1848.51,260.709L1848.47,260.68L1848.42,260.651L1848.37,260.623L1848.32,260.596L1848.28,260.569L1848.23,260.542L1848.18,260.517L1848.13,260.491L1848.08,260.467L1848.03,260.443L1847.98,260.419L1847.93,260.397L1847.88,260.374L1847.83,260.353L1847.78,260.332L1847.72,260.311L1847.67,260.291L1847.62,260.272L1847.56,260.254L1847.51,260.236L1847.46,260.218L1847.4,260.202L1847.35,260.186L1847.29,260.17L1847.24,260.155L1847.18,260.141L1847.12,260.128L1847.07,260.115L1847.01,260.103L1846.95,260.091L1846.9,260.08L1846.84,260.07L1846.78,260.061L1846.72,260.052L1846.67,260.043L1846.61,260.036L1846.55,260.029L1846.49,260.023L1846.43,260.018L1846.37,260.013L1846.31,260.009L1846.25,260.006L1846.19,260.003L1846.12,260.001L1846.06,260L1846,260L1845.94,260Z" style="fill:rgb(96,199,146);"/>
    </g>
</svg>
