<?xml version="1.0" standalone="no"?>
<!DOCTYPE svg PUBLIC "-//W3C//DTD SVG 1.1//EN" "http://www.w3.org/Graphics/SVG/1.1/DTD/svg11.dtd">
<svg width="100%" height="100%" viewBox="0 0 29 30" version="1.1" xmlns="http://www.w3.org/2000/svg" xmlns:xlink="http://www.w3.org/1999/xlink" xml:space="preserve" style="fill-rule:evenodd;clip-rule:evenodd;stroke-linejoin:round;stroke-miterlimit:1.41421;">
    <g transform="matrix(1,0,0,1,-1517.45,-183.659)">
        <g id="Forma 1 copy 27" transform="matrix(1,0,0,1,-2.54534,-81.3404)">
            <path d="M1540.14,265.001L1540.3,265.005L1540.45,265.011L1540.61,265.02L1540.76,265.032L1540.91,265.046L1541.06,265.063L1541.22,265.082L1541.37,265.104L1541.52,265.128L1541.67,265.155L1541.82,265.185L1541.97,265.217L1542.12,265.252L1542.27,265.29L1542.42,265.33L1542.57,265.372L1542.72,265.418L1542.86,265.466L1538.09,270.243L1539.58,274.421L1543.76,275.914L1548.53,271.137L1548.58,271.284L1548.63,271.432L1548.67,271.581L1548.71,271.73L1548.75,271.879L1548.78,272.03L1548.82,272.18L1548.84,272.331L1548.87,272.482L1548.9,272.634L1548.92,272.786L1548.94,272.939L1548.95,273.091L1548.97,273.244L1548.98,273.397L1548.99,273.55L1549,273.703L1549,273.857L1549,274.01L1549,274.163L1548.99,274.316L1548.99,274.47L1548.98,274.623L1548.97,274.776L1548.95,274.928L1548.93,275.081L1548.92,275.233L1548.89,275.385L1548.87,275.537L1548.84,275.688L1548.81,275.839L1548.78,275.99L1548.74,276.14L1548.71,276.289L1548.67,276.438L1548.62,276.587L1548.58,276.734L1548.53,276.882L1548.48,277.028L1548.42,277.174L1548.37,277.319L1548.31,277.463L1548.25,277.606L1548.19,277.749L1548.12,277.891L1548.05,278.031L1547.98,278.171L1547.9,278.31L1547.83,278.447L1547.75,278.584L1547.67,278.719L1547.58,278.854L1547.5,278.987L1547.41,279.119L1547.31,279.25L1547.22,279.379L1547.12,279.507L1547.02,279.634L1546.92,279.759L1546.81,279.883L1546.7,280.005L1546.6,280.126L1546.48,280.246L1546.37,280.364L1546.25,280.477L1546.13,280.588L1546.02,280.697L1545.89,280.803L1545.77,280.906L1545.65,281.007L1545.53,281.106L1545.4,281.202L1545.27,281.296L1545.15,281.387L1545.02,281.475L1544.89,281.561L1544.76,281.645L1544.62,281.726L1544.49,281.804L1544.35,281.88L1544.22,281.954L1544.08,282.025L1543.94,282.093L1543.81,282.159L1543.66,282.223L1543.53,282.284L1543.38,282.342L1543.24,282.399L1543.1,282.452L1542.96,282.503L1542.81,282.552L1542.67,282.598L1542.52,282.641L1542.38,282.682L1542.23,282.721L1542.08,282.757L1541.93,282.79L1541.79,282.821L1541.64,282.85L1541.49,282.876L1541.34,282.899L1541.19,282.92L1541.04,282.939L1540.89,282.955L1540.74,282.968L1540.59,282.979L1540.44,282.988L1540.29,282.994L1540.14,282.997L1539.99,282.998L1539.84,282.997L1539.69,282.993L1539.54,282.986L1539.39,282.977L1539.24,282.966L1539.09,282.952L1538.94,282.935L1538.79,282.916L1538.64,282.895L1538.49,282.871L1538.34,282.844L1538.2,282.815L1538.05,282.784L1537.9,282.75L1537.75,282.713L1537.61,282.674L1537.46,282.633L1537.32,282.589L1537.28,282.637L1537.24,282.686L1537.2,282.733L1537.16,282.78L1537.12,282.827L1537.07,282.873L1537.03,282.919L1536.98,282.964L1527.17,292.776L1527.1,292.851L1527.02,292.925L1526.94,292.996L1526.86,293.064L1526.77,293.13L1526.69,293.194L1526.6,293.255L1526.52,293.314L1526.43,293.371L1526.34,293.425L1526.25,293.477L1526.16,293.526L1526.07,293.573L1525.97,293.617L1525.88,293.659L1525.79,293.699L1525.69,293.736L1525.59,293.771L1525.5,293.804L1525.4,293.834L1525.3,293.861L1525.2,293.887L1525.11,293.909L1525.01,293.93L1524.91,293.948L1524.81,293.964L1524.71,293.977L1524.61,293.988L1524.51,293.996L1524.4,294.002L1524.3,294.006L1524.2,294.007L1524.1,294.006L1524,294.002L1523.9,293.996L1523.8,293.988L1523.7,293.977L1523.6,293.964L1523.5,293.948L1523.4,293.93L1523.3,293.909L1523.2,293.887L1523.1,293.861L1523.01,293.834L1522.91,293.804L1522.81,293.771L1522.72,293.736L1522.62,293.699L1522.53,293.659L1522.43,293.617L1522.34,293.573L1522.25,293.526L1522.16,293.477L1522.07,293.425L1521.98,293.371L1521.89,293.314L1521.8,293.255L1521.72,293.194L1521.63,293.13L1521.55,293.064L1521.47,292.996L1521.39,292.925L1521.31,292.851L1521.23,292.776L1521.15,292.698L1521.08,292.619L1521.01,292.538L1520.94,292.456L1520.88,292.373L1520.81,292.288L1520.75,292.203L1520.69,292.116L1520.64,292.028L1520.58,291.939L1520.53,291.849L1520.48,291.758L1520.43,291.666L1520.39,291.573L1520.35,291.479L1520.31,291.385L1520.27,291.289L1520.24,291.193L1520.2,291.097L1520.17,291L1520.14,290.902L1520.12,290.803L1520.1,290.705L1520.08,290.606L1520.06,290.506L1520.04,290.406L1520.03,290.306L1520.02,290.206L1520.01,290.105L1520.01,290.004L1520,289.903L1520,289.803L1520,289.702L1520.01,289.601L1520.01,289.5L1520.02,289.4L1520.03,289.299L1520.04,289.199L1520.06,289.099L1520.08,289L1520.1,288.9L1520.12,288.802L1520.14,288.703L1520.17,288.606L1520.2,288.508L1520.24,288.412L1520.27,288.316L1520.31,288.22L1520.35,288.126L1520.39,288.032L1520.43,287.939L1520.48,287.847L1520.53,287.756L1520.58,287.666L1520.64,287.577L1520.69,287.489L1520.75,287.402L1520.81,287.317L1520.88,287.232L1520.94,287.149L1521.01,287.067L1521.08,286.987L1521.15,286.907L1521.23,286.83L1531.04,277.019L1531.09,276.974L1531.13,276.931L1531.18,276.888L1531.22,276.846L1531.27,276.805L1531.32,276.765L1531.37,276.725L1531.41,276.687L1531.37,276.541L1531.33,276.395L1531.29,276.249L1531.25,276.102L1531.22,275.955L1531.19,275.807L1531.16,275.659L1531.13,275.51L1531.11,275.361L1531.09,275.212L1531.07,275.063L1531.05,274.913L1531.04,274.763L1531.03,274.613L1531.02,274.462L1531.01,274.312L1531.01,274.162L1531.01,274.011L1531.01,273.861L1531.01,273.71L1531.02,273.56L1531.03,273.41L1531.04,273.259L1531.05,273.109L1531.07,272.96L1531.08,272.81L1531.11,272.661L1531.13,272.512L1531.15,272.363L1531.18,272.215L1531.21,272.067L1531.25,271.92L1531.28,271.773L1531.32,271.626L1531.36,271.48L1531.41,271.335L1531.45,271.19L1531.5,271.046L1531.55,270.903L1531.61,270.76L1531.66,270.618L1531.72,270.477L1531.78,270.336L1531.85,270.197L1531.91,270.058L1531.98,269.92L1532.05,269.783L1532.12,269.648L1532.2,269.513L1532.28,269.379L1532.36,269.246L1532.44,269.115L1532.53,268.984L1532.62,268.855L1532.71,268.727L1532.8,268.6L1532.9,268.475L1533,268.35L1533.1,268.227L1533.2,268.106L1533.31,267.986L1533.41,267.867L1533.53,267.75L1533.64,267.635L1533.76,267.519L1533.88,267.406L1534,267.295L1534.12,267.187L1534.24,267.082L1534.37,266.979L1534.5,266.879L1534.62,266.782L1534.75,266.687L1534.88,266.595L1535.02,266.505L1535.15,266.418L1535.28,266.333L1535.42,266.251L1535.56,266.172L1535.69,266.095L1535.83,266.021L1535.97,265.95L1536.11,265.881L1536.25,265.814L1536.4,265.751L1536.54,265.689L1536.68,265.631L1536.83,265.575L1536.98,265.522L1537.12,265.471L1537.27,265.423L1537.42,265.377L1537.56,265.334L1537.71,265.294L1537.86,265.256L1538.01,265.221L1538.16,265.188L1538.31,265.158L1538.47,265.131L1538.62,265.106L1538.77,265.084L1538.92,265.064L1539.07,265.047L1539.23,265.033L1539.38,265.021L1539.53,265.012L1539.69,265.005L1539.84,265.001L1539.99,265L1540.14,265.001ZM1539.86,266.001L1539.72,266.005L1539.58,266.011L1539.45,266.019L1539.31,266.029L1539.18,266.042L1539.04,266.057L1538.9,266.075L1538.77,266.094L1538.63,266.116L1538.5,266.141L1538.37,266.167L1538.23,266.196L1538.1,266.228L1537.97,266.261L1537.83,266.297L1537.7,266.335L1537.57,266.376L1537.44,266.419L1537.31,266.464L1537.18,266.511L1537.05,266.561L1536.92,266.613L1536.8,266.667L1536.67,266.724L1536.55,266.783L1536.42,266.844L1536.3,266.907L1536.17,266.973L1536.05,267.041L1535.93,267.112L1535.81,267.184L1535.69,267.26L1535.57,267.337L1535.45,267.416L1535.34,267.498L1535.22,267.583L1535.11,267.669L1535,267.758L1534.88,267.85L1534.78,267.944L1534.67,268.039L1534.56,268.138L1534.45,268.239L1534.35,268.341L1534.25,268.445L1534.15,268.549L1534.05,268.655L1533.96,268.761L1533.86,268.869L1533.77,268.979L1533.69,269.089L1533.6,269.2L1533.52,269.313L1533.44,269.427L1533.36,269.542L1533.28,269.658L1533.21,269.775L1533.14,269.893L1533.07,270.011L1533,270.131L1532.93,270.252L1532.87,270.373L1532.81,270.496L1532.75,270.618L1532.69,270.743L1532.64,270.868L1532.59,270.992L1532.54,271.119L1532.49,271.246L1532.45,271.373L1532.4,271.501L1532.36,271.63L1532.32,271.759L1532.29,271.888L1532.25,272.019L1532.22,272.15L1532.19,272.28L1532.16,272.412L1532.14,272.543L1532.12,272.676L1532.09,272.809L1532.08,272.941L1532.06,273.074L1532.05,273.207L1532.03,273.341L1532.02,273.475L1532.02,273.608L1532.01,273.742L1532.01,273.876L1532.01,274.01L1532.01,274.143L1532.01,274.277L1532.02,274.411L1532.03,274.545L1532.04,274.679L1532.05,274.812L1532.06,274.945L1532.08,275.077L1532.1,275.21L1532.12,275.343L1532.14,275.475L1532.17,275.607L1532.2,275.738L1532.23,275.869L1532.26,276L1532.29,276.13L1532.33,276.26L1532.57,277.046L1532,277.503L1531.96,277.533L1531.92,277.564L1531.89,277.596L1531.85,277.628L1531.82,277.66L1531.78,277.693L1531.74,277.729L1521.94,287.532L1521.88,287.596L1521.82,287.657L1521.77,287.718L1521.72,287.781L1521.67,287.845L1521.62,287.909L1521.57,287.974L1521.53,288.04L1521.48,288.107L1521.44,288.175L1521.4,288.243L1521.37,288.313L1521.33,288.382L1521.3,288.453L1521.27,288.524L1521.24,288.596L1521.21,288.669L1521.18,288.741L1521.15,288.815L1521.13,288.889L1521.11,288.964L1521.09,289.039L1521.07,289.114L1521.06,289.189L1521.05,289.265L1521.03,289.342L1521.02,289.419L1521.02,289.495L1521.01,289.572L1521,289.648L1521,289.725L1521,289.803L1521,289.88L1521,289.957L1521.01,290.034L1521.02,290.11L1521.02,290.187L1521.03,290.263L1521.05,290.34L1521.06,290.416L1521.07,290.491L1521.09,290.566L1521.11,290.641L1521.13,290.716L1521.15,290.79L1521.18,290.864L1521.21,290.936L1521.24,291.009L1521.27,291.081L1521.3,291.152L1521.33,291.223L1521.37,291.293L1521.4,291.362L1521.44,291.43L1521.48,291.498L1521.53,291.565L1521.57,291.631L1521.62,291.696L1521.67,291.761L1521.72,291.824L1521.77,291.887L1521.82,291.948L1521.88,292.009L1521.94,292.068L1522,292.127L1522.06,292.183L1522.12,292.237L1522.18,292.289L1522.25,292.34L1522.31,292.388L1522.38,292.435L1522.44,292.48L1522.51,292.523L1522.58,292.564L1522.64,292.603L1522.71,292.641L1522.78,292.676L1522.85,292.71L1522.93,292.742L1523,292.772L1523.07,292.801L1523.14,292.827L1523.22,292.852L1523.29,292.875L1523.37,292.896L1523.44,292.915L1523.52,292.933L1523.59,292.948L1523.67,292.962L1523.74,292.974L1523.82,292.984L1523.9,292.992L1523.97,292.999L1524.05,293.003L1524.13,293.006L1524.2,293.007L1524.28,293.006L1524.36,293.003L1524.43,292.999L1524.51,292.992L1524.59,292.984L1524.66,292.974L1524.74,292.962L1524.82,292.948L1524.89,292.933L1524.97,292.915L1525.04,292.896L1525.12,292.875L1525.19,292.852L1525.26,292.827L1525.34,292.801L1525.41,292.772L1525.48,292.742L1525.55,292.71L1525.62,292.676L1525.69,292.641L1525.76,292.603L1525.83,292.564L1525.9,292.523L1525.96,292.479L1526.03,292.435L1526.1,292.388L1526.16,292.34L1526.22,292.289L1526.29,292.237L1526.35,292.183L1526.41,292.127L1526.47,292.064L1536.27,282.261L1536.31,282.224L1536.34,282.189L1536.38,282.154L1536.41,282.119L1536.44,282.083L1536.47,282.046L1536.5,282.009L1536.96,281.435L1537.74,281.673L1537.87,281.71L1538,281.745L1538.13,281.777L1538.26,281.807L1538.4,281.835L1538.53,281.861L1538.66,281.885L1538.79,281.906L1538.92,281.925L1539.06,281.942L1539.19,281.957L1539.32,281.969L1539.46,281.979L1539.59,281.987L1539.73,281.993L1539.86,281.997L1539.99,281.998L1540.13,281.997L1540.26,281.994L1540.39,281.989L1540.53,281.981L1540.66,281.971L1540.8,281.959L1540.93,281.945L1541.06,281.929L1541.19,281.91L1541.33,281.889L1541.46,281.866L1541.59,281.841L1541.72,281.813L1541.85,281.783L1541.98,281.751L1542.11,281.717L1542.24,281.681L1542.37,281.642L1542.5,281.601L1542.63,281.558L1542.76,281.513L1542.88,281.465L1543.01,281.415L1543.13,281.363L1543.26,281.309L1543.38,281.253L1543.51,281.194L1543.63,281.133L1543.75,281.07L1543.87,281.005L1543.99,280.938L1544.11,280.868L1544.23,280.796L1544.34,280.722L1544.46,280.645L1544.57,280.567L1544.69,280.486L1544.8,280.403L1544.91,280.317L1545.02,280.23L1545.13,280.14L1545.24,280.048L1545.35,279.953L1545.45,279.857L1545.56,279.758L1545.66,279.656L1545.76,279.551L1545.86,279.445L1545.96,279.338L1546.06,279.229L1546.15,279.118L1546.24,279.007L1546.33,278.895L1546.42,278.781L1546.5,278.665L1546.58,278.55L1546.66,278.432L1546.74,278.314L1546.82,278.195L1546.89,278.074L1546.96,277.953L1547.03,277.831L1547.09,277.708L1547.16,277.584L1547.22,277.459L1547.28,277.333L1547.33,277.207L1547.39,277.079L1547.44,276.951L1547.49,276.822L1547.54,276.693L1547.58,276.563L1547.62,276.432L1547.66,276.3L1547.7,276.169L1547.74,276.036L1547.77,275.903L1547.8,275.77L1547.83,275.636L1547.86,275.502L1547.88,275.367L1547.9,275.233L1547.92,275.098L1547.94,274.962L1547.96,274.826L1547.97,274.69L1547.98,274.554L1547.99,274.418L1548,274.282L1548,274.145L1548,274.009L1548,273.873L1548,273.736L1547.99,273.6L1547.98,273.464L1547.97,273.327L1547.96,273.192L1547.95,273.133L1544.02,277.069L1538.8,275.204L1536.93,269.983L1540.87,266.047L1540.81,266.041L1540.67,266.028L1540.54,266.018L1540.4,266.01L1540.27,266.004L1540.13,266.001L1539.99,266L1539.86,266.001Z" style="fill:rgb(96,199,146);"/>
        </g>
    </g>
</svg>
