<?xml version="1.0" standalone="no"?>
<!DOCTYPE svg PUBLIC "-//W3C//DTD SVG 1.1//EN" "http://www.w3.org/Graphics/SVG/1.1/DTD/svg11.dtd">
<svg width="100%" height="100%" viewBox="0 0 15 11" version="1.1" xmlns="http://www.w3.org/2000/svg" xmlns:xlink="http://www.w3.org/1999/xlink" xml:space="preserve" style="fill-rule:evenodd;clip-rule:evenodd;stroke-linejoin:round;stroke-miterlimit:1.41421;">
    <g transform="matrix(1,0,0,1,-195,-545)">
        <path id="Forma 1 copy 19" d="M202.551,553.704C203.213,553.705 203.75,554.215 203.75,554.84L203.75,554.863C203.75,555.489 203.212,555.999 202.551,555.999L196.199,555.999C195.538,555.999 195,555.489 195,554.863L195,554.84C195,554.215 195.537,553.705 196.199,553.704L202.551,553.704ZM207.801,549.354C208.463,549.355 209,549.865 209,550.491L209,550.514C209,551.139 208.463,551.649 207.801,551.65L196.199,551.65C195.538,551.65 195,551.14 195,550.514L195,550.491C195,549.865 195.537,549.355 196.199,549.354L207.801,549.354ZM204.336,545C204.997,545.001 205.535,545.511 205.535,546.136L205.535,546.16C205.535,546.785 204.997,547.295 204.336,547.296L196.204,547.296C195.538,547.296 195,546.785 195.005,546.16L195.005,546.136C195.005,545.511 195.542,545.001 196.204,545L204.336,545Z" style="fill:rgb(211,212,213);"/>
    </g>
</svg>
