<?xml version="1.0" standalone="no"?>
<!DOCTYPE svg PUBLIC "-//W3C//DTD SVG 1.1//EN" "http://www.w3.org/Graphics/SVG/1.1/DTD/svg11.dtd">
<svg width="100%" height="100%" viewBox="0 0 30 29" version="1.1" xmlns="http://www.w3.org/2000/svg" xmlns:xlink="http://www.w3.org/1999/xlink" xml:space="preserve" style="fill-rule:evenodd;clip-rule:evenodd;stroke-linejoin:round;stroke-miterlimit:1.41421;">
    <g transform="matrix(1,0,0,1,-1233,-373.992)">
        <g id="Forma 1 copy 28">
            <path d="M1262.39,377.347L1254.03,377.347C1253.73,375.45 1252.09,373.992 1250.11,373.992L1245.89,373.992C1243.91,373.992 1242.27,375.45 1241.97,377.347L1233.61,377.347C1233.27,377.347 1233,377.622 1233,377.959L1233,401.395C1233,401.734 1233.27,402.007 1233.61,402.007L1262.39,402.007C1262.73,402.007 1263,401.734 1263,401.395L1263,389.677L1263,377.959C1263,377.621 1262.73,377.347 1262.39,377.347Z" style="fill:rgb(95,199,147);fill-rule:nonzero;"/>
            <path d="M1250.2,373.993L1250.29,373.997L1250.38,374.002L1250.47,374.009L1250.56,374.019L1250.65,374.03L1250.74,374.043L1250.83,374.059L1250.92,374.076L1251.01,374.095L1251.09,374.116L1251.18,374.139L1251.26,374.164L1251.35,374.191L1251.43,374.219L1251.51,374.25L1251.59,374.282L1251.67,374.316L1251.76,374.351L1251.83,374.388L1251.91,374.427L1251.99,374.468L1252.06,374.51L1252.14,374.554L1252.21,374.599L1252.29,374.646L1252.36,374.694L1252.43,374.744L1252.5,374.796L1252.57,374.848L1252.63,374.903L1252.7,374.958L1252.76,375.016L1252.83,375.074L1252.89,375.134L1252.95,375.195L1253.01,375.257L1253.07,375.321L1253.12,375.386L1253.18,375.452L1253.23,375.52L1253.29,375.588L1253.34,375.658L1253.38,375.729L1253.43,375.801L1253.48,375.874L1253.53,375.948L1253.57,376.023L1253.61,376.099L1253.65,376.176L1253.69,376.254L1253.73,376.333L1253.76,376.413L1253.79,376.494L1253.83,376.576L1253.86,376.659L1253.88,376.742L1253.91,376.826L1253.93,376.911L1253.96,376.997L1253.98,377.084L1254,377.171L1254.01,377.259L1254.03,377.347L1262.39,377.347L1262.42,377.348L1262.45,377.351L1262.48,377.354L1262.51,377.36L1262.54,377.367L1262.57,377.375L1262.6,377.385L1262.63,377.395L1262.65,377.408L1262.68,377.421L1262.7,377.436L1262.73,377.452L1262.75,377.469L1262.78,377.487L1262.8,377.506L1262.82,377.527L1262.84,377.548L1262.86,377.57L1262.88,377.593L1262.89,377.617L1262.91,377.642L1262.93,377.668L1262.94,377.694L1262.95,377.721L1262.96,377.749L1262.97,377.777L1262.98,377.806L1262.99,377.836L1262.99,377.866L1263,377.897L1263,377.928L1263,377.959L1263,401.395L1263,401.427L1263,401.458L1262.99,401.489L1262.99,401.519L1262.98,401.548L1262.97,401.577L1262.96,401.606L1262.95,401.634L1262.94,401.661L1262.93,401.687L1262.91,401.713L1262.89,401.738L1262.88,401.762L1262.86,401.785L1262.84,401.807L1262.82,401.828L1262.8,401.848L1262.78,401.868L1262.75,401.886L1262.73,401.903L1262.7,401.919L1262.68,401.933L1262.65,401.947L1262.63,401.959L1262.6,401.97L1262.57,401.98L1262.54,401.988L1262.51,401.995L1262.48,402L1262.45,402.004L1262.42,402.006L1262.39,402.007L1233.61,402.007L1233.58,402.006L1233.55,402.004L1233.52,402L1233.49,401.995L1233.46,401.988L1233.43,401.98L1233.4,401.97L1233.37,401.959L1233.35,401.947L1233.32,401.933L1233.3,401.919L1233.27,401.903L1233.25,401.886L1233.22,401.868L1233.2,401.848L1233.18,401.828L1233.16,401.807L1233.14,401.785L1233.12,401.762L1233.11,401.738L1233.09,401.713L1233.07,401.687L1233.06,401.661L1233.05,401.634L1233.04,401.606L1233.03,401.577L1233.02,401.548L1233.01,401.519L1233.01,401.489L1233,401.458L1233,401.427L1233,401.395L1233,377.959L1233,377.928L1233,377.897L1233.01,377.866L1233.01,377.836L1233.02,377.807L1233.03,377.777L1233.04,377.749L1233.05,377.721L1233.06,377.694L1233.07,377.668L1233.09,377.642L1233.11,377.617L1233.12,377.593L1233.14,377.57L1233.16,377.548L1233.18,377.527L1233.2,377.506L1233.22,377.487L1233.25,377.469L1233.27,377.452L1233.3,377.436L1233.32,377.421L1233.35,377.408L1233.37,377.396L1233.4,377.385L1233.43,377.375L1233.46,377.367L1233.49,377.36L1233.52,377.354L1233.55,377.351L1233.58,377.348L1233.61,377.347L1241.97,377.347L1241.99,377.259L1242.01,377.171L1242.02,377.084L1242.05,376.997L1242.07,376.911L1242.09,376.826L1242.12,376.742L1242.15,376.659L1242.18,376.576L1242.21,376.494L1242.24,376.413L1242.28,376.333L1242.31,376.254L1242.35,376.176L1242.39,376.099L1242.43,376.023L1242.48,375.948L1242.52,375.874L1242.57,375.801L1242.62,375.729L1242.66,375.658L1242.72,375.588L1242.77,375.52L1242.82,375.452L1242.88,375.386L1242.93,375.321L1242.99,375.257L1243.05,375.195L1243.11,375.134L1243.17,375.074L1243.24,375.016L1243.3,374.958L1243.37,374.903L1243.43,374.848L1243.5,374.796L1243.57,374.744L1243.64,374.694L1243.71,374.646L1243.79,374.599L1243.86,374.554L1243.94,374.51L1244.01,374.468L1244.09,374.427L1244.17,374.388L1244.25,374.351L1244.33,374.316L1244.41,374.282L1244.49,374.25L1244.57,374.219L1244.65,374.191L1244.74,374.164L1244.82,374.139L1244.91,374.116L1245,374.095L1245.08,374.076L1245.17,374.059L1245.26,374.043L1245.35,374.03L1245.44,374.019L1245.53,374.009L1245.62,374.002L1245.71,373.997L1245.8,373.993L1245.89,373.992L1250.11,373.992L1250.2,373.993ZM1245.91,376.992L1245.87,376.993L1245.85,376.994L1245.83,376.995L1245.8,376.997L1245.78,376.999L1245.76,377.002L1245.74,377.005L1245.72,377.009L1245.69,377.013L1245.67,377.018L1245.65,377.022L1245.63,377.028L1245.61,377.034L1245.59,377.04L1245.57,377.047L1245.55,377.054L1245.54,377.062L1245.52,377.07L1245.5,377.078L1245.48,377.087L1245.46,377.097L1245.44,377.106L1245.42,377.117L1245.4,377.127L1245.39,377.138L1245.37,377.15L1245.35,377.162L1245.33,377.175L1245.32,377.187L1245.3,377.2L1245.28,377.214L1245.27,377.227L1245.25,377.242L1245.23,377.256L1245.22,377.272L1245.2,377.287L1245.19,377.302L1245.17,377.318L1245.16,377.335L1245.14,377.351L1245.13,377.368L1245.12,377.385L1245.11,377.403L1245.09,377.42L1245.08,377.438L1245.07,377.456L1245.06,377.474L1245.05,377.493L1245.04,377.512L1245.03,377.529L1245.02,377.549L1245.01,377.569L1245,377.586L1244.99,377.606L1244.99,377.627L1244.98,377.647L1244.97,377.666L1244.97,377.686L1244.96,377.707L1244.95,377.727L1244.95,377.748L1244.94,377.769L1244.94,377.789L1244.51,380.347L1236,380.347L1236,399.007L1260,399.007L1260,380.347L1251.49,380.347L1251.06,377.789L1251.06,377.767L1251.05,377.747L1251.05,377.727L1251.04,377.707L1251.04,377.686L1251.03,377.666L1251.02,377.645L1251.02,377.626L1251.01,377.606L1251,377.586L1250.99,377.568L1250.98,377.549L1250.97,377.531L1250.96,377.512L1250.95,377.492L1250.94,377.473L1250.93,377.457L1250.92,377.438L1250.91,377.419L1250.9,377.403L1250.88,377.386L1250.87,377.368L1250.86,377.35L1250.84,377.335L1250.83,377.319L1250.81,377.302L1250.8,377.287L1250.78,377.272L1250.77,377.256L1250.75,377.242L1250.74,377.227L1250.72,377.214L1250.7,377.2L1250.69,377.188L1250.67,377.175L1250.65,377.162L1250.63,377.15L1250.62,377.139L1250.6,377.128L1250.58,377.117L1250.56,377.107L1250.54,377.097L1250.52,377.087L1250.5,377.078L1250.49,377.07L1250.47,377.062L1250.45,377.054L1250.43,377.047L1250.41,377.04L1250.39,377.034L1250.37,377.028L1250.35,377.023L1250.33,377.018L1250.31,377.013L1250.28,377.009L1250.26,377.005L1250.24,377.002L1250.22,376.999L1250.2,376.997L1250.17,376.995L1250.15,376.994L1250.13,376.993L1250.09,376.992L1245.91,376.992Z" style="fill:rgb(95,199,147);"/>
        </g>
        <g id="Forma 1 copy 281" transform="matrix(1,0,0,1,0,-6)">
            <path d="M1250.2,379.993L1250.29,379.997L1250.38,380.002L1250.47,380.009L1250.56,380.019L1250.65,380.03L1250.74,380.043L1250.83,380.059L1250.92,380.076L1251.01,380.095L1251.09,380.116L1251.18,380.139L1251.26,380.164L1251.35,380.191L1251.43,380.22L1251.51,380.25L1251.59,380.282L1251.67,380.316L1251.76,380.351L1251.83,380.388L1251.91,380.427L1251.99,380.468L1252.06,380.51L1252.14,380.554L1252.21,380.599L1252.29,380.646L1252.36,380.694L1252.43,380.744L1252.5,380.796L1252.57,380.848L1252.63,380.903L1252.7,380.958L1252.76,381.016L1252.83,381.074L1252.89,381.134L1252.95,381.195L1253.01,381.257L1253.07,381.321L1253.12,381.386L1253.18,381.452L1253.23,381.519L1253.29,381.588L1253.34,381.658L1253.38,381.729L1253.43,381.801L1253.48,381.874L1253.53,381.948L1253.57,382.023L1253.61,382.099L1253.65,382.176L1253.69,382.254L1253.73,382.333L1253.76,382.413L1253.79,382.494L1253.83,382.576L1253.86,382.659L1253.88,382.742L1253.91,382.826L1253.93,382.911L1253.96,382.997L1253.98,383.084L1254,383.171L1254.01,383.259L1254.03,383.348L1262.39,383.348L1262.42,383.348L1262.45,383.351L1262.48,383.355L1262.51,383.36L1262.54,383.367L1262.57,383.375L1262.6,383.385L1262.63,383.396L1262.65,383.408L1262.68,383.421L1262.7,383.436L1262.73,383.452L1262.75,383.469L1262.78,383.487L1262.8,383.506L1262.82,383.527L1262.84,383.548L1262.86,383.57L1262.88,383.593L1262.89,383.617L1262.91,383.642L1262.93,383.668L1262.94,383.694L1262.95,383.721L1262.96,383.749L1262.97,383.777L1262.98,383.806L1262.99,383.836L1262.99,383.866L1263,383.897L1263,383.928L1263,383.959L1263,407.395L1263,407.427L1263,407.458L1262.99,407.489L1262.99,407.519L1262.98,407.548L1262.97,407.577L1262.96,407.606L1262.95,407.634L1262.94,407.661L1262.93,407.687L1262.91,407.713L1262.89,407.738L1262.88,407.762L1262.86,407.785L1262.84,407.807L1262.82,407.828L1262.8,407.848L1262.78,407.868L1262.75,407.886L1262.73,407.903L1262.7,407.919L1262.68,407.934L1262.65,407.947L1262.63,407.959L1262.6,407.97L1262.57,407.98L1262.54,407.988L1262.51,407.995L1262.48,408L1262.45,408.004L1262.42,408.007L1262.39,408.007L1233.61,408.007L1233.58,408.007L1233.55,408.004L1233.52,408L1233.49,407.995L1233.46,407.988L1233.43,407.98L1233.4,407.97L1233.37,407.959L1233.35,407.947L1233.32,407.934L1233.3,407.919L1233.27,407.903L1233.25,407.886L1233.22,407.868L1233.2,407.848L1233.18,407.828L1233.16,407.807L1233.14,407.785L1233.12,407.762L1233.11,407.738L1233.09,407.713L1233.07,407.687L1233.06,407.661L1233.05,407.634L1233.04,407.606L1233.03,407.577L1233.02,407.548L1233.01,407.519L1233.01,407.489L1233,407.458L1233,407.427L1233,407.395L1233,383.959L1233,383.928L1233,383.897L1233.01,383.866L1233.01,383.836L1233.02,383.807L1233.03,383.777L1233.04,383.749L1233.05,383.721L1233.06,383.694L1233.07,383.668L1233.09,383.642L1233.11,383.617L1233.12,383.593L1233.14,383.57L1233.16,383.548L1233.18,383.527L1233.2,383.506L1233.22,383.487L1233.25,383.469L1233.27,383.452L1233.3,383.436L1233.32,383.421L1233.35,383.408L1233.37,383.396L1233.4,383.385L1233.43,383.375L1233.46,383.367L1233.49,383.36L1233.52,383.355L1233.55,383.351L1233.58,383.348L1233.61,383.348L1241.97,383.348L1241.99,383.259L1242.01,383.171L1242.02,383.084L1242.05,382.997L1242.07,382.911L1242.09,382.826L1242.12,382.742L1242.15,382.659L1242.18,382.576L1242.21,382.494L1242.24,382.413L1242.28,382.333L1242.31,382.254L1242.35,382.176L1242.39,382.099L1242.43,382.023L1242.48,381.948L1242.52,381.874L1242.57,381.801L1242.62,381.729L1242.66,381.658L1242.72,381.588L1242.77,381.519L1242.82,381.452L1242.88,381.386L1242.93,381.321L1242.99,381.257L1243.05,381.195L1243.11,381.134L1243.17,381.074L1243.24,381.016L1243.3,380.958L1243.37,380.903L1243.43,380.848L1243.5,380.796L1243.57,380.744L1243.64,380.694L1243.71,380.646L1243.79,380.599L1243.86,380.554L1243.94,380.51L1244.01,380.468L1244.09,380.427L1244.17,380.388L1244.25,380.351L1244.33,380.316L1244.41,380.282L1244.49,380.25L1244.57,380.22L1244.65,380.191L1244.74,380.164L1244.82,380.139L1244.91,380.116L1245,380.095L1245.08,380.076L1245.17,380.059L1245.26,380.043L1245.35,380.03L1245.44,380.019L1245.53,380.009L1245.62,380.002L1245.71,379.997L1245.8,379.993L1245.89,379.992L1250.11,379.992L1250.2,379.993ZM1234.23,396.289L1234.23,406.782L1261.77,406.782L1261.77,396.289L1250.04,396.289L1250.04,397.831L1250.04,397.863L1250.04,397.894L1250.04,397.925L1250.03,397.955L1250.02,397.984L1250.02,398.013L1250.01,398.042L1250,398.07L1249.98,398.097L1249.97,398.123L1249.95,398.149L1249.94,398.174L1249.92,398.198L1249.9,398.221L1249.88,398.243L1249.86,398.264L1249.84,398.284L1249.82,398.304L1249.8,398.322L1249.77,398.339L1249.75,398.355L1249.72,398.369L1249.7,398.383L1249.67,398.395L1249.64,398.406L1249.61,398.416L1249.58,398.424L1249.55,398.431L1249.52,398.436L1249.49,398.44L1249.46,398.442L1249.43,398.443L1246.57,398.443L1246.54,398.442L1246.51,398.44L1246.48,398.436L1246.45,398.431L1246.42,398.424L1246.39,398.416L1246.36,398.406L1246.33,398.395L1246.3,398.383L1246.28,398.369L1246.25,398.355L1246.23,398.339L1246.2,398.322L1246.18,398.304L1246.16,398.284L1246.14,398.264L1246.12,398.243L1246.1,398.221L1246.08,398.198L1246.06,398.174L1246.05,398.149L1246.03,398.123L1246.02,398.097L1246.01,398.07L1245.99,398.042L1245.98,398.013L1245.98,397.984L1245.97,397.955L1245.96,397.925L1245.96,397.894L1245.96,397.863L1245.96,397.831L1245.96,396.289L1234.23,396.289ZM1247.18,395.076L1247.18,397.219L1248.82,397.219L1248.82,395.076L1247.18,395.076ZM1234.23,384.571L1234.23,395.065L1245.96,395.065L1245.96,394.464L1245.96,394.433L1245.96,394.401L1245.96,394.371L1245.97,394.341L1245.98,394.311L1245.98,394.282L1245.99,394.253L1246.01,394.226L1246.02,394.199L1246.03,394.172L1246.05,394.146L1246.06,394.122L1246.08,394.098L1246.1,394.075L1246.12,394.052L1246.14,394.031L1246.16,394.011L1246.18,393.992L1246.2,393.973L1246.23,393.956L1246.25,393.94L1246.28,393.926L1246.3,393.912L1246.33,393.9L1246.36,393.889L1246.39,393.879L1246.42,393.871L1246.45,393.864L1246.48,393.859L1246.51,393.855L1246.54,393.853L1246.57,393.852L1249.43,393.852L1249.46,393.853L1249.49,393.855L1249.52,393.859L1249.55,393.864L1249.58,393.871L1249.61,393.879L1249.64,393.889L1249.67,393.9L1249.7,393.912L1249.72,393.926L1249.75,393.94L1249.77,393.956L1249.8,393.973L1249.82,393.992L1249.84,394.011L1249.86,394.031L1249.88,394.052L1249.9,394.075L1249.92,394.098L1249.94,394.122L1249.95,394.146L1249.97,394.172L1249.98,394.199L1250,394.226L1250.01,394.253L1250.02,394.282L1250.02,394.311L1250.03,394.341L1250.04,394.371L1250.04,394.401L1250.04,394.433L1250.04,394.464L1250.04,395.065L1261.77,395.065L1261.77,384.571L1234.23,384.571ZM1245.89,381.216L1245.83,381.217L1245.77,381.219L1245.71,381.222L1245.65,381.227L1245.59,381.233L1245.53,381.24L1245.48,381.248L1245.42,381.258L1245.36,381.269L1245.3,381.281L1245.24,381.294L1245.19,381.309L1245.13,381.324L1245.08,381.341L1245.02,381.359L1244.96,381.378L1244.91,381.398L1244.86,381.419L1244.8,381.442L1244.75,381.465L1244.7,381.49L1244.65,381.515L1244.6,381.542L1244.55,381.569L1244.5,381.598L1244.45,381.627L1244.4,381.658L1244.35,381.689L1244.31,381.722L1244.26,381.755L1244.21,381.79L1244.17,381.825L1244.13,381.861L1244.08,381.898L1244.04,381.936L1244,381.974L1243.96,382.014L1243.92,382.054L1243.88,382.095L1243.84,382.137L1243.81,382.18L1243.77,382.224L1243.73,382.268L1243.7,382.313L1243.66,382.359L1243.63,382.405L1243.6,382.452L1243.57,382.5L1243.54,382.549L1243.51,382.598L1243.48,382.648L1243.45,382.698L1243.43,382.749L1243.4,382.801L1243.38,382.853L1243.36,382.906L1243.34,382.959L1243.32,383.013L1243.3,383.068L1243.28,383.123L1243.26,383.178L1243.24,383.234L1243.23,383.291L1243.22,383.348L1252.78,383.348L1252.77,383.291L1252.76,383.234L1252.74,383.178L1252.72,383.123L1252.7,383.068L1252.68,383.013L1252.66,382.959L1252.64,382.906L1252.62,382.853L1252.6,382.801L1252.57,382.749L1252.55,382.698L1252.52,382.648L1252.49,382.598L1252.46,382.549L1252.43,382.5L1252.4,382.452L1252.37,382.405L1252.34,382.359L1252.3,382.313L1252.27,382.268L1252.23,382.224L1252.19,382.18L1252.16,382.137L1252.12,382.095L1252.08,382.054L1252.04,382.014L1252,381.974L1251.96,381.936L1251.92,381.898L1251.87,381.861L1251.83,381.825L1251.78,381.79L1251.74,381.755L1251.69,381.722L1251.65,381.689L1251.6,381.658L1251.55,381.627L1251.5,381.598L1251.45,381.569L1251.4,381.542L1251.35,381.515L1251.3,381.49L1251.25,381.465L1251.19,381.442L1251.14,381.419L1251.09,381.398L1251.04,381.378L1250.98,381.359L1250.92,381.341L1250.87,381.324L1250.81,381.309L1250.76,381.294L1250.7,381.281L1250.64,381.269L1250.58,381.258L1250.53,381.248L1250.47,381.24L1250.41,381.233L1250.35,381.227L1250.29,381.222L1250.23,381.219L1250.17,381.217L1250.11,381.216L1245.89,381.216Z" style="fill:white;"/>
        </g>
    </g>
</svg>
