<?xml version="1.0" standalone="no"?>
<!DOCTYPE svg PUBLIC "-//W3C//DTD SVG 1.1//EN" "http://www.w3.org/Graphics/SVG/1.1/DTD/svg11.dtd">
<svg width="100%" height="100%" viewBox="0 0 40 44" version="1.1" xmlns="http://www.w3.org/2000/svg" xmlns:xlink="http://www.w3.org/1999/xlink" xml:space="preserve" style="fill-rule:evenodd;clip-rule:evenodd;stroke-linejoin:round;stroke-miterlimit:1.41421;">
    <g transform="matrix(1,0,0,1,-1665.96,-311.453)">
        <g id="Forma 1 copy 31" transform="matrix(1,0,0,1,-0.0395509,0.45336)">
            <path d="M1686,321.435C1686,321.435 1683.05,327.816 1673.14,327.816C1673.14,350.809 1680.33,346.453 1686,354C1691.67,346.453 1698.86,350.809 1698.86,327.816C1688.95,327.816 1686,321.435 1686,321.435ZM1694.69,342.911C1693.49,345.441 1691.91,346.512 1689.91,347.867C1688.68,348.701 1687.33,349.613 1686,350.942C1684.67,349.613 1683.32,348.701 1682.09,347.867C1680.09,346.512 1678.51,345.441 1677.31,342.911C1676,340.136 1675.29,335.814 1675.17,329.734C1680.81,329.251 1684.17,326.803 1686,324.839C1687.83,326.803 1691.19,329.251 1696.83,329.734C1696.71,335.814 1696,340.136 1694.69,342.911ZM1676.58,323.506L1680,325.717C1678.44,326.39 1676.44,326.913 1673.94,327.005C1671.44,326.802 1669.59,323.558 1669.56,323.506L1676.58,323.506ZM1702.44,323.506C1702.41,323.558 1700.57,326.796 1698.07,327.004C1695.56,326.91 1693.57,326.385 1692.01,325.71L1695.42,323.506L1702.44,323.506ZM1680.81,325.34C1681.66,324.903 1682.37,324.43 1682.92,323.984C1683.04,323.888 1683.16,323.792 1683.27,323.696L1677.92,319.494L1677.05,323.087L1680.81,325.34ZM1689.1,323.984C1689.65,324.421 1690.34,324.885 1691.17,325.315L1695.01,322.955L1694.14,319.493L1688.77,323.71C1688.88,323.801 1688.99,323.893 1689.1,323.984ZM1706,319.119C1705.98,319.175 1704.63,322.626 1702,322.628L1695.56,322.628L1694.73,319.119L1706,319.119ZM1666,319.119L1677.27,319.119L1676.44,322.628L1670,322.628C1667.37,322.628 1666.02,319.175 1666,319.119ZM1686.75,311C1687.94,311.011 1690.24,318.176 1690.24,318.176L1693.63,319.027L1690.93,321.084L1687.69,320.616L1686.03,317.271L1684.37,320.615L1681.13,321.084L1678.43,319.027L1681.82,318.176L1682.46,316.242C1682.46,316.242 1682.78,314.871 1680.91,314.869L1678.32,314.869C1678.33,314.82 1678.69,312.544 1680.62,312.544C1682.56,312.544 1682.2,311.002 1683.51,311L1686.75,311ZM1683.41,312.156C1683.64,312.156 1683.83,312.341 1683.83,312.571C1683.83,312.801 1683.64,312.988 1683.41,312.988C1683.18,312.988 1682.99,312.801 1682.99,312.571C1682.99,312.341 1683.18,312.156 1683.41,312.156Z" style="fill:rgb(185,185,185);"/>
        </g>
        <g id="S copy 2" transform="matrix(1.44288,0,0,1.51421,1679.25,345.021)">
            <text x="0px" y="0px" style="font-family:'Montserrat-Bold';font-size:14px;fill:rgb(185,185,185);">S</text>
        </g>
    </g>
</svg>
