<?xml version="1.0" standalone="no"?>
<!DOCTYPE svg PUBLIC "-//W3C//DTD SVG 1.1//EN" "http://www.w3.org/Graphics/SVG/1.1/DTD/svg11.dtd">
<svg width="100%" height="100%" viewBox="0 0 33 24" version="1.1" xmlns="http://www.w3.org/2000/svg" xmlns:xlink="http://www.w3.org/1999/xlink" xml:space="preserve" style="fill-rule:evenodd;clip-rule:evenodd;stroke-linejoin:round;stroke-miterlimit:1.41421;">
    <g transform="matrix(1,0,0,1,-592,-1344)">
        <path id="Shape 1 copy 5" d="M619.363,1358.46C621.208,1360.28 622.105,1362.75 622.105,1366.02C622.105,1366.56 622.53,1367 623.053,1367C623.576,1367 624,1366.57 624,1366.03C624,1362.25 622.881,1359.24 620.673,1357.06C615.569,1352.02 605.942,1352.47 598.209,1352.82C597.129,1352.87 596.096,1352.92 595.13,1352.96L602.201,1345.67C602.571,1345.29 602.571,1344.67 602.201,1344.29C601.831,1343.9 601.231,1343.9 600.862,1344.29L592.278,1353.13C592.1,1353.32 592,1353.57 592,1353.83C592,1354.09 592.1,1354.33 592.278,1354.52L600.863,1363.36C601.048,1363.56 601.29,1363.65 601.533,1363.65C601.775,1363.65 602.018,1363.56 602.203,1363.36C602.573,1362.98 602.573,1362.36 602.203,1361.98L595.434,1355.01C596.341,1354.95 597.296,1354.88 598.292,1354.84C605.276,1354.52 614.843,1354 619.363,1358.46Z" style="fill:rgb(185,185,185);fill-rule:nonzero;"/>
    </g>
</svg>
