<?xml version="1.0" standalone="no"?>
<!DOCTYPE svg PUBLIC "-//W3C//DTD SVG 1.1//EN" "http://www.w3.org/Graphics/SVG/1.1/DTD/svg11.dtd">
<svg width="100%" height="100%" viewBox="0 0 37 33" version="1.1" xmlns="http://www.w3.org/2000/svg" xmlns:xlink="http://www.w3.org/1999/xlink" xml:space="preserve" style="fill-rule:evenodd;clip-rule:evenodd;stroke-linejoin:round;stroke-miterlimit:1.41421;">
    <g transform="matrix(1,0,0,1,-2047.17,-319.996)">
        <g id="Forma 1 copy 77" transform="matrix(1,0,0,1,57.1689,0)">
            <path d="M2014.92,319.996C2015.87,319.999 2016.73,320.189 2017.52,320.564C2017.74,320.67 2017.88,320.845 2017.92,321.087C2017.97,321.345 2017.9,321.564 2017.72,321.746L2016.63,322.86C2016.48,323.012 2016.31,323.087 2016.12,323.087C2016.08,323.087 2016.01,323.072 2015.92,323.042C2015.58,322.951 2015.25,322.905 2014.92,322.905L1996.41,322.905C1995.43,322.905 1994.59,323.261 1993.89,323.974C1993.2,324.686 1992.85,325.542 1992.85,326.542L1992.85,345.456C1992.85,346.456 1993.2,347.312 1993.89,348.025C1994.59,348.737 1995.43,349.093 1996.41,349.093L2014.92,349.093C2015.91,349.087 2016.74,348.731 2017.43,348.025C2018.13,347.312 2018.48,346.456 2018.48,345.456L2018.48,339.682C2018.48,339.485 2018.54,339.318 2018.68,339.182L2020.1,337.727C2020.25,337.575 2020.42,337.5 2020.61,337.5C2020.7,337.5 2020.79,337.522 2020.88,337.568C2021.18,337.689 2021.33,337.909 2021.33,338.227L2021.33,345.457C2021.33,347.26 2020.7,348.802 2019.44,350.082C2018.19,351.364 2016.68,352.004 2014.92,352.004L1996.41,352.004C1994.64,352.004 1993.13,351.364 1991.88,350.082C1990.63,348.802 1990,347.26 1990,345.457L1990,326.543C1990,324.739 1990.63,323.198 1991.88,321.917C1993.13,320.642 1994.63,320.002 1996.41,319.996L2014.92,319.996ZM2026.47,324.52L2024.02,322.019C2023.66,321.655 2023.24,321.473 2022.75,321.473C2022.26,321.473 2021.84,321.655 2021.48,322.019L2007.09,336.727L2001.24,330.748C2000.88,330.384 2000.46,330.203 1999.97,330.203C1999.48,330.203 1999.06,330.384 1998.7,330.748L1996.25,333.249C1995.9,333.613 1995.72,334.045 1995.72,334.545C1995.72,335.045 1995.9,335.477 1996.25,335.841L2005.82,345.615C2006.17,345.979 2006.6,346.161 2007.09,346.161C2007.58,346.161 2008,345.979 2008.36,345.615L2026.46,327.111C2026.82,326.747 2027,326.315 2027,325.815C2027,325.315 2026.82,324.883 2026.47,324.52Z" style="fill:rgb(99,188,143);"/>
        </g>
    </g>
</svg>
