<?xml version="1.0" standalone="no"?>
<!DOCTYPE svg PUBLIC "-//W3C//DTD SVG 1.1//EN" "http://www.w3.org/Graphics/SVG/1.1/DTD/svg11.dtd">
<svg width="100%" height="100%" viewBox="0 0 21 17" version="1.1" xmlns="http://www.w3.org/2000/svg" xmlns:xlink="http://www.w3.org/1999/xlink" xml:space="preserve" style="fill-rule:evenodd;clip-rule:evenodd;stroke-linejoin:round;stroke-miterlimit:1.41421;">
    <g transform="matrix(1,0,0,1,-1902,-267)">
        <path id="Forma 1 copy 35" d="M1923,267.343C1923,267.341 1923,267.338 1923,267.336C1923,267.333 1923,267.33 1923,267.327C1923,267.322 1923,267.316 1923,267.311C1923,267.307 1923,267.302 1923,267.298C1923,267.297 1923,267.297 1923,267.296C1923,267.293 1923,267.291 1923,267.288C1923,267.285 1923,267.282 1923,267.28C1923,267.275 1923,267.271 1922.99,267.267C1922.99,267.261 1922.99,267.255 1922.99,267.249L1922.99,267.235C1922.99,267.23 1922.98,267.224 1922.98,267.219C1922.98,267.216 1922.98,267.213 1922.98,267.211C1922.98,267.208 1922.98,267.206 1922.98,267.203L1922.98,267.203C1922.97,267.199 1922.97,267.194 1922.97,267.189L1922.96,267.167C1922.96,267.165 1922.96,267.163 1922.95,267.161C1922.95,267.154 1922.95,267.148 1922.94,267.141L1922.94,267.133C1922.93,267.128 1922.93,267.123 1922.92,267.117C1922.92,267.114 1922.92,267.111 1922.91,267.107L1922.9,267.097C1922.9,267.092 1922.9,267.088 1922.89,267.083L1922.88,267.075C1922.88,267.074 1922.88,267.073 1922.88,267.072C1922.88,267.071 1922.88,267.071 1922.88,267.07C1922.87,267.067 1922.87,267.065 1922.87,267.063C1922.86,267.06 1922.86,267.058 1922.86,267.056C1922.85,267.052 1922.85,267.049 1922.84,267.045C1922.83,267.042 1922.83,267.04 1922.83,267.038C1922.82,267.035 1922.82,267.033 1922.81,267.03L1922.79,267.024C1922.79,267.022 1922.79,267.02 1922.78,267.019C1922.78,267.017 1922.77,267.016 1922.77,267.014C1922.77,267.013 1922.76,267.013 1922.76,267.012C1922.76,267.011 1922.75,267.01 1922.75,267.01C1922.75,267.008 1922.74,267.007 1922.73,267.006C1922.73,267.005 1922.73,267.004 1922.72,267.004C1922.72,267.003 1922.72,267.003 1922.72,267.003C1922.71,267.003 1922.71,267.002 1922.7,267.002C1922.7,267.001 1922.69,267.001 1922.69,267C1922.69,267 1922.68,267 1922.68,267L1922.66,267C1922.65,267 1922.65,267.001 1922.64,267.001C1922.64,267.002 1922.64,267.002 1922.63,267.002C1922.63,267.002 1922.63,267.003 1922.62,267.003C1922.62,267.004 1922.62,267.005 1922.61,267.006C1922.61,267.007 1922.6,267.007 1922.6,267.009C1922.6,267.009 1922.59,267.009 1922.59,267.009C1922.59,267.01 1922.59,267.012 1922.58,267.013C1922.57,267.015 1922.57,267.016 1922.56,267.018L1922.55,267.022L1902.21,274.868C1902.08,274.917 1902,275.038 1902,275.173C1902,275.308 1902.08,275.429 1902.21,275.478L1908.28,277.802L1910.22,283.774L1910.22,283.781C1910.23,283.795 1910.23,283.807 1910.24,283.82C1910.24,283.822 1910.24,283.825 1910.24,283.827C1910.25,283.839 1910.26,283.85 1910.26,283.86L1910.27,283.867L1910.29,283.89L1910.3,283.908C1910.31,283.91 1910.31,283.912 1910.31,283.914C1910.31,283.915 1910.31,283.917 1910.32,283.919C1910.32,283.924 1910.33,283.93 1910.34,283.935L1910.34,283.941C1910.36,283.948 1910.37,283.955 1910.38,283.961L1910.38,283.965C1910.4,283.971 1910.41,283.976 1910.42,283.98L1910.44,283.985C1910.45,283.99 1910.46,283.993 1910.48,283.995L1910.48,283.996C1910.5,283.999 1910.52,284 1910.53,284L1910.53,284C1910.53,284 1910.53,284 1910.54,284C1910.55,283.999 1910.56,283.998 1910.58,283.997C1910.58,283.996 1910.58,283.996 1910.58,283.996C1910.58,283.996 1910.59,283.994 1910.59,283.994C1910.6,283.992 1910.61,283.99 1910.62,283.987C1910.62,283.986 1910.63,283.985 1910.63,283.984C1910.63,283.984 1910.63,283.984 1910.63,283.984L1910.65,283.977L1910.67,283.967C1910.68,283.965 1910.68,283.963 1910.68,283.962C1910.69,283.959 1910.7,283.955 1910.7,283.951C1910.71,283.949 1910.71,283.947 1910.71,283.944C1910.71,283.944 1910.72,283.944 1910.72,283.944C1910.72,283.943 1910.72,283.942 1910.72,283.942C1910.72,283.938 1910.73,283.934 1910.73,283.93C1910.74,283.927 1910.74,283.925 1910.74,283.923C1910.75,283.92 1910.75,283.917 1910.75,283.914C1910.76,283.912 1910.76,283.91 1910.76,283.907C1910.77,283.898 1910.78,283.887 1910.79,283.876L1910.8,283.867L1913.19,280.639C1913.3,280.494 1913.27,280.289 1913.12,280.182C1912.98,280.075 1912.77,280.105 1912.66,280.25L1911.62,281.653L1912.45,279.401L1920.29,282.365C1920.33,282.379 1920.37,282.386 1920.4,282.386C1920.46,282.386 1920.52,282.371 1920.57,282.341C1920.66,282.292 1920.71,282.206 1920.73,282.108L1923,267.376L1923,267.358C1923,267.353 1923,267.348 1923,267.343ZM1920.44,268.539L1911.07,275.321C1910.92,275.427 1910.89,275.631 1910.99,275.777C1911.06,275.865 1911.16,275.912 1911.26,275.912C1911.33,275.912 1911.39,275.892 1911.45,275.849L1920.4,269.371L1912.03,278.745C1911.99,278.777 1911.97,278.816 1911.95,278.862C1911.95,278.869 1911.94,278.877 1911.94,278.885L1910.55,282.671L1908.85,277.452C1908.82,277.355 1908.75,277.283 1908.66,277.248C1908.66,277.248 1908.66,277.248 1908.66,277.248L1903.24,275.172L1920.44,268.539ZM1920.14,281.61L1912.82,278.841L1922.18,268.369L1920.14,281.61ZM1909.61,277.107C1909.68,277.107 1909.74,277.086 1909.8,277.044L1910.44,276.583C1910.59,276.477 1910.62,276.272 1910.51,276.126C1910.4,275.98 1910.2,275.948 1910.05,276.054L1909.42,276.515C1909.27,276.621 1909.24,276.826 1909.34,276.972C1909.41,277.06 1909.51,277.107 1909.61,277.107Z" style="fill:rgb(95,199,147);"/>
    </g>
</svg>
