<?xml version="1.0" standalone="no"?>
<!DOCTYPE svg PUBLIC "-//W3C//DTD SVG 1.1//EN" "http://www.w3.org/Graphics/SVG/1.1/DTD/svg11.dtd">
<svg width="100%" height="100%" viewBox="0 0 28 29" version="1.1" xmlns="http://www.w3.org/2000/svg" xmlns:xlink="http://www.w3.org/1999/xlink" xml:space="preserve" style="fill-rule:evenodd;clip-rule:evenodd;stroke-linejoin:round;stroke-miterlimit:1.41421;">
    <g transform="matrix(1,0,0,1,-1334,-265)">
        <path id="Forma 1 copy 27" d="M1339.06,294C1338.38,294 1337.83,293.445 1337.83,292.761L1337.83,289.803C1335.59,289.167 1334,287.094 1334,284.708L1334,276.42C1334,273.497 1336.35,271.119 1339.25,271.119L1351.34,271.119C1354.23,271.119 1356.58,273.497 1356.58,276.42L1356.58,284.708C1356.58,287.631 1354.23,290.008 1351.34,290.008L1343.85,290.008L1339.88,293.675C1339.66,293.884 1339.37,294 1339.06,294ZM1339.25,272.251C1336.97,272.251 1335.12,274.12 1335.12,276.418L1335.12,284.706C1335.12,286.708 1336.54,288.427 1338.5,288.796L1338.95,288.882L1338.95,292.76C1338.95,292.861 1339.06,292.865 1339.06,292.865C1339.09,292.865 1339.11,292.856 1339.13,292.838L1343.42,288.874L1351.34,288.874C1353.61,288.874 1355.46,287.005 1355.46,284.707L1355.46,276.418C1355.46,274.121 1353.61,272.251 1351.34,272.251L1339.25,272.251ZM1351.69,284.883L1338.7,284.883C1338.3,284.883 1337.97,284.553 1337.97,284.151C1337.97,283.749 1338.3,283.419 1338.7,283.419L1351.69,283.419C1352.09,283.419 1352.42,283.749 1352.42,284.151C1352.42,284.553 1352.09,284.883 1351.69,284.883ZM1356.75,265C1359.65,265.001 1362,267.378 1362,270.301L1362,278.589C1362,281.259 1360.03,283.451 1357.49,283.814C1357.49,283.708 1357.52,283.606 1357.52,283.498L1357.52,282.678C1359.43,282.314 1360.88,280.622 1360.88,278.589L1360.88,270.3C1360.88,268.002 1359.03,266.133 1356.75,266.133L1344.66,266.133C1342.52,266.133 1340.78,267.797 1340.58,269.909L1340.18,269.909C1339.93,269.909 1339.69,269.95 1339.45,269.984C1339.62,267.211 1341.88,265.001 1344.66,265L1356.75,265ZM1351.69,281.612L1338.7,281.612C1338.3,281.612 1337.97,281.283 1337.97,280.88C1337.97,280.478 1338.3,280.148 1338.7,280.148L1351.69,280.148C1352.09,280.148 1352.42,280.478 1352.42,280.88C1352.42,281.283 1352.09,281.612 1351.69,281.612ZM1351.69,278.022L1338.7,278.022C1338.3,278.022 1337.97,277.692 1337.97,277.29C1337.97,276.888 1338.3,276.558 1338.7,276.558L1351.69,276.558C1352.09,276.558 1352.42,276.888 1352.42,277.29C1352.42,277.693 1352.09,278.021 1351.69,278.022Z" style="fill:rgb(96,199,146);"/>
    </g>
</svg>
