<?xml version="1.0" standalone="no"?>
<!DOCTYPE svg PUBLIC "-//W3C//DTD SVG 1.1//EN" "http://www.w3.org/Graphics/SVG/1.1/DTD/svg11.dtd">
<svg width="100%" height="100%" viewBox="0 0 21 17" version="1.1" xmlns="http://www.w3.org/2000/svg" xmlns:xlink="http://www.w3.org/1999/xlink" xml:space="preserve" style="fill-rule:evenodd;clip-rule:evenodd;stroke-linejoin:round;stroke-miterlimit:1.41421;">
    <g transform="matrix(1,0,0,1,-912,-2417)">
        <path id="Forma 1" d="M932.688,2417C932.693,2417 932.698,2417 932.703,2417C932.709,2417 932.714,2417 932.72,2417C932.721,2417 932.722,2417 932.723,2417C932.726,2417 932.73,2417.01 932.733,2417.01C932.739,2417.01 932.745,2417.01 932.751,2417.01L932.768,2417.01C932.773,2417.02 932.777,2417.02 932.782,2417.02L932.801,2417.03L932.811,2417.03C932.816,2417.03 932.821,2417.03 932.825,2417.04C932.83,2417.04 932.834,2417.04 932.839,2417.05C932.845,2417.05 932.85,2417.05 932.856,2417.06C932.859,2417.06 932.862,2417.06 932.865,2417.06L932.878,2417.07C932.879,2417.07 932.88,2417.07 932.881,2417.08L932.891,2417.08C932.896,2417.09 932.9,2417.09 932.905,2417.1L932.915,2417.11C932.918,2417.11 932.921,2417.11 932.923,2417.12C932.928,2417.12 932.932,2417.13 932.937,2417.13L932.955,2417.16L932.962,2417.18C932.965,2417.18 932.967,2417.18 932.97,2417.19L932.978,2417.21C932.979,2417.21 932.981,2417.22 932.981,2417.22C932.983,2417.22 932.985,2417.23 932.987,2417.24C932.988,2417.24 932.989,2417.24 932.99,2417.25L932.994,2417.27C932.995,2417.27 932.996,2417.28 932.996,2417.28C932.997,2417.28 932.997,2417.28 932.998,2417.29L933,2417.31C933,2417.32 933,2417.32 933,2417.33C933,2417.33 933,2417.33 933,2417.34C933,2417.34 933,2417.34 933,2417.34C932.999,2417.35 932.999,2417.35 932.998,2417.36L932.996,2417.38L930.729,2432.11C930.714,2432.21 930.656,2432.29 930.57,2432.34C930.519,2432.37 930.462,2432.39 930.405,2432.39C930.366,2432.39 930.326,2432.38 930.288,2432.36L922.452,2429.4L921.624,2431.65L922.665,2430.25C922.773,2430.11 922.979,2430.08 923.124,2430.18C923.27,2430.29 923.301,2430.49 923.193,2430.64L920.795,2433.87C920.795,2433.87 920.794,2433.87 920.793,2433.87L920.788,2433.88C920.779,2433.89 920.77,2433.9 920.76,2433.91C920.757,2433.91 920.755,2433.91 920.753,2433.91C920.749,2433.92 920.746,2433.92 920.743,2433.92L920.718,2433.94L920.703,2433.95C920.697,2433.95 920.69,2433.96 920.684,2433.96C920.681,2433.96 920.678,2433.97 920.675,2433.97L920.671,2433.97C920.664,2433.97 920.658,2433.97 920.652,2433.98C920.647,2433.98 920.642,2433.98 920.637,2433.98L920.631,2433.98C920.628,2433.99 920.624,2433.99 920.621,2433.99C920.611,2433.99 920.6,2433.99 920.59,2433.99C920.587,2433.99 920.584,2434 920.581,2434C920.579,2434 920.577,2434 920.575,2434C920.562,2434 920.548,2434 920.535,2434C920.534,2434 920.533,2434 920.531,2434C920.516,2434 920.5,2434 920.484,2434C920.483,2434 920.482,2434 920.48,2434C920.48,2434 920.479,2434 920.478,2433.99C920.464,2433.99 920.45,2433.99 920.436,2433.99L920.418,2433.98C920.407,2433.98 920.396,2433.97 920.385,2433.97L920.377,2433.96C920.366,2433.95 920.355,2433.95 920.344,2433.94L920.335,2433.93C920.328,2433.93 920.322,2433.92 920.316,2433.92C920.313,2433.92 920.311,2433.91 920.309,2433.91L920.286,2433.89C920.283,2433.89 920.28,2433.88 920.277,2433.88C920.274,2433.88 920.271,2433.87 920.269,2433.87L920.263,2433.86C920.255,2433.85 920.249,2433.84 920.242,2433.83C920.241,2433.83 920.24,2433.82 920.238,2433.82C920.232,2433.81 920.226,2433.79 920.222,2433.78L920.219,2433.77L918.276,2427.8L912.21,2425.48C912.084,2425.43 912,2425.31 912,2425.17C912,2425.04 912.083,2424.92 912.21,2424.87L932.554,2417.02L932.564,2417.02C932.569,2417.02 932.575,2417.01 932.58,2417.01L932.596,2417.01C932.601,2417.01 932.606,2417.01 932.612,2417.01C932.616,2417.01 932.62,2417 932.625,2417C932.628,2417 932.631,2417 932.634,2417L932.656,2417C932.662,2417 932.667,2417 932.673,2417L932.682,2417L932.688,2417ZM930.439,2418.54L921.067,2425.32C920.92,2425.43 920.888,2425.63 920.994,2425.78C921.058,2425.87 921.158,2425.91 921.26,2425.91C921.327,2425.91 921.394,2425.89 921.452,2425.85L930.405,2419.37L922.026,2428.74C921.994,2428.78 921.967,2428.82 921.95,2428.86C921.947,2428.87 921.945,2428.88 921.942,2428.89L920.55,2432.67L918.852,2427.45C918.82,2427.36 918.747,2427.28 918.658,2427.25C918.657,2427.25 918.657,2427.25 918.656,2427.25L913.24,2425.17L930.439,2418.54ZM930.142,2431.61L922.819,2428.84L932.18,2418.37L930.142,2431.61ZM919.609,2427.11C919.676,2427.11 919.743,2427.09 919.801,2427.04L920.439,2426.58C920.586,2426.48 920.618,2426.27 920.512,2426.13C920.405,2425.98 920.2,2425.95 920.054,2426.05L919.416,2426.51C919.269,2426.62 919.237,2426.83 919.343,2426.97C919.407,2427.06 919.507,2427.11 919.609,2427.11Z" style="fill:rgb(153,162,171);"/>
    </g>
</svg>
