<?xml version="1.0" standalone="no"?>
<!DOCTYPE svg PUBLIC "-//W3C//DTD SVG 1.1//EN" "http://www.w3.org/Graphics/SVG/1.1/DTD/svg11.dtd">
<svg width="100%" height="100%" viewBox="0 0 33 33" version="1.1" xmlns="http://www.w3.org/2000/svg" xmlns:xlink="http://www.w3.org/1999/xlink" xml:space="preserve" style="fill-rule:evenodd;clip-rule:evenodd;stroke-linejoin:round;stroke-miterlimit:1.41421;">
    <g transform="matrix(1,0,0,1,-1725.49,-1079.12)">
        <g id="Forma 1" transform="matrix(0.908292,0,0,0.908292,158.686,101.898)">
            <path d="M1740.34,1096.75C1743.93,1100.32 1748.08,1103.73 1749.71,1102.08C1752.05,1099.73 1753.48,1097.67 1758.66,1101.82C1763.85,1105.96 1759.89,1108.75 1757.63,1111.03C1755.02,1113.67 1745.25,1111.22 1735.56,1101.58C1725.87,1091.94 1723.35,1082.16 1725.97,1079.52C1728.23,1077.24 1730.98,1073.25 1735.15,1078.41C1739.32,1083.58 1737.29,1085.03 1734.95,1087.39C1733.32,1089.04 1736.75,1093.17 1740.34,1096.75Z" style="fill:rgb(95,199,147);fill-rule:nonzero;"/>
        </g>
    </g>
</svg>
