<?xml version="1.0" standalone="no"?>
<!DOCTYPE svg PUBLIC "-//W3C//DTD SVG 1.1//EN" "http://www.w3.org/Graphics/SVG/1.1/DTD/svg11.dtd">
<svg width="100%" height="100%" viewBox="0 0 36 28" version="1.1" xmlns="http://www.w3.org/2000/svg" xmlns:xlink="http://www.w3.org/1999/xlink" xml:space="preserve" style="fill-rule:evenodd;clip-rule:evenodd;stroke-linejoin:round;stroke-miterlimit:1.41421;">
    <g transform="matrix(1,0,0,1,-115.001,-291)">
        <path id="Forma 1 copy 9" d="M135.427,306.945C136.34,306.106 136.881,305.625 137.501,305.625C137.891,305.625 138.168,305.788 138.799,306.142C139.993,306.812 140.728,307.5 141.215,308.174L141.215,308.176C141.512,308.585 141.71,309.001 141.828,309.433C141.83,309.434 141.83,309.436 141.83,309.438C141.886,309.641 141.926,309.848 141.953,310.06C141.955,310.077 141.96,310.094 141.962,310.112C141.986,310.336 142,310.564 142,310.8C142,310.826 142.001,315.727 142.001,315.75C142.001,317.385 141.412,318 139.751,318L126.251,318C124.604,318 124.002,317.35 124.002,315.75C124.001,315.727 124.002,310.826 124.002,310.8C124.002,310.563 124.015,310.336 124.04,310.113C124.042,310.093 124.047,310.075 124.049,310.055C124.075,309.845 124.116,309.641 124.17,309.439C124.172,309.435 124.174,309.431 124.176,309.427C124.293,308.998 124.49,308.585 124.784,308.179C124.785,308.177 124.785,308.175 124.787,308.173L124.789,308.172C125.274,307.499 126.045,306.872 127.202,306.142C127.763,305.788 128.111,305.625 128.501,305.625C129.122,305.625 129.663,306.107 130.575,306.945L130.577,306.945L131.407,307.708C131.436,307.736 132.331,309 133.001,309C133.671,309 134.565,307.736 134.595,307.708L135.425,306.945L135.427,306.945ZM151,312.375C151,311.139 150.534,309.239 148.441,308.047C147.569,307.552 146.565,307.951 145.375,309L144.25,310.125C144.25,312.094 144.25,316.875 144.25,316.875L148.75,316.875C150.452,316.875 151,316.258 151,314.625C151.002,314.608 151,312.395 151,312.375ZM117.561,308.047C115.467,309.239 115.002,311.139 115.002,312.375C115.002,312.394 115,314.608 115.002,314.625C115.002,316.258 115.55,316.875 117.251,316.875L121.751,316.875C121.751,316.875 121.751,312.094 121.751,310.125L120.626,309C119.436,307.951 118.433,307.552 117.561,308.047ZM121.751,310.125C121.776,310.146 121.751,309.591 121.751,310.125L121.751,310.125ZM144.25,310.125C144.25,309.591 144.226,310.146 144.25,310.125L144.25,310.125ZM121.761,305.611C122.663,305.611 125.133,304.44 125.133,302.011L125.133,300.211C125.133,297.781 123.351,296.611 121.761,296.611C120.224,296.611 118.39,297.781 118.39,300.211L118.39,302.011C118.39,304.44 120.907,305.611 121.761,305.611ZM144.457,305.611C145.359,305.611 147.828,304.44 147.828,302.011L147.828,300.211C147.828,297.781 146.047,296.611 144.457,296.611C142.919,296.611 141.085,297.781 141.085,300.211L141.085,302.011C141.085,304.44 143.603,305.611 144.457,305.611ZM133.001,304.515C136.157,304.515 138.611,301.242 138.611,297.854L138.611,296.792C138.611,293.404 136.157,291 133.001,291C129.845,291 127.391,293.404 127.391,296.792L127.391,297.854C127.391,301.242 129.845,304.515 133.001,304.515Z" style="fill:rgb(96,199,146);"/>
    </g>
</svg>
