<?xml version="1.0" standalone="no"?>
<!DOCTYPE svg PUBLIC "-//W3C//DTD SVG 1.1//EN" "http://www.w3.org/Graphics/SVG/1.1/DTD/svg11.dtd">
<svg width="100%" height="100%" viewBox="0 0 483 483" version="1.1" xmlns="http://www.w3.org/2000/svg" xmlns:xlink="http://www.w3.org/1999/xlink" xml:space="preserve" style="fill-rule:evenodd;clip-rule:evenodd;stroke-linejoin:round;stroke-miterlimit:1.41421;">
    <g>
        <path d="M239.7,260.2L242.9,260.2C272.2,259.7 295.9,249.4 313.4,229.7C351.9,186.3 345.5,111.9 344.8,104.8C342.3,51.5 317.1,26 296.3,14.1C280.8,5.2 262.7,0.4 242.5,0L241.8,0C241.7,0 241.5,0 241.4,0L240.8,0C229.7,0 207.9,1.8 187,13.7C166,25.6 140.4,51.1 137.9,104.8C137.2,111.9 130.8,186.3 169.3,229.7C186.7,249.4 210.4,259.7 239.7,260.2ZM164.6,107.3C164.6,107 164.7,106.7 164.7,106.5C168,34.8 218.9,27.1 240.7,27.1L241.9,27.1C268.9,27.7 314.8,38.7 317.9,106.5C317.9,106.8 317.9,107.1 318,107.3C318.1,108 325.1,176 293.3,211.8C280.7,226 263.9,233 241.8,233.2L240.8,233.2C218.8,233 201.9,226 189.4,211.8C157.7,176.2 164.5,107.9 164.6,107.3Z" style="fill:white;fill-rule:nonzero;"/>
        <path d="M446.8,383.6C446.8,383.5 446.8,383.4 446.8,383.3C446.8,382.5 446.7,381.7 446.7,380.8C446.1,361 444.8,314.7 401.4,299.9C401.1,299.8 400.7,299.7 400.4,299.6C355.3,288.1 317.8,262.1 317.4,261.8C311.3,257.5 302.9,259 298.6,265.1C294.3,271.2 295.8,279.6 301.9,283.9C303.6,285.1 343.4,312.8 393.2,325.6C416.5,333.9 419.1,358.8 419.8,381.6C419.8,382.5 419.8,383.3 419.9,384.1C420,393.1 419.4,407 417.8,415C401.6,424.2 338.1,456 241.5,456C145.3,456 81.4,424.1 65.1,414.9C63.5,406.9 62.8,393 63,384C63,383.2 63.1,382.4 63.1,381.5C63.8,358.7 66.4,333.8 89.7,325.5C139.5,312.7 179.3,284.9 181,283.8C187.1,279.5 188.6,271.1 184.3,265C180,258.9 171.6,257.4 165.5,261.7C165.1,262 127.8,288 82.5,299.5C82.1,299.6 81.8,299.7 81.5,299.8C38.1,314.7 36.8,361 36.2,380.7C36.2,381.6 36.2,382.4 36.1,383.2C36.1,383.3 36.1,383.4 36.1,383.5C36,388.7 35.9,415.4 41.2,428.8C42.2,431.4 44,433.6 46.4,435.1C49.4,437.1 121.3,482.9 241.6,482.9C361.9,482.9 433.8,437 436.8,435.1C439.1,433.6 441,431.4 442,428.8C447,415.5 446.9,388.8 446.8,383.6Z" style="fill:white;fill-rule:nonzero;"/>
    </g>
</svg>
