<?xml version="1.0" standalone="no"?>
<!DOCTYPE svg PUBLIC "-//W3C//DTD SVG 1.1//EN" "http://www.w3.org/Graphics/SVG/1.1/DTD/svg11.dtd">
<svg width="100%" height="100%" viewBox="0 0 24 25" version="1.1" xmlns="http://www.w3.org/2000/svg" xmlns:xlink="http://www.w3.org/1999/xlink" xml:space="preserve" style="fill-rule:evenodd;clip-rule:evenodd;stroke-linejoin:round;stroke-miterlimit:1.41421;">
    <g transform="matrix(1,0,0,1,-265.001,-1646)">
        <path id="Forma 1" d="M266.556,1659.57C265.689,1659.57 265.001,1658.86 265.001,1657.99C265.001,1657.12 265.689,1656.43 266.556,1656.43L275.421,1656.43L275.421,1647.58C275.423,1646.71 276.134,1646 277.001,1646C277.867,1646 278.556,1646.71 278.556,1647.58L278.556,1656.43L287.421,1656.43C288.288,1656.43 288.999,1657.12 288.999,1657.99C288.999,1658.86 288.288,1659.57 287.421,1659.57L278.556,1659.57L278.556,1668.42C278.556,1669.29 277.867,1670 277.001,1670C276.134,1670 275.423,1669.29 275.423,1668.42L275.423,1659.57L266.556,1659.57Z" style="fill:rgb(250,254,251);fill-rule:nonzero;"/>
    </g>
</svg>
