<?xml version="1.0" standalone="no"?>
<!DOCTYPE svg PUBLIC "-//W3C//DTD SVG 1.1//EN" "http://www.w3.org/Graphics/SVG/1.1/DTD/svg11.dtd">
<svg width="100%" height="100%" viewBox="0 0 33 34" version="1.1" xmlns="http://www.w3.org/2000/svg" xmlns:xlink="http://www.w3.org/1999/xlink" xml:space="preserve" style="fill-rule:evenodd;clip-rule:evenodd;stroke-linejoin:round;stroke-miterlimit:1.41421;">
    <g transform="matrix(1,0,0,1,-1429,-313)">
        <path id="Forma 1 copy 29" d="M1452.22,316.973C1452.47,316.984 1452.62,317.146 1452.68,317.243C1452.87,317.538 1453.11,317.967 1453.12,317.991L1459.31,328.535C1459.31,328.535 1459.46,328.821 1459.87,329.054C1459.88,329.058 1459.88,329.064 1459.88,329.069C1460.53,329.334 1461,330.035 1461,330.876L1461,339.796C1461,340.874 1460.25,341.731 1459.32,341.731L1457.64,341.731L1457.64,346.042C1457.64,346.572 1457.3,347 1456.89,347L1454.22,347C1453.8,347 1453.47,346.572 1453.47,346.042L1453.47,341.731L1436.58,341.731L1436.58,346.007C1436.58,346.538 1436.23,346.967 1435.82,346.967L1433.11,346.967C1432.69,346.967 1432.36,346.538 1432.36,346.007L1432.36,341.731L1430.68,341.731C1429.74,341.713 1429,340.863 1429,339.796L1429,330.876C1429,329.908 1429.62,329.112 1430.42,328.966C1431.52,327.014 1436.47,318.3 1436.82,317.684C1437.19,317.044 1437.52,316.979 1437.58,316.973L1452.22,316.973ZM1454.74,338.283C1453.14,338.283 1451.84,336.965 1451.84,335.338C1451.84,333.713 1453.14,332.392 1454.74,332.392C1456.34,332.392 1457.64,333.713 1457.64,335.338C1457.64,336.965 1456.34,338.283 1454.74,338.283L1454.74,338.283ZM1435.31,338.283C1433.71,338.283 1432.41,336.965 1432.41,335.338C1432.41,333.713 1433.71,332.392 1435.31,332.392C1436.91,332.392 1438.2,333.713 1438.2,335.338C1438.2,336.965 1436.91,338.283 1435.31,338.283L1435.31,338.283ZM1457.58,328.941L1451.94,319.343C1451.66,318.871 1451.28,318.743 1451.03,318.711L1439.1,318.711C1438.15,318.711 1437.95,319.114 1437.95,319.114L1432.36,328.941L1457.58,328.941ZM1447.55,313C1447.77,313.009 1448.34,313.102 1448.34,313.883L1448.34,314.65C1448.32,314.886 1448.2,315.321 1447.56,315.321L1442.44,315.321C1441.74,315.321 1441.67,314.747 1441.67,314.546L1441.67,313.659C1441.67,313.49 1441.75,313.01 1442.58,313L1447.55,313Z" style="fill:rgb(185,185,185);"/>
    </g>
</svg>
