<?xml version="1.0" standalone="no"?>
<!DOCTYPE svg PUBLIC "-//W3C//DTD SVG 1.1//EN" "http://www.w3.org/Graphics/SVG/1.1/DTD/svg11.dtd">
<svg width="100%" height="100%" viewBox="0 0 39 37" version="1.1" xmlns="http://www.w3.org/2000/svg" xmlns:xlink="http://www.w3.org/1999/xlink" xml:space="preserve" style="fill-rule:evenodd;clip-rule:evenodd;stroke-linejoin:round;stroke-miterlimit:1.41421;">
    <g transform="matrix(1,0,0,1,-1747,-314)">
        <path id="Forma 1 copy 31" d="M1758.3,350.999L1756.56,350.999C1755.62,350.999 1754.88,350.23 1754.88,349.282L1754.88,338.205C1754.67,338.23 1754.46,338.243 1754.24,338.243C1752.66,338.243 1751.24,337.561 1750.25,336.471C1749.35,335.549 1748.8,334.282 1748.8,332.884C1748.8,332.684 1748.81,332.488 1748.83,332.294C1747.72,331.469 1747,330.138 1747,328.634C1747,327.027 1747.83,325.615 1749.07,324.81C1749.01,324.572 1748.98,324.323 1748.98,324.068C1748.98,323.232 1749.29,322.469 1749.8,321.891C1749.78,321.7 1749.77,321.506 1749.77,321.309C1749.77,318.963 1751.56,317.044 1753.83,316.882C1754.46,315.5 1755.84,314.541 1757.44,314.541C1759.04,314.541 1760.41,315.5 1761.05,316.882C1763.32,317.044 1765.11,318.963 1765.11,321.309C1765.11,321.506 1765.1,321.7 1765.07,321.891C1765.58,322.469 1765.89,323.232 1765.89,324.068C1765.89,324.323 1765.86,324.572 1765.81,324.81C1767.05,325.615 1767.87,327.027 1767.87,328.634C1767.87,330.138 1767.15,331.469 1766.04,332.294C1766.07,332.488 1766.08,332.684 1766.08,332.884C1766.08,334.282 1765.52,335.549 1764.63,336.471C1763.63,337.561 1762.21,338.243 1760.63,338.243C1760.38,338.243 1760.14,338.225 1759.9,338.193L1759.9,349.282C1759.9,350.23 1759.23,350.999 1758.3,350.999ZM1771,349.265L1771,349.817C1771,350.396 1770.54,350.864 1769.97,350.865L1768.9,350.865C1768.33,350.865 1767.83,350.396 1767.83,349.817L1767.83,349.265L1771,349.265ZM1780.65,349.265L1780.65,349.817C1780.65,350.396 1780.13,350.864 1779.56,350.865L1778.5,350.865C1777.93,350.865 1777.47,350.396 1777.47,349.817L1777.47,349.265L1780.65,349.265ZM1781.06,338.373C1781.61,338.374 1782.05,338.824 1782.05,339.379C1782.05,339.935 1781.61,340.385 1781.06,340.385L1780.65,340.385L1780.65,341.878L1782.15,341.878C1782.7,341.878 1783.14,342.329 1783.14,342.884C1783.14,343.44 1782.7,343.89 1782.15,343.89L1780.65,343.89L1780.65,345.048L1783.68,345.048C1784.41,345.048 1785,345.649 1785,346.39C1785,347.131 1784.41,347.731 1783.68,347.731L1764.85,347.731C1764.12,347.731 1763.53,347.131 1763.53,346.39C1763.53,345.65 1764.12,345.049 1764.85,345.048L1767.83,345.048L1767.83,343.89L1766.38,343.89C1765.83,343.89 1765.39,343.44 1765.39,342.884C1765.39,342.329 1765.83,341.879 1766.38,341.878L1767.83,341.878L1767.83,340.385L1767.47,340.385C1766.92,340.384 1766.48,339.934 1766.48,339.379C1766.48,338.824 1766.92,338.374 1767.47,338.373L1781.06,338.373ZM1777.47,345.048L1777.47,343.89L1771,343.89L1771,345.048L1777.47,345.048ZM1777.47,341.878L1777.47,340.385L1771,340.385L1771,341.878L1777.47,341.878ZM1749.14,329.807C1749.69,329.806 1750.13,329.356 1750.14,328.801C1750.14,328.314 1750.39,327.854 1750.8,327.601C1751.27,327.313 1751.42,326.694 1751.13,326.219C1750.85,325.744 1750.24,325.592 1749.77,325.88C1748.78,326.495 1748.15,327.614 1748.15,328.8C1748.15,329.355 1748.6,329.806 1749.14,329.807L1749.14,329.807ZM1783.68,320.639C1784.23,320.64 1784.67,321.09 1784.67,321.645C1784.67,322.2 1784.23,322.65 1783.68,322.651L1772.01,322.651C1771.47,322.651 1771.02,322.201 1771.02,321.645C1771.02,321.09 1771.47,320.64 1772.01,320.639L1783.68,320.639ZM1753.07,321.598C1753.07,322.153 1752.62,322.604 1752.08,322.604C1751.53,322.604 1751.09,322.153 1751.09,321.598C1751.09,319.715 1752.59,318.184 1754.45,318.184C1755,318.184 1755.44,318.634 1755.44,319.19C1755.44,319.746 1755,320.196 1754.45,320.196C1753.69,320.196 1753.07,320.825 1753.07,321.598ZM1769.9,317.32C1770.45,317.32 1770.89,317.77 1770.89,318.326C1770.89,318.881 1770.45,319.331 1769.9,319.332L1767.83,319.332C1767.28,319.332 1766.84,318.881 1766.84,318.326C1766.84,317.77 1767.28,317.32 1767.83,317.32L1769.9,317.32ZM1780.29,317.32C1780.84,317.32 1781.28,317.77 1781.28,318.326C1781.28,318.881 1780.84,319.331 1780.29,319.332L1772.89,319.332C1772.35,319.332 1771.9,318.881 1771.9,318.326C1771.9,317.771 1772.35,317.32 1772.89,317.32L1780.29,317.32ZM1775.01,314C1775.56,314.001 1776,314.451 1776,315.007C1776,315.562 1775.56,316.012 1775.01,316.013L1769.55,316.013C1769,316.013 1768.56,315.562 1768.56,315.007C1768.56,314.451 1769,314.001 1769.55,314L1775.01,314Z" style="fill:rgb(185,185,185);"/>
    </g>
</svg>
