<?xml version="1.0" standalone="no"?>
<!DOCTYPE svg PUBLIC "-//W3C//DTD SVG 1.1//EN" "http://www.w3.org/Graphics/SVG/1.1/DTD/svg11.dtd">
<svg width="100%" height="100%" viewBox="0 0 47 32" version="1.1" xmlns="http://www.w3.org/2000/svg" xmlns:xlink="http://www.w3.org/1999/xlink" xml:space="preserve" style="fill-rule:evenodd;clip-rule:evenodd;stroke-linejoin:round;stroke-miterlimit:1.41421;">
    <g transform="matrix(1,0,0,1,-1785.5,-1081)">
        <path id="Forma 1" d="M1830.88,1112.97C1830.91,1112.97 1830.93,1112.96 1830.95,1112.96C1830.97,1112.95 1831,1112.95 1831.01,1112.94C1831.04,1112.93 1831.06,1112.92 1831.08,1112.92C1831.1,1112.91 1831.12,1112.9 1831.14,1112.89C1831.16,1112.89 1831.18,1112.88 1831.2,1112.87C1831.23,1112.86 1831.25,1112.85 1831.27,1112.84C1831.29,1112.83 1831.3,1112.82 1831.32,1112.8C1831.34,1112.79 1831.36,1112.78 1831.38,1112.77C1831.4,1112.76 1831.42,1112.74 1831.44,1112.73C1831.46,1112.71 1831.48,1112.7 1831.49,1112.69C1831.52,1112.66 1831.55,1112.64 1831.58,1112.61C1831.58,1112.61 1831.59,1112.6 1831.59,1112.6C1831.6,1112.59 1831.6,1112.59 1831.61,1112.58C1831.63,1112.56 1831.66,1112.53 1831.68,1112.5C1831.7,1112.48 1831.71,1112.46 1831.73,1112.45C1831.74,1112.43 1831.75,1112.41 1831.77,1112.39C1831.78,1112.37 1831.79,1112.35 1831.8,1112.33C1831.82,1112.31 1831.83,1112.29 1831.84,1112.28C1831.85,1112.26 1831.86,1112.23 1831.87,1112.21C1831.88,1112.19 1831.89,1112.17 1831.89,1112.15C1831.9,1112.13 1831.91,1112.11 1831.92,1112.09C1831.93,1112.07 1831.93,1112.05 1831.94,1112.03C1831.95,1112.01 1831.95,1111.99 1831.96,1111.96C1831.96,1111.94 1831.97,1111.92 1831.97,1111.9C1831.98,1111.87 1831.98,1111.85 1831.99,1111.82C1831.99,1111.8 1831.99,1111.79 1831.99,1111.77C1832,1111.72 1832,1111.67 1832,1111.63L1832,1082.37C1832,1081.61 1831.38,1081 1830.61,1081L1786.89,1081C1786.88,1081 1786.87,1081 1786.86,1081C1786.83,1081 1786.8,1081 1786.78,1081.01C1786.76,1081.01 1786.74,1081.01 1786.71,1081.01C1786.69,1081.02 1786.67,1081.02 1786.64,1081.02C1786.62,1081.03 1786.6,1081.03 1786.58,1081.04C1786.56,1081.04 1786.53,1081.05 1786.51,1081.05C1786.49,1081.06 1786.47,1081.07 1786.45,1081.07C1786.43,1081.08 1786.4,1081.09 1786.38,1081.1C1786.36,1081.1 1786.34,1081.11 1786.32,1081.12C1786.3,1081.13 1786.28,1081.14 1786.26,1081.15C1786.24,1081.16 1786.22,1081.17 1786.2,1081.18C1786.18,1081.19 1786.16,1081.21 1786.14,1081.22C1786.12,1081.23 1786.11,1081.24 1786.09,1081.25C1786.07,1081.27 1786.05,1081.28 1786.03,1081.3C1786.02,1081.31 1786,1081.32 1785.98,1081.34C1785.96,1081.35 1785.95,1081.37 1785.93,1081.38C1785.91,1081.4 1785.9,1081.42 1785.88,1081.43C1785.87,1081.44 1785.86,1081.45 1785.85,1081.46C1785.85,1081.47 1785.84,1081.47 1785.84,1081.48C1785.82,1081.5 1785.81,1081.52 1785.79,1081.54C1785.78,1081.56 1785.77,1081.57 1785.75,1081.59C1785.74,1081.61 1785.73,1081.63 1785.71,1081.65C1785.7,1081.67 1785.69,1081.68 1785.68,1081.7C1785.67,1081.72 1785.66,1081.74 1785.65,1081.76C1785.64,1081.78 1785.63,1081.8 1785.62,1081.82C1785.61,1081.84 1785.6,1081.86 1785.6,1081.88C1785.59,1081.91 1785.58,1081.93 1785.57,1081.95C1785.57,1081.97 1785.56,1081.99 1785.55,1082.01C1785.55,1082.03 1785.54,1082.05 1785.54,1082.08C1785.53,1082.1 1785.53,1082.12 1785.53,1082.14C1785.52,1082.16 1785.52,1082.19 1785.51,1082.21C1785.51,1082.23 1785.51,1082.25 1785.51,1082.27C1785.51,1082.3 1785.51,1082.32 1785.51,1082.35C1785.5,1082.35 1785.5,1082.36 1785.5,1082.37L1785.5,1101.81C1785.5,1102.57 1786.12,1103.18 1786.89,1103.18C1787.66,1103.18 1788.28,1102.57 1788.28,1101.81L1788.28,1085.41L1800.62,1096.18C1800.56,1096.23 1800.49,1096.28 1800.43,1096.34L1788.28,1108.33L1788.28,1099.33C1788.28,1098.57 1787.66,1097.96 1786.89,1097.96C1786.12,1097.96 1785.5,1098.57 1785.5,1099.33L1785.5,1111.63C1785.5,1112.39 1786.12,1113 1786.89,1113L1830.61,1113C1830.66,1113 1830.7,1113 1830.75,1112.99C1830.77,1112.99 1830.79,1112.99 1830.81,1112.98C1830.84,1112.98 1830.86,1112.98 1830.88,1112.97ZM1829.22,1108.33L1817.07,1096.34C1817.06,1096.33 1817.05,1096.32 1817.04,1096.32L1826.18,1088.67C1826.77,1088.18 1826.84,1087.32 1826.34,1086.74C1825.85,1086.16 1824.97,1086.09 1824.39,1086.58L1808.77,1099.65L1790.55,1083.74L1829.22,1083.74L1829.22,1108.33ZM1802.4,1098.27C1802.5,1098.17 1802.58,1098.07 1802.64,1097.95L1807.83,1102.48C1808.09,1102.71 1808.42,1102.83 1808.75,1102.83C1809.07,1102.83 1809.39,1102.72 1809.65,1102.5L1814.94,1098.08C1814.99,1098.14 1815.04,1098.21 1815.11,1098.27L1827.26,1110.26L1790.24,1110.26L1802.4,1098.27Z" style="fill:rgb(95,199,147);fill-rule:nonzero;"/>
    </g>
</svg>
