<?xml version="1.0" standalone="no"?>
<!DOCTYPE svg PUBLIC "-//W3C//DTD SVG 1.1//EN" "http://www.w3.org/Graphics/SVG/1.1/DTD/svg11.dtd">
<svg width="100%" height="100%" viewBox="0 0 761 164" version="1.1" xmlns="http://www.w3.org/2000/svg" xmlns:xlink="http://www.w3.org/1999/xlink" xml:space="preserve" style="fill-rule:evenodd;clip-rule:evenodd;stroke-linejoin:round;stroke-miterlimit:1.41421;">
    <g transform="matrix(1,0,0,1,-24.3764,-119.411)">
        <g>
            <path d="M445.913,160.73L446.821,159.853C448.533,161.649 450.69,163.08 453.291,164.145C455.891,165.209 458.537,165.742 461.231,165.742C465.45,165.742 468.828,164.871 471.365,163.128C473.903,161.386 475.172,159.054 475.172,156.132L475.172,155.976C475.172,154.411 474.879,153.023 474.294,151.812C473.688,150.56 472.868,149.543 471.834,148.76C470.8,147.978 469.613,147.289 468.276,146.694C466.939,146.099 465.531,145.578 464.054,145.129C462.577,144.681 461.09,144.23 459.593,143.775C458.095,143.321 456.674,142.78 455.326,142.154C453.979,141.527 452.789,140.796 451.755,139.961C450.721,139.126 449.896,138.045 449.28,136.719C448.664,135.393 448.356,133.863 448.356,132.129C448.356,129.101 449.656,126.684 452.257,124.877C454.857,123.071 458.318,122.167 462.642,122.167C464.709,122.167 466.828,122.471 469,123.076C471.172,123.682 473.03,124.476 474.576,125.457L473.95,126.491C472.509,125.572 470.76,124.836 468.703,124.282C466.645,123.729 464.625,123.452 462.642,123.452C458.693,123.452 455.54,124.24 453.181,125.815C450.82,127.39 449.641,129.491 449.641,132.119C449.641,133.704 449.949,135.107 450.565,136.328C451.183,137.548 452.007,138.534 453.042,139.285C454.076,140.036 455.268,140.703 456.616,141.287C457.964,141.872 459.382,142.389 460.869,142.84C462.356,143.292 463.844,143.743 465.331,144.194C466.818,144.646 468.229,145.195 469.566,145.843C470.902,146.491 472.087,147.244 473.121,148.1C474.154,148.957 474.974,150.064 475.578,151.422C476.163,152.74 476.456,154.245 476.456,155.938L476.456,156.125C476.456,159.425 475.071,162.066 472.305,164.05C469.538,166.035 465.847,167.026 461.231,167.026C458.433,167.026 455.65,166.453 452.883,165.304C450.115,164.155 447.792,162.63 445.913,160.73" style="fill:white;fill-rule:nonzero;"/>
            <path d="M485.917,150.424C485.917,154.935 487.311,158.616 490.098,161.466C492.887,164.317 496.441,165.742 500.765,165.742C505.067,165.742 508.612,164.317 511.399,161.466C514.188,158.616 515.582,154.935 515.582,150.424C515.582,145.955 514.188,142.29 511.399,139.428C508.612,136.568 505.067,135.137 500.765,135.137C496.463,135.137 492.912,136.568 490.114,139.428C487.315,142.29 485.917,145.955 485.917,150.424M484.633,150.424C484.633,145.621 486.161,141.658 489.222,138.536C492.28,135.414 496.129,133.852 500.765,133.852C505.401,133.852 509.243,135.414 512.293,138.536C515.342,141.658 516.866,145.621 516.866,150.424C516.866,155.248 515.342,159.221 512.293,162.343C509.243,165.466 505.401,167.027 500.765,167.027C496.129,167.027 492.28,165.466 489.222,162.343C486.161,159.221 484.633,155.248 484.633,150.424" style="fill:white;fill-rule:nonzero;"/>
            <path d="M523.508,150.424C523.508,145.621 525.037,141.658 528.097,138.536C531.156,135.414 535.005,133.852 539.641,133.852C541.813,133.852 543.869,134.239 545.813,135.011C547.754,135.784 549.456,136.871 550.918,138.27L550.072,139.178C547.107,136.484 543.629,135.137 539.641,135.137C535.318,135.137 531.752,136.568 528.944,139.428C526.134,142.29 524.73,145.955 524.73,150.424C524.73,154.914 526.134,158.59 528.944,161.45C531.752,164.312 535.318,165.742 539.641,165.742C544.256,165.742 547.974,164.134 550.793,160.918L551.639,161.827C550.177,163.477 548.417,164.756 546.36,165.664C544.303,166.572 542.063,167.027 539.641,167.027C535.005,167.027 531.156,165.466 528.097,162.343C525.037,159.221 523.508,155.248 523.508,150.424" style="fill:white;fill-rule:nonzero;"/>
            <path d="M562.947,133.852L564.231,133.852L564.231,167.026L562.947,167.026L562.947,133.852ZM562.431,125.473C562.105,125.149 561.944,124.757 561.944,124.298C561.944,123.839 562.105,123.447 562.431,123.123C562.753,122.8 563.146,122.638 563.604,122.638C564.064,122.638 564.455,122.8 564.78,123.123C565.103,123.447 565.266,123.839 565.266,124.298C565.266,124.757 565.103,125.149 564.78,125.473C564.455,125.797 564.064,125.958 563.604,125.958C563.146,125.958 562.753,125.797 562.431,125.473" style="fill:white;fill-rule:nonzero;"/>
            <path d="M576.606,157.472C576.606,159.937 577.477,161.931 579.221,163.455C580.964,164.98 583.278,165.742 586.161,165.742C592.968,165.742 597.594,162.703 600.038,156.626L599.943,150.204L587.633,150.204C584.124,150.204 581.409,150.842 579.488,152.115C577.567,153.389 576.606,155.175 576.606,157.472M575.322,157.472C575.322,154.799 576.418,152.705 578.611,151.191C580.803,149.678 583.811,148.92 587.633,148.92L599.943,148.92L599.943,144.879C599.902,141.767 599.003,139.366 597.251,137.674C595.496,135.982 592.895,135.137 589.45,135.137C585.648,135.137 581.774,136.682 577.828,139.773L577.044,138.739C581.159,135.481 585.294,133.852 589.45,133.852C593.209,133.852 596.101,134.834 598.127,136.797C600.153,138.76 601.186,141.454 601.228,144.879L601.385,167.026L600.101,167.026L600.038,159.508C598.597,162.035 596.68,163.92 594.29,165.162C591.898,166.405 589.168,167.026 586.097,167.026C582.902,167.026 580.307,166.129 578.313,164.332C576.319,162.536 575.322,160.249 575.322,157.472" style="fill:white;fill-rule:nonzero;"/>
            <rect x="614.698" y="119.411" width="1.252" height="47.615" style="fill:white;fill-rule:nonzero;"/>
            <clipPath id="_clip1">
                <rect x="278.653" y="144.929" width="111.075" height="136.133"/>
            </clipPath>
            <g clip-path="url(#_clip1)">
                <path d="M285.017,260.816C285.017,260.816 271.947,249.303 283.269,237.983C292.268,228.982 300.426,238.885 300.426,238.885C309.713,248.565 319.982,256.167 338.161,256.167C353.77,256.167 361.081,249.25 361.081,241.548C361.081,218.627 285.21,234.632 285.21,185.036C285.21,163.107 304.182,144.929 335.2,144.929C356.142,144.929 373.531,151.249 386.574,163.304L370.958,184.246C360.29,174.368 346.063,169.824 332.628,169.824C320.771,169.824 314.059,174.961 314.059,182.863C314.059,203.612 389.728,189.58 389.728,238.78C389.728,262.884 372.343,281.062 336.975,281.062C311.491,281.062 297.464,273.266 285.017,260.816" style="fill:white;fill-rule:nonzero;"/>
            </g>
            <clipPath id="_clip2">
                <rect x="468.214" y="180.889" width="55.521" height="97.803"/>
            </clipPath>
            <g clip-path="url(#_clip2)">
                <path d="M468.214,278.692L468.214,183.26L493.311,183.26L493.311,196.1C500.226,187.803 511.879,180.889 523.735,180.889L523.735,205.387C521.959,204.992 519.789,204.796 516.818,204.796C508.523,204.796 497.459,209.535 493.311,215.66L493.311,278.692L468.214,278.692Z" style="fill:white;fill-rule:nonzero;"/>
            </g>
            <clipPath id="_clip3">
                <rect x="404.211" y="156.718" width="53.141" height="123.883"/>
            </clipPath>
            <g clip-path="url(#_clip3)">
                <path d="M404.211,254.323L404.211,204.73L404.211,182.801L404.211,156.719L429.309,156.719L429.309,182.801L448.669,182.801C448.669,182.801 449.746,193.211 445.2,198.803C438.736,206.753 429.309,204.73 429.309,204.73L429.309,247.611C429.309,253.734 432.472,258.277 438,258.277C441.753,258.277 444.956,256.489 446.69,255.309C449.112,253.669 457.36,245.215 457.352,262.485C457.35,270.843 452.035,274.476 452.035,274.476C448.274,277.835 441.56,280.601 431.083,280.601C413.499,280.601 404.211,271.51 404.211,254.323" style="fill:white;fill-rule:nonzero;"/>
            </g>
            <clipPath id="_clip4">
                <rect x="634.872" y="156.718" width="53.138" height="123.883"/>
            </clipPath>
            <g clip-path="url(#_clip4)">
                <path d="M634.872,254.323L634.872,204.73L634.872,182.801L634.872,156.719L659.965,156.719L659.965,182.801L679.326,182.801C679.326,182.801 680.404,193.211 675.855,198.803C669.395,206.753 659.965,204.73 659.965,204.73L659.965,247.611C659.965,253.734 663.128,258.277 668.656,258.277C672.41,258.277 675.612,256.489 677.349,255.309C679.768,253.669 688.018,245.215 688.01,262.485C688.008,270.843 682.689,274.476 682.689,274.476C678.929,277.835 672.215,280.601 661.741,280.601C644.16,280.601 634.872,271.51 634.872,254.323" style="fill:white;fill-rule:nonzero;"/>
            </g>
            <path d="M758.042,249.348C758.042,241.862 743.897,235.424 735.797,235.424C725.921,235.424 717.818,240.757 717.818,249.845C717.818,258.931 725.921,264.07 735.797,264.07C743.897,264.07 758.042,257.867 758.042,249.348M759.636,278.692L759.636,268.613C753.115,276.518 741.854,281.062 729.409,281.062C714.189,281.062 696.409,270.788 696.409,249.45C696.409,226.925 714.189,218.627 729.409,218.627C742.248,218.627 753.308,222.778 759.636,230.283L759.636,218.23C759.636,208.551 751.334,202.226 738.688,202.226C732.861,202.226 728.507,203.405 723.263,205.936C719.447,207.783 716.881,209.788 712.504,208.665C708.255,207.577 704.859,201.564 704.859,201.564C704.859,201.564 701.177,195.906 708.844,190.739C716.513,185.569 731.89,180.89 743.038,180.89C764.968,180.89 784.927,189.58 784.927,217.044L784.927,259.878C784.927,259.878 784.927,278.692 767.26,278.692L759.636,278.692Z" style="fill:white;fill-rule:nonzero;"/>
            <clipPath id="_clip5">
                <rect x="530.78" y="180.889" width="88.516" height="100.173"/>
            </clipPath>
            <g clip-path="url(#_clip5)">
                <path d="M592.413,249.348C592.413,241.862 578.268,235.424 570.169,235.424C560.292,235.424 552.189,240.757 552.189,249.845C552.189,258.931 560.292,264.07 570.169,264.07C578.268,264.07 592.413,257.867 592.413,249.348M594.004,278.692L594.004,268.613C587.483,276.518 576.221,281.062 563.777,281.062C548.558,281.062 530.78,270.788 530.78,249.45C530.78,226.925 548.558,218.627 563.777,218.627C576.615,218.627 587.677,222.778 594.004,230.283L594.004,218.23C594.004,208.551 585.7,202.226 573.058,202.226C567.23,202.226 562.878,203.405 557.632,205.936C553.818,207.783 551.251,209.788 546.874,208.665C542.624,207.577 539.23,201.564 539.23,201.564C539.23,201.564 535.548,195.906 543.214,190.739C550.88,185.569 566.258,180.89 577.408,180.89C599.339,180.89 619.296,189.58 619.296,217.044L619.296,259.878C619.296,259.878 619.296,278.692 601.629,278.692L594.004,278.692Z" style="fill:white;fill-rule:nonzero;"/>
            </g>
            <path d="M185.42,147.441L243.423,205.441L185.42,263.441L174.14,252.161L220.86,205.441L174.137,158.72L185.42,147.441ZM143.551,189.308L159.685,205.441L143.551,221.573L127.423,205.441L143.551,189.308ZM112.968,252.161L101.685,263.441L43.681,205.441L101.685,147.441L112.963,158.72L66.246,205.441L112.968,252.161ZM262.729,205.441L185.42,128.133L108.113,205.441L133.899,231.226L122.619,242.507L85.551,205.441L153.14,137.719L143.551,128.133L122.617,149.066L101.685,128.133L24.376,205.441L101.685,282.749L178.991,205.441L153.205,179.656L164.489,168.375L201.553,205.441L134.215,273.409L143.557,282.749L164.489,261.815L185.42,282.749L262.729,205.441Z" style="fill:white;fill-rule:nonzero;"/>
        </g>
    </g>
</svg>
