<?xml version="1.0" standalone="no"?>
<!DOCTYPE svg PUBLIC "-//W3C//DTD SVG 1.1//EN" "http://www.w3.org/Graphics/SVG/1.1/DTD/svg11.dtd">
<svg width="100%" height="100%" viewBox="0 0 33 33" version="1.1" xmlns="http://www.w3.org/2000/svg" xmlns:xlink="http://www.w3.org/1999/xlink" xml:space="preserve" style="fill-rule:evenodd;clip-rule:evenodd;stroke-linejoin:round;stroke-miterlimit:1.41421;">
    <g transform="matrix(1,0,0,1,-1670.01,-1079.01)">
        <path id="Forma 1" d="M1703.01,1095.08C1703.01,1103.96 1695.76,1111.16 1686.81,1111.16C1683.97,1111.16 1681.3,1110.43 1678.98,1109.16L1670.01,1112.01L1672.93,1103.38C1671.46,1100.96 1670.61,1098.12 1670.61,1095.08C1670.61,1086.21 1677.86,1079.01 1686.81,1079.01C1695.76,1079.01 1703.01,1086.21 1703.01,1095.08ZM1686.81,1081.57C1679.3,1081.57 1673.19,1087.63 1673.19,1095.09C1673.19,1098.05 1674.15,1100.78 1675.78,1103.01L1674.08,1108.03L1679.31,1106.36C1681.47,1107.78 1684.04,1108.6 1686.81,1108.6C1694.32,1108.6 1700.43,1102.54 1700.43,1095.08C1700.43,1087.63 1694.32,1081.57 1686.81,1081.57ZM1694.99,1098.79C1694.89,1098.62 1694.62,1098.53 1694.23,1098.33C1693.83,1098.13 1691.88,1097.18 1691.52,1097.05C1691.15,1096.92 1690.88,1096.85 1690.62,1097.24C1690.36,1097.64 1689.6,1098.53 1689.36,1098.79C1689.13,1099.05 1688.9,1099.09 1688.5,1098.89C1688.11,1098.69 1686.83,1098.28 1685.31,1096.93C1684.13,1095.89 1683.33,1094.6 1683.1,1094.21C1682.87,1093.81 1683.08,1093.6 1683.27,1093.4C1683.45,1093.23 1683.67,1092.94 1683.87,1092.71C1684.07,1092.48 1684.13,1092.32 1684.27,1092.06C1684.4,1091.79 1684.33,1091.56 1684.23,1091.36C1684.13,1091.17 1683.34,1089.23 1683.01,1088.44C1682.68,1087.65 1682.35,1087.78 1682.12,1087.78C1681.88,1087.78 1681.62,1087.75 1681.35,1087.75C1681.09,1087.75 1680.66,1087.85 1680.3,1088.24C1679.93,1088.64 1678.91,1089.59 1678.91,1091.53C1678.91,1093.47 1680.33,1095.34 1680.53,1095.61C1680.73,1095.87 1683.28,1099.98 1687.31,1101.55C1691.35,1103.13 1691.35,1102.6 1692.08,1102.54C1692.81,1102.47 1694.43,1101.58 1694.76,1100.67C1695.09,1099.74 1695.09,1098.95 1694.99,1098.79Z" style="fill:rgb(95,199,147);fill-rule:nonzero;"/>
    </g>
</svg>
