<?xml version="1.0" standalone="no"?>
<!DOCTYPE svg PUBLIC "-//W3C//DTD SVG 1.1//EN" "http://www.w3.org/Graphics/SVG/1.1/DTD/svg11.dtd">
<svg width="100%" height="100%" viewBox="0 0 23 24" version="1.1" xmlns="http://www.w3.org/2000/svg" xmlns:xlink="http://www.w3.org/1999/xlink" xml:space="preserve" style="fill-rule:evenodd;clip-rule:evenodd;stroke-linejoin:round;stroke-miterlimit:1.41421;">
    <g transform="matrix(1,0,0,1,-422,-1436)">
        <g id="Shape 1">
            <path d="M439.592,1460L433.402,1460C433.024,1460 432.722,1459.69 432.722,1459.31C432.722,1458.93 433.029,1458.62 433.402,1458.62L439.592,1458.62C441.275,1458.62 442.64,1457.24 442.64,1455.54L442.64,1440.46C442.64,1438.76 441.27,1437.38 439.592,1437.38L433.301,1437.38C432.923,1437.38 432.621,1437.07 432.621,1436.69C432.621,1436.31 432.923,1436 433.301,1436L439.592,1436C442.025,1436 444,1438 444,1440.46L444,1455.54C444,1458 442.025,1460 439.592,1460ZM424.32,1448.69L427.483,1451.89C427.75,1452.16 427.75,1452.59 427.483,1452.86C427.352,1453 427.176,1453.07 427.005,1453.07C426.833,1453.07 426.657,1453 426.526,1452.86L422.204,1448.49C421.932,1448.22 421.932,1447.78 422.199,1447.52L426.521,1443.15C426.788,1442.88 427.216,1442.88 427.483,1443.15C427.75,1443.42 427.75,1443.85 427.483,1444.12L424.32,1447.32L438.116,1447.32C438.499,1447.32 438.797,1447.63 438.797,1448.01C438.797,1448.38 438.499,1448.69 438.116,1448.69L424.32,1448.69Z" style="fill:white;"/>
            <path d="M439.706,1436L439.819,1436.01L439.931,1436.01L440.043,1436.02L440.154,1436.04L440.263,1436.05L440.372,1436.07L440.48,1436.09L440.587,1436.11L440.694,1436.14L440.799,1436.17L440.903,1436.2L441.006,1436.24L441.107,1436.27L441.208,1436.31L441.308,1436.35L441.406,1436.39L441.503,1436.44L441.598,1436.49L441.693,1436.54L441.786,1436.59L441.877,1436.65L441.968,1436.7L442.056,1436.76L442.143,1436.82L442.229,1436.89L442.313,1436.95L442.396,1437.02L442.476,1437.09L442.555,1437.16L442.633,1437.23L442.709,1437.31L442.782,1437.38L442.855,1437.46L442.925,1437.54L442.993,1437.62L443.06,1437.71L443.124,1437.79L443.186,1437.88L443.247,1437.97L443.305,1438.06L443.362,1438.15L443.416,1438.24L443.468,1438.34L443.518,1438.43L443.565,1438.53L443.61,1438.62L443.653,1438.72L443.694,1438.83L443.732,1438.93L443.768,1439.03L443.802,1439.13L443.833,1439.24L443.861,1439.35L443.887,1439.45L443.91,1439.56L443.931,1439.67L443.949,1439.78L443.965,1439.89L443.977,1440L443.987,1440.11L443.994,1440.23L443.999,1440.34L444,1440.46L444,1455.54L443.999,1455.66L443.994,1455.77L443.987,1455.89L443.977,1456L443.965,1456.11L443.949,1456.22L443.931,1456.33L443.91,1456.44L443.887,1456.55L443.861,1456.66L443.833,1456.76L443.802,1456.87L443.768,1456.97L443.732,1457.07L443.694,1457.17L443.653,1457.28L443.61,1457.38L443.565,1457.47L443.517,1457.57L443.468,1457.66L443.416,1457.76L443.361,1457.85L443.305,1457.94L443.247,1458.03L443.186,1458.12L443.124,1458.21L443.059,1458.29L442.993,1458.38L442.924,1458.46L442.854,1458.54L442.782,1458.62L442.708,1458.69L442.633,1458.77L442.555,1458.84L442.476,1458.91L442.395,1458.98L442.313,1459.05L442.229,1459.11L442.143,1459.17L442.056,1459.24L441.967,1459.3L441.877,1459.35L441.785,1459.41L441.692,1459.46L441.598,1459.51L441.502,1459.56L441.405,1459.6L441.307,1459.65L441.208,1459.69L441.107,1459.73L441.005,1459.76L440.902,1459.8L440.798,1459.83L440.693,1459.86L440.587,1459.88L440.48,1459.91L440.372,1459.93L440.263,1459.95L440.153,1459.96L440.043,1459.98L439.931,1459.99L439.819,1459.99L439.706,1460L439.592,1460L433.402,1460L433.367,1460L433.332,1460L433.298,1459.99L433.264,1459.99L433.231,1459.98L433.199,1459.97L433.167,1459.96L433.136,1459.95L433.106,1459.93L433.077,1459.92L433.048,1459.9L433.021,1459.88L432.994,1459.86L432.968,1459.84L432.944,1459.82L432.92,1459.8L432.898,1459.78L432.876,1459.75L432.856,1459.73L432.837,1459.7L432.82,1459.67L432.803,1459.64L432.788,1459.61L432.775,1459.58L432.763,1459.55L432.752,1459.52L432.743,1459.49L432.736,1459.45L432.73,1459.42L432.725,1459.38L432.723,1459.35L432.722,1459.31L432.723,1459.28L432.725,1459.24L432.73,1459.21L432.736,1459.17L432.743,1459.14L432.753,1459.11L432.763,1459.08L432.776,1459.04L432.789,1459.01L432.804,1458.98L432.821,1458.95L432.839,1458.93L432.858,1458.9L432.878,1458.87L432.899,1458.85L432.922,1458.83L432.946,1458.8L432.97,1458.78L432.996,1458.76L433.023,1458.74L433.05,1458.72L433.079,1458.71L433.108,1458.69L433.138,1458.68L433.169,1458.67L433.201,1458.65L433.233,1458.65L433.266,1458.64L433.299,1458.63L433.333,1458.63L433.367,1458.63L433.402,1458.62L439.592,1458.62L439.671,1458.62L439.749,1458.62L439.827,1458.62L439.904,1458.61L439.98,1458.6L440.056,1458.59L440.132,1458.58L440.206,1458.56L440.28,1458.55L440.354,1458.53L440.426,1458.51L440.498,1458.49L440.57,1458.46L440.64,1458.44L440.71,1458.41L440.778,1458.38L440.846,1458.35L440.913,1458.32L440.979,1458.29L441.045,1458.25L441.109,1458.21L441.172,1458.18L441.235,1458.14L441.296,1458.1L441.356,1458.06L441.415,1458.01L441.474,1457.97L441.531,1457.92L441.586,1457.87L441.641,1457.82L441.695,1457.77L441.747,1457.72L441.798,1457.67L441.848,1457.61L441.896,1457.56L441.944,1457.5L441.99,1457.44L442.034,1457.38L442.077,1457.33L442.119,1457.26L442.16,1457.2L442.198,1457.14L442.236,1457.08L442.272,1457.01L442.306,1456.94L442.339,1456.88L442.371,1456.81L442.4,1456.74L442.428,1456.67L442.455,1456.6L442.48,1456.53L442.503,1456.46L442.524,1456.38L442.544,1456.31L442.562,1456.24L442.578,1456.16L442.592,1456.09L442.605,1456.01L442.615,1455.93L442.624,1455.86L442.631,1455.78L442.636,1455.7L442.639,1455.62L442.64,1455.54L442.64,1440.46L442.639,1440.38L442.636,1440.3L442.631,1440.22L442.624,1440.14L442.615,1440.06L442.605,1439.99L442.592,1439.91L442.578,1439.84L442.562,1439.76L442.544,1439.69L442.524,1439.61L442.502,1439.54L442.479,1439.47L442.454,1439.4L442.428,1439.33L442.4,1439.26L442.37,1439.19L442.338,1439.12L442.305,1439.05L442.271,1438.99L442.235,1438.92L442.197,1438.86L442.158,1438.8L442.118,1438.73L442.076,1438.67L442.033,1438.61L441.988,1438.55L441.942,1438.5L441.895,1438.44L441.846,1438.38L441.796,1438.33L441.745,1438.28L441.693,1438.23L441.639,1438.18L441.584,1438.13L441.529,1438.08L441.471,1438.03L441.413,1437.99L441.354,1437.94L441.294,1437.9L441.232,1437.86L441.17,1437.82L441.107,1437.78L441.043,1437.75L440.977,1437.71L440.911,1437.68L440.844,1437.65L440.776,1437.62L440.708,1437.59L440.638,1437.56L440.568,1437.54L440.497,1437.51L440.425,1437.49L440.352,1437.47L440.279,1437.45L440.205,1437.44L440.13,1437.42L440.055,1437.41L439.979,1437.4L439.903,1437.39L439.826,1437.38L439.749,1437.38L439.671,1437.38L439.592,1437.38L433.301,1437.38L433.266,1437.37L433.231,1437.37L433.197,1437.37L433.163,1437.36L433.13,1437.35L433.098,1437.34L433.066,1437.33L433.035,1437.32L433.005,1437.31L432.976,1437.29L432.947,1437.28L432.92,1437.26L432.893,1437.24L432.868,1437.22L432.843,1437.2L432.819,1437.17L432.797,1437.15L432.776,1437.13L432.755,1437.1L432.737,1437.07L432.719,1437.05L432.703,1437.02L432.688,1436.99L432.674,1436.96L432.662,1436.92L432.651,1436.89L432.642,1436.86L432.635,1436.83L432.629,1436.79L432.625,1436.76L432.622,1436.72L432.621,1436.69L432.622,1436.65L432.625,1436.62L432.629,1436.58L432.635,1436.55L432.642,1436.52L432.651,1436.48L432.662,1436.45L432.674,1436.42L432.688,1436.39L432.703,1436.36L432.719,1436.33L432.737,1436.3L432.755,1436.28L432.776,1436.25L432.797,1436.22L432.819,1436.2L432.843,1436.18L432.868,1436.16L432.893,1436.14L432.92,1436.12L432.947,1436.1L432.976,1436.08L433.005,1436.07L433.035,1436.05L433.066,1436.04L433.098,1436.03L433.13,1436.02L433.163,1436.01L433.197,1436.01L433.231,1436L433.266,1436L433.301,1436L439.592,1436L439.706,1436ZM427.035,1442.94L427.067,1442.95L427.1,1442.95L427.132,1442.96L427.164,1442.96L427.196,1442.97L427.227,1442.98L427.258,1442.99L427.288,1443.01L427.318,1443.02L427.347,1443.04L427.376,1443.06L427.404,1443.08L427.431,1443.1L427.458,1443.12L427.483,1443.15L427.507,1443.17L427.53,1443.2L427.551,1443.23L427.571,1443.25L427.589,1443.28L427.605,1443.31L427.62,1443.34L427.633,1443.37L427.645,1443.4L427.655,1443.44L427.664,1443.47L427.671,1443.5L427.676,1443.53L427.68,1443.57L427.683,1443.6L427.683,1443.63L427.683,1443.66L427.68,1443.7L427.676,1443.73L427.671,1443.76L427.664,1443.8L427.655,1443.83L427.645,1443.86L427.633,1443.89L427.62,1443.92L427.605,1443.95L427.589,1443.98L427.571,1444.01L427.551,1444.04L427.53,1444.07L427.507,1444.09L427.483,1444.12L424.32,1447.32L438.116,1447.32L438.152,1447.32L438.187,1447.32L438.222,1447.33L438.256,1447.33L438.289,1447.34L438.321,1447.35L438.353,1447.36L438.384,1447.37L438.414,1447.39L438.444,1447.4L438.472,1447.42L438.5,1447.44L438.526,1447.46L438.552,1447.48L438.577,1447.5L438.6,1447.52L438.622,1447.55L438.644,1447.57L438.664,1447.6L438.682,1447.62L438.7,1447.65L438.716,1447.68L438.731,1447.71L438.744,1447.74L438.756,1447.77L438.767,1447.8L438.776,1447.83L438.783,1447.87L438.789,1447.9L438.793,1447.93L438.796,1447.97L438.797,1448.01L438.796,1448.04L438.793,1448.08L438.789,1448.11L438.783,1448.14L438.776,1448.18L438.767,1448.21L438.756,1448.24L438.744,1448.27L438.731,1448.3L438.716,1448.33L438.7,1448.36L438.682,1448.39L438.664,1448.41L438.644,1448.44L438.622,1448.46L438.6,1448.49L438.577,1448.51L438.552,1448.53L438.526,1448.55L438.5,1448.57L438.472,1448.59L438.444,1448.61L438.414,1448.62L438.384,1448.64L438.353,1448.65L438.321,1448.66L438.289,1448.67L438.256,1448.68L438.222,1448.68L438.187,1448.69L438.152,1448.69L438.116,1448.69L424.32,1448.69L427.483,1451.89L427.507,1451.92L427.53,1451.94L427.551,1451.97L427.571,1452L427.589,1452.03L427.605,1452.06L427.62,1452.09L427.633,1452.12L427.645,1452.15L427.655,1452.18L427.664,1452.21L427.671,1452.25L427.676,1452.28L427.68,1452.31L427.683,1452.35L427.683,1452.38L427.683,1452.41L427.68,1452.44L427.676,1452.48L427.671,1452.51L427.664,1452.54L427.655,1452.57L427.645,1452.61L427.633,1452.64L427.62,1452.67L427.605,1452.7L427.589,1452.73L427.571,1452.76L427.551,1452.78L427.53,1452.81L427.507,1452.84L427.483,1452.86L427.458,1452.89L427.432,1452.91L427.405,1452.93L427.377,1452.95L427.349,1452.97L427.319,1452.99L427.289,1453L427.259,1453.02L427.228,1453.03L427.197,1453.04L427.165,1453.05L427.133,1453.06L427.101,1453.06L427.069,1453.07L427.037,1453.07L427.005,1453.07L426.972,1453.07L426.94,1453.07L426.908,1453.06L426.876,1453.06L426.844,1453.05L426.812,1453.04L426.781,1453.03L426.75,1453.02L426.72,1453L426.69,1452.99L426.661,1452.97L426.632,1452.95L426.604,1452.93L426.577,1452.91L426.551,1452.89L426.526,1452.86L422.204,1448.49L422.18,1448.47L422.156,1448.44L422.135,1448.41L422.115,1448.38L422.097,1448.35L422.08,1448.32L422.065,1448.29L422.051,1448.26L422.039,1448.23L422.029,1448.2L422.02,1448.17L422.013,1448.13L422.007,1448.1L422.003,1448.07L422.001,1448.03L422,1448L422,1447.97L422.003,1447.93L422.006,1447.9L422.012,1447.87L422.019,1447.84L422.027,1447.81L422.037,1447.77L422.049,1447.74L422.062,1447.71L422.077,1447.68L422.094,1447.65L422.112,1447.62L422.131,1447.6L422.152,1447.57L422.175,1447.54L422.199,1447.52L426.521,1443.15L426.547,1443.12L426.573,1443.1L426.6,1443.08L426.628,1443.06L426.657,1443.04L426.686,1443.02L426.716,1443.01L426.746,1442.99L426.777,1442.98L426.809,1442.97L426.84,1442.96L426.872,1442.96L426.905,1442.95L426.937,1442.95L426.97,1442.94L427.002,1442.94L427.035,1442.94Z" style="fill:white;"/>
        </g>
    </g>
</svg>
