<?xml version="1.0" standalone="no"?>
<!DOCTYPE svg PUBLIC "-//W3C//DTD SVG 1.1//EN" "http://www.w3.org/Graphics/SVG/1.1/DTD/svg11.dtd">
<svg width="100%" height="100%" viewBox="0 0 34 39" version="1.1" xmlns="http://www.w3.org/2000/svg" xmlns:xlink="http://www.w3.org/1999/xlink" xml:space="preserve" style="fill-rule:evenodd;clip-rule:evenodd;stroke-linejoin:round;stroke-miterlimit:1.41421;">
    <g transform="matrix(1,0,0,1,-115,-603)">
        <path id="Forma 1 copy 19" d="M146.704,603C147.97,603.001 149,604.034 149,605.304L149,634.638C149,634.853 148.915,635.059 148.763,635.212L143.23,640.762C143.079,640.914 142.874,641 142.658,641L124.575,641C123.309,641 122.279,639.966 122.279,638.696L122.279,629.825C118.081,628.62 115,624.735 115,620.143C115,615.549 118.081,611.665 122.279,610.46L122.279,605.304C122.279,604.034 123.309,603.001 124.575,603L146.704,603ZM147.382,633.826L147.382,609.376L123.896,609.376L123.896,610.138C124.271,610.096 124.651,610.073 125.037,610.073C128.109,610.073 130.864,611.466 132.706,613.655L137.557,613.655C138.004,613.655 138.366,614.018 138.366,614.466C138.366,614.915 138.004,615.278 137.557,615.278L133.822,615.278C134.505,616.514 134.937,617.909 135.046,619.392L137.558,619.392C138.004,619.392 138.366,619.756 138.366,620.204C138.366,620.652 138.004,621.016 137.558,621.016L135.036,621.016C134.908,622.502 134.457,623.898 133.753,625.13L137.558,625.13C138.004,625.13 138.366,625.494 138.366,625.942C138.366,626.39 138.004,626.753 137.558,626.753L132.601,626.753C130.76,628.871 128.052,630.212 125.037,630.212C124.651,630.212 124.271,630.189 123.897,630.146L123.897,638.696C123.897,639.071 124.201,639.377 124.575,639.377L141.849,639.377L141.849,636.13C141.849,634.86 142.879,633.827 144.146,633.826L147.382,633.826ZM143.467,638.229L143.467,636.13C143.467,635.755 143.772,635.449 144.146,635.449L146.238,635.449L143.467,638.229ZM143.422,630.868C143.869,630.869 144.231,631.231 144.231,631.679C144.231,632.127 143.869,632.49 143.422,632.491L135.855,632.491C135.408,632.491 135.046,632.127 135.046,631.679C135.046,631.231 135.408,630.869 135.855,630.868L143.422,630.868ZM116.618,620.142C116.618,615.485 120.394,611.696 125.037,611.696C129.679,611.696 133.456,615.485 133.456,620.142C133.456,624.8 129.679,628.589 125.037,628.589C120.394,628.589 116.618,624.8 116.618,620.142ZM143.422,625.13C143.869,625.131 144.231,625.494 144.231,625.942C144.231,626.389 143.869,626.752 143.422,626.753L140.736,626.753C140.289,626.753 139.927,626.39 139.927,625.942C139.927,625.494 140.288,625.131 140.736,625.13L143.422,625.13ZM131.317,616.049L130.33,615.059C130.064,614.792 129.711,614.645 129.335,614.645C128.959,614.645 128.606,614.792 128.34,615.059L123.164,620.252L121.734,618.816C121.468,618.55 121.114,618.403 120.739,618.403C120.363,618.403 120.01,618.55 119.744,618.816L118.757,619.806C118.208,620.357 118.208,621.252 118.757,621.802L122.169,625.226C122.435,625.493 122.788,625.639 123.164,625.639L123.164,625.639C123.54,625.639 123.893,625.493 124.159,625.226L131.317,618.045C131.865,617.495 131.865,616.599 131.317,616.049ZM123.164,623.929L120.05,620.804L120.739,620.113L122.592,621.973C122.908,622.29 123.42,622.29 123.736,621.973L129.335,616.356L130.024,617.047L123.164,623.929ZM143.422,619.392C143.869,619.393 144.231,619.756 144.231,620.204C144.231,620.652 143.869,621.015 143.422,621.016L140.736,621.016C140.289,621.016 139.927,620.652 139.927,620.204C139.927,619.756 140.288,619.393 140.736,619.392L143.422,619.392ZM143.422,613.655C143.869,613.656 144.231,614.019 144.231,614.466C144.231,614.914 143.869,615.277 143.422,615.278L140.736,615.278C140.289,615.278 139.927,614.915 139.927,614.466C139.927,614.019 140.288,613.656 140.736,613.655L143.422,613.655ZM147.382,607.753L147.382,605.304C147.382,604.928 147.078,604.623 146.704,604.623L124.575,604.623C124.201,604.623 123.897,604.928 123.897,605.304L123.897,607.753L147.382,607.753Z" style="fill:rgb(201,207,211);"/>
    </g>
</svg>
