<?xml version="1.0" standalone="no"?>
<!DOCTYPE svg PUBLIC "-//W3C//DTD SVG 1.1//EN" "http://www.w3.org/Graphics/SVG/1.1/DTD/svg11.dtd">
<svg width="100%" height="100%" viewBox="0 0 53 51" version="1.1" xmlns="http://www.w3.org/2000/svg" xmlns:xlink="http://www.w3.org/1999/xlink" xml:space="preserve" style="fill-rule:evenodd;clip-rule:evenodd;stroke-linejoin:round;stroke-miterlimit:1.41421;">
    <g transform="matrix(1,0,0,1,-108,-510)">
        <path id="Forma 1 copy 19" d="M122.906,553.448L122.906,536.229C122.906,529.902 128.107,524.754 134.5,524.754C140.893,524.754 146.094,529.902 146.094,536.229L146.094,553.448L146.099,553.448C147.923,553.449 149.406,554.917 149.406,556.721L149.406,559.18C149.406,559.632 149.036,559.999 148.578,560L120.422,560C119.965,560 119.594,559.633 119.594,559.18L119.594,556.721C119.594,554.917 121.077,553.449 122.901,553.448L122.906,553.448ZM144.437,553.448L144.437,536.229C144.437,530.806 139.979,526.393 134.5,526.393C129.02,526.393 124.562,530.806 124.562,536.229L124.562,553.448L139.468,553.448C139.927,553.449 140.297,553.815 140.297,554.267C140.297,554.72 139.927,555.086 139.468,555.087L122.901,555.087C121.99,555.088 121.25,555.821 121.25,556.721L121.25,558.361L147.75,558.361L147.75,556.721C147.75,555.821 147.01,555.088 146.099,555.087L142.781,555.087C142.323,555.086 141.953,554.72 141.953,554.267C141.953,553.815 142.323,553.449 142.781,553.448L144.437,553.448ZM142.781,541.148L142.781,539.508C142.781,539.055 142.41,538.688 141.953,538.688C141.496,538.688 141.125,539.055 141.125,539.508L141.125,541.148C141.125,541.6 141.496,541.967 141.953,541.967C142.41,541.967 142.781,541.6 142.781,541.148ZM141.953,537.049C142.41,537.049 142.781,536.682 142.781,536.229C142.781,533.487 141.405,530.939 139.1,529.412C138.72,529.161 138.205,529.261 137.951,529.638C137.696,530.014 137.798,530.523 138.179,530.775C140.024,531.997 141.125,534.036 141.125,536.229C141.125,536.682 141.496,537.049 141.953,537.049ZM119.594,535.41C120.052,535.411 120.422,535.777 120.422,536.229C120.422,536.682 120.052,537.048 119.594,537.049L113.797,537.049C113.339,537.049 112.969,536.682 112.969,536.229C112.969,535.777 113.339,535.411 113.797,535.41L119.594,535.41ZM110.484,535.41C110.942,535.411 111.312,535.777 111.312,536.229C111.312,536.682 110.942,537.048 110.484,537.049L108.828,537.049C108.371,537.049 108,536.682 108,536.229C108,535.777 108.37,535.411 108.828,535.41L110.484,535.41ZM160.172,535.41C160.63,535.411 161,535.777 161,536.229C161,536.682 160.63,537.048 160.172,537.049L158.515,537.049C158.058,537.049 157.687,536.682 157.687,536.229C157.687,535.777 158.057,535.411 158.515,535.41L160.172,535.41ZM155.203,535.41C155.661,535.411 156.031,535.777 156.031,536.229C156.031,536.682 155.661,537.048 155.203,537.049L149.406,537.049C148.949,537.049 148.578,536.682 148.578,536.229C148.578,535.777 148.948,535.411 149.406,535.41L155.203,535.41ZM121.59,529.672C121.876,529.672 122.154,529.525 122.308,529.262C122.537,528.87 122.401,528.369 122.005,528.142L112.681,522.815C112.285,522.588 111.779,522.723 111.55,523.115C111.322,523.507 111.457,524.008 111.853,524.234L121.177,529.562C121.307,529.637 121.449,529.672 121.59,529.672ZM156.318,522.815L146.995,528.142C146.599,528.369 146.463,528.87 146.692,529.262C146.845,529.525 147.124,529.672 147.41,529.672C147.55,529.672 147.693,529.637 147.823,529.562L157.146,524.234C157.543,524.008 157.678,523.507 157.45,523.115C157.221,522.723 156.714,522.588 156.318,522.815ZM141.539,524.162C141.669,524.236 141.812,524.272 141.952,524.272C142.238,524.272 142.517,524.125 142.67,523.862L148.053,514.634C148.282,514.242 148.146,513.74 147.75,513.514C147.354,513.287 146.847,513.422 146.619,513.814L141.236,523.042C141.007,523.434 141.143,523.935 141.539,524.162ZM126.33,523.862C126.483,524.125 126.761,524.272 127.048,524.272C127.188,524.272 127.33,524.236 127.461,524.162C127.857,523.935 127.993,523.434 127.764,523.042L122.381,513.814C122.152,513.422 121.646,513.288 121.25,513.514C120.854,513.74 120.718,514.242 120.947,514.634L126.33,523.862ZM134.5,522.295C134.957,522.295 135.328,521.928 135.328,521.475L135.328,515.738C135.328,515.285 134.957,514.918 134.5,514.918C134.043,514.918 133.672,515.285 133.672,515.738L133.672,521.475C133.672,521.928 134.043,522.295 134.5,522.295ZM134.5,513.279C134.957,513.279 135.328,512.912 135.328,512.459L135.328,510.819C135.328,510.367 134.957,510 134.5,510C134.043,510 133.672,510.367 133.672,510.819L133.672,512.459C133.672,512.912 134.043,513.279 134.5,513.279Z" style="fill:rgb(201,207,211);"/>
    </g>
</svg>
