<?xml version="1.0" standalone="no"?>
<!DOCTYPE svg PUBLIC "-//W3C//DTD SVG 1.1//EN" "http://www.w3.org/Graphics/SVG/1.1/DTD/svg11.dtd">
<svg width="100%" height="100%" viewBox="0 0 28 29" version="1.1" xmlns="http://www.w3.org/2000/svg" xmlns:xlink="http://www.w3.org/1999/xlink" xml:space="preserve" style="fill-rule:evenodd;clip-rule:evenodd;stroke-linejoin:round;stroke-miterlimit:1.41421;">
    <g transform="matrix(1,0,0,1,-1234,-318)">
        <g id="Forma 1 copy 54">
            <path d="M1239.06,347C1238.38,347 1237.83,346.445 1237.83,345.761L1237.83,342.803C1235.59,342.167 1234,340.094 1234,337.708L1234,329.419C1234,326.497 1236.35,324.119 1239.25,324.119L1251.34,324.119C1254.23,324.119 1256.58,326.497 1256.58,329.419L1256.58,337.708C1256.58,340.63 1254.23,343.008 1251.34,343.008L1243.85,343.008L1239.88,346.675C1239.66,346.884 1239.37,347 1239.06,347Z" style="fill:rgb(96,199,146);fill-rule:nonzero;"/>
            <path d="M1251.4,324.119L1251.47,324.121L1251.54,324.123L1251.61,324.126L1251.67,324.13L1251.74,324.134L1251.81,324.14L1251.87,324.146L1251.94,324.153L1252,324.161L1252.07,324.17L1252.13,324.18L1252.2,324.19L1252.26,324.202L1252.33,324.214L1252.39,324.227L1252.46,324.24L1252.52,324.255L1252.58,324.27L1252.65,324.286L1252.71,324.303L1252.77,324.32L1252.83,324.338L1252.89,324.358L1252.96,324.377L1253.02,324.398L1253.08,324.419L1253.14,324.441L1253.2,324.464L1253.26,324.487L1253.32,324.511L1253.38,324.536L1253.43,324.562L1253.49,324.588L1253.55,324.615L1253.61,324.642L1253.67,324.671L1253.72,324.7L1253.78,324.729L1253.84,324.759L1253.89,324.79L1253.95,324.822L1254,324.854L1254.06,324.887L1254.11,324.921L1254.16,324.955L1254.21,324.99L1254.27,325.025L1254.32,325.061L1254.37,325.098L1254.42,325.135L1254.47,325.173L1254.52,325.212L1254.57,325.251L1254.62,325.29L1254.67,325.331L1254.72,325.372L1254.77,325.413L1254.82,325.455L1254.86,325.497L1254.91,325.54L1254.95,325.584L1255,325.628L1255.04,325.673L1255.09,325.718L1255.13,325.764L1255.18,325.81L1255.22,325.857L1255.26,325.905L1255.3,325.952L1255.34,326.001L1255.38,326.05L1255.42,326.099L1255.46,326.149L1255.5,326.199L1255.54,326.25L1255.58,326.301L1255.61,326.353L1255.65,326.405L1255.68,326.458L1255.72,326.511L1255.76,326.564L1255.79,326.618L1255.82,326.673L1255.86,326.728L1255.89,326.783L1255.92,326.839L1255.95,326.895L1255.98,326.951L1256.01,327.008L1256.04,327.066L1256.06,327.123L1256.09,327.182L1256.12,327.24L1256.14,327.299L1256.17,327.358L1256.19,327.418L1256.22,327.478L1256.24,327.538L1256.26,327.599L1256.29,327.66L1256.31,327.721L1256.33,327.783L1256.35,327.845L1256.37,327.907L1256.38,327.97L1256.4,328.033L1256.42,328.096L1256.43,328.16L1256.45,328.224L1256.46,328.288L1256.48,328.353L1256.49,328.417L1256.5,328.482L1256.51,328.548L1256.52,328.613L1256.53,328.679L1256.54,328.745L1256.55,328.812L1256.56,328.878L1256.56,328.945L1256.57,329.012L1256.57,329.08L1256.58,329.147L1256.58,329.215L1256.58,329.283L1256.58,329.351L1256.58,329.419L1256.58,337.708L1256.58,337.776L1256.58,337.844L1256.58,337.912L1256.58,337.98L1256.57,338.047L1256.57,338.115L1256.56,338.182L1256.56,338.249L1256.55,338.315L1256.54,338.382L1256.53,338.448L1256.52,338.514L1256.51,338.579L1256.5,338.645L1256.49,338.71L1256.48,338.775L1256.46,338.839L1256.45,338.903L1256.43,338.967L1256.42,339.031L1256.4,339.094L1256.38,339.157L1256.37,339.22L1256.35,339.282L1256.33,339.344L1256.31,339.406L1256.29,339.467L1256.26,339.528L1256.24,339.589L1256.22,339.649L1256.19,339.709L1256.17,339.769L1256.14,339.828L1256.12,339.887L1256.09,339.946L1256.06,340.004L1256.04,340.061L1256.01,340.119L1255.98,340.176L1255.95,340.232L1255.92,340.288L1255.89,340.344L1255.85,340.399L1255.82,340.454L1255.79,340.509L1255.76,340.563L1255.72,340.616L1255.68,340.669L1255.65,340.722L1255.61,340.774L1255.58,340.826L1255.54,340.877L1255.5,340.928L1255.46,340.978L1255.42,341.028L1255.38,341.077L1255.34,341.126L1255.3,341.175L1255.26,341.222L1255.22,341.27L1255.17,341.317L1255.13,341.363L1255.09,341.409L1255.04,341.454L1255,341.499L1254.95,341.543L1254.91,341.587L1254.86,341.63L1254.82,341.672L1254.77,341.714L1254.72,341.756L1254.67,341.796L1254.62,341.837L1254.57,341.876L1254.52,341.915L1254.47,341.954L1254.42,341.992L1254.37,342.029L1254.32,342.066L1254.27,342.102L1254.21,342.137L1254.16,342.172L1254.11,342.206L1254.05,342.24L1254,342.273L1253.94,342.305L1253.89,342.337L1253.84,342.368L1253.78,342.398L1253.72,342.427L1253.67,342.456L1253.61,342.485L1253.55,342.512L1253.49,342.539L1253.43,342.565L1253.38,342.591L1253.32,342.616L1253.26,342.64L1253.2,342.663L1253.14,342.686L1253.08,342.708L1253.02,342.729L1252.96,342.75L1252.89,342.77L1252.83,342.789L1252.77,342.807L1252.71,342.824L1252.65,342.841L1252.58,342.857L1252.52,342.872L1252.46,342.887L1252.39,342.9L1252.33,342.913L1252.26,342.925L1252.2,342.937L1252.13,342.947L1252.07,342.957L1252,342.966L1251.94,342.974L1251.87,342.981L1251.81,342.987L1251.74,342.993L1251.67,342.997L1251.61,343.001L1251.54,343.004L1251.47,343.006L1251.4,343.008L1251.34,343.008L1243.85,343.008L1239.88,346.675L1239.84,346.713L1239.8,346.749L1239.75,346.783L1239.7,346.814L1239.65,346.843L1239.61,346.87L1239.55,346.894L1239.5,346.916L1239.45,346.935L1239.4,346.952L1239.34,346.967L1239.29,346.979L1239.23,346.988L1239.18,346.994L1239.12,346.999L1239.06,347L1239.03,346.999L1239,346.998L1238.97,346.996L1238.94,346.993L1238.91,346.99L1238.88,346.986L1238.85,346.98L1238.82,346.975L1238.79,346.968L1238.76,346.961L1238.73,346.953L1238.7,346.944L1238.67,346.935L1238.64,346.925L1238.59,346.902L1238.53,346.878L1238.48,346.85L1238.43,346.82L1238.38,346.788L1238.33,346.754L1238.28,346.717L1238.24,346.678L1238.19,346.637L1238.15,346.594L1238.11,346.549L1238.08,346.502L1238.04,346.453L1238.01,346.403L1237.98,346.351L1237.95,346.298L1237.93,346.243L1237.91,346.187L1237.89,346.129L1237.88,346.1L1237.87,346.071L1237.86,346.041L1237.86,346.011L1237.85,345.98L1237.85,345.95L1237.84,345.919L1237.84,345.888L1237.84,345.856L1237.83,345.825L1237.83,345.793L1237.83,345.761L1237.83,342.803L1237.73,342.772L1237.62,342.739L1237.52,342.704L1237.42,342.667L1237.32,342.628L1237.22,342.587L1237.12,342.544L1237.02,342.5L1236.93,342.453L1236.83,342.404L1236.74,342.354L1236.64,342.301L1236.55,342.247L1236.46,342.191L1236.37,342.134L1236.29,342.074L1236.2,342.013L1236.11,341.951L1236.03,341.886L1235.95,341.82L1235.87,341.753L1235.79,341.684L1235.71,341.613L1235.63,341.541L1235.56,341.467L1235.48,341.392L1235.41,341.315L1235.34,341.238L1235.27,341.158L1235.2,341.077L1235.14,340.995L1235.07,340.912L1235.01,340.827L1234.95,340.741L1234.89,340.654L1234.83,340.566L1234.78,340.477L1234.72,340.386L1234.67,340.294L1234.62,340.201L1234.57,340.107L1234.53,340.012L1234.48,339.916L1234.44,339.819L1234.39,339.721L1234.36,339.622L1234.32,339.522L1234.28,339.421L1234.25,339.32L1234.22,339.217L1234.19,339.114L1234.16,339.01L1234.14,338.905L1234.11,338.799L1234.09,338.693L1234.07,338.586L1234.06,338.478L1234.04,338.37L1234.03,338.261L1234.02,338.151L1234.01,338.041L1234.01,337.931L1234,337.819L1234,337.708L1234,329.419L1234,329.351L1234,329.283L1234,329.215L1234.01,329.147L1234.01,329.08L1234.02,329.012L1234.02,328.945L1234.03,328.878L1234.04,328.812L1234.04,328.745L1234.05,328.679L1234.06,328.613L1234.07,328.548L1234.08,328.482L1234.09,328.417L1234.11,328.353L1234.12,328.288L1234.13,328.224L1234.15,328.16L1234.17,328.096L1234.18,328.033L1234.2,327.97L1234.22,327.907L1234.24,327.845L1234.26,327.783L1234.28,327.721L1234.3,327.66L1234.32,327.599L1234.34,327.538L1234.37,327.478L1234.39,327.418L1234.41,327.358L1234.44,327.299L1234.46,327.24L1234.49,327.182L1234.52,327.123L1234.55,327.066L1234.58,327.008L1234.6,326.951L1234.63,326.895L1234.66,326.839L1234.7,326.783L1234.73,326.728L1234.76,326.673L1234.79,326.618L1234.83,326.564L1234.86,326.511L1234.9,326.458L1234.93,326.405L1234.97,326.353L1235.01,326.301L1235.04,326.25L1235.08,326.199L1235.12,326.149L1235.16,326.099L1235.2,326.05L1235.24,326.001L1235.28,325.952L1235.32,325.905L1235.37,325.857L1235.41,325.81L1235.45,325.764L1235.49,325.718L1235.54,325.673L1235.58,325.628L1235.63,325.584L1235.67,325.54L1235.72,325.497L1235.77,325.455L1235.82,325.413L1235.86,325.372L1235.91,325.331L1235.96,325.29L1236.01,325.251L1236.06,325.212L1236.11,325.173L1236.16,325.135L1236.21,325.098L1236.26,325.061L1236.32,325.025L1236.37,324.99L1236.42,324.955L1236.48,324.921L1236.53,324.887L1236.58,324.854L1236.64,324.822L1236.69,324.79L1236.75,324.759L1236.8,324.729L1236.86,324.7L1236.92,324.671L1236.97,324.642L1237.03,324.615L1237.09,324.588L1237.15,324.562L1237.21,324.536L1237.27,324.511L1237.33,324.487L1237.38,324.464L1237.44,324.441L1237.51,324.419L1237.57,324.398L1237.63,324.377L1237.69,324.358L1237.75,324.338L1237.81,324.32L1237.87,324.303L1237.94,324.286L1238,324.27L1238.06,324.255L1238.13,324.24L1238.19,324.227L1238.26,324.214L1238.32,324.202L1238.38,324.19L1238.45,324.18L1238.51,324.17L1238.58,324.161L1238.64,324.153L1238.71,324.146L1238.78,324.14L1238.84,324.134L1238.91,324.13L1238.98,324.126L1239.04,324.123L1239.11,324.121L1239.18,324.119L1239.25,324.119L1251.34,324.119L1251.4,324.119ZM1239.26,327.119L1239.22,327.119L1239.19,327.12L1239.16,327.121L1239.13,327.122L1239.1,327.123L1239.07,327.125L1239.05,327.128L1239.02,327.131L1238.99,327.133L1238.96,327.137L1238.93,327.141L1238.91,327.145L1238.88,327.149L1238.85,327.154L1238.83,327.159L1238.8,327.164L1238.77,327.17L1238.75,327.176L1238.72,327.182L1238.69,327.189L1238.67,327.196L1238.64,327.204L1238.62,327.211L1238.59,327.219L1238.56,327.227L1238.54,327.236L1238.51,327.245L1238.49,327.254L1238.46,327.264L1238.44,327.274L1238.41,327.284L1238.39,327.294L1238.36,327.305L1238.34,327.316L1238.31,327.327L1238.29,327.339L1238.27,327.351L1238.24,327.363L1238.22,327.376L1238.19,327.389L1238.17,327.402L1238.15,327.415L1238.12,327.429L1238.1,327.444L1238.08,327.457L1238.05,327.472L1238.03,327.488L1238.01,327.503L1237.99,327.517L1237.96,327.533L1237.94,327.55L1237.92,327.567L1237.9,327.583L1237.88,327.599L1237.85,327.617L1237.83,327.635L1237.81,327.652L1237.79,327.67L1237.77,327.687L1237.75,327.708L1237.73,327.726L1237.71,327.744L1237.69,327.764L1237.67,327.784L1237.65,327.804L1237.63,327.824L1237.61,327.843L1237.6,327.863L1237.58,327.885L1237.56,327.906L1237.54,327.926L1237.52,327.948L1237.51,327.969L1237.49,327.994L1237.47,328.014L1237.46,328.034L1237.44,328.057L1237.42,328.081L1237.41,328.105L1237.39,328.126L1237.38,328.149L1237.36,328.174L1237.35,328.197L1237.33,328.22L1237.32,328.244L1237.3,328.268L1237.29,328.295L1237.28,328.317L1237.26,328.342L1237.25,328.367L1237.24,328.391L1237.23,328.416L1237.21,328.44L1237.2,328.467L1237.19,328.495L1237.18,328.517L1237.17,328.542L1237.16,328.57L1237.15,328.596L1237.14,328.623L1237.13,328.649L1237.12,328.676L1237.11,328.704L1237.1,328.731L1237.1,328.756L1237.09,328.782L1237.08,328.81L1237.07,328.839L1237.07,328.866L1237.06,328.893L1237.05,328.923L1237.05,328.951L1237.04,328.976L1237.04,329.004L1237.03,329.036L1237.03,329.065L1237.02,329.091L1237.02,329.121L1237.02,329.151L1237.01,329.179L1237.01,329.207L1237.01,329.238L1237.01,329.27L1237,329.296L1237,329.325L1237,329.359L1237,329.389L1237,329.429L1237,337.692L1237,337.758L1237,337.807L1237.01,337.855L1237.01,337.904L1237.01,337.95L1237.02,337.997L1237.03,338.046L1237.03,338.093L1237.04,338.139L1237.05,338.185L1237.06,338.232L1237.07,338.275L1237.08,338.322L1237.1,338.368L1237.11,338.411L1237.12,338.454L1237.14,338.497L1237.15,338.541L1237.17,338.586L1237.19,338.628L1237.21,338.669L1237.23,338.711L1237.25,338.752L1237.27,338.794L1237.29,338.835L1237.31,338.873L1237.34,338.912L1237.36,338.953L1237.39,338.992L1237.41,339.028L1237.44,339.066L1237.47,339.104L1237.5,339.139L1237.52,339.174L1237.55,339.211L1237.58,339.245L1237.61,339.278L1237.64,339.311L1237.68,339.345L1237.71,339.376L1237.74,339.408L1237.78,339.438L1237.81,339.467L1237.85,339.497L1237.88,339.526L1237.92,339.553L1237.95,339.58L1237.99,339.606L1238.03,339.632L1238.07,339.656L1238.11,339.68L1238.14,339.703L1238.18,339.725L1238.22,339.747L1238.26,339.767L1238.31,339.787L1238.35,339.806L1238.39,339.824L1238.43,339.842L1238.47,339.859L1238.52,339.874L1238.56,339.889L1238.61,339.903L1240.83,340.559L1240.83,341.713L1242.68,340.008L1251.33,340.008L1251.37,340.008L1251.39,340.007L1251.42,340.006L1251.45,340.005L1251.48,340.004L1251.51,340.002L1251.54,339.999L1251.56,339.997L1251.59,339.993L1251.62,339.99L1251.65,339.986L1251.67,339.982L1251.7,339.978L1251.73,339.973L1251.76,339.968L1251.78,339.963L1251.81,339.957L1251.84,339.951L1251.86,339.944L1251.89,339.938L1251.91,339.931L1251.94,339.924L1251.97,339.916L1251.99,339.908L1252.02,339.9L1252.05,339.891L1252.07,339.882L1252.1,339.873L1252.12,339.863L1252.15,339.854L1252.17,339.843L1252.2,339.833L1252.22,339.823L1252.24,339.811L1252.27,339.8L1252.29,339.788L1252.32,339.775L1252.34,339.764L1252.37,339.752L1252.39,339.739L1252.41,339.725L1252.44,339.712L1252.46,339.698L1252.48,339.683L1252.51,339.669L1252.53,339.655L1252.55,339.64L1252.58,339.624L1252.6,339.609L1252.62,339.593L1252.64,339.578L1252.66,339.561L1252.68,339.544L1252.71,339.528L1252.73,339.509L1252.75,339.492L1252.77,339.475L1252.79,339.457L1252.81,339.438L1252.83,339.42L1252.85,339.403L1252.87,339.383L1252.89,339.362L1252.91,339.343L1252.93,339.324L1252.95,339.303L1252.97,339.284L1252.99,339.262L1253.01,339.242L1253.02,339.221L1253.04,339.201L1253.06,339.179L1253.08,339.158L1253.09,339.136L1253.11,339.113L1253.13,339.091L1253.14,339.068L1253.16,339.046L1253.18,339.025L1253.19,339L1253.21,338.976L1253.22,338.956L1253.24,338.93L1253.25,338.907L1253.27,338.883L1253.28,338.857L1253.29,338.835L1253.31,338.81L1253.32,338.785L1253.33,338.762L1253.35,338.736L1253.36,338.71L1253.37,338.684L1253.38,338.66L1253.39,338.635L1253.4,338.608L1253.41,338.582L1253.42,338.557L1253.43,338.531L1253.44,338.504L1253.45,338.478L1253.46,338.451L1253.47,338.424L1253.48,338.399L1253.49,338.371L1253.5,338.342L1253.5,338.317L1253.51,338.29L1253.52,338.261L1253.52,338.231L1253.53,338.207L1253.54,338.179L1253.54,338.148L1253.55,338.12L1253.55,338.094L1253.56,338.065L1253.56,338.033L1253.56,338.006L1253.57,337.979L1253.57,337.948L1253.57,337.917L1253.58,337.889L1253.58,337.86L1253.58,337.828L1253.58,337.798L1253.58,337.769L1253.58,337.738L1253.58,337.698L1253.58,329.429L1253.58,329.389L1253.58,329.359L1253.58,329.329L1253.58,329.299L1253.58,329.267L1253.58,329.238L1253.57,329.21L1253.57,329.179L1253.57,329.148L1253.56,329.121L1253.56,329.091L1253.56,329.062L1253.55,329.036L1253.55,329.007L1253.54,328.979L1253.54,328.948L1253.53,328.92L1253.52,328.893L1253.52,328.866L1253.51,328.839L1253.5,328.81L1253.5,328.782L1253.49,328.756L1253.48,328.728L1253.47,328.701L1253.46,328.676L1253.45,328.649L1253.44,328.623L1253.43,328.596L1253.42,328.57L1253.41,328.545L1253.4,328.52L1253.39,328.492L1253.38,328.465L1253.37,328.44L1253.36,328.416L1253.35,328.393L1253.33,328.367L1253.32,328.339L1253.31,328.317L1253.29,328.292L1253.28,328.268L1253.27,328.246L1253.25,328.22L1253.24,328.195L1253.22,328.171L1253.21,328.151L1253.19,328.126L1253.18,328.102L1253.16,328.081L1253.14,328.057L1253.13,328.036L1253.11,328.014L1253.1,327.991L1253.08,327.969L1253.06,327.948L1253.04,327.926L1253.03,327.906L1253.01,327.885L1252.99,327.863L1252.97,327.843L1252.95,327.824L1252.93,327.802L1252.91,327.784L1252.89,327.766L1252.87,327.744L1252.85,327.724L1252.83,327.708L1252.81,327.689L1252.79,327.67L1252.77,327.652L1252.75,327.633L1252.73,327.616L1252.71,327.601L1252.69,327.583L1252.66,327.566L1252.64,327.55L1252.62,327.533L1252.6,327.518L1252.58,327.503L1252.55,327.487L1252.53,327.473L1252.51,327.457L1252.48,327.443L1252.46,327.43L1252.44,327.415L1252.41,327.402L1252.39,327.389L1252.37,327.375L1252.34,327.363L1252.32,327.351L1252.29,327.339L1252.27,327.327L1252.25,327.316L1252.22,327.305L1252.2,327.294L1252.17,327.284L1252.15,327.273L1252.12,327.263L1252.1,327.254L1252.07,327.245L1252.05,327.236L1252.02,327.227L1251.99,327.219L1251.97,327.211L1251.94,327.204L1251.92,327.196L1251.89,327.189L1251.86,327.183L1251.84,327.176L1251.81,327.17L1251.78,327.164L1251.76,327.159L1251.73,327.154L1251.7,327.149L1251.68,327.145L1251.65,327.141L1251.62,327.137L1251.59,327.133L1251.57,327.131L1251.54,327.128L1251.51,327.125L1251.48,327.123L1251.45,327.122L1251.42,327.121L1251.39,327.12L1251.37,327.119L1251.33,327.119L1239.26,327.119Z" style="fill:rgb(96,199,146);"/>
        </g>
        <g id="Forma 1 copy 541">
            <path d="M1256.75,318L1244.66,318C1241.88,318 1239.62,320.211 1239.45,322.984C1239.69,322.95 1239.93,322.909 1240.18,322.909L1245,323C1245,323 1249.96,322.978 1253.75,323C1259.17,323.031 1258.69,328.656 1258.49,336.814C1261.03,336.451 1262,334.259 1262,331.589L1262,323.301C1262,320.378 1259.65,318 1256.75,318Z" style="fill:white;fill-rule:nonzero;"/>
            <path d="M1256.82,318L1256.89,318.002L1256.96,318.004L1257.02,318.007L1257.09,318.011L1257.16,318.015L1257.22,318.021L1257.29,318.027L1257.36,318.035L1257.42,318.043L1257.49,318.051L1257.55,318.061L1257.62,318.072L1257.68,318.083L1257.75,318.095L1257.81,318.108L1257.87,318.121L1257.94,318.136L1258,318.151L1258.06,318.167L1258.13,318.184L1258.19,318.201L1258.25,318.22L1258.31,318.239L1258.37,318.258L1258.43,318.279L1258.5,318.3L1258.56,318.322L1258.62,318.345L1258.68,318.368L1258.74,318.392L1258.79,318.417L1258.85,318.443L1258.91,318.469L1258.97,318.496L1259.03,318.523L1259.08,318.552L1259.14,318.581L1259.2,318.61L1259.25,318.641L1259.31,318.672L1259.36,318.703L1259.42,318.735L1259.47,318.768L1259.53,318.802L1259.58,318.836L1259.63,318.871L1259.68,318.906L1259.74,318.942L1259.79,318.979L1259.84,319.016L1259.89,319.054L1259.94,319.093L1259.99,319.132L1260.04,319.172L1260.09,319.212L1260.14,319.253L1260.18,319.294L1260.23,319.336L1260.28,319.379L1260.33,319.422L1260.37,319.465L1260.42,319.509L1260.46,319.554L1260.51,319.599L1260.55,319.645L1260.59,319.692L1260.64,319.738L1260.68,319.786L1260.72,319.834L1260.76,319.882L1260.8,319.931L1260.84,319.98L1260.88,320.03L1260.92,320.08L1260.96,320.131L1260.99,320.182L1261.03,320.234L1261.07,320.286L1261.1,320.339L1261.14,320.392L1261.17,320.446L1261.21,320.5L1261.24,320.554L1261.27,320.609L1261.3,320.664L1261.34,320.72L1261.37,320.776L1261.4,320.833L1261.42,320.889L1261.45,320.947L1261.48,321.005L1261.51,321.063L1261.54,321.121L1261.56,321.18L1261.59,321.239L1261.61,321.299L1261.64,321.359L1261.66,321.419L1261.68,321.48L1261.7,321.541L1261.72,321.602L1261.74,321.664L1261.76,321.726L1261.78,321.788L1261.8,321.851L1261.82,321.914L1261.84,321.977L1261.85,322.041L1261.87,322.105L1261.88,322.169L1261.89,322.234L1261.91,322.298L1261.92,322.363L1261.93,322.429L1261.94,322.494L1261.95,322.56L1261.96,322.626L1261.97,322.693L1261.97,322.759L1261.98,322.826L1261.98,322.893L1261.99,322.961L1261.99,323.028L1262,323.096L1262,323.164L1262,323.232L1262,323.301L1262,331.589L1262,331.713L1262,331.838L1261.99,331.961L1261.99,332.083L1261.98,332.205L1261.97,332.326L1261.96,332.446L1261.95,332.565L1261.94,332.683L1261.93,332.8L1261.91,332.916L1261.89,333.031L1261.88,333.145L1261.85,333.258L1261.83,333.37L1261.81,333.48L1261.78,333.59L1261.76,333.698L1261.73,333.805L1261.7,333.911L1261.66,334.015L1261.63,334.118L1261.6,334.219L1261.56,334.32L1261.52,334.418L1261.48,334.516L1261.44,334.611L1261.39,334.706L1261.35,334.798L1261.3,334.889L1261.25,334.979L1261.2,335.066L1261.14,335.152L1261.09,335.237L1261.03,335.319L1260.97,335.4L1260.91,335.479L1260.85,335.556L1260.78,335.632L1260.72,335.705L1260.65,335.777L1260.58,335.846L1260.5,335.914L1260.43,335.979L1260.35,336.042L1260.27,336.104L1260.19,336.163L1260.11,336.22L1260.02,336.275L1259.98,336.301L1259.94,336.327L1259.89,336.353L1259.85,336.378L1259.8,336.402L1259.76,336.426L1259.71,336.449L1259.66,336.472L1259.61,336.494L1259.57,336.515L1259.52,336.536L1259.47,336.556L1259.42,336.576L1259.37,336.595L1259.32,336.613L1259.27,336.631L1259.21,336.648L1259.16,336.665L1259.11,336.681L1259.05,336.696L1259,336.711L1258.94,336.725L1258.89,336.739L1258.83,336.751L1258.78,336.763L1258.72,336.775L1258.66,336.786L1258.6,336.796L1258.49,336.814L1258.51,336.057L1258.53,335.315L1258.55,334.589L1258.57,333.88L1258.57,333.531L1258.58,333.187L1258.59,332.848L1258.59,332.513L1258.6,332.182L1258.6,331.856L1258.6,331.535L1258.6,331.218L1258.59,330.907L1258.59,330.6L1258.58,330.298L1258.57,330.001L1258.56,329.71L1258.55,329.423L1258.54,329.282L1258.53,329.142L1258.52,329.003L1258.51,328.866L1258.5,328.73L1258.49,328.596L1258.47,328.463L1258.46,328.331L1258.45,328.2L1258.43,328.071L1258.41,327.944L1258.4,327.817L1258.38,327.693L1258.36,327.569L1258.34,327.447L1258.32,327.327L1258.3,327.208L1258.28,327.09L1258.26,326.974L1258.23,326.859L1258.2,326.746L1258.18,326.635L1258.15,326.524L1258.12,326.416L1258.09,326.309L1258.06,326.203L1258.03,326.099L1258,325.997L1257.96,325.896L1257.93,325.796L1257.89,325.698L1257.85,325.602L1257.81,325.508L1257.77,325.415L1257.73,325.323L1257.69,325.233L1257.64,325.145L1257.6,325.059L1257.55,324.974L1257.5,324.891L1257.45,324.809L1257.4,324.729L1257.35,324.651L1257.29,324.575L1257.24,324.5L1257.18,324.427L1257.12,324.355L1257.06,324.286L1257,324.218L1256.94,324.151L1256.87,324.087L1256.81,324.024L1256.74,323.963L1256.67,323.904L1256.6,323.847L1256.53,323.791L1256.45,323.738L1256.38,323.686L1256.3,323.636L1256.22,323.587L1256.14,323.541L1256.06,323.496L1255.97,323.453L1255.88,323.413L1255.8,323.374L1255.7,323.336L1255.61,323.301L1255.52,323.268L1255.42,323.236L1255.33,323.207L1255.23,323.179L1255.12,323.154L1255.02,323.13L1254.92,323.108L1254.81,323.088L1254.7,323.071L1254.59,323.055L1254.48,323.041L1254.36,323.029L1254.24,323.019L1254.12,323.011L1254,323.006L1253.88,323.002L1253.75,323L1253.03,322.996L1252.29,322.994L1251.53,322.992L1250.78,322.991L1249.32,322.99L1247.95,322.992L1246.77,322.994L1245.83,322.997L1245,323L1240.18,322.909L1240.13,322.91L1240.09,322.911L1240.04,322.913L1240,322.916L1239.9,322.924L1239.81,322.934L1239.72,322.946L1239.63,322.958L1239.45,322.984L1239.45,322.919L1239.46,322.855L1239.46,322.79L1239.47,322.726L1239.48,322.662L1239.49,322.598L1239.49,322.535L1239.5,322.471L1239.51,322.408L1239.53,322.345L1239.54,322.283L1239.55,322.221L1239.56,322.159L1239.58,322.097L1239.61,321.974L1239.64,321.852L1239.67,321.732L1239.71,321.613L1239.75,321.495L1239.8,321.378L1239.84,321.262L1239.89,321.148L1239.94,321.036L1240,320.924L1240.05,320.814L1240.11,320.706L1240.17,320.599L1240.23,320.494L1240.3,320.391L1240.37,320.289L1240.44,320.189L1240.51,320.09L1240.58,319.993L1240.66,319.898L1240.74,319.805L1240.82,319.714L1240.9,319.625L1240.99,319.537L1241.07,319.452L1241.16,319.369L1241.25,319.288L1241.35,319.209L1241.44,319.132L1241.54,319.057L1241.63,318.984L1241.73,318.914L1241.83,318.846L1241.94,318.78L1242.04,318.717L1242.15,318.656L1242.25,318.597L1242.36,318.541L1242.47,318.488L1242.58,318.437L1242.7,318.389L1242.81,318.343L1242.93,318.3L1243.04,318.26L1243.1,318.241L1243.16,318.222L1243.22,318.205L1243.28,318.188L1243.34,318.171L1243.4,318.156L1243.46,318.141L1243.52,318.127L1243.59,318.113L1243.65,318.1L1243.71,318.088L1243.77,318.077L1243.83,318.067L1243.89,318.057L1243.96,318.048L1244.02,318.04L1244.08,318.032L1244.15,318.025L1244.21,318.02L1244.28,318.014L1244.34,318.01L1244.4,318.006L1244.47,318.004L1244.53,318.002L1244.6,318L1244.66,318L1256.75,318L1256.82,318Z" style="fill:rgb(96,199,146);"/>
        </g>
        <g id="Forma 1 copy 542">
            <path d="M1251.69,337.883L1238.7,337.883C1238.3,337.883 1237.97,337.553 1237.97,337.151C1237.97,336.749 1238.3,336.419 1238.7,336.419L1251.69,336.419C1252.09,336.419 1252.42,336.749 1252.42,337.151C1252.42,337.553 1252.09,337.883 1251.69,337.883ZM1251.69,334.612L1238.7,334.612C1238.3,334.612 1237.97,334.283 1237.97,333.88C1237.97,333.478 1238.3,333.148 1238.7,333.148L1251.69,333.148C1252.09,333.148 1252.42,333.478 1252.42,333.88C1252.42,334.283 1252.09,334.612 1251.69,334.612ZM1251.69,331.022L1238.7,331.022C1238.3,331.022 1237.97,330.692 1237.97,330.29C1237.97,329.888 1238.3,329.558 1238.7,329.558L1251.69,329.558C1252.09,329.558 1252.42,329.888 1252.42,330.29C1252.42,330.693 1252.09,331.021 1251.69,331.022Z" style="fill:white;"/>
            <path d="M1251.73,336.42L1251.77,336.423L1251.8,336.427L1251.84,336.434L1251.87,336.442L1251.91,336.452L1251.94,336.464L1251.98,336.477L1252.01,336.492L1252.04,336.508L1252.07,336.525L1252.1,336.545L1252.13,336.565L1252.15,336.587L1252.18,336.61L1252.21,336.634L1252.23,336.66L1252.25,336.686L1252.27,336.714L1252.29,336.743L1252.31,336.772L1252.33,336.803L1252.35,336.835L1252.36,336.867L1252.38,336.9L1252.39,336.934L1252.4,336.969L1252.4,337.004L1252.41,337.04L1252.41,337.077L1252.42,337.114L1252.42,337.151L1252.42,337.189L1252.41,337.226L1252.41,337.262L1252.4,337.298L1252.4,337.333L1252.39,337.368L1252.38,337.402L1252.36,337.435L1252.35,337.467L1252.33,337.499L1252.31,337.53L1252.3,337.559L1252.28,337.588L1252.25,337.616L1252.23,337.642L1252.21,337.668L1252.18,337.692L1252.15,337.715L1252.13,337.737L1252.1,337.757L1252.07,337.776L1252.04,337.794L1252.01,337.81L1251.98,337.825L1251.94,337.838L1251.91,337.85L1251.88,337.86L1251.84,337.868L1251.81,337.875L1251.77,337.879L1251.73,337.882L1251.69,337.883L1238.7,337.883L1238.66,337.882L1238.62,337.879L1238.59,337.875L1238.55,337.868L1238.52,337.86L1238.48,337.85L1238.45,337.839L1238.42,337.825L1238.38,337.811L1238.35,337.795L1238.32,337.777L1238.29,337.758L1238.27,337.737L1238.24,337.715L1238.21,337.692L1238.19,337.668L1238.16,337.643L1238.14,337.616L1238.12,337.588L1238.1,337.56L1238.08,337.53L1238.06,337.499L1238.05,337.468L1238.03,337.435L1238.02,337.402L1238.01,337.368L1238,337.333L1237.99,337.298L1237.98,337.262L1237.98,337.226L1237.97,337.189L1237.97,337.151L1237.97,337.114L1237.98,337.077L1237.98,337.04L1237.99,337.004L1238,336.969L1238.01,336.934L1238.02,336.9L1238.03,336.867L1238.05,336.835L1238.06,336.803L1238.08,336.772L1238.1,336.743L1238.12,336.714L1238.14,336.686L1238.16,336.66L1238.19,336.634L1238.21,336.61L1238.24,336.587L1238.27,336.565L1238.29,336.545L1238.32,336.525L1238.35,336.508L1238.38,336.492L1238.42,336.477L1238.45,336.464L1238.48,336.452L1238.52,336.442L1238.55,336.434L1238.59,336.427L1238.62,336.423L1238.66,336.42L1238.7,336.419L1251.69,336.419L1251.73,336.42ZM1251.73,333.149L1251.77,333.152L1251.8,333.157L1251.84,333.163L1251.87,333.171L1251.91,333.181L1251.94,333.193L1251.98,333.206L1252.01,333.221L1252.04,333.237L1252.07,333.255L1252.1,333.274L1252.13,333.294L1252.15,333.316L1252.18,333.339L1252.21,333.363L1252.23,333.389L1252.25,333.415L1252.27,333.443L1252.29,333.472L1252.31,333.502L1252.33,333.532L1252.35,333.564L1252.36,333.596L1252.38,333.629L1252.39,333.663L1252.4,333.698L1252.4,333.733L1252.41,333.769L1252.41,333.806L1252.42,333.843L1252.42,333.88L1252.42,333.918L1252.41,333.955L1252.41,333.992L1252.4,334.027L1252.4,334.063L1252.39,334.097L1252.38,334.131L1252.36,334.165L1252.35,334.197L1252.33,334.229L1252.31,334.259L1252.3,334.289L1252.28,334.318L1252.25,334.345L1252.23,334.372L1252.21,334.397L1252.18,334.422L1252.15,334.445L1252.13,334.466L1252.1,334.487L1252.07,334.506L1252.04,334.524L1252.01,334.54L1251.98,334.554L1251.94,334.568L1251.91,334.579L1251.88,334.589L1251.84,334.597L1251.81,334.604L1251.77,334.609L1251.73,334.611L1251.69,334.612L1238.7,334.612L1238.66,334.612L1238.62,334.609L1238.59,334.604L1238.55,334.598L1238.52,334.589L1238.48,334.579L1238.45,334.568L1238.42,334.555L1238.38,334.54L1238.35,334.524L1238.32,334.506L1238.29,334.487L1238.27,334.466L1238.24,334.445L1238.21,334.422L1238.19,334.397L1238.16,334.372L1238.14,334.345L1238.12,334.317L1238.1,334.289L1238.08,334.259L1238.06,334.228L1238.05,334.197L1238.03,334.164L1238.02,334.131L1238.01,334.097L1238,334.063L1237.99,334.027L1237.98,333.991L1237.98,333.955L1237.97,333.918L1237.97,333.88L1237.97,333.843L1237.98,333.806L1237.98,333.769L1237.99,333.733L1238,333.698L1238.01,333.663L1238.02,333.629L1238.03,333.596L1238.05,333.564L1238.06,333.532L1238.08,333.502L1238.1,333.472L1238.12,333.443L1238.14,333.415L1238.16,333.389L1238.19,333.363L1238.21,333.339L1238.24,333.316L1238.27,333.294L1238.29,333.274L1238.32,333.255L1238.35,333.237L1238.38,333.221L1238.42,333.206L1238.45,333.193L1238.48,333.181L1238.52,333.171L1238.55,333.163L1238.59,333.157L1238.62,333.152L1238.66,333.149L1238.7,333.148L1251.69,333.148L1251.73,333.149ZM1251.73,329.559L1251.77,329.562L1251.8,329.566L1251.84,329.573L1251.87,329.581L1251.91,329.591L1251.94,329.602L1251.98,329.616L1252.01,329.63L1252.04,329.647L1252.07,329.664L1252.1,329.683L1252.13,329.704L1252.15,329.726L1252.18,329.749L1252.21,329.773L1252.23,329.798L1252.25,329.825L1252.27,329.853L1252.29,329.881L1252.31,329.911L1252.33,329.942L1252.35,329.973L1252.36,330.006L1252.38,330.039L1252.39,330.073L1252.4,330.108L1252.4,330.143L1252.41,330.179L1252.41,330.215L1252.42,330.252L1252.42,330.29L1252.42,330.327L1252.41,330.364L1252.41,330.401L1252.4,330.437L1252.4,330.472L1252.39,330.507L1252.38,330.541L1252.36,330.574L1252.35,330.607L1252.33,330.638L1252.31,330.669L1252.3,330.698L1252.28,330.727L1252.25,330.755L1252.23,330.781L1252.21,330.807L1252.18,330.831L1252.15,330.854L1252.13,330.876L1252.1,330.896L1252.07,330.915L1252.04,330.933L1252.01,330.949L1251.98,330.964L1251.94,330.977L1251.91,330.989L1251.88,330.999L1251.84,331.007L1251.81,331.013L1251.77,331.018L1251.73,331.021L1251.69,331.022L1238.7,331.022L1238.66,331.021L1238.62,331.018L1238.59,331.013L1238.55,331.007L1238.52,330.999L1238.48,330.989L1238.45,330.977L1238.42,330.964L1238.38,330.949L1238.35,330.933L1238.32,330.915L1238.29,330.896L1238.27,330.876L1238.24,330.854L1238.21,330.831L1238.19,330.807L1238.16,330.781L1238.14,330.755L1238.12,330.727L1238.1,330.698L1238.08,330.669L1238.06,330.638L1238.05,330.606L1238.03,330.574L1238.02,330.541L1238.01,330.507L1238,330.472L1237.99,330.437L1237.98,330.401L1237.98,330.364L1237.97,330.327L1237.97,330.29L1237.97,330.252L1237.98,330.215L1237.98,330.179L1237.99,330.143L1238,330.108L1238.01,330.073L1238.02,330.039L1238.03,330.006L1238.05,329.973L1238.06,329.942L1238.08,329.911L1238.1,329.881L1238.12,329.853L1238.14,329.825L1238.16,329.798L1238.19,329.773L1238.21,329.749L1238.24,329.726L1238.27,329.704L1238.29,329.683L1238.32,329.664L1238.35,329.647L1238.38,329.63L1238.42,329.616L1238.45,329.602L1238.48,329.591L1238.52,329.581L1238.55,329.573L1238.59,329.566L1238.62,329.562L1238.66,329.559L1238.7,329.558L1251.69,329.558L1251.73,329.559Z" style="fill:white;"/>
        </g>
    </g>
</svg>
