<?xml version="1.0" standalone="no"?>
<!DOCTYPE svg PUBLIC "-//W3C//DTD SVG 1.1//EN" "http://www.w3.org/Graphics/SVG/1.1/DTD/svg11.dtd">
<svg width="100%" height="100%" viewBox="0 0 43 44" version="1.1" xmlns="http://www.w3.org/2000/svg" xmlns:xlink="http://www.w3.org/1999/xlink" xml:space="preserve" style="fill-rule:evenodd;clip-rule:evenodd;stroke-linejoin:round;stroke-miterlimit:1.41421;">
    <g transform="matrix(1,0,0,1,-1513,-367)">
        <path id="Ellipse 1 copy 22" d="M1534.5,367C1546.37,367 1556,376.626 1556,388.5C1556,400.374 1546.37,410 1534.5,410C1522.63,410 1513,400.374 1513,388.5C1513,376.626 1522.63,367 1534.5,367Z" style="fill:rgb(84,182,132);"/>
        <clipPath id="_clip1">
            <path id="Ellipse 1 copy 221" d="M1534.5,367C1546.37,367 1556,376.626 1556,388.5C1556,400.374 1546.37,410 1534.5,410C1522.63,410 1513,400.374 1513,388.5C1513,376.626 1522.63,367 1534.5,367Z"/>
        </clipPath>
        <g clip-path="url(#_clip1)">
            <path id="Forma 1 copy 57" d="M1534.5,393.019C1538.53,393.019 1541.67,388.897 1541.67,384.631L1541.67,383.294C1541.67,379.027 1538.53,376 1534.5,376C1530.47,376 1527.33,379.027 1527.33,383.294L1527.33,384.631C1527.33,388.897 1530.47,393.019 1534.5,393.019ZM1545.95,400.067C1545.95,400.045 1545.94,400.023 1545.94,400.002C1545.91,399.735 1545.85,399.474 1545.78,399.218C1545.78,399.216 1545.78,399.213 1545.78,399.211C1545.63,398.668 1545.38,398.144 1545,397.629L1545,397.626C1544.37,396.778 1543.44,395.912 1541.91,395.067C1541.1,394.621 1540.75,394.417 1540.25,394.417C1539.46,394.417 1538.77,395.024 1537.6,396.079L1537.6,396.079L1536.54,397.04C1536.5,397.075 1535.36,398.667 1534.5,398.667C1533.64,398.667 1532.5,397.075 1532.46,397.04L1531.4,396.079L1531.4,396.079C1530.24,395.024 1529.54,394.417 1528.75,394.417C1528.25,394.417 1527.81,394.621 1527.09,395.067C1525.61,395.988 1524.63,396.776 1524.01,397.624L1524.01,397.625C1524,397.627 1524,397.631 1524,397.633C1523.63,398.144 1523.38,398.664 1523.22,399.204C1523.22,399.209 1523.22,399.214 1523.22,399.22C1523.15,399.474 1523.1,399.731 1523.06,399.996C1523.06,400.02 1523.05,400.043 1523.05,400.068C1523.02,400.349 1523,400.635 1523,400.933C1523,400.966 1523,407.138 1523,407.167C1523,409.181 1523.77,410 1525.88,410L1543.13,410C1545.25,410 1546,409.225 1546,407.167C1546,407.138 1546,400.966 1546,400.933C1546,400.636 1545.98,400.349 1545.95,400.067Z" style="fill:white;fill-rule:nonzero;"/>
        </g>
    </g>
</svg>
