<?xml version="1.0" standalone="no"?>
<!DOCTYPE svg PUBLIC "-//W3C//DTD SVG 1.1//EN" "http://www.w3.org/Graphics/SVG/1.1/DTD/svg11.dtd">
<svg width="100%" height="100%" viewBox="0 0 35 40" version="1.1" xmlns="http://www.w3.org/2000/svg" xmlns:xlink="http://www.w3.org/1999/xlink" xml:space="preserve" style="fill-rule:evenodd;clip-rule:evenodd;stroke-linejoin:round;stroke-miterlimit:1.41421;">
    <g transform="matrix(1,0,0,1,-1977,-257)">
        <path id="Forma 1 copy 64" d="M2011.16,280.771C2010.69,280.771 2010.32,281.143 2010.32,281.604L2010.32,291.95L2003.37,291.95L2003.37,279.171C2003.37,279.171 2003.37,279.171 2003.37,279.17L2003.37,277.57L2011.16,277.57C2011.62,277.57 2012,277.197 2012,276.737C2012,276.277 2011.62,275.904 2011.16,275.904L2002.52,275.904C2002.06,275.904 2001.68,276.277 2001.68,276.737L2001.68,277.159L1996.32,271.852C1995.5,271.044 1994.31,270.827 1993.29,271.203C1995.05,269.544 1996.03,267.279 1996.03,264.851C1996.03,261.62 1994.25,258.65 1991.38,257.102C1991.12,256.961 1990.8,256.967 1990.55,257.117C1990.29,257.267 1990.14,257.539 1990.14,257.833L1990.14,265.251L1984.11,265.251L1984.11,257.833C1984.11,257.539 1983.95,257.267 1983.69,257.116C1983.44,256.966 1983.12,256.961 1982.86,257.101C1979.99,258.65 1978.21,261.62 1978.21,264.851C1978.21,267.475 1979.36,269.909 1981.38,271.592L1981.38,273.764L1979.86,273.764C1978.29,273.764 1977,275.035 1977,276.598L1977,276.638C1977,277.419 1977.32,278.126 1977.84,278.639C1977.32,279.152 1977,279.86 1977,280.64L1977,280.68C1977,281.461 1977.32,282.168 1977.84,282.681C1977.32,283.194 1977,283.902 1977,284.682L1977,284.723C1977,285.503 1977.32,286.211 1977.84,286.724C1977.32,287.237 1977,287.944 1977,288.724L1977,288.765C1977,290.328 1978.29,291.599 1979.86,291.599L1981.52,291.599C1982.09,294.141 1984.39,296 1987.07,296L1987.17,296C1989.88,296 1992.15,294.114 1992.72,291.599L1999.44,291.599C1999.9,291.599 2000.28,291.226 2000.28,290.766C2000.28,290.305 1999.9,289.932 1999.44,289.932L1992.86,289.932L1992.86,283.055C1992.86,282.595 1992.48,282.222 1992.02,282.222C1991.55,282.222 1991.17,282.595 1991.17,283.055L1991.17,290.371C1991.17,292.556 1989.38,294.333 1987.17,294.333L1987.07,294.333C1985.32,294.333 1983.79,293.199 1983.27,291.599L1984.59,291.599C1986.17,291.599 1987.45,290.328 1987.45,288.765L1987.45,288.724C1987.45,287.944 1987.13,287.237 1986.62,286.724C1987.13,286.211 1987.45,285.503 1987.45,284.723L1987.45,284.682C1987.45,283.902 1987.13,283.194 1986.62,282.681C1987.13,282.168 1987.45,281.461 1987.45,280.68L1987.45,280.64C1987.45,279.86 1987.13,279.152 1986.62,278.639C1987.13,278.126 1987.45,277.419 1987.45,276.638L1987.45,276.598C1987.45,275.035 1986.17,273.764 1984.59,273.764L1983.07,273.764L1983.07,271.193C1983.07,270.933 1982.95,270.689 1982.74,270.531C1980.93,269.161 1979.89,267.091 1979.89,264.851C1979.89,262.736 1980.83,260.759 1982.42,259.414L1982.42,266.084C1982.42,266.545 1982.8,266.918 1983.26,266.918L1990.98,266.918C1991.44,266.918 1991.82,266.545 1991.82,266.084L1991.82,259.414C1993.41,260.759 1994.35,262.736 1994.35,264.851C1994.35,267.091 1993.31,269.161 1991.5,270.531C1991.3,270.689 1991.17,270.933 1991.17,271.193L1991.17,272.941L1988.93,275.16C1988.39,275.696 1988.09,276.407 1988.09,277.164C1988.09,277.921 1988.39,278.633 1988.93,279.169L1988.96,279.197C1989.52,279.75 1990.25,280.026 1990.98,280.026C1991.72,280.026 1992.45,279.75 1993.01,279.197L1994.68,277.538C1995.01,277.213 1995.01,276.685 1994.68,276.36C1994.36,276.034 1993.82,276.034 1993.49,276.36L1991.82,278.019C1991.36,278.474 1990.61,278.474 1990.15,278.019L1990.12,277.99C1989.9,277.77 1989.78,277.476 1989.78,277.164C1989.78,276.852 1989.9,276.559 1990.12,276.339L1993.46,273.031C1993.92,272.576 1994.67,272.576 1995.13,273.03C1995.13,273.03 1995.13,273.03 1995.13,273.031L2001.68,279.516L2001.68,292.784C2001.68,293.244 2002.06,293.617 2002.52,293.617L2011.16,293.617C2011.62,293.617 2012,293.244 2012,292.784L2012,281.604C2012,281.143 2011.62,280.771 2011.16,280.771ZM1985.77,280.64L1985.77,280.68C1985.77,281.324 1985.24,281.848 1984.59,281.848L1979.86,281.848C1979.21,281.848 1978.68,281.324 1978.68,280.68L1978.68,280.64C1978.68,279.996 1979.21,279.472 1979.86,279.472L1984.59,279.472C1985.24,279.472 1985.77,279.996 1985.77,280.64ZM1985.77,284.682L1985.77,284.723C1985.77,285.366 1985.24,285.89 1984.59,285.89L1979.86,285.89C1979.21,285.89 1978.68,285.366 1978.68,284.723L1978.68,284.682C1978.68,284.038 1979.21,283.515 1979.86,283.515L1984.59,283.515C1985.24,283.515 1985.77,284.038 1985.77,284.682ZM1985.77,288.765C1985.77,289.409 1985.24,289.932 1984.59,289.932L1979.86,289.932C1979.21,289.932 1978.68,289.409 1978.68,288.765L1978.68,288.724C1978.68,288.081 1979.21,287.557 1979.86,287.557L1984.59,287.557C1985.24,287.557 1985.77,288.081 1985.77,288.724L1985.77,288.765ZM1985.77,276.598L1985.77,276.638C1985.77,277.282 1985.24,277.806 1984.59,277.806L1979.86,277.806C1979.21,277.806 1978.68,277.282 1978.68,276.638L1978.68,276.598C1978.68,275.954 1979.21,275.43 1979.86,275.43L1984.59,275.43C1985.24,275.43 1985.77,275.954 1985.77,276.598Z" style="fill:rgb(185,185,185);fill-rule:nonzero;"/>
    </g>
</svg>
