<?xml version="1.0" standalone="no"?>
<!DOCTYPE svg PUBLIC "-//W3C//DTD SVG 1.1//EN" "http://www.w3.org/Graphics/SVG/1.1/DTD/svg11.dtd">
<svg width="100%" height="100%" viewBox="0 0 44 44" version="1.1" xmlns="http://www.w3.org/2000/svg" xmlns:xlink="http://www.w3.org/1999/xlink" xml:space="preserve" style="fill-rule:evenodd;clip-rule:evenodd;stroke-linejoin:round;stroke-miterlimit:1.41421;">
    <g transform="matrix(1,0,0,1,-1425,-368)">
        <path id="Ellipse 1 copy 21" d="M1446.5,368C1458.37,368 1468,377.626 1468,389.5C1468,401.374 1458.37,411 1446.5,411C1434.63,411 1425,401.374 1425,389.5C1425,377.626 1434.63,368 1446.5,368Z" style="fill:rgb(185,185,185);"/>
        <path id="Forma 1 copy 56" d="M1446.5,394.019C1450.53,394.019 1453.67,389.897 1453.67,385.631L1453.67,384.294C1453.67,380.027 1450.53,377 1446.5,377C1442.47,377 1439.33,380.027 1439.33,384.294L1439.33,385.631C1439.33,389.897 1442.47,394.019 1446.5,394.019ZM1457.95,401.067C1457.95,401.045 1457.94,401.023 1457.94,401.002C1457.91,400.735 1457.85,400.474 1457.78,400.218C1457.78,400.216 1457.78,400.213 1457.78,400.211C1457.63,399.668 1457.38,399.144 1457,398.629L1457,398.626C1456.37,397.778 1455.44,396.912 1453.91,396.068C1453.1,395.621 1452.75,395.417 1452.25,395.417C1451.46,395.417 1450.77,396.024 1449.6,397.079L1449.6,397.079L1448.54,398.04C1448.5,398.075 1447.36,399.667 1446.5,399.667C1445.64,399.667 1444.5,398.075 1444.46,398.04L1443.4,397.079L1443.4,397.079C1442.24,396.024 1441.54,395.417 1440.75,395.417C1440.25,395.417 1439.81,395.621 1439.09,396.068C1437.61,396.988 1436.63,397.776 1436.01,398.624L1436.01,398.625C1436,398.627 1436,398.631 1436,398.633C1435.63,399.144 1435.38,399.664 1435.22,400.204C1435.22,400.209 1435.22,400.214 1435.22,400.22C1435.15,400.474 1435.1,400.731 1435.06,400.996C1435.06,401.02 1435.05,401.043 1435.05,401.068C1435.02,401.349 1435,401.635 1435,401.933C1435,401.966 1435,408.138 1435,408.167C1435,410.181 1435.77,411 1437.88,411L1455.13,411C1457.25,411 1458,410.225 1458,408.167C1458,408.138 1458,401.966 1458,401.933C1458,401.636 1457.98,401.349 1457.95,401.067Z" style="fill:white;fill-rule:nonzero;"/>
    </g>
</svg>
