<?xml version="1.0" standalone="no"?>
<!DOCTYPE svg PUBLIC "-//W3C//DTD SVG 1.1//EN" "http://www.w3.org/Graphics/SVG/1.1/DTD/svg11.dtd">
<svg width="100%" height="100%" viewBox="0 0 36 27" version="1.1" xmlns="http://www.w3.org/2000/svg" xmlns:xlink="http://www.w3.org/1999/xlink" xml:space="preserve" style="fill-rule:evenodd;clip-rule:evenodd;stroke-linejoin:round;stroke-miterlimit:1.41421;">
    <g transform="matrix(1,0,0,1,-1231,-266)">
        <path id="Forma 1 copy 10" d="M1251.43,281.945C1252.34,281.106 1252.88,280.625 1253.5,280.625C1253.89,280.625 1254.17,280.787 1254.8,281.142C1255.99,281.812 1256.73,282.5 1257.21,283.174L1257.21,283.176C1257.51,283.585 1257.71,284.001 1257.83,284.432C1257.83,284.434 1257.83,284.436 1257.83,284.438C1257.89,284.641 1257.93,284.848 1257.95,285.06C1257.95,285.077 1257.96,285.094 1257.96,285.112C1257.99,285.336 1258,285.564 1258,285.8C1258,285.826 1258,290.727 1258,290.75C1258,292.385 1257.41,293 1255.75,293L1242.25,293C1240.6,293 1240,292.349 1240,290.75C1240,290.727 1240,285.826 1240,285.8C1240,285.564 1240.02,285.336 1240.04,285.113C1240.04,285.093 1240.05,285.075 1240.05,285.055C1240.08,284.845 1240.12,284.641 1240.17,284.439C1240.17,284.435 1240.17,284.431 1240.18,284.427C1240.29,283.998 1240.49,283.585 1240.78,283.179C1240.79,283.177 1240.79,283.175 1240.79,283.173L1240.79,283.172C1241.27,282.499 1242.05,281.872 1243.2,281.142C1243.76,280.787 1244.11,280.625 1244.5,280.625C1245.12,280.625 1245.66,281.108 1246.58,281.945L1246.58,281.945L1247.41,282.708C1247.44,282.736 1248.33,284 1249,284C1249.67,284 1250.57,282.736 1250.6,282.708L1251.42,281.945L1251.43,281.945ZM1267,287.375C1267,286.139 1266.53,284.239 1264.44,283.047C1263.57,282.552 1262.57,282.951 1261.38,284L1260.25,285.125C1260.25,287.094 1260.25,291.875 1260.25,291.875L1264.75,291.875C1266.45,291.875 1267,291.258 1267,289.625C1267,289.608 1267,287.394 1267,287.375ZM1233.56,283.047C1231.47,284.239 1231,286.139 1231,287.375C1231,287.394 1231,289.608 1231,289.625C1231,291.258 1231.55,291.875 1233.25,291.875L1237.75,291.875C1237.75,291.875 1237.75,287.094 1237.75,285.125L1236.63,284C1235.44,282.951 1234.43,282.552 1233.56,283.047ZM1237.75,285.125C1237.78,285.146 1237.75,284.591 1237.75,285.125L1237.75,285.125ZM1260.25,285.125C1260.25,284.591 1260.23,285.146 1260.25,285.125L1260.25,285.125ZM1237.76,280.611C1238.66,280.611 1241.13,279.44 1241.13,277.011L1241.13,275.211C1241.13,272.782 1239.35,271.611 1237.76,271.611C1236.22,271.611 1234.39,272.782 1234.39,275.211L1234.39,277.011C1234.39,279.44 1236.91,280.611 1237.76,280.611ZM1260.46,280.611C1261.36,280.611 1263.83,279.44 1263.83,277.011L1263.83,275.211C1263.83,272.782 1262.05,271.611 1260.46,271.611C1258.92,271.611 1257.09,272.782 1257.09,275.211L1257.09,277.011C1257.09,279.44 1259.6,280.611 1260.46,280.611ZM1249,279.515C1252.16,279.515 1254.61,276.242 1254.61,272.854L1254.61,271.792C1254.61,268.404 1252.16,266 1249,266C1245.85,266 1243.39,268.404 1243.39,271.792L1243.39,272.854C1243.39,276.242 1245.85,279.515 1249,279.515Z" style="fill:rgb(96,199,146);"/>
    </g>
</svg>
