<?xml version="1.0" standalone="no"?>
<!DOCTYPE svg PUBLIC "-//W3C//DTD SVG 1.1//EN" "http://www.w3.org/Graphics/SVG/1.1/DTD/svg11.dtd">
<svg width="100%" height="100%" viewBox="0 0 30 47" version="1.1" xmlns="http://www.w3.org/2000/svg" xmlns:xlink="http://www.w3.org/1999/xlink" xml:space="preserve" style="fill-rule:evenodd;clip-rule:evenodd;stroke-linejoin:round;stroke-miterlimit:1.41421;">
    <g transform="matrix(1,0,0,1,-1466,-159)">
        <path id="Forma 1 copy 29" d="M1467.41,176.479L1467.44,176.481L1467.48,176.483L1467.51,176.487L1467.54,176.492L1467.57,176.498L1467.61,176.505L1467.64,176.513L1467.67,176.523L1467.7,176.533L1467.73,176.544L1467.77,176.556L1467.8,176.569L1467.83,176.584L1467.86,176.599L1467.88,176.615L1467.91,176.632L1467.94,176.649L1467.97,176.668L1468,176.688L1468.02,176.708L1468.05,176.73L1468.07,176.752L1468.1,176.775L1468.12,176.799L1468.14,176.824L1468.16,176.849L1468.18,176.875L1468.21,176.902L1468.23,176.93L1468.24,176.959L1468.29,177.025L1468.31,177.06L1468.33,177.095L1468.36,177.128L1468.38,177.161L1468.41,177.193L1468.44,177.224L1468.47,177.254L1468.5,177.282L1468.53,177.31L1468.57,177.337L1468.6,177.363L1468.63,177.387L1468.67,177.411L1468.7,177.433L1468.74,177.454L1468.78,177.475L1468.81,177.493L1468.85,177.511L1468.89,177.528L1468.93,177.543L1468.97,177.557L1469.01,177.57L1469.05,177.581L1469.09,177.592L1469.13,177.601L1469.17,177.608L1469.21,177.615L1469.26,177.619L1469.3,177.623L1469.34,177.625L1469.38,177.626L1469.43,177.625L1469.47,177.623L1469.51,177.619L1469.56,177.615L1469.6,177.608L1469.64,177.601L1469.68,177.592L1469.72,177.581L1469.76,177.57L1469.8,177.557L1469.84,177.543L1469.88,177.528L1469.92,177.511L1469.96,177.493L1469.99,177.475L1470.03,177.454L1470.07,177.433L1470.1,177.411L1470.14,177.387L1470.17,177.363L1470.2,177.337L1470.24,177.31L1470.27,177.282L1470.3,177.254L1470.33,177.224L1470.36,177.193L1470.38,177.161L1470.41,177.128L1470.44,177.095L1470.46,177.06L1470.48,177.025L1470.51,176.988L1470.52,176.959L1470.54,176.93L1470.56,176.902L1470.58,176.875L1470.61,176.849L1470.63,176.824L1470.65,176.799L1470.67,176.775L1470.7,176.752L1470.72,176.73L1470.75,176.708L1470.77,176.688L1470.8,176.668L1470.83,176.649L1470.86,176.632L1470.88,176.615L1470.91,176.599L1470.94,176.584L1470.97,176.569L1471,176.556L1471.03,176.544L1471.07,176.533L1471.1,176.523L1471.13,176.513L1471.16,176.505L1471.19,176.498L1471.23,176.492L1471.26,176.487L1471.29,176.483L1471.33,176.481L1471.36,176.479L1471.39,176.478L1472.01,176.478L1472.04,176.479L1472.08,176.481L1472.11,176.483L1472.14,176.487L1472.18,176.492L1472.21,176.498L1472.24,176.505L1472.28,176.513L1472.31,176.523L1472.34,176.533L1472.37,176.544L1472.4,176.556L1472.43,176.569L1472.46,176.584L1472.49,176.599L1472.52,176.615L1472.55,176.632L1472.58,176.649L1472.61,176.668L1472.63,176.688L1472.66,176.708L1472.68,176.73L1472.71,176.752L1472.73,176.775L1472.76,176.799L1472.78,176.824L1472.8,176.849L1472.82,176.875L1472.84,176.902L1472.86,176.93L1472.88,176.959L1472.92,177.025L1472.94,177.06L1472.97,177.095L1473,177.128L1473.02,177.161L1473.05,177.193L1473.08,177.224L1473.11,177.254L1473.14,177.282L1473.17,177.31L1473.2,177.337L1473.24,177.363L1473.27,177.387L1473.3,177.411L1473.34,177.433L1473.38,177.454L1473.41,177.475L1473.45,177.493L1473.49,177.511L1473.53,177.528L1473.57,177.543L1473.6,177.557L1473.64,177.57L1473.68,177.581L1473.73,177.592L1473.77,177.601L1473.81,177.608L1473.85,177.615L1473.89,177.619L1473.93,177.623L1473.98,177.625L1474.02,177.626L1474.06,177.625L1474.11,177.623L1474.15,177.619L1474.19,177.615L1474.23,177.608L1474.28,177.601L1474.32,177.592L1474.36,177.581L1474.4,177.57L1474.44,177.557L1474.48,177.543L1474.52,177.528L1474.56,177.511L1474.59,177.493L1474.63,177.474L1474.67,177.454L1474.7,177.433L1474.74,177.411L1474.77,177.387L1474.81,177.363L1474.84,177.337L1474.87,177.31L1474.9,177.282L1474.93,177.253L1474.96,177.224L1474.99,177.193L1475.02,177.161L1475.05,177.128L1475.07,177.094L1475.1,177.06L1475.12,177.024L1475.14,176.988L1475.16,176.958L1475.18,176.93L1475.2,176.902L1475.22,176.875L1475.24,176.849L1475.26,176.823L1475.29,176.799L1475.31,176.775L1475.33,176.752L1475.36,176.729L1475.38,176.708L1475.41,176.688L1475.44,176.668L1475.46,176.649L1475.49,176.631L1475.52,176.614L1475.55,176.598L1475.58,176.583L1475.61,176.569L1475.64,176.556L1475.67,176.544L1475.7,176.533L1475.73,176.523L1475.77,176.513L1475.8,176.505L1475.83,176.498L1475.86,176.492L1475.9,176.487L1475.93,176.483L1475.96,176.481L1476,176.479L1476.03,176.478L1476.67,176.478L1476.71,176.479L1476.74,176.481L1476.77,176.483L1476.81,176.487L1476.84,176.492L1476.87,176.498L1476.91,176.505L1476.94,176.513L1476.97,176.523L1477,176.533L1477.03,176.544L1477.06,176.556L1477.09,176.569L1477.12,176.584L1477.15,176.599L1477.18,176.615L1477.21,176.632L1477.24,176.649L1477.27,176.668L1477.29,176.688L1477.32,176.708L1477.35,176.73L1477.37,176.752L1477.39,176.775L1477.42,176.799L1477.44,176.824L1477.46,176.849L1477.48,176.875L1477.5,176.902L1477.52,176.93L1477.54,176.959L1477.58,177.025L1477.61,177.06L1477.63,177.095L1477.66,177.128L1477.68,177.161L1477.71,177.193L1477.74,177.224L1477.77,177.254L1477.8,177.282L1477.83,177.31L1477.86,177.337L1477.9,177.363L1477.93,177.387L1477.97,177.411L1478,177.433L1478.04,177.454L1478.07,177.475L1478.11,177.493L1478.15,177.511L1478.19,177.528L1478.23,177.543L1478.27,177.557L1478.31,177.57L1478.35,177.581L1478.39,177.592L1478.43,177.601L1478.47,177.608L1478.51,177.615L1478.55,177.619L1478.6,177.623L1478.64,177.625L1478.68,177.626L1478.73,177.625L1478.77,177.623L1478.81,177.619L1478.85,177.615L1478.89,177.608L1478.94,177.601L1478.98,177.592L1479.02,177.581L1479.06,177.57L1479.1,177.557L1479.14,177.543L1479.18,177.528L1479.22,177.511L1479.25,177.493L1479.29,177.475L1479.33,177.454L1479.36,177.433L1479.4,177.411L1479.43,177.387L1479.47,177.363L1479.5,177.337L1479.53,177.31L1479.57,177.282L1479.6,177.254L1479.62,177.224L1479.65,177.193L1479.68,177.161L1479.71,177.128L1479.73,177.095L1479.76,177.06L1479.78,177.025L1479.81,176.988L1479.82,176.959L1479.84,176.93L1479.86,176.902L1479.88,176.875L1479.9,176.849L1479.92,176.824L1479.95,176.799L1479.97,176.775L1480,176.752L1480.02,176.73L1480.05,176.708L1480.07,176.688L1480.1,176.668L1480.13,176.649L1480.15,176.632L1480.18,176.615L1480.21,176.599L1480.24,176.584L1480.27,176.569L1480.3,176.556L1480.33,176.544L1480.36,176.533L1480.4,176.523L1480.43,176.513L1480.46,176.505L1480.49,176.498L1480.53,176.492L1480.56,176.487L1480.59,176.483L1480.63,176.481L1480.66,176.479L1480.69,176.478L1481.31,176.478L1481.34,176.479L1481.38,176.481L1481.41,176.483L1481.44,176.487L1481.48,176.492L1481.51,176.498L1481.54,176.505L1481.58,176.513L1481.61,176.523L1481.64,176.533L1481.67,176.544L1481.7,176.556L1481.73,176.569L1481.76,176.584L1481.79,176.599L1481.82,176.615L1481.85,176.632L1481.88,176.649L1481.9,176.668L1481.93,176.688L1481.96,176.708L1481.98,176.73L1482.01,176.752L1482.03,176.775L1482.06,176.799L1482.08,176.824L1482.1,176.849L1482.12,176.875L1482.14,176.902L1482.16,176.93L1482.18,176.959L1482.22,177.025L1482.24,177.06L1482.27,177.095L1482.29,177.128L1482.32,177.161L1482.35,177.193L1482.38,177.224L1482.41,177.254L1482.44,177.282L1482.47,177.31L1482.5,177.337L1482.53,177.363L1482.57,177.387L1482.6,177.411L1482.64,177.433L1482.67,177.454L1482.71,177.475L1482.75,177.493L1482.79,177.511L1482.82,177.528L1482.86,177.543L1482.9,177.557L1482.94,177.57L1482.98,177.581L1483.02,177.592L1483.07,177.601L1483.11,177.608L1483.15,177.615L1483.19,177.619L1483.23,177.623L1483.28,177.625L1483.32,177.626L1483.36,177.625L1483.4,177.623L1483.45,177.619L1483.49,177.615L1483.53,177.608L1483.57,177.601L1483.62,177.592L1483.66,177.581L1483.7,177.57L1483.74,177.557L1483.78,177.543L1483.82,177.528L1483.85,177.511L1483.89,177.493L1483.93,177.475L1483.96,177.454L1484,177.433L1484.04,177.411L1484.07,177.387L1484.11,177.363L1484.14,177.337L1484.17,177.31L1484.2,177.282L1484.23,177.254L1484.26,177.224L1484.29,177.193L1484.32,177.161L1484.35,177.128L1484.37,177.095L1484.4,177.06L1484.42,177.025L1484.44,176.988L1484.46,176.959L1484.48,176.93L1484.5,176.902L1484.52,176.875L1484.54,176.849L1484.56,176.824L1484.59,176.799L1484.61,176.775L1484.63,176.752L1484.66,176.73L1484.68,176.708L1484.71,176.688L1484.74,176.668L1484.76,176.649L1484.79,176.632L1484.82,176.615L1484.85,176.599L1484.88,176.584L1484.91,176.569L1484.94,176.556L1484.97,176.544L1485,176.533L1485.03,176.523L1485.07,176.513L1485.1,176.505L1485.13,176.498L1485.16,176.492L1485.2,176.487L1485.23,176.483L1485.26,176.481L1485.3,176.479L1485.33,176.478L1485.97,176.478L1486,176.479L1486.04,176.481L1486.07,176.483L1486.11,176.487L1486.14,176.492L1486.17,176.498L1486.2,176.505L1486.24,176.513L1486.27,176.523L1486.3,176.533L1486.33,176.544L1486.36,176.556L1486.39,176.569L1486.42,176.583L1486.45,176.598L1486.48,176.615L1486.51,176.631L1486.54,176.649L1486.57,176.668L1486.59,176.688L1486.62,176.708L1486.64,176.73L1486.67,176.752L1486.69,176.775L1486.72,176.799L1486.74,176.823L1486.76,176.849L1486.78,176.875L1486.8,176.902L1486.82,176.93L1486.84,176.959L1486.88,177.024L1486.9,177.06L1486.93,177.095L1486.96,177.128L1486.98,177.161L1487.01,177.193L1487.04,177.224L1487.07,177.254L1487.1,177.282L1487.13,177.31L1487.16,177.337L1487.2,177.363L1487.23,177.387L1487.26,177.411L1487.3,177.433L1487.34,177.454L1487.37,177.474L1487.41,177.493L1487.45,177.511L1487.49,177.528L1487.53,177.543L1487.57,177.557L1487.61,177.57L1487.64,177.581L1487.69,177.592L1487.73,177.601L1487.77,177.608L1487.81,177.615L1487.85,177.619L1487.9,177.623L1487.94,177.625L1487.98,177.626L1488.02,177.625L1488.07,177.623L1488.11,177.619L1488.15,177.615L1488.19,177.608L1488.24,177.601L1488.28,177.592L1488.32,177.581L1488.36,177.57L1488.4,177.557L1488.44,177.543L1488.48,177.528L1488.52,177.511L1488.55,177.493L1488.59,177.475L1488.63,177.454L1488.66,177.433L1488.7,177.411L1488.73,177.387L1488.77,177.363L1488.8,177.337L1488.83,177.31L1488.86,177.282L1488.89,177.254L1488.92,177.224L1488.95,177.193L1488.98,177.161L1489.01,177.128L1489.03,177.095L1489.06,177.06L1489.08,177.025L1489.1,176.988L1489.12,176.959L1489.14,176.93L1489.16,176.902L1489.18,176.875L1489.2,176.849L1489.22,176.824L1489.25,176.799L1489.27,176.775L1489.29,176.752L1489.32,176.73L1489.35,176.708L1489.37,176.688L1489.4,176.668L1489.42,176.649L1489.45,176.632L1489.48,176.615L1489.51,176.599L1489.54,176.584L1489.57,176.569L1489.6,176.556L1489.63,176.544L1489.66,176.533L1489.69,176.523L1489.73,176.513L1489.76,176.505L1489.79,176.498L1489.82,176.492L1489.86,176.487L1489.89,176.483L1489.92,176.481L1489.96,176.479L1489.99,176.478L1490.61,176.478L1490.64,176.479L1490.67,176.481L1490.71,176.483L1490.74,176.487L1490.78,176.492L1490.81,176.498L1490.84,176.505L1490.87,176.513L1490.91,176.523L1490.94,176.533L1490.97,176.544L1491,176.556L1491.03,176.569L1491.06,176.584L1491.09,176.599L1491.12,176.615L1491.15,176.632L1491.17,176.649L1491.2,176.668L1491.23,176.688L1491.26,176.708L1491.28,176.73L1491.31,176.752L1491.33,176.775L1491.35,176.799L1491.38,176.824L1491.4,176.849L1491.42,176.875L1491.44,176.902L1491.46,176.93L1491.48,176.959L1491.52,177.025L1491.54,177.06L1491.57,177.095L1491.59,177.128L1491.62,177.161L1491.65,177.193L1491.68,177.224L1491.71,177.254L1491.74,177.282L1491.77,177.31L1491.8,177.337L1491.83,177.363L1491.87,177.387L1491.9,177.411L1491.94,177.433L1491.97,177.454L1492.01,177.475L1492.05,177.493L1492.09,177.511L1492.12,177.528L1492.16,177.543L1492.2,177.557L1492.24,177.57L1492.28,177.581L1492.32,177.592L1492.36,177.601L1492.41,177.608L1492.45,177.615L1492.49,177.619L1492.53,177.623L1492.58,177.625L1492.62,177.626L1492.66,177.625L1492.7,177.623L1492.75,177.619L1492.79,177.615L1492.83,177.608L1492.87,177.601L1492.91,177.592L1492.95,177.581L1493,177.57L1493.04,177.557L1493.08,177.543L1493.11,177.528L1493.15,177.511L1493.19,177.493L1493.23,177.474L1493.26,177.454L1493.3,177.433L1493.34,177.411L1493.37,177.387L1493.4,177.363L1493.44,177.337L1493.47,177.31L1493.5,177.282L1493.53,177.254L1493.56,177.224L1493.59,177.193L1493.62,177.161L1493.64,177.128L1493.67,177.095L1493.69,177.06L1493.72,177.024L1493.74,176.988L1493.76,176.959L1493.78,176.93L1493.8,176.902L1493.82,176.875L1493.84,176.849L1493.86,176.823L1493.88,176.799L1493.91,176.775L1493.93,176.752L1493.96,176.73L1493.98,176.708L1494.01,176.688L1494.04,176.668L1494.06,176.649L1494.09,176.632L1494.12,176.615L1494.15,176.599L1494.18,176.583L1494.21,176.569L1494.24,176.556L1494.27,176.544L1494.3,176.533L1494.33,176.523L1494.36,176.513L1494.4,176.505L1494.43,176.498L1494.46,176.492L1494.49,176.487L1494.53,176.483L1494.56,176.481L1494.6,176.479L1494.63,176.478L1494.95,176.478L1495,176.48L1495.06,176.484L1495.11,176.49L1495.16,176.5L1495.21,176.511L1495.26,176.525L1495.31,176.542L1495.35,176.561L1495.4,176.582L1495.44,176.605L1495.49,176.63L1495.53,176.657L1495.57,176.687L1495.61,176.718L1495.65,176.751L1495.68,176.786L1495.72,176.822L1495.75,176.86L1495.78,176.9L1495.81,176.941L1495.84,176.983L1495.86,177.027L1495.88,177.072L1495.9,177.119L1495.92,177.167L1495.94,177.215L1495.95,177.265L1495.96,177.316L1495.97,177.368L1495.98,177.42L1495.99,177.473L1495.99,177.527L1495.99,203.951L1495.99,204.005L1495.98,204.058L1495.97,204.111L1495.96,204.163L1495.95,204.213L1495.94,204.263L1495.92,204.312L1495.9,204.359L1495.88,204.406L1495.86,204.451L1495.84,204.495L1495.81,204.538L1495.78,204.579L1495.75,204.618L1495.72,204.656L1495.68,204.693L1495.65,204.728L1495.61,204.761L1495.57,204.792L1495.53,204.821L1495.49,204.848L1495.44,204.873L1495.4,204.897L1495.35,204.918L1495.31,204.936L1495.26,204.953L1495.21,204.967L1495.16,204.979L1495.11,204.988L1495.06,204.995L1495,204.999L1494.95,205L1467.05,205L1467,204.999L1466.95,204.995L1466.9,204.988L1466.85,204.979L1466.79,204.967L1466.75,204.953L1466.7,204.936L1466.65,204.918L1466.6,204.897L1466.56,204.873L1466.52,204.848L1466.47,204.821L1466.43,204.792L1466.39,204.761L1466.36,204.728L1466.32,204.693L1466.29,204.656L1466.25,204.618L1466.22,204.579L1466.19,204.538L1466.17,204.495L1466.14,204.451L1466.12,204.406L1466.1,204.359L1466.08,204.312L1466.06,204.263L1466.05,204.213L1466.04,204.163L1466.03,204.111L1466.02,204.058L1466.02,204.005L1466.02,203.951L1466.02,177.527L1466.02,177.473L1466.02,177.42L1466.03,177.368L1466.04,177.316L1466.05,177.265L1466.06,177.215L1466.08,177.167L1466.1,177.119L1466.12,177.072L1466.14,177.027L1466.17,176.983L1466.19,176.941L1466.22,176.9L1466.25,176.86L1466.29,176.822L1466.32,176.786L1466.36,176.751L1466.39,176.718L1466.43,176.687L1466.47,176.657L1466.52,176.63L1466.56,176.605L1466.6,176.582L1466.65,176.561L1466.7,176.542L1466.75,176.525L1466.79,176.511L1466.85,176.5L1466.9,176.49L1466.95,176.484L1467,176.48L1467.05,176.478L1467.37,176.478L1467.41,176.479ZM1485.59,178.838L1485.53,178.891L1485.47,178.943L1485.41,178.994L1485.35,179.043L1485.28,179.09L1485.21,179.136L1485.15,179.181L1485.08,179.223L1485.01,179.264L1484.94,179.304L1484.87,179.342L1484.8,179.378L1484.73,179.412L1484.65,179.445L1484.58,179.476L1484.51,179.505L1484.43,179.533L1484.36,179.559L1484.28,179.583L1484.2,179.605L1484.12,179.625L1484.05,179.644L1483.97,179.66L1483.89,179.675L1483.81,179.688L1483.73,179.699L1483.65,179.708L1483.57,179.715L1483.48,179.72L1483.4,179.723L1483.32,179.724L1483.24,179.723L1483.16,179.72L1483.08,179.715L1483,179.708L1482.92,179.699L1482.84,179.688L1482.76,179.675L1482.68,179.661L1482.6,179.645L1482.52,179.626L1482.44,179.606L1482.37,179.584L1482.29,179.561L1482.22,179.535L1482.14,179.508L1482.07,179.479L1481.99,179.449L1481.92,179.416L1481.85,179.382L1481.78,179.346L1481.71,179.309L1481.64,179.27L1481.57,179.23L1481.5,179.187L1481.44,179.144L1481.37,179.098L1481.31,179.051L1481.24,179.003L1481.18,178.953L1481.12,178.902L1481.06,178.849L1481,178.795L1480.94,178.849L1480.88,178.902L1480.82,178.953L1480.76,179.003L1480.7,179.051L1480.63,179.098L1480.57,179.144L1480.5,179.187L1480.43,179.23L1480.36,179.27L1480.3,179.309L1480.23,179.346L1480.15,179.382L1480.08,179.416L1480.01,179.449L1479.94,179.479L1479.86,179.508L1479.79,179.535L1479.71,179.561L1479.63,179.584L1479.56,179.606L1479.48,179.626L1479.4,179.645L1479.33,179.661L1479.25,179.675L1479.17,179.688L1479.09,179.699L1479.01,179.708L1478.93,179.715L1478.85,179.72L1478.76,179.723L1478.68,179.724L1478.6,179.723L1478.52,179.72L1478.44,179.715L1478.36,179.708L1478.28,179.699L1478.2,179.688L1478.12,179.675L1478.04,179.66L1477.96,179.643L1477.88,179.625L1477.8,179.605L1477.73,179.583L1477.65,179.559L1477.57,179.533L1477.5,179.505L1477.42,179.476L1477.35,179.445L1477.28,179.412L1477.2,179.378L1477.13,179.342L1477.06,179.304L1476.99,179.264L1476.92,179.223L1476.86,179.18L1476.79,179.136L1476.72,179.09L1476.66,179.043L1476.6,178.994L1476.53,178.943L1476.47,178.891L1476.41,178.838L1476.35,178.783L1476.29,178.838L1476.23,178.891L1476.17,178.943L1476.11,178.994L1476.05,179.043L1475.98,179.09L1475.92,179.136L1475.85,179.18L1475.78,179.223L1475.71,179.264L1475.64,179.304L1475.57,179.342L1475.5,179.378L1475.43,179.412L1475.36,179.445L1475.28,179.476L1475.21,179.505L1475.13,179.533L1475.06,179.559L1474.98,179.583L1474.9,179.605L1474.82,179.625L1474.75,179.643L1474.67,179.66L1474.59,179.675L1474.51,179.688L1474.43,179.699L1474.35,179.708L1474.27,179.715L1474.18,179.72L1474.1,179.723L1474.02,179.724L1473.94,179.723L1473.86,179.72L1473.78,179.715L1473.7,179.708L1473.62,179.699L1473.54,179.688L1473.46,179.675L1473.38,179.661L1473.3,179.645L1473.22,179.626L1473.15,179.606L1473.07,179.584L1472.99,179.561L1472.92,179.535L1472.84,179.508L1472.77,179.479L1472.69,179.449L1472.62,179.416L1472.55,179.382L1472.48,179.346L1472.41,179.309L1472.34,179.27L1472.27,179.23L1472.2,179.187L1472.14,179.144L1472.07,179.098L1472.01,179.051L1471.94,179.003L1471.88,178.953L1471.82,178.902L1471.76,178.849L1471.7,178.795L1471.64,178.849L1471.58,178.902L1471.52,178.953L1471.46,179.003L1471.4,179.051L1471.33,179.098L1471.27,179.144L1471.2,179.187L1471.13,179.229L1471.07,179.27L1471,179.309L1470.93,179.346L1470.86,179.382L1470.78,179.416L1470.71,179.448L1470.64,179.479L1470.56,179.508L1470.49,179.535L1470.41,179.561L1470.34,179.584L1470.26,179.606L1470.18,179.626L1470.11,179.645L1470.03,179.661L1469.95,179.675L1469.87,179.688L1469.79,179.699L1469.71,179.708L1469.63,179.715L1469.55,179.72L1469.47,179.723L1469.38,179.724L1469.3,179.722L1469.22,179.719L1469.13,179.714L1469.05,179.707L1468.97,179.697L1468.88,179.686L1468.8,179.672L1468.72,179.657L1468.64,179.639L1468.56,179.619L1468.48,179.598L1468.4,179.575L1468.32,179.549L1468.24,179.522L1468.17,179.493L1468.09,179.462L1468.09,202.902L1493.91,202.902L1493.91,179.462L1493.84,179.493L1493.76,179.522L1493.68,179.549L1493.6,179.575L1493.52,179.598L1493.44,179.619L1493.36,179.639L1493.28,179.657L1493.2,179.672L1493.12,179.686L1493.04,179.697L1492.95,179.707L1492.87,179.714L1492.79,179.719L1492.7,179.722L1492.62,179.724L1492.54,179.723L1492.46,179.72L1492.38,179.715L1492.3,179.708L1492.21,179.699L1492.13,179.688L1492.06,179.675L1491.98,179.661L1491.9,179.645L1491.82,179.626L1491.74,179.606L1491.67,179.584L1491.59,179.561L1491.52,179.535L1491.44,179.508L1491.37,179.479L1491.29,179.449L1491.22,179.416L1491.15,179.382L1491.08,179.346L1491.01,179.309L1490.94,179.27L1490.87,179.23L1490.8,179.187L1490.74,179.144L1490.67,179.098L1490.61,179.051L1490.54,179.003L1490.48,178.953L1490.42,178.902L1490.36,178.849L1490.3,178.795L1490.24,178.849L1490.18,178.902L1490.12,178.953L1490.06,179.003L1490,179.051L1489.93,179.098L1489.87,179.144L1489.8,179.187L1489.73,179.23L1489.66,179.27L1489.59,179.309L1489.52,179.346L1489.45,179.382L1489.38,179.416L1489.31,179.449L1489.23,179.479L1489.16,179.508L1489.09,179.535L1489.01,179.561L1488.93,179.584L1488.86,179.606L1488.78,179.626L1488.7,179.645L1488.62,179.661L1488.54,179.675L1488.46,179.688L1488.38,179.699L1488.31,179.708L1488.23,179.715L1488.14,179.72L1488.06,179.723L1487.98,179.724L1487.9,179.723L1487.82,179.72L1487.74,179.715L1487.66,179.708L1487.58,179.699L1487.5,179.688L1487.41,179.675L1487.34,179.66L1487.26,179.643L1487.18,179.625L1487.1,179.605L1487.02,179.583L1486.95,179.559L1486.87,179.533L1486.8,179.505L1486.72,179.476L1486.65,179.445L1486.57,179.412L1486.5,179.378L1486.43,179.342L1486.36,179.304L1486.29,179.264L1486.22,179.223L1486.15,179.18L1486.09,179.136L1486.02,179.09L1485.96,179.043L1485.89,178.994L1485.83,178.943L1485.77,178.891L1485.71,178.838L1485.65,178.783L1485.59,178.838ZM1485.44,185.138L1485.52,185.14L1485.57,185.142L1485.62,185.148L1485.67,185.155L1485.72,185.166L1485.77,185.179L1485.82,185.195L1485.87,185.213L1485.92,185.233L1485.96,185.256L1486.01,185.281L1486.05,185.308L1486.1,185.338L1486.14,185.37L1486.18,185.403L1486.21,185.44L1486.25,185.478L1486.32,185.559L1486.39,185.643L1486.46,185.728L1486.53,185.815L1486.6,185.904L1486.66,185.994L1486.72,186.086L1486.78,186.179L1486.84,186.274L1486.89,186.37L1486.94,186.468L1487,186.567L1487.05,186.667L1487.09,186.769L1487.14,186.872L1487.18,186.976L1487.22,187.081L1487.26,187.188L1487.3,187.296L1487.34,187.405L1487.37,187.515L1487.4,187.626L1487.43,187.738L1487.46,187.851L1487.49,187.965L1487.51,188.079L1487.53,188.195L1487.55,188.312L1487.57,188.429L1487.58,188.547L1487.6,188.666L1487.61,188.786L1487.62,188.906L1487.63,189.027L1487.63,189.148L1487.63,189.27L1487.64,189.393L1487.64,189.516L1487.63,189.64L1487.63,189.764L1487.62,189.888L1487.61,190.013L1487.6,190.138L1487.59,190.263L1487.58,190.388L1487.56,190.514L1487.54,190.64L1487.52,190.766L1487.5,190.893L1487.47,191.019L1487.44,191.145L1487.41,191.272L1487.38,191.398L1487.35,191.524L1487.31,191.651L1487.28,191.777L1487.24,191.903L1487.19,192.029L1487.15,192.154L1487.1,192.279L1487.06,192.404L1487.01,192.529L1486.95,192.653L1486.9,192.777L1486.84,192.9L1486.79,193.021L1486.73,193.14L1486.66,193.259L1486.6,193.376L1486.54,193.491L1486.47,193.605L1486.4,193.718L1486.34,193.829L1486.27,193.939L1486.19,194.047L1486.12,194.154L1486.05,194.259L1485.97,194.362L1485.89,194.464L1485.82,194.564L1485.74,194.663L1485.66,194.76L1485.58,194.856L1485.49,194.949L1485.41,195.041L1485.32,195.131L1485.24,195.22L1485.15,195.307L1485.06,195.392L1484.97,195.475L1484.88,195.556L1484.79,195.635L1484.69,195.713L1484.6,195.788L1484.51,195.862L1484.41,195.934L1484.32,196.004L1484.22,196.072L1484.12,196.137L1484.02,196.201L1483.92,196.263L1483.82,196.323L1483.72,196.381L1483.62,196.436L1483.52,196.49L1483.42,196.541L1483.32,196.59L1483.21,196.637L1483.11,196.682L1483.01,196.724L1482.9,196.765L1482.8,196.803L1482.69,196.839L1482.58,196.872L1482.48,196.903L1482.37,196.932L1482.26,196.959L1482.16,196.983L1482.05,197.004L1481.94,197.024L1481.83,197.041L1481.73,197.055L1481.62,197.067L1481.51,197.076L1481.4,197.083L1481.29,197.087L1481.19,197.089L1481.08,197.088L1480.99,197.091L1480.9,197.092L1480.8,197.09L1480.69,197.087L1480.59,197.081L1480.48,197.072L1480.38,197.062L1480.27,197.049L1480.16,197.033L1480.06,197.015L1479.95,196.995L1479.85,196.973L1479.75,196.949L1479.64,196.922L1479.54,196.893L1479.43,196.862L1479.33,196.828L1479.23,196.793L1479.12,196.755L1479.02,196.715L1478.92,196.673L1478.82,196.629L1478.72,196.583L1478.62,196.535L1478.52,196.485L1478.42,196.433L1478.32,196.379L1478.22,196.322L1478.12,196.264L1478.03,196.204L1477.93,196.142L1477.83,196.078L1477.74,196.012L1477.64,195.945L1477.55,195.875L1477.46,195.804L1477.37,195.731L1477.27,195.656L1477.18,195.579L1477.1,195.5L1477.01,195.42L1476.92,195.338L1476.83,195.254L1476.75,195.169L1476.66,195.082L1476.58,194.993L1476.5,194.902L1476.42,194.81L1476.34,194.717L1476.26,194.621L1476.18,194.525L1476.1,194.426L1476.03,194.326L1475.95,194.225L1475.88,194.122L1475.81,194.018L1475.74,193.912L1475.67,193.805L1475.6,193.696L1475.54,193.586L1475.47,193.474L1475.41,193.361L1475.35,193.247L1475.29,193.132L1475.23,193.015L1475.17,192.897L1475.12,192.774L1475.06,192.651L1475.01,192.527L1474.96,192.403L1474.91,192.279L1474.86,192.154L1474.82,192.029L1474.78,191.904L1474.74,191.779L1474.7,191.653L1474.66,191.527L1474.63,191.402L1474.6,191.276L1474.57,191.15L1474.54,191.024L1474.51,190.899L1474.49,190.773L1474.47,190.647L1474.45,190.522L1474.43,190.397L1474.42,190.272L1474.4,190.147L1474.39,190.022L1474.38,189.898L1474.38,189.774L1474.37,189.651L1474.37,189.528L1474.37,189.405L1474.37,189.283L1474.37,189.161L1474.38,189.04L1474.38,188.92L1474.39,188.8L1474.4,188.681L1474.42,188.563L1474.43,188.445L1474.45,188.328L1474.47,188.212L1474.49,188.097L1474.51,187.982L1474.54,187.869L1474.57,187.756L1474.6,187.644L1474.63,187.534L1474.66,187.424L1474.7,187.316L1474.73,187.208L1474.77,187.102L1474.82,186.997L1474.86,186.893L1474.9,186.79L1474.95,186.689L1475,186.589L1475.05,186.49L1475.11,186.393L1475.16,186.297L1475.22,186.203L1475.28,186.11L1475.34,186.018L1475.4,185.929L1475.47,185.84L1475.53,185.754L1475.6,185.669L1475.67,185.585L1475.71,185.546L1475.75,185.51L1475.79,185.475L1475.83,185.442L1475.87,185.412L1475.91,185.383L1475.96,185.357L1476,185.334L1476.05,185.312L1476.1,185.293L1476.15,185.277L1476.2,185.263L1476.25,185.251L1476.3,185.242L1476.35,185.236L1476.4,185.232L1476.48,185.229L1476.56,185.228L1476.63,185.227L1476.71,185.228L1476.79,185.231L1476.86,185.234L1476.94,185.239L1477.02,185.245L1477.09,185.252L1477.17,185.261L1477.25,185.271L1477.32,185.282L1477.4,185.294L1477.48,185.307L1477.55,185.322L1477.63,185.338L1477.7,185.355L1477.78,185.373L1477.86,185.392L1477.93,185.413L1478.01,185.434L1478.08,185.457L1478.16,185.481L1478.23,185.506L1478.31,185.533L1478.38,185.56L1478.46,185.589L1478.53,185.618L1478.61,185.649L1478.68,185.681L1478.75,185.714L1478.83,185.748L1478.9,185.783L1478.97,185.819L1479.04,185.856L1479.12,185.895L1479.19,185.934L1479.26,185.975L1479.33,186.016L1479.4,186.058L1479.47,186.102L1479.54,186.147L1479.61,186.192L1479.68,186.239L1479.75,186.286L1479.82,186.335L1479.89,186.384L1479.96,186.435L1480.02,186.486L1480.09,186.539L1480.16,186.592L1480.22,186.647L1480.29,186.702L1480.35,186.758L1480.42,186.815L1480.48,186.873L1480.55,186.932L1480.61,186.992L1480.67,187.053L1480.74,187.115L1480.8,187.178L1480.86,187.241L1480.92,187.305L1480.98,187.371L1481.04,187.304L1481.1,187.237L1481.16,187.172L1481.22,187.107L1481.28,187.044L1481.34,186.981L1481.4,186.92L1481.47,186.859L1481.53,186.799L1481.6,186.74L1481.66,186.682L1481.72,186.625L1481.79,186.569L1481.86,186.514L1481.92,186.46L1481.99,186.407L1482.06,186.355L1482.12,186.304L1482.19,186.254L1482.26,186.205L1482.33,186.157L1482.4,186.11L1482.47,186.064L1482.54,186.019L1482.61,185.975L1482.68,185.933L1482.75,185.891L1482.82,185.85L1482.89,185.81L1482.96,185.772L1483.03,185.734L1483.11,185.698L1483.18,185.662L1483.25,185.628L1483.33,185.595L1483.4,185.563L1483.47,185.532L1483.55,185.502L1483.62,185.474L1483.69,185.446L1483.77,185.42L1483.84,185.394L1483.92,185.37L1483.99,185.347L1484.07,185.325L1484.14,185.305L1484.22,185.285L1484.3,185.267L1484.37,185.25L1484.45,185.234L1484.52,185.219L1484.6,185.206L1484.67,185.193L1484.75,185.182L1484.83,185.172L1484.9,185.164L1484.98,185.156L1485.06,185.15L1485.13,185.145L1485.21,185.142L1485.29,185.139L1485.36,185.138L1485.44,185.138ZM1476.92,187.402L1476.89,187.458L1476.86,187.515L1476.83,187.573L1476.8,187.632L1476.78,187.692L1476.75,187.752L1476.72,187.814L1476.7,187.876L1476.68,187.939L1476.65,188.003L1476.63,188.068L1476.61,188.133L1476.59,188.199L1476.58,188.266L1476.56,188.333L1476.54,188.401L1476.53,188.47L1476.52,188.539L1476.5,188.609L1476.49,188.68L1476.48,188.751L1476.47,188.822L1476.46,188.895L1476.46,188.967L1476.45,189.04L1476.45,189.114L1476.44,189.188L1476.44,189.263L1476.44,189.338L1476.44,189.413L1476.44,189.489L1476.44,189.565L1476.44,189.641L1476.45,189.718L1476.45,189.795L1476.46,189.872L1476.47,189.95L1476.48,190.027L1476.49,190.105L1476.5,190.183L1476.51,190.262L1476.52,190.34L1476.53,190.419L1476.55,190.498L1476.57,190.576L1476.58,190.655L1476.6,190.734L1476.62,190.813L1476.64,190.892L1476.66,190.972L1476.68,191.051L1476.71,191.13L1476.73,191.209L1476.76,191.287L1476.79,191.366L1476.81,191.445L1476.84,191.523L1476.87,191.602L1476.9,191.68L1476.94,191.758L1476.97,191.836L1477.01,191.913L1477.04,191.991L1477.08,192.068L1477.12,192.144L1477.16,192.219L1477.2,192.294L1477.24,192.368L1477.28,192.441L1477.32,192.513L1477.36,192.585L1477.41,192.656L1477.45,192.726L1477.5,192.795L1477.54,192.863L1477.59,192.93L1477.63,192.997L1477.68,193.063L1477.73,193.127L1477.78,193.191L1477.83,193.254L1477.88,193.316L1477.93,193.378L1477.99,193.438L1478.04,193.497L1478.09,193.555L1478.14,193.613L1478.2,193.669L1478.25,193.724L1478.31,193.779L1478.36,193.832L1478.42,193.884L1478.48,193.936L1478.53,193.986L1478.59,194.035L1478.65,194.083L1478.71,194.13L1478.77,194.176L1478.82,194.22L1478.88,194.264L1478.94,194.306L1479,194.348L1479.06,194.388L1479.12,194.427L1479.18,194.464L1479.25,194.501L1479.31,194.536L1479.37,194.571L1479.43,194.603L1479.49,194.635L1479.56,194.666L1479.62,194.695L1479.68,194.723L1479.74,194.749L1479.81,194.774L1479.87,194.798L1479.93,194.821L1479.99,194.842L1480.06,194.862L1480.12,194.881L1480.18,194.898L1480.25,194.914L1480.31,194.928L1480.37,194.941L1480.44,194.953L1480.5,194.963L1480.56,194.972L1480.6,194.917L1480.63,194.861L1480.66,194.804L1480.69,194.746L1480.72,194.687L1480.74,194.627L1480.77,194.567L1480.8,194.505L1480.82,194.443L1480.84,194.38L1480.86,194.316L1480.88,194.252L1480.9,194.186L1480.92,194.12L1480.94,194.054L1480.96,193.986L1480.97,193.918L1480.99,193.849L1481,193.78L1481.01,193.71L1481.03,193.639L1481.04,193.568L1481.05,193.497L1481.05,193.425L1481.06,193.352L1481.07,193.279L1481.07,193.205L1481.07,193.131L1481.08,193.056L1481.08,192.982L1481.08,192.906L1481.08,192.83L1481.08,192.754L1481.07,192.678L1481.07,192.601L1481.06,192.524L1481.06,192.447L1481.05,192.37L1481.04,192.292L1481.03,192.214L1481.02,192.136L1481.01,192.057L1481,191.979L1480.98,191.9L1480.97,191.822L1480.95,191.743L1480.94,191.664L1480.92,191.585L1480.9,191.506L1480.88,191.427L1480.86,191.348L1480.83,191.268L1480.81,191.189L1480.79,191.111L1480.76,191.032L1480.73,190.953L1480.7,190.874L1480.67,190.796L1480.64,190.717L1480.61,190.639L1480.58,190.561L1480.55,190.483L1480.51,190.406L1480.48,190.328L1480.44,190.251L1480.4,190.175L1480.36,190.1L1480.32,190.025L1480.28,189.951L1480.24,189.878L1480.2,189.806L1480.16,189.734L1480.11,189.664L1480.07,189.594L1480.02,189.524L1479.98,189.456L1479.93,189.389L1479.88,189.322L1479.84,189.256L1479.79,189.192L1479.74,189.128L1479.69,189.065L1479.64,189.003L1479.59,188.941L1479.53,188.881L1479.48,188.822L1479.43,188.764L1479.37,188.706L1479.32,188.65L1479.27,188.595L1479.21,188.54L1479.15,188.487L1479.1,188.435L1479.04,188.384L1478.99,188.333L1478.93,188.284L1478.87,188.236L1478.81,188.189L1478.75,188.143L1478.69,188.099L1478.63,188.055L1478.58,188.013L1478.52,187.971L1478.45,187.931L1478.39,187.892L1478.33,187.855L1478.27,187.818L1478.21,187.783L1478.15,187.748L1478.09,187.716L1478.03,187.684L1477.96,187.653L1477.9,187.624L1477.84,187.596L1477.78,187.57L1477.71,187.545L1477.65,187.521L1477.59,187.498L1477.52,187.477L1477.46,187.457L1477.4,187.438L1477.33,187.421L1477.27,187.405L1477.21,187.391L1477.14,187.378L1477.08,187.366L1477.02,187.356L1476.96,187.347L1476.92,187.402ZM1484.96,187.272L1484.91,187.28L1484.87,187.289L1484.82,187.299L1484.77,187.31L1484.73,187.321L1484.63,187.346L1484.54,187.374L1484.44,187.405L1484.35,187.439L1484.26,187.476L1484.16,187.516L1484.07,187.558L1483.98,187.604L1483.89,187.652L1483.8,187.704L1483.7,187.758L1483.62,187.814L1483.53,187.874L1483.44,187.936L1483.35,188L1483.26,188.068L1483.17,188.137L1483.09,188.21L1483,188.284L1482.92,188.361L1482.84,188.441L1482.75,188.523L1482.67,188.607L1482.59,188.694L1482.52,188.782L1482.44,188.873L1482.36,188.967L1482.29,189.062L1482.22,189.159L1482.28,189.29L1482.35,189.423L1482.38,189.5L1482.42,189.577L1482.45,189.655L1482.49,189.733L1482.52,189.811L1482.55,189.889L1482.58,189.967L1482.61,190.046L1482.64,190.124L1482.67,190.203L1482.7,190.282L1482.72,190.361L1482.75,190.44L1482.78,190.518L1482.8,190.598L1482.82,190.677L1482.85,190.756L1482.87,190.835L1482.89,190.914L1482.91,190.994L1482.93,191.073L1482.95,191.152L1482.97,191.231L1482.98,191.311L1483,191.39L1483.02,191.469L1483.03,191.548L1483.04,191.628L1483.06,191.707L1483.07,191.786L1483.08,191.865L1483.09,191.944L1483.1,192.023L1483.11,192.101L1483.12,192.18L1483.12,192.258L1483.13,192.337L1483.13,192.415L1483.14,192.493L1483.14,192.571L1483.15,192.649L1483.15,192.726L1483.15,192.804L1483.15,192.881L1483.15,192.958L1483.15,193.035L1483.15,193.112L1483.15,193.188L1483.14,193.265L1483.14,193.341L1483.13,193.416L1483.13,193.492L1483.12,193.567L1483.11,193.642L1483.11,193.717L1483.1,193.791L1483.09,193.865L1483.08,193.939L1483.07,194.013L1483.05,194.086L1483.04,194.159L1483.03,194.231L1483.01,194.304L1483,194.375L1483.07,194.324L1483.15,194.27L1483.22,194.215L1483.3,194.157L1483.37,194.098L1483.44,194.037L1483.52,193.975L1483.59,193.91L1483.66,193.844L1483.73,193.776L1483.8,193.707L1483.87,193.636L1483.93,193.563L1484,193.489L1484.07,193.413L1484.13,193.336L1484.19,193.257L1484.26,193.177L1484.32,193.095L1484.38,193.012L1484.44,192.927L1484.5,192.841L1484.55,192.754L1484.61,192.665L1484.66,192.575L1484.72,192.484L1484.77,192.391L1484.82,192.297L1484.87,192.202L1484.92,192.106L1484.97,192.008L1485.01,191.91L1485.05,191.832L1485.08,191.753L1485.11,191.675L1485.14,191.596L1485.17,191.517L1485.2,191.438L1485.23,191.359L1485.26,191.28L1485.28,191.201L1485.31,191.121L1485.33,191.042L1485.35,190.963L1485.37,190.883L1485.39,190.804L1485.41,190.724L1485.43,190.645L1485.44,190.565L1485.46,190.486L1485.48,190.407L1485.49,190.328L1485.5,190.249L1485.51,190.17L1485.52,190.092L1485.53,190.013L1485.54,189.935L1485.55,189.857L1485.55,189.78L1485.56,189.702L1485.56,189.625L1485.56,189.548L1485.56,189.472L1485.56,189.396L1485.56,189.32L1485.56,189.245L1485.56,189.17L1485.55,189.096L1485.55,189.022L1485.54,188.948L1485.54,188.875L1485.53,188.803L1485.52,188.731L1485.51,188.659L1485.5,188.588L1485.48,188.518L1485.47,188.448L1485.45,188.379L1485.44,188.311L1485.42,188.243L1485.4,188.176L1485.38,188.11L1485.36,188.044L1485.34,187.979L1485.32,187.915L1485.3,187.851L1485.27,187.789L1485.25,187.727L1485.22,187.666L1485.19,187.606L1485.16,187.547L1485.13,187.489L1485.1,187.431L1485.07,187.375L1485.04,187.319L1485.01,187.265L1484.96,187.272ZM1492.28,159.001L1492.32,159.004L1492.37,159.009L1492.42,159.017L1492.47,159.027L1492.52,159.04L1492.57,159.054L1492.61,159.072L1492.66,159.091L1492.7,159.113L1492.75,159.137L1492.79,159.163L1492.84,159.191L1492.88,159.221L1492.91,159.254L1492.95,159.289L1492.99,159.326L1493.02,159.365L1493.06,159.406L1493.09,159.449L1493.12,159.494L1493.14,159.54L1493.17,159.588L1493.19,159.636L1493.21,159.685L1493.23,159.734L1493.24,159.783L1493.25,159.834L1493.26,159.884L1493.27,159.934L1493.27,159.985L1493.27,160.036L1493.27,160.086L1493.27,160.137L1493.27,160.187L1493.26,160.236L1493.25,160.286L1493.24,160.335L1493.22,160.383L1493.2,160.43L1493.18,160.477L1493.16,160.522L1493.14,160.567L1493.11,160.611L1493.09,160.653L1493.06,160.694L1493.02,160.734L1492.99,160.772L1492.95,160.809L1492.91,160.844L1492.87,160.878L1492.83,160.909L1492.79,160.939L1492.73,160.974L1492.68,161.01L1492.62,161.046L1492.57,161.084L1492.52,161.122L1492.46,161.161L1492.41,161.201L1492.36,161.241L1492.31,161.283L1492.26,161.325L1492.21,161.368L1492.16,161.411L1492.11,161.456L1492.06,161.501L1492.01,161.546L1491.96,161.593L1491.91,161.64L1491.87,161.688L1491.82,161.737L1491.78,161.786L1491.73,161.836L1491.68,161.886L1491.64,161.938L1491.6,161.99L1491.55,162.042L1491.51,162.095L1491.47,162.149L1491.42,162.204L1491.38,162.259L1491.34,162.315L1491.3,162.371L1491.26,162.428L1491.22,162.486L1491.18,162.544L1491.14,162.603L1491.11,162.662L1491.07,162.722L1491.03,162.782L1491,162.843L1490.96,162.905L1490.92,162.967L1490.89,163.03L1490.86,163.093L1490.82,163.157L1490.79,163.221L1490.76,163.285L1490.7,163.416L1490.63,163.549L1490.58,163.684L1490.52,163.821L1490.47,163.959L1490.42,164.099L1490.37,164.241L1490.33,164.384L1490.28,164.529L1490.32,164.529L1490.4,164.53L1490.48,164.532L1490.56,164.534L1490.63,164.538L1490.71,164.543L1490.79,164.548L1490.87,164.555L1490.95,164.563L1491.03,164.572L1491.11,164.581L1491.18,164.592L1491.26,164.604L1491.34,164.617L1491.42,164.63L1491.49,164.645L1491.57,164.661L1491.65,164.677L1491.72,164.695L1491.8,164.714L1491.88,164.733L1491.95,164.754L1492.03,164.775L1492.1,164.797L1492.18,164.821L1492.25,164.845L1492.33,164.87L1492.4,164.896L1492.47,164.923L1492.55,164.951L1492.62,164.98L1492.69,165.009L1492.76,165.04L1492.83,165.071L1492.9,165.103L1492.97,165.137L1493.04,165.171L1493.11,165.206L1493.18,165.241L1493.25,165.278L1493.32,165.315L1493.38,165.354L1493.45,165.393L1493.52,165.433L1493.58,165.473L1493.65,165.515L1493.71,165.557L1493.78,165.601L1493.84,165.645L1493.9,165.689L1493.96,165.735L1494.03,165.781L1494.09,165.829L1494.14,165.877L1494.2,165.925L1494.26,165.975L1494.32,166.025L1494.38,166.076L1494.43,166.128L1494.49,166.18L1494.54,166.233L1494.6,166.287L1494.65,166.342L1494.7,166.397L1494.75,166.454L1494.8,166.501L1494.84,166.548L1494.88,166.596L1494.92,166.644L1494.96,166.692L1495,166.741L1495.03,166.79L1495.07,166.84L1495.11,166.889L1495.14,166.94L1495.18,166.99L1495.21,167.041L1495.25,167.092L1495.28,167.143L1495.31,167.194L1495.34,167.246L1495.37,167.298L1495.4,167.351L1495.43,167.403L1495.46,167.456L1495.49,167.509L1495.52,167.563L1495.54,167.616L1495.57,167.67L1495.6,167.724L1495.62,167.779L1495.64,167.833L1495.67,167.888L1495.69,167.943L1495.71,167.998L1495.73,168.054L1495.75,168.109L1495.77,168.165L1495.79,168.221L1495.81,168.277L1495.82,168.334L1495.84,168.39L1495.85,168.447L1495.87,168.504L1495.88,168.561L1495.89,168.618L1495.91,168.675L1495.92,168.733L1495.93,168.79L1495.94,168.848L1495.95,168.906L1495.96,168.964L1495.97,169.022L1495.97,169.08L1495.98,169.138L1495.98,169.197L1495.99,169.255L1495.99,169.314L1496,169.372L1496,169.431L1496,169.49L1496,169.549L1496,169.608L1496,169.667L1496,169.726L1496,169.785L1495.99,169.844L1495.99,169.903L1495.98,169.962L1495.58,174.508L1495.58,174.561L1495.57,174.614L1495.56,174.666L1495.54,174.716L1495.53,174.766L1495.51,174.814L1495.49,174.861L1495.47,174.907L1495.44,174.951L1495.41,174.994L1495.39,175.036L1495.36,175.076L1495.32,175.114L1495.29,175.15L1495.25,175.185L1495.22,175.219L1495.18,175.25L1495.14,175.279L1495.1,175.307L1495.05,175.332L1495.01,175.356L1494.96,175.377L1494.92,175.396L1494.87,175.413L1494.82,175.427L1494.77,175.44L1494.72,175.449L1494.67,175.457L1494.62,175.461L1494.57,175.463L1494.51,175.463L1494.46,175.46L1494.41,175.453L1494.35,175.445L1494.3,175.433L1494.25,175.419L1494.2,175.403L1494.16,175.385L1494.11,175.364L1494.06,175.341L1494.02,175.316L1493.98,175.289L1493.94,175.26L1493.9,175.229L1493.86,175.196L1493.82,175.162L1493.79,175.125L1493.76,175.088L1493.73,175.048L1493.69,175.007L1493.67,174.965L1493.64,174.922L1493.62,174.877L1493.6,174.831L1493.58,174.784L1493.56,174.735L1493.55,174.686L1493.54,174.636L1493.53,174.585L1493.52,174.534L1493.52,174.482L1493.51,174.429L1493.52,174.375L1493.52,174.321L1493.77,171.519L1492.58,171.519L1492.53,171.517L1492.48,171.513L1492.42,171.507L1492.37,171.498L1492.32,171.486L1492.27,171.472L1492.23,171.455L1492.18,171.436L1492.13,171.415L1492.09,171.392L1492.04,171.367L1492,171.34L1491.96,171.31L1491.92,171.279L1491.88,171.246L1491.85,171.212L1491.81,171.175L1491.78,171.137L1491.75,171.098L1491.72,171.056L1491.69,171.014L1491.67,170.97L1491.65,170.925L1491.63,170.878L1491.61,170.831L1491.59,170.782L1491.58,170.732L1491.57,170.681L1491.56,170.63L1491.55,170.577L1491.55,170.524L1491.55,170.47L1491.55,170.416L1491.55,170.363L1491.56,170.31L1491.57,170.259L1491.58,170.208L1491.59,170.158L1491.61,170.109L1491.63,170.062L1491.65,170.015L1491.67,169.97L1491.69,169.926L1491.72,169.884L1491.75,169.842L1491.78,169.803L1491.81,169.765L1491.85,169.728L1491.88,169.694L1491.92,169.661L1491.96,169.629L1492,169.6L1492.04,169.573L1492.09,169.548L1492.13,169.525L1492.18,169.503L1492.23,169.485L1492.27,169.468L1492.32,169.454L1492.37,169.442L1492.42,169.433L1492.48,169.426L1492.53,169.422L1492.58,169.421L1493.92,169.421L1493.92,169.357L1493.91,169.295L1493.9,169.233L1493.89,169.172L1493.88,169.112L1493.87,169.053L1493.85,168.995L1493.84,168.938L1493.82,168.882L1493.8,168.827L1493.78,168.772L1493.76,168.719L1493.74,168.667L1493.72,168.616L1493.7,168.566L1493.67,168.516L1493.65,168.468L1493.62,168.421L1493.6,168.375L1493.57,168.33L1493.54,168.285L1493.51,168.242L1493.49,168.2L1493.46,168.159L1493.43,168.119L1493.4,168.08L1493.34,168.006L1493.28,167.936L1493.23,167.87L1493.16,167.798L1493.09,167.728L1493.02,167.659L1492.94,167.593L1492.87,167.529L1492.79,167.466L1492.71,167.406L1492.63,167.347L1492.55,167.291L1492.46,167.237L1492.38,167.185L1492.29,167.135L1492.2,167.087L1492.11,167.041L1492.02,166.998L1491.93,166.957L1491.83,166.918L1491.74,166.881L1491.64,166.847L1491.54,166.815L1491.44,166.786L1491.35,166.759L1491.25,166.734L1491.14,166.712L1491.04,166.692L1490.94,166.675L1490.84,166.661L1490.74,166.649L1490.63,166.639L1490.53,166.633L1490.42,166.629L1490.32,166.627L1487.71,166.627L1487.61,166.629L1487.5,166.633L1487.4,166.639L1487.3,166.649L1487.19,166.661L1487.09,166.675L1486.99,166.692L1486.89,166.712L1486.79,166.734L1486.69,166.759L1486.59,166.786L1486.49,166.815L1486.39,166.847L1486.3,166.881L1486.2,166.918L1486.11,166.957L1486.01,166.998L1485.92,167.041L1485.83,167.087L1485.74,167.135L1485.65,167.185L1485.57,167.237L1485.48,167.291L1485.4,167.347L1485.32,167.406L1485.24,167.466L1485.16,167.529L1485.09,167.593L1485.02,167.659L1484.94,167.728L1484.87,167.798L1484.81,167.87L1484.77,167.908L1484.74,167.947L1484.71,167.988L1484.67,168.03L1484.64,168.074L1484.6,168.119L1484.57,168.166L1484.54,168.214L1484.51,168.264L1484.47,168.315L1484.44,168.367L1484.41,168.421L1484.38,168.476L1484.35,168.533L1484.32,168.591L1484.3,168.65L1484.27,168.711L1484.25,168.773L1484.23,168.836L1484.2,168.9L1484.19,168.966L1484.17,169.034L1484.15,169.102L1484.14,169.172L1484.13,169.243L1484.12,169.316L1484.11,169.389L1484.11,169.464L1484.1,169.54L1484.11,169.617L1484.11,169.696L1484.11,169.776L1484.3,171.888L1485.67,171.888L1485.72,171.889L1485.77,171.893L1485.83,171.9L1485.88,171.909L1485.93,171.921L1485.98,171.935L1486.02,171.952L1486.07,171.97L1486.12,171.991L1486.16,172.015L1486.2,172.04L1486.25,172.067L1486.29,172.096L1486.33,172.127L1486.36,172.16L1486.4,172.195L1486.43,172.232L1486.47,172.27L1486.5,172.309L1486.53,172.35L1486.55,172.393L1486.58,172.437L1486.6,172.482L1486.62,172.529L1486.64,172.576L1486.66,172.625L1486.67,172.675L1486.68,172.725L1486.69,172.777L1486.7,172.83L1486.7,172.883L1486.7,172.937L1486.7,172.991L1486.7,173.044L1486.69,173.097L1486.68,173.148L1486.67,173.199L1486.66,173.249L1486.64,173.298L1486.62,173.345L1486.6,173.392L1486.58,173.437L1486.55,173.481L1486.53,173.523L1486.5,173.565L1486.47,173.604L1486.43,173.642L1486.4,173.679L1486.36,173.713L1486.33,173.746L1486.29,173.778L1486.25,173.807L1486.2,173.834L1486.16,173.859L1486.12,173.882L1486.07,173.903L1486.02,173.922L1485.98,173.939L1485.93,173.953L1485.88,173.965L1485.83,173.974L1485.77,173.98L1485.72,173.985L1485.67,173.986L1484.48,173.986L1484.51,174.321L1484.52,174.375L1484.52,174.429L1484.52,174.482L1484.51,174.534L1484.5,174.586L1484.5,174.636L1484.48,174.686L1484.47,174.735L1484.45,174.784L1484.43,174.831L1484.41,174.877L1484.39,174.922L1484.36,174.965L1484.34,175.007L1484.31,175.048L1484.28,175.088L1484.24,175.125L1484.21,175.162L1484.17,175.196L1484.13,175.229L1484.1,175.26L1484.05,175.289L1484.01,175.316L1483.97,175.341L1483.92,175.364L1483.88,175.385L1483.83,175.403L1483.78,175.42L1483.73,175.433L1483.68,175.445L1483.63,175.453L1483.57,175.46L1483.53,175.463L1483.48,175.464L1483.43,175.462L1483.38,175.459L1483.33,175.453L1483.29,175.445L1483.24,175.435L1483.19,175.422L1483.15,175.408L1483.1,175.391L1483.06,175.372L1483.02,175.352L1482.97,175.329L1482.93,175.305L1482.89,175.279L1482.86,175.251L1482.82,175.221L1482.78,175.19L1482.75,175.157L1482.72,175.123L1482.69,175.087L1482.66,175.05L1482.63,175.011L1482.6,174.971L1482.58,174.93L1482.56,174.887L1482.54,174.844L1482.52,174.799L1482.5,174.753L1482.49,174.706L1482.47,174.658L1482.46,174.609L1482.45,174.559L1482.45,174.508L1482.32,173.052L1482.32,173.01L1482.05,169.962L1482.04,169.903L1482.04,169.844L1482.04,169.785L1482.03,169.726L1482.03,169.667L1482.03,169.608L1482.03,169.549L1482.03,169.49L1482.03,169.431L1482.04,169.373L1482.04,169.314L1482.04,169.255L1482.05,169.197L1482.05,169.138L1482.06,169.08L1482.07,169.022L1482.07,168.964L1482.08,168.906L1482.09,168.848L1482.1,168.79L1482.11,168.733L1482.12,168.675L1482.14,168.618L1482.15,168.561L1482.16,168.504L1482.18,168.447L1482.19,168.39L1482.21,168.334L1482.23,168.278L1482.25,168.221L1482.26,168.165L1482.28,168.11L1482.3,168.054L1482.32,167.999L1482.34,167.943L1482.37,167.888L1482.39,167.834L1482.41,167.779L1482.44,167.725L1482.46,167.67L1482.49,167.617L1482.51,167.563L1482.54,167.51L1482.57,167.456L1482.6,167.403L1482.63,167.351L1482.66,167.298L1482.69,167.246L1482.72,167.195L1482.75,167.143L1482.79,167.092L1482.82,167.041L1482.85,166.99L1482.89,166.94L1482.92,166.89L1482.96,166.84L1483,166.79L1483.04,166.741L1483.07,166.693L1483.11,166.644L1483.15,166.596L1483.19,166.548L1483.28,166.454L1483.33,166.398L1483.38,166.342L1483.43,166.288L1483.49,166.234L1483.54,166.18L1483.6,166.128L1483.65,166.076L1483.71,166.025L1483.77,165.975L1483.83,165.925L1483.89,165.877L1483.95,165.829L1484.01,165.782L1484.07,165.735L1484.13,165.69L1484.19,165.645L1484.26,165.601L1484.32,165.558L1484.38,165.515L1484.45,165.474L1484.52,165.433L1484.58,165.393L1484.65,165.354L1484.71,165.315L1484.78,165.278L1484.85,165.241L1484.92,165.206L1484.99,165.171L1485.06,165.137L1485.13,165.104L1485.2,165.071L1485.27,165.04L1485.34,165.009L1485.41,164.98L1485.49,164.951L1485.56,164.923L1485.63,164.896L1485.71,164.87L1485.78,164.845L1485.86,164.821L1485.93,164.797L1486.01,164.775L1486.08,164.754L1486.16,164.733L1486.23,164.714L1486.31,164.695L1486.38,164.677L1486.46,164.661L1486.54,164.645L1486.62,164.63L1486.69,164.617L1486.77,164.604L1486.85,164.592L1486.93,164.581L1487,164.572L1487.08,164.563L1487.16,164.555L1487.24,164.548L1487.32,164.543L1487.4,164.538L1487.48,164.534L1487.56,164.532L1487.63,164.53L1487.71,164.529L1487.75,164.529L1487.71,164.384L1487.66,164.241L1487.61,164.099L1487.56,163.959L1487.51,163.821L1487.45,163.684L1487.4,163.549L1487.34,163.416L1487.27,163.285L1487.24,163.221L1487.21,163.157L1487.17,163.093L1487.14,163.03L1487.11,162.967L1487.07,162.905L1487.04,162.843L1487,162.782L1486.96,162.722L1486.93,162.662L1486.89,162.603L1486.85,162.544L1486.81,162.486L1486.77,162.428L1486.73,162.371L1486.69,162.315L1486.65,162.259L1486.61,162.204L1486.57,162.149L1486.52,162.095L1486.48,162.042L1486.44,161.99L1486.39,161.938L1486.35,161.886L1486.3,161.836L1486.26,161.786L1486.21,161.737L1486.16,161.688L1486.12,161.64L1486.07,161.593L1486.02,161.546L1485.97,161.501L1485.92,161.456L1485.87,161.411L1485.82,161.368L1485.77,161.325L1485.72,161.283L1485.67,161.241L1485.62,161.201L1485.57,161.161L1485.52,161.122L1485.46,161.084L1485.41,161.046L1485.36,161.01L1485.3,160.974L1485.25,160.939L1485.2,160.909L1485.16,160.878L1485.12,160.844L1485.08,160.809L1485.04,160.772L1485.01,160.734L1484.98,160.694L1484.95,160.653L1484.92,160.611L1484.89,160.567L1484.87,160.522L1484.85,160.477L1484.83,160.43L1484.81,160.383L1484.8,160.335L1484.79,160.286L1484.78,160.237L1484.77,160.187L1484.76,160.137L1484.76,160.086L1484.76,160.036L1484.76,159.985L1484.76,159.935L1484.77,159.884L1484.78,159.834L1484.79,159.784L1484.81,159.734L1484.82,159.685L1484.84,159.636L1484.86,159.588L1484.89,159.54L1484.91,159.494L1484.94,159.449L1484.98,159.406L1485.01,159.365L1485.04,159.326L1485.08,159.289L1485.12,159.254L1485.16,159.222L1485.2,159.191L1485.24,159.163L1485.28,159.137L1485.33,159.113L1485.37,159.091L1485.42,159.072L1485.46,159.055L1485.51,159.04L1485.56,159.027L1485.61,159.017L1485.66,159.009L1485.71,159.004L1485.76,159.001L1485.81,159L1485.86,159.002L1485.91,159.006L1485.96,159.013L1486.01,159.022L1486.06,159.034L1486.11,159.048L1486.15,159.065L1486.2,159.085L1486.25,159.107L1486.3,159.132L1486.34,159.159L1486.45,159.225L1486.55,159.293L1486.65,159.363L1486.75,159.435L1486.85,159.509L1486.94,159.585L1487.04,159.662L1487.13,159.742L1487.23,159.823L1487.32,159.906L1487.41,159.991L1487.5,160.077L1487.59,160.166L1487.68,160.255L1487.76,160.347L1487.85,160.44L1487.93,160.535L1488.01,160.631L1488.09,160.729L1488.17,160.829L1488.25,160.93L1488.33,161.032L1488.4,161.136L1488.48,161.242L1488.55,161.349L1488.62,161.457L1488.69,161.566L1488.76,161.677L1488.83,161.79L1488.89,161.903L1488.95,162.018L1489.02,162.134L1489.08,162.018L1489.14,161.903L1489.21,161.79L1489.27,161.677L1489.34,161.566L1489.41,161.457L1489.48,161.349L1489.56,161.242L1489.63,161.136L1489.7,161.032L1489.78,160.93L1489.86,160.829L1489.94,160.729L1490.02,160.631L1490.1,160.535L1490.18,160.44L1490.27,160.347L1490.36,160.256L1490.44,160.166L1490.53,160.077L1490.62,159.991L1490.71,159.906L1490.81,159.823L1490.9,159.742L1490.99,159.662L1491.09,159.585L1491.19,159.509L1491.29,159.435L1491.38,159.363L1491.49,159.293L1491.59,159.225L1491.69,159.159L1491.74,159.132L1491.78,159.107L1491.83,159.085L1491.88,159.065L1491.93,159.048L1491.98,159.034L1492.03,159.022L1492.08,159.013L1492.12,159.006L1492.17,159.002L1492.23,159L1492.28,159.001ZM1468.85,166.064L1468.89,166.069L1468.94,166.076L1468.99,166.086L1469.04,166.098L1469.09,166.113L1469.14,166.13L1469.19,166.15L1469.24,166.173L1469.28,166.198L1469.33,166.226L1469.37,166.256L1469.41,166.288L1469.45,166.322L1469.49,166.357L1469.53,166.395L1469.56,166.433L1469.6,166.473L1469.62,166.515L1469.65,166.557L1469.68,166.601L1469.7,166.646L1469.72,166.692L1469.74,166.739L1469.76,166.786L1469.77,166.835L1469.78,166.884L1469.79,166.933L1469.8,166.983L1469.81,167.033L1469.81,167.083L1469.81,167.134L1469.81,167.185L1469.8,167.235L1469.79,167.286L1469.78,167.336L1469.77,167.386L1469.76,167.435L1469.74,167.484L1469.72,167.533L1469.7,167.581L1469.67,167.628L1469.65,167.674L1469.59,167.76L1469.54,167.847L1469.49,167.934L1469.44,168.021L1469.39,168.109L1469.34,168.197L1469.29,168.285L1469.24,168.374L1469.2,168.463L1469.15,168.553L1469.11,168.643L1469.06,168.733L1469.02,168.824L1468.98,168.915L1468.94,169.007L1468.9,169.098L1468.86,169.19L1468.82,169.283L1468.78,169.376L1468.75,169.469L1468.71,169.562L1468.68,169.656L1468.64,169.75L1468.61,169.844L1468.58,169.939L1468.55,170.033L1468.52,170.129L1468.49,170.224L1468.46,170.32L1468.44,170.416L1468.41,170.512L1468.39,170.608L1468.36,170.705L1468.34,170.802L1468.32,170.899L1468.3,170.997L1468.28,171.094L1468.26,171.192L1468.24,171.291L1468.22,171.389L1468.2,171.487L1468.19,171.586L1468.17,171.685L1468.16,171.784L1468.15,171.884L1468.14,171.983L1468.13,172.083L1468.12,172.183L1468.11,172.283L1468.1,172.383L1468.09,172.483L1468.09,172.584L1468.08,172.685L1468.08,172.785L1468.08,172.886L1468.08,172.987L1468.08,173.089L1468.08,173.19L1468.08,173.291L1468.08,173.393L1468.08,173.495L1468.09,173.596L1468.09,173.698L1468.1,173.8L1468.1,173.854L1468.1,173.908L1468.1,173.96L1468.09,174.012L1468.08,174.064L1468.07,174.114L1468.06,174.164L1468.04,174.213L1468.02,174.261L1468,174.307L1467.98,174.353L1467.96,174.397L1467.93,174.44L1467.9,174.482L1467.87,174.522L1467.84,174.56L1467.81,174.597L1467.77,174.633L1467.74,174.666L1467.7,174.698L1467.66,174.728L1467.62,174.756L1467.57,174.782L1467.53,174.806L1467.48,174.828L1467.43,174.848L1467.39,174.865L1467.34,174.88L1467.29,174.893L1467.24,174.903L1467.18,174.91L1467.13,174.915L1467.1,174.917L1467.06,174.918L1467.01,174.916L1466.96,174.913L1466.91,174.907L1466.86,174.898L1466.82,174.888L1466.77,174.875L1466.72,174.86L1466.68,174.842L1466.63,174.823L1466.59,174.802L1466.55,174.779L1466.51,174.754L1466.47,174.727L1466.43,174.698L1466.39,174.668L1466.36,174.635L1466.32,174.602L1466.29,174.566L1466.26,174.529L1466.23,174.491L1466.2,174.451L1466.17,174.41L1466.15,174.368L1466.13,174.324L1466.11,174.28L1466.09,174.234L1466.07,174.187L1466.06,174.139L1466.05,174.09L1466.04,174.04L1466.03,173.989L1466.03,173.937L1466.02,173.814L1466.01,173.691L1466.01,173.569L1466.01,173.446L1466,173.324L1466,173.201L1466,173.079L1466,172.957L1466,172.835L1466.01,172.713L1466.01,172.592L1466.02,172.47L1466.03,172.349L1466.03,172.228L1466.04,172.107L1466.05,171.986L1466.06,171.866L1466.08,171.746L1466.09,171.625L1466.11,171.506L1466.12,171.386L1466.14,171.267L1466.16,171.148L1466.18,171.029L1466.2,170.91L1466.22,170.792L1466.24,170.673L1466.27,170.556L1466.29,170.438L1466.32,170.321L1466.35,170.204L1466.38,170.087L1466.41,169.971L1466.44,169.855L1466.47,169.739L1466.5,169.623L1466.54,169.508L1466.57,169.393L1466.61,169.279L1466.65,169.165L1466.69,169.051L1466.73,168.938L1466.77,168.825L1466.81,168.712L1466.86,168.6L1466.9,168.488L1466.95,168.376L1466.99,168.265L1467.04,168.154L1467.09,168.044L1467.14,167.934L1467.19,167.825L1467.25,167.716L1467.3,167.607L1467.35,167.499L1467.41,167.391L1467.47,167.284L1467.53,167.177L1467.58,167.071L1467.64,166.965L1467.71,166.86L1467.77,166.755L1467.83,166.651L1467.9,166.547L1467.93,166.502L1467.96,166.459L1467.99,166.418L1468.03,166.38L1468.06,166.343L1468.1,166.309L1468.14,166.277L1468.18,166.247L1468.23,166.219L1468.27,166.193L1468.31,166.17L1468.36,166.148L1468.4,166.129L1468.45,166.113L1468.5,166.098L1468.55,166.086L1468.6,166.077L1468.64,166.069L1468.69,166.064L1468.75,166.062L1468.8,166.062L1468.85,166.064ZM1472.48,169.258L1472.53,169.262L1472.59,169.269L1472.64,169.278L1472.69,169.29L1472.74,169.304L1472.79,169.322L1472.84,169.341L1472.89,169.363L1472.93,169.387L1472.98,169.413L1473.02,169.442L1473.06,169.472L1473.1,169.504L1473.14,169.538L1473.17,169.573L1473.21,169.61L1473.24,169.649L1473.27,169.689L1473.3,169.731L1473.33,169.773L1473.35,169.817L1473.37,169.862L1473.39,169.909L1473.41,169.956L1473.42,170.004L1473.44,170.052L1473.45,170.102L1473.46,170.152L1473.46,170.202L1473.47,170.253L1473.47,170.305L1473.47,170.357L1473.46,170.409L1473.46,170.461L1473.45,170.513L1473.44,170.565L1473.42,170.617L1473.4,170.695L1473.38,170.774L1473.36,170.853L1473.34,170.933L1473.32,171.012L1473.31,171.092L1473.29,171.172L1473.28,171.252L1473.27,171.332L1473.26,171.412L1473.25,171.492L1473.25,171.573L1473.24,171.653L1473.24,171.733L1473.24,171.814L1473.24,171.894L1473.24,171.975L1473.25,172.055L1473.25,172.135L1473.26,172.216L1473.27,172.296L1473.28,172.376L1473.29,172.456L1473.3,172.536L1473.32,172.616L1473.33,172.695L1473.35,172.774L1473.37,172.853L1473.39,172.932L1473.41,173.011L1473.44,173.089L1473.46,173.168L1473.48,173.219L1473.49,173.271L1473.5,173.322L1473.51,173.374L1473.52,173.426L1473.52,173.478L1473.52,173.529L1473.52,173.58L1473.51,173.631L1473.51,173.681L1473.5,173.731L1473.49,173.78L1473.47,173.829L1473.45,173.876L1473.44,173.923L1473.41,173.969L1473.39,174.014L1473.37,174.057L1473.34,174.099L1473.31,174.141L1473.28,174.18L1473.25,174.218L1473.21,174.255L1473.18,174.29L1473.14,174.323L1473.1,174.355L1473.06,174.384L1473.01,174.412L1472.97,174.437L1472.92,174.461L1472.87,174.482L1472.82,174.501L1472.78,174.515L1472.74,174.526L1472.69,174.536L1472.65,174.544L1472.61,174.551L1472.57,174.555L1472.53,174.558L1472.48,174.559L1472.44,174.558L1472.4,174.555L1472.36,174.552L1472.32,174.546L1472.29,174.539L1472.25,174.531L1472.21,174.521L1472.17,174.509L1472.13,174.496L1472.1,174.482L1472.06,174.466L1472.02,174.449L1471.99,174.431L1471.95,174.411L1471.92,174.39L1471.89,174.368L1471.86,174.344L1471.83,174.32L1471.79,174.293L1471.77,174.266L1471.74,174.238L1471.71,174.208L1471.68,174.177L1471.66,174.145L1471.63,174.112L1471.61,174.078L1471.59,174.043L1471.57,174.007L1471.55,173.969L1471.53,173.931L1471.52,173.892L1471.5,173.851L1471.46,173.733L1471.43,173.615L1471.39,173.496L1471.36,173.377L1471.33,173.257L1471.31,173.138L1471.28,173.017L1471.26,172.897L1471.24,172.776L1471.22,172.655L1471.21,172.534L1471.19,172.413L1471.18,172.292L1471.17,172.17L1471.17,172.049L1471.17,171.927L1471.17,171.806L1471.17,171.684L1471.17,171.562L1471.18,171.441L1471.19,171.319L1471.2,171.198L1471.21,171.077L1471.23,170.956L1471.25,170.835L1471.27,170.714L1471.29,170.593L1471.32,170.473L1471.34,170.353L1471.37,170.234L1471.41,170.114L1471.44,169.996L1471.46,169.944L1471.48,169.895L1471.5,169.847L1471.52,169.8L1471.55,169.755L1471.58,169.712L1471.61,169.67L1471.64,169.63L1471.67,169.592L1471.71,169.556L1471.75,169.521L1471.78,169.489L1471.82,169.458L1471.86,169.429L1471.91,169.403L1471.95,169.378L1471.99,169.356L1472.04,169.336L1472.09,169.318L1472.13,169.302L1472.18,169.288L1472.23,169.277L1472.28,169.268L1472.33,169.262L1472.38,169.258L1472.43,169.257L1472.48,169.258ZM1476.41,168.995L1476.46,168.998L1476.51,169.003L1476.56,169.01L1476.61,169.02L1476.66,169.033L1476.71,169.048L1476.76,169.065L1476.81,169.085L1476.86,169.108L1476.9,169.133L1476.95,169.161L1477.05,169.23L1477.15,169.3L1477.25,169.371L1477.35,169.445L1477.45,169.521L1477.54,169.598L1477.63,169.677L1477.72,169.757L1477.81,169.839L1477.9,169.923L1477.99,170.009L1478.07,170.096L1478.15,170.185L1478.24,170.275L1478.31,170.367L1478.39,170.461L1478.46,170.556L1478.54,170.652L1478.61,170.75L1478.68,170.85L1478.75,170.95L1478.81,171.053L1478.88,171.156L1478.94,171.262L1479,171.368L1479.05,171.476L1479.11,171.585L1479.16,171.695L1479.21,171.807L1479.26,171.92L1479.31,172.034L1479.36,172.149L1479.38,172.2L1479.39,172.251L1479.4,172.303L1479.41,172.354L1479.42,172.406L1479.42,172.457L1479.43,172.509L1479.43,172.56L1479.42,172.611L1479.42,172.662L1479.41,172.712L1479.4,172.761L1479.39,172.81L1479.37,172.858L1479.36,172.906L1479.34,172.952L1479.32,172.998L1479.29,173.042L1479.27,173.085L1479.24,173.127L1479.21,173.168L1479.18,173.207L1479.14,173.245L1479.11,173.282L1479.07,173.316L1479.03,173.349L1478.99,173.38L1478.95,173.409L1478.9,173.437L1478.86,173.462L1478.81,173.485L1478.76,173.505L1478.72,173.522L1478.67,173.536L1478.62,173.548L1478.58,173.558L1478.53,173.566L1478.48,173.571L1478.44,173.575L1478.39,173.576L1478.35,173.575L1478.31,173.573L1478.27,173.569L1478.24,173.564L1478.2,173.557L1478.16,173.549L1478.12,173.54L1478.09,173.529L1478.05,173.517L1478.01,173.504L1477.98,173.489L1477.94,173.473L1477.91,173.455L1477.87,173.437L1477.84,173.417L1477.81,173.396L1477.78,173.373L1477.75,173.35L1477.72,173.325L1477.69,173.299L1477.66,173.272L1477.63,173.244L1477.61,173.214L1477.58,173.184L1477.56,173.153L1477.53,173.12L1477.51,173.086L1477.49,173.052L1477.47,173.016L1477.45,172.979L1477.44,172.942L1477.42,172.903L1477.39,172.827L1477.36,172.751L1477.33,172.677L1477.29,172.603L1477.26,172.53L1477.22,172.458L1477.18,172.387L1477.14,172.316L1477.1,172.247L1477.06,172.178L1477.02,172.111L1476.97,172.044L1476.93,171.978L1476.88,171.913L1476.83,171.849L1476.78,171.787L1476.73,171.725L1476.68,171.664L1476.63,171.604L1476.57,171.545L1476.52,171.488L1476.46,171.431L1476.4,171.376L1476.34,171.321L1476.28,171.268L1476.22,171.216L1476.16,171.165L1476.09,171.115L1476.03,171.066L1475.96,171.018L1475.9,170.972L1475.83,170.927L1475.78,170.897L1475.74,170.864L1475.7,170.83L1475.66,170.795L1475.63,170.758L1475.59,170.719L1475.56,170.679L1475.53,170.637L1475.51,170.594L1475.48,170.55L1475.46,170.505L1475.44,170.459L1475.42,170.413L1475.4,170.365L1475.39,170.317L1475.38,170.268L1475.37,170.218L1475.36,170.169L1475.35,170.118L1475.35,170.068L1475.35,170.017L1475.35,169.967L1475.36,169.916L1475.37,169.866L1475.38,169.816L1475.39,169.766L1475.4,169.716L1475.42,169.667L1475.44,169.619L1475.46,169.571L1475.49,169.524L1475.52,169.478L1475.55,169.433L1475.58,169.39L1475.61,169.35L1475.65,169.311L1475.68,169.275L1475.72,169.241L1475.76,169.208L1475.8,169.178L1475.84,169.151L1475.89,169.125L1475.93,169.102L1475.98,169.081L1476.02,169.062L1476.07,169.045L1476.12,169.031L1476.17,169.019L1476.22,169.01L1476.27,169.002L1476.31,168.998L1476.36,168.995L1476.41,168.995ZM1470.03,159.475L1470.07,159.476L1470.11,159.479L1470.15,159.482L1470.2,159.486L1470.24,159.49L1470.28,159.496L1470.32,159.502L1470.36,159.509L1470.4,159.516L1470.44,159.525L1470.48,159.534L1470.52,159.544L1470.56,159.554L1470.6,159.565L1470.64,159.577L1470.68,159.59L1470.72,159.604L1470.75,159.618L1470.79,159.633L1470.83,159.649L1470.87,159.665L1470.91,159.683L1470.95,159.704L1470.99,159.726L1471.04,159.749L1471.08,159.772L1471.12,159.797L1471.16,159.822L1471.2,159.847L1471.24,159.874L1471.27,159.901L1471.31,159.929L1471.35,159.958L1471.38,159.987L1471.42,160.017L1471.45,160.048L1471.49,160.079L1471.52,160.111L1471.55,160.144L1471.59,160.177L1471.62,160.211L1471.65,160.245L1471.68,160.28L1471.71,160.316L1471.74,160.352L1471.77,160.389L1471.8,160.427L1471.82,160.465L1471.88,160.542L1471.93,160.622L1471.98,160.704L1472.03,160.788L1472.07,160.874L1472.12,160.961L1472.16,161.051L1472.2,161.142L1472.24,161.234L1472.28,161.329L1472.31,161.424L1472.35,161.522L1472.38,161.62L1472.41,161.72L1472.44,161.821L1472.47,161.923L1472.5,162.026L1472.53,162.13L1472.55,162.235L1472.69,162.163L1472.83,162.094L1472.97,162.026L1473.12,161.96L1473.26,161.895L1473.4,161.833L1473.55,161.773L1473.69,161.714L1473.84,161.657L1473.98,161.603L1474.13,161.55L1474.28,161.499L1474.42,161.45L1474.57,161.402L1474.72,161.357L1474.87,161.314L1475.02,161.273L1475.17,161.233L1475.33,161.196L1475.48,161.16L1475.63,161.127L1475.78,161.095L1475.94,161.066L1476.09,161.038L1476.25,161.012L1476.4,160.989L1476.56,160.967L1476.71,160.948L1476.87,160.93L1477.02,160.915L1477.18,160.901L1477.34,160.89L1477.51,160.88L1477.68,160.872L1477.85,160.866L1478.02,160.863L1478.19,160.863L1478.36,160.864L1478.53,160.868L1478.69,160.875L1478.86,160.884L1479.03,160.895L1479.2,160.908L1479.36,160.924L1479.53,160.942L1479.7,160.962L1479.86,160.985L1480.03,161.01L1480.19,161.038L1480.36,161.068L1480.52,161.1L1480.69,161.134L1480.85,161.171L1481.01,161.211L1481.17,161.252L1481.34,161.296L1481.5,161.342L1481.66,161.391L1481.82,161.441L1481.98,161.495L1482.14,161.55L1482.3,161.608L1482.46,161.668L1482.62,161.73L1482.66,161.752L1482.71,161.775L1482.76,161.801L1482.8,161.828L1482.84,161.858L1482.88,161.89L1482.92,161.923L1482.96,161.958L1483,161.995L1483.03,162.033L1483.06,162.073L1483.09,162.114L1483.12,162.156L1483.14,162.2L1483.16,162.245L1483.18,162.29L1483.2,162.337L1483.22,162.385L1483.23,162.433L1483.25,162.482L1483.25,162.532L1483.26,162.582L1483.27,162.632L1483.27,162.683L1483.27,162.735L1483.27,162.786L1483.26,162.837L1483.25,162.889L1483.24,162.94L1483.23,162.991L1483.21,163.042L1483.19,163.093L1483.17,163.143L1483.15,163.191L1483.12,163.237L1483.1,163.282L1483.07,163.324L1483.04,163.365L1483,163.405L1482.97,163.442L1482.93,163.477L1482.89,163.511L1482.86,163.542L1482.82,163.572L1482.77,163.599L1482.73,163.624L1482.69,163.647L1482.64,163.668L1482.6,163.687L1482.55,163.704L1482.5,163.718L1482.45,163.73L1482.4,163.739L1482.35,163.747L1482.3,163.751L1482.25,163.754L1482.2,163.754L1482.15,163.751L1482.1,163.746L1482.05,163.738L1482,163.727L1481.95,163.714L1481.9,163.698L1481.85,163.679L1481.72,163.627L1481.59,163.578L1481.45,163.53L1481.32,163.484L1481.19,163.44L1481.06,163.398L1480.92,163.357L1480.79,163.319L1480.65,163.283L1480.52,163.248L1480.38,163.216L1480.25,163.185L1480.11,163.157L1479.98,163.13L1479.84,163.106L1479.7,163.083L1479.57,163.062L1479.43,163.043L1479.29,163.026L1479.15,163.011L1479.02,162.998L1478.88,162.987L1478.74,162.978L1478.6,162.97L1478.46,162.965L1478.32,162.962L1478.18,162.96L1478.04,162.961L1477.9,162.964L1477.76,162.968L1477.62,162.974L1477.47,162.983L1477.32,162.994L1477.17,163.007L1477.03,163.023L1476.88,163.04L1476.73,163.06L1476.58,163.082L1476.44,163.106L1476.29,163.133L1476.14,163.161L1476,163.192L1475.85,163.225L1475.71,163.26L1475.56,163.297L1475.42,163.336L1475.28,163.378L1475.14,163.421L1475,163.467L1474.86,163.515L1474.71,163.564L1474.58,163.616L1474.44,163.67L1474.3,163.726L1474.16,163.784L1474.03,163.844L1473.89,163.906L1473.76,163.97L1473.63,164.036L1473.49,164.105L1473.36,164.175L1473.23,164.247L1473.1,164.321L1472.98,164.397L1473,164.532L1473.03,164.666L1473.06,164.799L1473.09,164.93L1473.12,165.059L1473.15,165.184L1473.19,165.305L1473.22,165.423L1473.26,165.535L1473.28,165.589L1473.29,165.641L1473.31,165.692L1473.33,165.742L1473.35,165.789L1473.37,165.835L1473.39,165.879L1473.41,165.922L1473.44,165.962L1473.46,166L1473.48,166.036L1473.5,166.07L1473.53,166.101L1473.58,166.172L1473.62,166.215L1473.64,166.259L1473.67,166.304L1473.69,166.35L1473.72,166.397L1473.74,166.444L1473.75,166.493L1473.77,166.542L1473.78,166.591L1473.79,166.641L1473.8,166.691L1473.8,166.741L1473.8,166.791L1473.8,166.842L1473.8,166.892L1473.8,166.942L1473.79,166.992L1473.78,167.041L1473.77,167.09L1473.75,167.139L1473.74,167.187L1473.72,167.234L1473.7,167.28L1473.67,167.326L1473.65,167.37L1473.62,167.413L1473.59,167.455L1473.56,167.496L1473.52,167.536L1473.49,167.574L1473.45,167.61L1473.41,167.641L1473.37,167.671L1473.33,167.698L1473.29,167.723L1473.25,167.746L1473.21,167.767L1473.17,167.786L1473.12,167.803L1473.08,167.818L1473.04,167.831L1472.99,167.842L1472.95,167.851L1472.9,167.858L1472.86,167.863L1472.81,167.866L1472.77,167.867L1472.71,167.866L1472.66,167.861L1472.61,167.854L1472.55,167.844L1472.5,167.831L1472.45,167.816L1472.39,167.797L1472.34,167.776L1472.29,167.752L1472.27,167.739L1472.25,167.725L1472.22,167.711L1472.2,167.695L1472.17,167.68L1472.15,167.663L1472.13,167.646L1472.11,167.628L1472.09,167.609L1472.07,167.59L1472.04,167.57L1472.02,167.549L1472,167.528L1471.98,167.506L1471.95,167.466L1471.92,167.426L1471.89,167.386L1471.86,167.344L1471.83,167.302L1471.8,167.26L1471.77,167.216L1471.74,167.172L1471.71,167.128L1471.68,167.082L1471.66,167.037L1471.63,166.99L1471.61,166.943L1471.58,166.896L1471.53,166.799L1471.49,166.7L1471.44,166.6L1471.4,166.497L1471.36,166.392L1471.32,166.286L1471.28,166.178L1471.25,166.069L1471.21,165.958L1471.18,165.846L1471.15,165.733L1471.12,165.619L1471.09,165.503L1471.07,165.387L1471.04,165.27L1471.01,165.152L1470.99,165.034L1470.96,164.915L1470.94,164.795L1470.89,164.556L1470.85,164.315L1470.81,164.075L1470.75,163.743L1470.71,163.559L1470.68,163.368L1470.64,163.173L1470.59,162.976L1470.57,162.878L1470.55,162.781L1470.53,162.685L1470.5,162.59L1470.48,162.497L1470.45,162.407L1470.42,162.319L1470.4,162.234L1470.37,162.152L1470.34,162.074L1470.31,162.001L1470.28,161.931L1470.25,161.867L1470.24,161.837L1470.22,161.808L1470.21,161.78L1470.19,161.754L1470.18,161.73L1470.16,161.707L1470.14,161.685L1470.13,161.665L1470.11,161.647L1470.1,161.631L1470.08,161.616L1470.06,161.603L1470.05,161.592L1470.03,161.583L1470.02,161.58L1470.01,161.577L1469.99,161.572L1469.96,161.57L1469.93,161.569L1469.89,161.572L1469.84,161.578L1469.79,161.587L1469.74,161.601L1469.67,161.618L1469.61,161.641L1469.53,161.668L1469.45,161.701L1469.41,161.72L1469.37,161.74L1469.32,161.762L1469.28,161.785L1469.23,161.81L1469.18,161.837L1469.13,161.865L1469.07,161.895L1469.03,161.921L1468.98,161.944L1468.93,161.964L1468.88,161.982L1468.83,161.997L1468.78,162.009L1468.73,162.019L1468.68,162.026L1468.63,162.031L1468.58,162.033L1468.53,162.033L1468.48,162.03L1468.43,162.025L1468.38,162.018L1468.34,162.008L1468.29,161.996L1468.24,161.982L1468.19,161.965L1468.15,161.946L1468.1,161.925L1468.06,161.901L1468.01,161.875L1467.97,161.848L1467.93,161.818L1467.89,161.785L1467.85,161.751L1467.82,161.715L1467.78,161.677L1467.75,161.636L1467.72,161.594L1467.69,161.55L1467.66,161.504L1467.63,161.456L1467.61,161.408L1467.59,161.359L1467.57,161.309L1467.56,161.26L1467.55,161.209L1467.54,161.159L1467.53,161.108L1467.53,161.057L1467.52,161.007L1467.52,160.956L1467.53,160.905L1467.53,160.855L1467.54,160.805L1467.55,160.756L1467.56,160.707L1467.58,160.659L1467.59,160.612L1467.61,160.565L1467.63,160.519L1467.65,160.474L1467.68,160.431L1467.71,160.388L1467.74,160.347L1467.77,160.307L1467.8,160.269L1467.84,160.232L1467.88,160.196L1467.92,160.163L1467.96,160.131L1468,160.101L1468.05,160.073L1468.15,160.015L1468.25,159.96L1468.35,159.908L1468.45,159.859L1468.55,159.812L1468.65,159.769L1468.75,159.729L1468.85,159.691L1468.94,159.657L1469.04,159.625L1469.13,159.597L1469.23,159.571L1469.32,159.549L1469.41,159.529L1469.5,159.513L1469.59,159.499L1469.68,159.488L1469.77,159.48L1469.86,159.475L1469.94,159.474L1470.03,159.475ZM1478.03,164.837L1478.15,164.839L1478.27,164.844L1478.39,164.851L1478.51,164.861L1478.63,164.873L1478.75,164.887L1478.87,164.904L1478.99,164.924L1479.11,164.945L1479.22,164.969L1479.34,164.996L1479.46,165.025L1479.58,165.056L1479.69,165.09L1479.81,165.126L1479.92,165.164L1480.04,165.205L1480.15,165.248L1480.27,165.294L1480.38,165.342L1480.43,165.364L1480.48,165.389L1480.52,165.416L1480.57,165.445L1480.61,165.475L1480.65,165.508L1480.68,165.542L1480.72,165.578L1480.75,165.616L1480.79,165.655L1480.82,165.696L1480.84,165.738L1480.87,165.781L1480.89,165.825L1480.92,165.87L1480.93,165.916L1480.95,165.964L1480.97,166.012L1480.98,166.06L1480.99,166.11L1481,166.16L1481.01,166.21L1481.01,166.261L1481.01,166.312L1481.01,166.363L1481,166.414L1481,166.465L1480.99,166.517L1480.98,166.568L1480.96,166.619L1480.94,166.669L1480.92,166.719L1480.91,166.756L1480.89,166.792L1480.87,166.827L1480.85,166.861L1480.83,166.894L1480.81,166.925L1480.79,166.956L1480.76,166.986L1480.74,167.015L1480.71,167.043L1480.68,167.069L1480.66,167.095L1480.63,167.119L1480.6,167.143L1480.57,167.165L1480.54,167.186L1480.51,167.206L1480.47,167.224L1480.44,167.242L1480.41,167.258L1480.37,167.273L1480.34,167.287L1480.3,167.3L1480.27,167.311L1480.23,167.321L1480.19,167.33L1480.16,167.337L1480.12,167.344L1480.09,167.348L1480.05,167.352L1480.01,167.354L1479.97,167.355L1479.92,167.353L1479.87,167.349L1479.82,167.343L1479.77,167.334L1479.72,167.322L1479.66,167.307L1479.61,167.29L1479.56,167.269L1479.49,167.238L1479.41,167.207L1479.34,167.179L1479.26,167.152L1479.18,167.126L1479.11,167.102L1479.03,167.08L1478.95,167.059L1478.88,167.04L1478.8,167.023L1478.72,167.007L1478.64,166.992L1478.56,166.98L1478.48,166.968L1478.4,166.959L1478.33,166.951L1478.25,166.944L1478.17,166.94L1478.09,166.936L1478.01,166.935L1477.93,166.935L1477.85,166.936L1477.77,166.939L1477.69,166.944L1477.61,166.951L1477.53,166.959L1477.45,166.968L1477.37,166.98L1477.29,166.992L1477.21,167.007L1477.13,167.023L1477.05,167.041L1477,167.052L1476.95,167.06L1476.9,167.065L1476.84,167.068L1476.79,167.068L1476.74,167.065L1476.69,167.06L1476.64,167.053L1476.59,167.043L1476.54,167.03L1476.5,167.015L1476.45,166.998L1476.4,166.979L1476.36,166.958L1476.31,166.934L1476.27,166.909L1476.23,166.881L1476.19,166.851L1476.15,166.82L1476.11,166.786L1476.08,166.751L1476.04,166.714L1476.01,166.675L1475.98,166.634L1475.95,166.592L1475.92,166.548L1475.9,166.503L1475.88,166.456L1475.86,166.408L1475.84,166.358L1475.82,166.307L1475.81,166.255L1475.8,166.202L1475.79,166.149L1475.79,166.097L1475.78,166.044L1475.78,165.992L1475.79,165.941L1475.79,165.889L1475.8,165.839L1475.81,165.789L1475.82,165.739L1475.83,165.691L1475.85,165.643L1475.87,165.597L1475.89,165.551L1475.91,165.506L1475.94,165.463L1475.97,165.421L1476,165.38L1476.03,165.341L1476.06,165.303L1476.1,165.267L1476.13,165.233L1476.17,165.2L1476.21,165.169L1476.25,165.14L1476.3,165.113L1476.34,165.088L1476.39,165.065L1476.43,165.044L1476.48,165.026L1476.53,165.01L1476.59,164.997L1476.7,164.97L1476.83,164.946L1476.94,164.924L1477.07,164.904L1477.19,164.887L1477.31,164.873L1477.43,164.861L1477.55,164.851L1477.67,164.844L1477.79,164.839L1477.91,164.837L1478.03,164.837Z" style="fill:rgb(185,185,185);"/>
    </g>
</svg>
