<?xml version="1.0" standalone="no"?>
<!DOCTYPE svg PUBLIC "-//W3C//DTD SVG 1.1//EN" "http://www.w3.org/Graphics/SVG/1.1/DTD/svg11.dtd">
<svg width="100%" height="100%" viewBox="0 0 28 30" version="1.1" xmlns="http://www.w3.org/2000/svg" xmlns:xlink="http://www.w3.org/1999/xlink" xml:space="preserve" style="fill-rule:evenodd;clip-rule:evenodd;stroke-linejoin:round;stroke-miterlimit:1.41421;">
    <g transform="matrix(1,0,0,1,-217,-290)">
        <path id="Forma 1 copy 19" d="M222.063,319C221.385,319 220.833,318.445 220.833,317.761L220.833,314.803C218.586,314.167 217,312.094 217,309.708L217,301.419C217,298.497 219.354,296.119 222.247,296.119L234.336,296.119C237.23,296.119 239.582,298.497 239.582,301.419L239.582,309.708C239.582,312.63 237.228,315.008 234.336,315.008L226.851,315.008L222.885,318.675C222.658,318.884 222.366,319 222.063,319ZM222.247,297.251C219.972,297.251 218.122,299.12 218.122,301.418L218.122,309.706C218.122,311.708 219.542,313.427 221.497,313.795L221.955,313.882L221.955,317.76C221.955,317.861 222.061,317.865 222.063,317.865C222.086,317.865 222.106,317.856 222.128,317.838L226.416,313.874L234.337,313.874C236.611,313.874 238.462,312.005 238.462,309.706L238.462,301.418C238.462,299.121 236.611,297.251 234.337,297.251C234.337,297.251 222.247,297.251 222.247,297.251ZM234.695,309.883L221.698,309.883C221.3,309.883 220.973,309.553 220.973,309.151C220.973,308.749 221.3,308.419 221.698,308.419L234.694,308.419C235.092,308.419 235.419,308.749 235.419,309.151C235.419,309.553 235.094,309.883 234.695,309.883ZM239.754,290C242.647,290.001 245.001,292.378 245,295.301L245,303.589C245,306.259 243.031,308.451 240.486,308.815C240.493,308.708 240.517,308.606 240.517,308.498L240.517,307.678C242.427,307.314 243.878,305.622 243.878,303.589L243.878,295.301C243.878,293.002 242.027,291.133 239.753,291.133L227.664,291.133C225.522,291.133 223.777,292.797 223.579,294.91L223.181,294.91C222.93,294.91 222.69,294.95 222.449,294.984C222.615,292.212 224.877,290 227.664,290L239.754,290ZM234.695,306.612L221.698,306.612C221.3,306.612 220.973,306.283 220.973,305.88C220.973,305.478 221.3,305.148 221.698,305.148L234.694,305.148C235.092,305.148 235.419,305.478 235.419,305.88C235.419,306.283 235.094,306.612 234.695,306.612ZM234.695,303.022L221.698,303.022C221.3,303.022 220.973,302.692 220.973,302.29C220.973,301.888 221.3,301.558 221.698,301.558L234.694,301.558C235.092,301.558 235.419,301.888 235.419,302.29C235.419,302.693 235.094,303.021 234.695,303.022Z" style="fill:rgb(96,199,146);"/>
    </g>
</svg>
